<?xml version="1.0" encoding="UTF-8" standalone="no"?>
<svg
   viewBox="0 0 270.72 82.76"
   version="1.1"
   id="svg21"
   sodipodi:docname="header_logo_new.svg"
   inkscape:version="1.4.3 (0d15f75042, 2025-12-25)"
   xmlns:inkscape="http://www.inkscape.org/namespaces/inkscape"
   xmlns:sodipodi="http://sodipodi.sourceforge.net/DTD/sodipodi-0.dtd"
   xmlns="http://www.w3.org/2000/svg"
   xmlns:svg="http://www.w3.org/2000/svg">
  <sodipodi:namedview
     id="namedview21"
     pagecolor="#ffffff"
     bordercolor="#000000"
     borderopacity="0.25"
     inkscape:showpageshadow="2"
     inkscape:pageopacity="0.0"
     inkscape:pagecheckerboard="0"
     inkscape:deskcolor="#d1d1d1"
     showguides="false"
     inkscape:zoom="4.3710666"
     inkscape:cx="25.39426"
     inkscape:cy="55.249674"
     inkscape:window-width="1920"
     inkscape:window-height="1052"
     inkscape:window-x="0"
     inkscape:window-y="0"
     inkscape:window-maximized="1"
     inkscape:current-layer="svg21" />
  <defs
     id="defs1">
    <style
       id="style1">.cls-1{fill:#0e9da0;}</style>
  </defs>
  <path
     d="m 48.76,68.71 a 2.08,2.08 0 1 0 0,-4.15 2.08,2.08 0 0 0 0,4.15"
     id="path1"
     style="fill:#0e9da0;fill-opacity:1;stroke:#0e9da0;stroke-opacity:0.46082184" />
  <path
     class="cls-1"
     d="m 98,24.31 a 17.57,17.57 0 0 0 18,17.9 16.94,16.94 0 0 0 14.84,-8.28 l -4.93,-2.82 A 11,11 0 0 1 116,36.69 c -7.45,0 -12.38,-5.28 -12.38,-12.38 0,-7.1 4.96,-12.38 12.38,-12.38 a 11,11 0 0 1 9.91,5.57 l 4.93,-2.86 A 17,17 0 0 0 116,6.4 17.57,17.57 0 0 0 98,24.31 m 59.09,-7.82 v 24.66 h -5.23 V 25.89 l -11.61,15.26 h -4.51 V 16.49 H 141 v 16.05 l 12,-16 z M 184,28.82 a 7.79,7.79 0 1 0 -15.58,0 7.79,7.79 0 1 0 15.58,0 m 5.33,0 c 0,7.36 -5.57,13 -12.28,13 a 10.23,10.23 0 0 1 -8.63,-4.15 V 51 h -5.33 V 16.49 h 3.61 l 1.72,3.56 a 10.14,10.14 0 0 1 8.63,-4.2 c 6.71,0 12.28,5.67 12.28,13 m 26,-12.33 V 41.15 H 210.1 V 25.89 L 198.54,41.15 H 194 V 16.49 h 5.23 v 16.05 l 12,-16 z m 29.35,0 -9.46,25.45 c -2.32,6.27 -6.61,9.42 -12,9.08 V 46 c 3.45,0.19 5.33,-1.43 6.56,-4.74 l 0.15,-0.34 -10.37,-24.43 h 5.67 l 7.5,18 6.31,-18 z m 1.89,12.33 a 12.73,12.73 0 0 1 13,-13 12.19,12.19 0 0 1 11,6.37 L 266,24.88 a 6.88,6.88 0 0 0 -6.46,-3.8 7.52,7.52 0 0 0 -7.64,7.74 7.52,7.52 0 0 0 7.64,7.75 7.23,7.23 0 0 0 6.56,-3.8 l 4.59,2.61 a 12.41,12.41 0 0 1 -11.1,6.42 12.75,12.75 0 0 1 -13,-13"
     id="path2" />
  <polygon
     class="cls-1"
     points="101.26,58.31 101.26,62.54 99.66,62.54 99.66,52.77 101.26,52.77 101.26,56.77 105.45,56.77 105.45,52.77 107.06,52.77 107.06,62.54 105.45,62.54 105.45,58.31 "
     id="polygon2" />
  <path
     class="cls-1"
     d="m 114.58,59.05 a 2.21,2.21 0 1 0 -2.21,2.23 2.16,2.16 0 0 0 2.21,-2.23 m 1.5,-3.49 v 7 h -1.5 v -1 a 2.88,2.88 0 0 1 -2.44,1.19 3.68,3.68 0 0 1 0,-7.35 2.89,2.89 0 0 1 2.44,1.18 v -1 z"
     id="path3" />
  <path
     class="cls-1"
     d="m 124.29,55.56 -2.68,7.2 c -0.66,1.77 -1.87,2.66 -3.41,2.57 v -1.42 a 1.71,1.71 0 0 0 1.86,-1.33 v -0.1 l -2.93,-6.92 h 1.6 l 2.13,5.08 1.78,-5.08 z"
     id="path4" />
  <path
     class="cls-1"
     d="m 131.13,55.56 v 7 h -1.51 v -2.38 a 5.2,5.2 0 0 1 -1.76,0.3 c -1.69,0 -2.8,-0.82 -2.8,-2.52 v -2.4 h 1.5 v 2.26 c 0,1 0.6,1.25 1.5,1.25 a 3.72,3.72 0 0 0 1.56,-0.32 v -3.19 z"
     id="path5" />
  <polygon
     class="cls-1"
     points="134.53,59.76 134.53,62.54 133.02,62.54 133.02,55.56 134.53,55.56 134.53,58.33 137.73,58.33 137.73,55.56 139.23,55.56 139.23,62.54 137.73,62.54 137.73,59.76 "
     id="polygon5" />
  <path
     class="cls-1"
     d="m 146.59,59.05 a 2.18,2.18 0 1 0 -2.18,2.2 2.15,2.15 0 0 0 2.18,-2.2 m -5.87,0 a 3.69,3.69 0 1 1 3.69,3.67 3.65,3.65 0 0 1 -3.69,-3.67"
     id="path6" />
  <rect
     class="cls-1"
     x="149.7"
     y="57.57"
     width="5.1599998"
     height="1.45"
     id="rect6" />
  <polygon
     class="cls-1"
     points="157.99,57.01 155.7,57.01 155.7,55.56 161.77,55.56 161.77,57.01 159.5,57.01 159.5,62.53 157.99,62.53 "
     id="polygon6" />
  <path
     class="cls-1"
     d="m 167.92,58.46 a 1.94,1.94 0 0 0 -2,-1.72 2,2 0 0 0 -2.11,1.72 z m -1.86,2.88 a 2.15,2.15 0 0 0 1.81,-0.87 l 1.24,0.73 a 3.52,3.52 0 0 1 -3.06,1.52 3.6704121,3.6704121 0 1 1 -0.11,-7.34 3.51,3.51 0 0 1 3.5,3.68 4.34,4.34 0 0 1 -0.05,0.63 h -5.56 a 2.1,2.1 0 0 0 2.23,1.65"
     id="path7" />
  <polygon
     class="cls-1"
     points="172.44,58.95 169.96,55.56 171.7,55.56 173.31,57.76 174.91,55.56 176.67,55.56 174.19,58.96 176.8,62.53 175.05,62.53 173.32,60.15 171.57,62.53 169.82,62.53 "
     id="polygon7" />
  <polygon
     class="cls-1"
     points="179.46,59.76 179.46,62.54 177.95,62.54 177.95,55.56 179.46,55.56 179.46,58.33 182.66,58.33 182.66,55.56 184.16,55.56 184.16,62.54 182.66,62.54 182.66,59.76 "
     id="polygon8" />
  <path
     class="cls-1"
     d="m 191.52,59.05 a 2.18,2.18 0 1 0 -2.18,2.2 2.15,2.15 0 0 0 2.18,-2.2 m -5.86,0 a 3.68,3.68 0 1 1 3.68,3.67 3.64,3.64 0 0 1 -3.68,-3.67"
     id="path8" />
  <path
     class="cls-1"
     d="M 200.21,62.54 H 198.7 V 57 h -2.33 v 2.6 c 0,2.29 -1.07,3.1 -2.79,2.94 v -1.41 c 0.82,0.13 1.28,-0.28 1.28,-1.6 v -4 h 5.35 z"
     id="path9" />
  <path
     class="cls-1"
     d="m 207.58,59.05 a 2.18,2.18 0 1 0 -2.18,2.2 2.15,2.15 0 0 0 2.18,-2.2 m -5.86,0 a 3.69,3.69 0 1 1 3.68,3.67 3.64,3.64 0 0 1 -3.68,-3.67"
     id="path10" />
  <polygon
     class="cls-1"
     points="210.59,55.56 215.27,55.56 215.27,57.01 212.1,57.01 212.1,62.53 210.59,62.53 "
     id="polygon10" />
  <polygon
     class="cls-1"
     points="217.58,62.54 216.42,62.54 216.42,55.56 217.91,55.56 217.91,59.98 221.48,55.56 222.63,55.56 222.63,62.54 221.16,62.54 221.16,58.1 "
     id="polygon11" />
  <path
     class="cls-1"
     d="m 230.27,55.56 v 7 h -1.51 v -2.38 a 5.2,5.2 0 0 1 -1.76,0.3 c -1.69,0 -2.8,-0.82 -2.8,-2.52 v -2.4 h 1.5 v 2.26 c 0,1 0.6,1.25 1.5,1.25 a 3.72,3.72 0 0 0 1.56,-0.32 v -3.19 z"
     id="path11" />
  <path
     class="cls-1"
     d="m 237.44,58.46 a 2,2 0 0 0 -2,-1.72 2,2 0 0 0 -2.11,1.72 z m -1.86,2.88 a 2.12,2.12 0 0 0 1.8,-0.87 l 1.24,0.73 a 3.51,3.51 0 0 1 -3.05,1.52 3.6704121,3.6704121 0 1 1 -0.11,-7.34 3.51,3.51 0 0 1 3.5,3.68 4.34,4.34 0 0 1 -0.06,0.63 h -5.55 a 2.1,2.1 0 0 0 2.23,1.65"
     id="path12" />
  <path
     class="cls-1"
     d="m 240,59.05 a 3.6,3.6 0 0 1 3.69,-3.67 3.45,3.45 0 0 1 3.11,1.8 l -1.3,0.75 a 2,2 0 0 0 -1.83,-1.07 2.19,2.19 0 0 0 0,4.38 2.07,2.07 0 0 0 1.86,-1.08 l 1.3,0.74 a 3.51,3.51 0 0 1 -3.14,1.82 3.61,3.61 0 0 1 -3.69,-3.67"
     id="path13" />
  <polygon
     class="cls-1"
     points="248.09,55.56 249.59,55.56 249.59,58.64 252.3,55.56 254.14,55.56 251.07,58.97 254.25,62.53 252.45,62.53 249.59,59.31 249.59,62.53 248.09,62.53 "
     id="polygon13" />
  <polygon
     class="cls-1"
     points="256.57,62.54 255.41,62.54 255.41,55.56 256.89,55.56 256.89,59.98 260.46,55.56 261.62,55.56 261.62,62.54 260.14,62.54 260.14,58.1 "
     id="polygon14" />
  <path
     class="cls-1"
     d="m 264.65,53.27 h 3.9 v 1.31 h -3.9 z m 5.06,2.29 v 7 h -1.48 V 58.1 l -3.57,4.44 h -1.16 v -7 H 265 V 60 l 3.58,-4.42 z"
     id="path14" />
  <path
     class="cls-1"
     d="m 105.87,68.91 -2.68,7.2 c -0.66,1.77 -1.87,2.66 -3.41,2.57 v -1.41 a 1.72,1.72 0 0 0 1.86,-1.34 v -0.1 l -2.93,-6.92 h 1.61 l 2.16,5.09 1.79,-5.08 z"
     id="path15" />
  <polygon
     class="cls-1"
     points="108.46,73.11 108.46,75.89 106.96,75.89 106.96,68.91 108.46,68.91 108.46,71.68 111.66,71.68 111.66,68.91 113.17,68.91 113.17,75.89 111.66,75.89 111.66,73.11 "
     id="polygon15" />
  <polygon
     class="cls-1"
     points="116.21,75.89 115.05,75.89 115.05,68.91 116.53,68.91 116.53,73.33 120.1,68.91 121.26,68.91 121.26,75.89 119.78,75.89 119.78,71.45 "
     id="polygon16" />
  <path
     class="cls-1"
     d="m 127.53,73.75 c 0,-0.49 -0.35,-0.77 -1,-0.77 h -2 v 1.59 h 2 c 0.61,0 1,-0.29 1,-0.82 m -3,-3.56 v 1.55 h 1.74 c 0.6,0 0.93,-0.27 0.93,-0.78 0,-0.51 -0.34,-0.77 -0.93,-0.77 z M 129,73.9 c 0,1.12 -0.76,2 -2.28,2 h -3.58 v -7 h 3.3 c 1.48,0 2.26,0.82 2.26,1.92 a 1.66,1.66 0 0 1 -0.7,1.48 1.67,1.67 0 0 1 1,1.6"
     id="path16" />
  <path
     class="cls-1"
     d="m 135.65,71.81 a 2,2 0 0 0 -2,-1.72 2,2 0 0 0 -2.11,1.72 z m -1.86,2.87 a 2.11,2.11 0 0 0 1.8,-0.86 l 1.24,0.72 a 3.5,3.5 0 0 1 -3.05,1.53 3.6704904,3.6704904 0 1 1 -0.12,-7.34 3.52,3.52 0 0 1 3.51,3.68 4.34,4.34 0 0 1 -0.06,0.63 h -5.55 a 2.08,2.08 0 0 0 2.23,1.64"
     id="path17" />
  <path
     class="cls-1"
     d="m 144.55,72.4 a 2.21,2.21 0 1 0 -2.21,2.23 2.16,2.16 0 0 0 2.21,-2.23 m 1.51,0 a 3.56,3.56 0 0 1 -3.48,3.67 2.88,2.88 0 0 1 -2.44,-1.18 v 3.79 h -1.51 v -9.77 h 1.51 v 1 a 2.86,2.86 0 0 1 2.44,-1.18 3.57,3.57 0 0 1 3.48,3.67"
     id="path18" />
  <path
     class="cls-1"
     d="m 147.17,72.4 a 3.6,3.6 0 0 1 3.69,-3.67 3.45,3.45 0 0 1 3.11,1.8 l -1.3,0.75 a 2,2 0 0 0 -1.83,-1.08 2.2,2.2 0 0 0 0,4.39 2.07,2.07 0 0 0 1.86,-1.08 l 1.3,0.74 a 3.53,3.53 0 0 1 -3.14,1.82 3.61,3.61 0 0 1 -3.69,-3.67"
     id="path19" />
  <polygon
     class="cls-1"
     points="156.42,75.89 155.27,75.89 155.27,68.91 156.75,68.91 156.75,73.33 160.32,68.91 161.47,68.91 161.47,75.89 160,75.89 160,71.45 "
     id="polygon19" />
  <polygon
     class="cls-1"
     points="164.91,70.36 162.62,70.36 162.62,68.91 168.69,68.91 168.69,70.36 166.42,70.36 166.42,75.88 164.91,75.88 "
     id="polygon20" />
  <path
     class="cls-1"
     d="m 174.84,71.81 a 1.94,1.94 0 0 0 -2,-1.72 2,2 0 0 0 -2.11,1.72 z M 173,74.68 a 2.14,2.14 0 0 0 1.8,-0.86 l 1.24,0.72 a 3.51,3.51 0 0 1 -3.04,1.53 3.6704121,3.6704121 0 1 1 -0.11,-7.34 3.51,3.51 0 0 1 3.5,3.68 4.34,4.34 0 0 1 -0.05,0.63 h -5.56 a 2.1,2.1 0 0 0 2.22,1.64"
     id="path20" />
  <polygon
     class="cls-1"
     points="179.1,70.36 176.81,70.36 176.81,68.91 182.88,68.91 182.88,70.36 180.61,70.36 180.61,75.88 179.1,75.88 "
     id="polygon21" />
  <circle
     style="fill:#0e9da0;fill-opacity:1;stroke:#0e9da0;stroke-width:0.852522;stroke-miterlimit:3;stroke-dasharray:none;stroke-opacity:0.46082184"
     id="path51"
     cx="65.990913"
     cy="48.925537"
     r="2.23507" />
  <circle
     style="fill:#0e9da0;fill-opacity:1;stroke:#0e9da0;stroke-width:0.852522;stroke-miterlimit:3;stroke-dasharray:none;stroke-opacity:0.46082184"
     id="circle51"
     cx="48.841652"
     cy="53.485458"
     r="2.23507" />
  <circle
     style="fill:#0e9da0;fill-opacity:1;stroke:#0e9da0;stroke-width:1.00336;stroke-miterlimit:3;stroke-dasharray:none;stroke-opacity:0.46082184"
     id="circle52"
     cx="36.227524"
     cy="53.658932"
     r="2.6305141" />
  <circle
     style="fill:#0e9da0;fill-opacity:1;stroke:#0e9da0;stroke-width:1.00336;stroke-miterlimit:3;stroke-dasharray:none;stroke-opacity:0.46082184"
     id="circle53"
     cx="25.075546"
     cy="60.151859"
     r="2.6305141" />
  <circle
     style="fill:#0e9da0;fill-opacity:1;stroke:#0e9da0;stroke-width:1.00336;stroke-miterlimit:3;stroke-dasharray:none;stroke-opacity:0.46082184"
     id="circle54"
     cx="22.894714"
     cy="75.120293"
     r="2.6305141" />
  <circle
     style="fill:#0e9da0;fill-opacity:1;stroke:#0e9da0;stroke-width:0.833728;stroke-miterlimit:3;stroke-dasharray:none;stroke-opacity:0.46082184"
     id="circle55"
     cx="35.577915"
     cy="66.698875"
     r="2.1857901" />
  <circle
     style="fill:#0e9da0;fill-opacity:1;stroke:#0e9da0;stroke-width:0.67785;stroke-miterlimit:3;stroke-dasharray:none;stroke-opacity:0.46082184"
     id="circle57"
     cx="59.765015"
     cy="60.144028"
     r="1.7771245" />
  <circle
     style="fill:#0e9da0;fill-opacity:1;stroke:#0e9da0;stroke-width:0.847482;stroke-miterlimit:3;stroke-dasharray:none;stroke-opacity:0.46082184"
     id="circle58"
     cx="74.72094"
     cy="61.389164"
     r="2.2218487" />
  <circle
     style="fill:#0e9da0;fill-opacity:1;stroke:#0e9da0;stroke-width:0.67785;stroke-miterlimit:3;stroke-dasharray:none;stroke-opacity:0.46082184"
     id="circle59"
     cx="60.652351"
     cy="74.942528"
     r="1.7771245" />
  <circle
     style="fill:#0e9da0;fill-opacity:1;stroke:#0e9da0;stroke-width:0.842897;stroke-miterlimit:3;stroke-dasharray:none;stroke-opacity:0.46082184"
     id="circle60"
     cx="42.247257"
     cy="80.152054"
     r="2.2098291" />
  <circle
     style="fill:#0e9da0;fill-opacity:1;stroke:#0e9da0;stroke-width:1.19739;stroke-miterlimit:3;stroke-dasharray:none;stroke-opacity:0.46082184"
     id="circle61"
     cx="9.6022902"
     cy="61.381641"
     r="3.1392121" />
  <circle
     style="fill:#0e9da0;fill-opacity:1;stroke:#0e9da0;stroke-width:1.19739;stroke-miterlimit:3;stroke-dasharray:none;stroke-opacity:0.46082184"
     id="circle62"
     cx="18.155716"
     cy="48.863537"
     r="3.1392121" />
  <circle
     style="fill:#0e9da0;fill-opacity:1;stroke:#0e9da0;stroke-width:1.19739;stroke-miterlimit:3;stroke-dasharray:none;stroke-opacity:0.46082184"
     id="circle63"
     cx="29.645939"
     cy="42.549419"
     r="3.1392121" />
  <circle
     style="fill:#0e9da0;fill-opacity:1;stroke:#0e9da0;stroke-width:1.19739;stroke-miterlimit:3;stroke-dasharray:none;stroke-opacity:0.46082184"
     id="circle64"
     cx="42.164043"
     cy="42.586128"
     r="3.1392121" />
  <circle
     style="fill:#0e9da0;fill-opacity:1;stroke:#0e9da0;stroke-width:0.985718;stroke-miterlimit:3;stroke-dasharray:none;stroke-opacity:0.46082184"
     id="circle65"
     cx="55.159378"
     cy="42.439289"
     r="2.5842686" />
  <circle
     style="fill:#0e9da0;fill-opacity:1;stroke:#0e9da0;stroke-width:0.985718;stroke-miterlimit:3;stroke-dasharray:none;stroke-opacity:0.46082184"
     id="circle66"
     cx="66.466049"
     cy="35.904911"
     r="2.5842686" />
  <circle
     style="fill:#0e9da0;fill-opacity:1;stroke:#0e9da0;stroke-width:1.15863;stroke-miterlimit:3;stroke-dasharray:none;stroke-opacity:0.46082184"
     id="circle67"
     cx="75.567986"
     cy="23.6387"
     r="3.0375993" />
  <circle
     style="fill:#0e9da0;fill-opacity:1;stroke:#0e9da0;stroke-width:1.15863;stroke-miterlimit:3;stroke-dasharray:none;stroke-opacity:0.46082184"
     id="circle68"
     cx="60.45393"
     cy="24.867184"
     r="3.0375993" />
  <circle
     style="fill:#0e9da0;fill-opacity:1;stroke:#0e9da0;stroke-width:1.15863;stroke-miterlimit:3;stroke-dasharray:none;stroke-opacity:0.46082184"
     id="circle69"
     cx="48.80196"
     cy="31.493544"
     r="3.0375993" />
  <circle
     style="fill:#0e9da0;fill-opacity:1;stroke:#0e9da0;stroke-width:1.34943;stroke-miterlimit:3;stroke-dasharray:none;stroke-opacity:0.46082184"
     id="circle70"
     cx="36.144867"
     cy="31.567999"
     r="3.5378265" />
  <circle
     style="fill:#0e9da0;fill-opacity:1;stroke:#0e9da0;stroke-width:1.34943;stroke-miterlimit:3;stroke-dasharray:none;stroke-opacity:0.46082184"
     id="circle71"
     cx="18.164352"
     cy="36.035206"
     r="3.5378265" />
  <circle
     style="fill:#0e9da0;fill-opacity:1;stroke:#0e9da0;stroke-width:1.34943;stroke-miterlimit:3;stroke-dasharray:none;stroke-opacity:0.46082184"
     id="circle72"
     cx="4.4500632"
     cy="42.681793"
     r="3.5378265"
     inkscape:label="circle72" />
  <circle
     style="fill:#0e9da0;fill-opacity:1;stroke:#0e9da0;stroke-width:1.51042;stroke-miterlimit:3;stroke-dasharray:none;stroke-opacity:0.46082184"
     id="circle73"
     cx="8.8390541"
     cy="23.73177"
     r="3.9598932" />
  <circle
     style="fill:#0e9da0;fill-opacity:1;stroke:#0e9da0;stroke-width:1.51042;stroke-miterlimit:3;stroke-dasharray:none;stroke-opacity:0.46082184"
     id="circle74"
     cx="24.362604"
     cy="25.071932"
     r="3.9598932" />
  <circle
     style="fill:#0e9da0;fill-opacity:1;stroke:#0e9da0;stroke-width:1.51042;stroke-miterlimit:3;stroke-dasharray:none;stroke-opacity:0.46082184"
     id="circle75"
     cx="35.791214"
     cy="18.70616"
     r="3.9598932" />
  <circle
     style="fill:#0e9da0;fill-opacity:1;stroke:#0e9da0;stroke-width:1.33751;stroke-miterlimit:3;stroke-dasharray:none;stroke-opacity:0.46082184"
     id="circle76"
     cx="48.783344"
     cy="18.65032"
     r="3.5065625" />
  <circle
     style="fill:#0e9da0;fill-opacity:1;stroke:#0e9da0;stroke-width:1.33751;stroke-miterlimit:3;stroke-dasharray:none;stroke-opacity:0.46082184"
     id="circle77"
     cx="60.807579"
     cy="10.050943"
     r="3.5065625" />
  <circle
     style="fill:#0e9da0;fill-opacity:1;stroke:#0e9da0;stroke-width:1.50446;stroke-miterlimit:3;stroke-dasharray:none;stroke-opacity:0.46082184"
     id="circle78"
     cx="42.454796"
     cy="4.6530666"
     r="3.9442611" />
  <circle
     style="fill:#0e9da0;fill-opacity:1;stroke:#0e9da0;stroke-width:1.8324;stroke-miterlimit:3;stroke-dasharray:none;stroke-opacity:0.46082184"
     id="circle79"
     cx="22.836306"
     cy="10.069556"
     r="4.8040261" />
  <circle
     style="fill:#0e9da0;fill-opacity:1;stroke:#0e9da0;stroke-width:0.985718;stroke-miterlimit:3;stroke-dasharray:none;stroke-opacity:0.46082184"
     id="circle80"
     cx="66.466049"
     cy="35.904911"
     r="2.5842686" />
  <circle
     style="fill:#0e9da0;fill-opacity:1;stroke:#0e9da0;stroke-width:0.985718;stroke-miterlimit:3;stroke-dasharray:none;stroke-opacity:0.46082184"
     id="circle81"
     cx="79.396736"
     cy="42.651356"
     r="2.5842686" />
</svg>
