<svg xmlns="http://www.w3.org/2000/svg" viewBox="0 0 270.72 82.76"><defs><style>.cls-1{fill:#0e9da0;}</style></defs><g id="Слой_2" data-name="Слой 2"><g id="Слой_1-2" data-name="Слой 1"><path class="cls-1" d="M48.76,68.71a2.08,2.08,0,1,0,0-4.15,2.08,2.08,0,0,0,0,4.15m10.87-6.55a2.08,2.08,0,1,0,0-4.15,2.08,2.08,0,0,0,0,4.15M66,51.49a2.6,2.6,0,1,0,0-5.2,2.6,2.6,0,0,0,0,5.2M66.15,39a3.12,3.12,0,1,0,0-6.23,3.12,3.12,0,0,0,0,6.23M60.5,28.58a3.64,3.64,0,1,0,0-7.28,3.64,3.64,0,0,0,0,7.28M48.74,22.85a4.16,4.16,0,1,0,0-8.32,4.16,4.16,0,0,0,0,8.32m-13.09.51a4.68,4.68,0,1,0,0-9.35,4.68,4.68,0,0,0,0,9.35M24.16,29.68a4.68,4.68,0,1,0,0-9.35,4.68,4.68,0,0,0,0,9.35m-6,10.42a4.16,4.16,0,1,0,0-8.32,4.16,4.16,0,0,0,0,8.32m0,12.43a3.64,3.64,0,1,0,0-7.28,3.64,3.64,0,0,0,0,7.28M24.92,63.2a3.12,3.12,0,1,0,0-6.23,3.12,3.12,0,0,0,0,6.23m10.68,6a2.6,2.6,0,1,0,0-5.2,2.6,2.6,0,0,0,0,5.2m.52-12.52a3.12,3.12,0,1,0,0-6.23,3.12,3.12,0,0,0,0,6.23M29.76,46.18a3.64,3.64,0,1,0,0-7.28,3.64,3.64,0,0,0,0,7.28m12.45,0a3.64,3.64,0,1,0,0-7.28,3.64,3.64,0,0,0,0,7.28M36,35.69a4.16,4.16,0,1,0,0-8.31,4.16,4.16,0,0,0,0,8.31m12.72-.52a3.64,3.64,0,1,0,0-7.28,3.64,3.64,0,0,0,0,7.28m6.35,10.49a3.12,3.12,0,1,0,0-6.23,3.12,3.12,0,0,0,0,6.23M48.72,56.07a2.6,2.6,0,1,0,0-5.19,2.6,2.6,0,0,0,0,5.19M22.82,78.22a3.12,3.12,0,1,0,0-6.23,3.12,3.12,0,0,0,0,6.23M9.39,65a3.64,3.64,0,1,0,0-7.27,3.64,3.64,0,0,0,0,7.27M4.13,46.75a4.16,4.16,0,1,0,0-8.31,4.16,4.16,0,0,0,0,8.31M8.79,28.39a4.68,4.68,0,1,0,0-9.35,4.68,4.68,0,0,0,0,9.35m14-12.61a5.72,5.72,0,1,0,0-11.43,5.64,5.64,0,0,0-5.68,5.72,5.63,5.63,0,0,0,5.68,5.71M42.2,9.35A4.68,4.68,0,1,0,42.2,0a4.61,4.61,0,0,0-4.64,4.68A4.61,4.61,0,0,0,42.2,9.35m18.5,4.87a4.16,4.16,0,1,0,0-8.31,4.1,4.1,0,0,0-4.12,4.16,4.09,4.09,0,0,0,4.12,4.15M75.34,27.35a3.64,3.64,0,1,0,0-7.27,3.64,3.64,0,0,0,0,7.27m4.13,18.37a3.12,3.12,0,1,0,0-6.24,3.12,3.12,0,0,0,0,6.24M74.55,64a2.6,2.6,0,1,0,0-5.19,2.6,2.6,0,0,0,0,5.19M60.72,77A2.08,2.08,0,1,0,58.65,75,2.06,2.06,0,0,0,60.72,77m-18.5,5.73a2.6,2.6,0,0,1,0-5.2,2.6,2.6,0,1,1,0,5.2"/><path class="cls-1" d="M98,24.31a17.57,17.57,0,0,0,18,17.9,16.94,16.94,0,0,0,14.84-8.28l-4.93-2.82A11,11,0,0,1,116,36.69c-7.45,0-12.38-5.28-12.38-12.38S108.58,11.93,116,11.93a11,11,0,0,1,9.91,5.57l4.93-2.86A17,17,0,0,0,116,6.4,17.57,17.57,0,0,0,98,24.31m59.09-7.82V41.15h-5.23V25.89L140.25,41.15h-4.51V16.49H141V32.54l12-16ZM184,28.82a7.79,7.79,0,1,0-15.58,0,7.79,7.79,0,1,0,15.58,0m5.33,0c0,7.36-5.57,13-12.28,13a10.23,10.23,0,0,1-8.63-4.15V51h-5.33V16.49h3.61l1.72,3.56a10.14,10.14,0,0,1,8.63-4.2c6.71,0,12.28,5.67,12.28,13m26-12.33V41.15h-5.23V25.89L198.54,41.15H194V16.49h5.23V32.54l12-16Zm29.35,0-9.46,25.45c-2.32,6.27-6.61,9.42-12,9.08V46c3.45.19,5.33-1.43,6.56-4.74l.15-.34L219.56,16.49h5.67l7.5,18,6.31-18Zm1.89,12.33a12.73,12.73,0,0,1,13-13,12.19,12.19,0,0,1,11,6.37L266,24.88a6.88,6.88,0,0,0-6.46-3.8,7.52,7.52,0,0,0-7.64,7.74,7.52,7.52,0,0,0,7.64,7.75,7.23,7.23,0,0,0,6.56-3.8l4.59,2.61a12.41,12.41,0,0,1-11.1,6.42,12.75,12.75,0,0,1-13-13"/><polygon class="cls-1" points="107.06 52.77 107.06 62.54 105.45 62.54 105.45 58.31 101.26 58.31 101.26 62.54 99.66 62.54 99.66 52.77 101.26 52.77 101.26 56.77 105.45 56.77 105.45 52.77 107.06 52.77"/><path class="cls-1" d="M114.58,59.05a2.21,2.21,0,1,0-2.21,2.23,2.16,2.16,0,0,0,2.21-2.23m1.5-3.49v7h-1.5v-1a2.88,2.88,0,0,1-2.44,1.19,3.68,3.68,0,0,1,0-7.35,2.89,2.89,0,0,1,2.44,1.18v-1Z"/><path class="cls-1" d="M124.29,55.56l-2.68,7.2c-.66,1.77-1.87,2.66-3.41,2.57V63.91a1.71,1.71,0,0,0,1.86-1.33l0-.1-2.93-6.92h1.6l2.13,5.08,1.78-5.08Z"/><path class="cls-1" d="M131.13,55.56v7h-1.51V60.18a5.2,5.2,0,0,1-1.76.3c-1.69,0-2.8-.82-2.8-2.52v-2.4h1.5v2.26c0,1,.6,1.25,1.5,1.25a3.72,3.72,0,0,0,1.56-.32V55.56Z"/><polygon class="cls-1" points="139.23 55.56 139.23 62.54 137.73 62.54 137.73 59.76 134.53 59.76 134.53 62.54 133.02 62.54 133.02 55.56 134.53 55.56 134.53 58.33 137.73 58.33 137.73 55.56 139.23 55.56"/><path class="cls-1" d="M146.59,59.05a2.18,2.18,0,1,0-2.18,2.2,2.15,2.15,0,0,0,2.18-2.2m-5.87,0a3.69,3.69,0,1,1,3.69,3.67,3.65,3.65,0,0,1-3.69-3.67"/><rect class="cls-1" x="149.7" y="57.57" width="5.16" height="1.45"/><polygon class="cls-1" points="161.77 57.01 159.5 57.01 159.5 62.53 157.99 62.53 157.99 57.01 155.7 57.01 155.7 55.56 161.77 55.56 161.77 57.01"/><path class="cls-1" d="M167.92,58.46a1.94,1.94,0,0,0-2-1.72,2,2,0,0,0-2.11,1.72Zm-1.86,2.88a2.15,2.15,0,0,0,1.81-.87l1.24.73a3.52,3.52,0,0,1-3.06,1.52,3.67,3.67,0,1,1-.11-7.34,3.51,3.51,0,0,1,3.5,3.68,4.34,4.34,0,0,1-.05.63h-5.56a2.1,2.1,0,0,0,2.23,1.65"/><polygon class="cls-1" points="175.05 62.53 173.32 60.15 171.57 62.53 169.82 62.53 172.44 58.95 169.96 55.56 171.7 55.56 173.31 57.76 174.91 55.56 176.67 55.56 174.19 58.96 176.8 62.53 175.05 62.53"/><polygon class="cls-1" points="184.16 55.56 184.16 62.54 182.66 62.54 182.66 59.76 179.46 59.76 179.46 62.54 177.95 62.54 177.95 55.56 179.46 55.56 179.46 58.33 182.66 58.33 182.66 55.56 184.16 55.56"/><path class="cls-1" d="M191.52,59.05a2.18,2.18,0,1,0-2.18,2.2,2.15,2.15,0,0,0,2.18-2.2m-5.86,0a3.68,3.68,0,1,1,3.68,3.67,3.64,3.64,0,0,1-3.68-3.67"/><path class="cls-1" d="M200.21,62.54H198.7V57h-2.33V59.6c0,2.29-1.07,3.1-2.79,2.94V61.13c.82.13,1.28-.28,1.28-1.6v-4h5.35Z"/><path class="cls-1" d="M207.58,59.05a2.18,2.18,0,1,0-2.18,2.2,2.15,2.15,0,0,0,2.18-2.2m-5.86,0a3.69,3.69,0,1,1,3.68,3.67,3.64,3.64,0,0,1-3.68-3.67"/><polygon class="cls-1" points="215.27 57.01 212.1 57.01 212.1 62.53 210.59 62.53 210.59 55.56 215.27 55.56 215.27 57.01"/><polygon class="cls-1" points="222.63 55.56 222.63 62.54 221.16 62.54 221.16 58.1 217.58 62.54 216.42 62.54 216.42 55.56 217.91 55.56 217.91 59.98 221.48 55.56 222.63 55.56"/><path class="cls-1" d="M230.27,55.56v7h-1.51V60.18a5.2,5.2,0,0,1-1.76.3c-1.69,0-2.8-.82-2.8-2.52v-2.4h1.5v2.26c0,1,.6,1.25,1.5,1.25a3.72,3.72,0,0,0,1.56-.32V55.56Z"/><path class="cls-1" d="M237.44,58.46a2,2,0,0,0-2-1.72,2,2,0,0,0-2.11,1.72Zm-1.86,2.88a2.12,2.12,0,0,0,1.8-.87l1.24.73a3.51,3.51,0,0,1-3.05,1.52,3.67,3.67,0,1,1-.11-7.34,3.51,3.51,0,0,1,3.5,3.68,4.34,4.34,0,0,1-.06.63h-5.55a2.1,2.1,0,0,0,2.23,1.65"/><path class="cls-1" d="M240,59.05a3.6,3.6,0,0,1,3.69-3.67,3.45,3.45,0,0,1,3.11,1.8l-1.3.75a2,2,0,0,0-1.83-1.07,2.19,2.19,0,0,0,0,4.38,2.07,2.07,0,0,0,1.86-1.08l1.3.74a3.51,3.51,0,0,1-3.14,1.82A3.61,3.61,0,0,1,240,59.05"/><polygon class="cls-1" points="252.45 62.53 249.59 59.31 249.59 62.53 248.09 62.53 248.09 55.56 249.59 55.56 249.59 58.64 252.3 55.56 254.14 55.56 251.07 58.97 254.25 62.53 252.45 62.53"/><polygon class="cls-1" points="261.62 55.56 261.62 62.54 260.14 62.54 260.14 58.1 256.57 62.54 255.41 62.54 255.41 55.56 256.89 55.56 256.89 59.98 260.46 55.56 261.62 55.56"/><path class="cls-1" d="M264.65,53.27h3.9v1.31h-3.9Zm5.06,2.29v7h-1.48V58.1l-3.57,4.44H263.5v-7H265V60l3.58-4.42Z"/><path class="cls-1" d="M105.87,68.91l-2.68,7.2c-.66,1.77-1.87,2.66-3.41,2.57V77.27a1.72,1.72,0,0,0,1.86-1.34l0-.1-2.93-6.92h1.61L102.48,74l1.79-5.08Z"/><polygon class="cls-1" points="113.17 68.91 113.17 75.89 111.66 75.89 111.66 73.11 108.46 73.11 108.46 75.89 106.96 75.89 106.96 68.91 108.46 68.91 108.46 71.68 111.66 71.68 111.66 68.91 113.17 68.91"/><polygon class="cls-1" points="121.26 68.91 121.26 75.89 119.78 75.89 119.78 71.45 116.21 75.89 115.05 75.89 115.05 68.91 116.53 68.91 116.53 73.33 120.1 68.91 121.26 68.91"/><path class="cls-1" d="M127.53,73.75c0-.49-.35-.77-1-.77h-2v1.59h2c.61,0,1-.29,1-.82m-3-3.56v1.55h1.74c.6,0,.93-.27.93-.78s-.34-.77-.93-.77ZM129,73.9c0,1.12-.76,2-2.28,2h-3.58v-7h3.3c1.48,0,2.26.82,2.26,1.92A1.66,1.66,0,0,1,128,72.3a1.67,1.67,0,0,1,1,1.6"/><path class="cls-1" d="M135.65,71.81a2,2,0,0,0-2-1.72,2,2,0,0,0-2.11,1.72Zm-1.86,2.87a2.11,2.11,0,0,0,1.8-.86l1.24.72a3.5,3.5,0,0,1-3.05,1.53,3.67,3.67,0,1,1-.12-7.34,3.52,3.52,0,0,1,3.51,3.68,4.34,4.34,0,0,1-.06.63h-5.55a2.08,2.08,0,0,0,2.23,1.64"/><path class="cls-1" d="M144.55,72.4a2.21,2.21,0,1,0-2.21,2.23,2.16,2.16,0,0,0,2.21-2.23m1.51,0a3.56,3.56,0,0,1-3.48,3.67,2.88,2.88,0,0,1-2.44-1.18v3.79h-1.51V68.91h1.51v1a2.86,2.86,0,0,1,2.44-1.18,3.57,3.57,0,0,1,3.48,3.67"/><path class="cls-1" d="M147.17,72.4a3.6,3.6,0,0,1,3.69-3.67,3.45,3.45,0,0,1,3.11,1.8l-1.3.75a2,2,0,0,0-1.83-1.08,2.2,2.2,0,0,0,0,4.39,2.07,2.07,0,0,0,1.86-1.08l1.3.74a3.53,3.53,0,0,1-3.14,1.82,3.61,3.61,0,0,1-3.69-3.67"/><polygon class="cls-1" points="161.47 68.91 161.47 75.89 160 75.89 160 71.45 156.42 75.89 155.27 75.89 155.27 68.91 156.75 68.91 156.75 73.33 160.32 68.91 161.47 68.91"/><polygon class="cls-1" points="168.69 70.36 166.42 70.36 166.42 75.88 164.91 75.88 164.91 70.36 162.62 70.36 162.62 68.91 168.69 68.91 168.69 70.36"/><path class="cls-1" d="M174.84,71.81a1.94,1.94,0,0,0-2-1.72,2,2,0,0,0-2.11,1.72ZM173,74.68a2.14,2.14,0,0,0,1.8-.86l1.24.72A3.51,3.51,0,0,1,173,76.07a3.67,3.67,0,1,1-.11-7.34,3.51,3.51,0,0,1,3.5,3.68,4.34,4.34,0,0,1-.05.63h-5.56A2.1,2.1,0,0,0,173,74.68"/><polygon class="cls-1" points="182.88 70.36 180.61 70.36 180.61 75.88 179.1 75.88 179.1 70.36 176.81 70.36 176.81 68.91 182.88 68.91 182.88 70.36"/></g></g></svg>