<?xml version="1.0" encoding="UTF-8" standalone="no"?>
<!-- Created with Inkscape (http://www.inkscape.org/) -->

<svg
   width="108.60908mm"
   height="108.60908mm"
   viewBox="-1 -1 113.708 113.708"
   version="1.1"
   id="svg2761"
   sodipodi:docname="lyapunov-stability.svg"
   inkscape:version="1.4.4 (dcaf3e7, 2026-05-05)"
   inkscape:export-filename="c:\Users\Sirius\Documents\slides\2.png"
   inkscape:export-xdpi="300"
   inkscape:export-ydpi="300"
   xmlns:inkscape="http://www.inkscape.org/namespaces/inkscape"
   xmlns:sodipodi="http://sodipodi.sourceforge.net/DTD/sodipodi-0.dtd"
   xmlns="http://www.w3.org/2000/svg"
   xmlns:svg="http://www.w3.org/2000/svg"
   xmlns:ns9="http://www.iki.fi/pav/software/textext/">
  <sodipodi:namedview
     id="namedview2763"
     pagecolor="#ffffff"
     bordercolor="#666666"
     borderopacity="1.0"
     inkscape:pageshadow="2"
     inkscape:pageopacity="0.0"
     inkscape:pagecheckerboard="0"
     inkscape:document-units="mm"
     showgrid="false"
     inkscape:zoom="2.048766"
     inkscape:cx="331.17496"
     inkscape:cy="281.87699"
     inkscape:window-width="1809"
     inkscape:window-height="1211"
     inkscape:window-x="1562"
     inkscape:window-y="70"
     inkscape:window-maximized="0"
     inkscape:current-layer="layer1"
     inkscape:showpageshadow="2"
     inkscape:deskcolor="#d1d1d1" />
  <defs
     id="defs2758">
    <marker
       style="overflow:visible"
       id="DotS"
       refX="0"
       refY="0"
       orient="auto"
       inkscape:stockid="DotS"
       inkscape:isstock="true">
      <path
         transform="matrix(0.2,0,0,0.2,1.48,0.2)"
         style="fill:context-stroke;fill-rule:evenodd;stroke:context-stroke;stroke-width:1pt"
         d="m -2.5,-1 c 0,2.76 -2.24,5 -5,5 -2.76,0 -5,-2.24 -5,-5 0,-2.76 2.24,-5 5,-5 2.76,0 5,2.24 5,5 z"
         id="path1494" />
    </marker>
  </defs>
  <g
     inkscape:label="Слой 1"
     inkscape:groupmode="layer"
     id="layer1"
     transform="translate(-38.3346, -2.20121)">
    <g
       id="g50"
       transform="matrix(1.3877888,0,0,1.3877888,-315.51888,-12.282481)">
      <circle
         style="fill:#ffd1ff;fill-opacity:1;stroke:none;stroke-width:0.514266;stroke-dasharray:1.02853, 0.514266"
         id="circle4"
         r="40.246777"
         cy="50.6833"
         cx="295.22321" />
      <circle
         style="fill:#b3e3ff;fill-opacity:1;stroke:none;stroke-width:0.514266;stroke-dasharray:1.02853, 0.514266"
         id="path4"
         cx="295.22321"
         cy="50.6833"
         r="20.853939" />
    </g>
    <g
       id="g8"
       transform="matrix(1.29167,0,0,1.29167,116.99636,82.498568)"
       ns9:version="1.12.0"
       ns9:texconverter="pdflatex"
       ns9:pdfconverter="inkscape"
       ns9:text="$$\\mathbf{B}_\\epsilon$$"
       ns9:preamble="C:\Users\user\AppData\Roaming\inkscape\extensions\textext\default_packages.tex"
       ns9:scale="0.9687561364777042"
       ns9:alignment="middle center"
       ns9:inkscapeversion="1.4.4"
       ns9:jacobian_sqrt="1.29167"
       style="stroke:#ffffff;stroke-opacity:1">
      <defs
         id="defs3">
        <g
           id="g3">
          <g
             id="g1">
            <path
               d="M 2.765625,-3.734375 V -6.375 h 1.8125 c 1.015625,0 1.1875,0.796875 1.1875,1.25 0,0.765625 -0.46875,1.390625 -1.4375,1.390625 z M 5.46875,-3.5625 C 6.546875,-3.765625 7.1875,-4.359375 7.1875,-5.125 c 0,-0.921875 -0.875,-1.71875 -2.46875,-1.71875 H 0.390625 V -6.375 H 1.46875 v 5.90625 H 0.390625 V 0 h 4.625 C 6.671875,0 7.5,-0.875 7.5,-1.859375 7.5,-2.8125 6.65625,-3.484375 5.46875,-3.5625 Z M 4.609375,-0.46875 H 2.765625 V -3.375 h 1.9375 c 0.203125,0 0.671875,0 1.015625,0.421875 0.328125,0.421875 0.328125,0.984375 0.328125,1.09375 0,0.109375 0,1.390625 -1.4375,1.390625 z m 0,0"
               id="path1" />
          </g>
          <g
             id="g2">
            <path
               d="m 2.4375,-1.5625 c 0.09375,0 0.234375,0 0.234375,-0.125 0,-0.125 -0.109375,-0.125 -0.234375,-0.125 h -1.25 C 1.390625,-2.453125 1.84375,-2.75 2.453125,-2.75 H 2.71875 c 0.125,0 0.25,0 0.25,-0.140625 C 2.96875,-3 2.875,-3 2.734375,-3 H 2.4375 c -0.921875,0 -1.96875,0.640625 -1.96875,1.703125 0,0.8125 0.625,1.359375 1.4375,1.359375 0.203125,0 0.5,-0.03125 0.875,-0.234375 0.125,-0.078125 0.140625,-0.09375 0.140625,-0.140625 0,-0.015625 0,-0.140625 -0.09375,-0.140625 -0.03125,0 -0.046875,0 -0.09375,0.03125 C 2.5,-0.265625 2.203125,-0.125 1.921875,-0.125 1.640625,-0.125 1.0625,-0.265625 1.0625,-1.0625 c 0,-0.09375 0,-0.234375 0.0625,-0.5 z m 0,0"
               id="path2" />
          </g>
        </g>
      </defs>
      <g
         fill="#000000"
         fill-opacity="1"
         id="g5"
         transform="translate(-300.031,-139.876)"
         style="stroke:#ffffff;stroke-opacity:1">
        <g
           transform="translate(299.64,146.72)"
           id="g4"
           style="stroke:#ffffff;stroke-opacity:1">
          <path
             d="M 2.765625,-3.734375 V -6.375 h 1.8125 c 1.015625,0 1.1875,0.796875 1.1875,1.25 0,0.765625 -0.46875,1.390625 -1.4375,1.390625 z M 5.46875,-3.5625 C 6.546875,-3.765625 7.1875,-4.359375 7.1875,-5.125 c 0,-0.921875 -0.875,-1.71875 -2.46875,-1.71875 H 0.390625 V -6.375 H 1.46875 v 5.90625 H 0.390625 V 0 h 4.625 C 6.671875,0 7.5,-0.875 7.5,-1.859375 7.5,-2.8125 6.65625,-3.484375 5.46875,-3.5625 Z M 4.609375,-0.46875 H 2.765625 V -3.375 h 1.9375 c 0.203125,0 0.671875,0 1.015625,0.421875 0.328125,0.421875 0.328125,0.984375 0.328125,1.09375 0,0.109375 0,1.390625 -1.4375,1.390625 z m 0,0"
             id="path3"
             style="stroke:#ffffff;stroke-opacity:1" />
        </g>
      </g>
      <g
         fill="#000000"
         fill-opacity="1"
         id="g7"
         transform="translate(-300.031,-139.876)"
         style="stroke:#ffffff;stroke-opacity:1">
        <g
           transform="translate(307.79,148.214)"
           id="g6"
           style="stroke:#ffffff;stroke-opacity:1">
          <path
             d="m 2.4375,-1.5625 c 0.09375,0 0.234375,0 0.234375,-0.125 0,-0.125 -0.109375,-0.125 -0.234375,-0.125 h -1.25 C 1.390625,-2.453125 1.84375,-2.75 2.453125,-2.75 H 2.71875 c 0.125,0 0.25,0 0.25,-0.140625 C 2.96875,-3 2.875,-3 2.734375,-3 H 2.4375 c -0.921875,0 -1.96875,0.640625 -1.96875,1.703125 0,0.8125 0.625,1.359375 1.4375,1.359375 0.203125,0 0.5,-0.03125 0.875,-0.234375 0.125,-0.078125 0.140625,-0.09375 0.140625,-0.140625 0,-0.015625 0,-0.140625 -0.09375,-0.140625 -0.03125,0 -0.046875,0 -0.09375,0.03125 C 2.5,-0.265625 2.203125,-0.125 1.921875,-0.125 1.640625,-0.125 1.0625,-0.265625 1.0625,-1.0625 c 0,-0.09375 0,-0.234375 0.0625,-0.5 z m 0,0"
             id="path5"
             style="stroke:#ffffff;stroke-opacity:1" />
        </g>
      </g>
    </g>
    <g
       id="g9816"
       transform="matrix(1.29167,0,0,1.29167,116.99636,82.498568)"
       ns9:version="1.12.0"
       ns9:texconverter="pdflatex"
       ns9:pdfconverter="inkscape"
       ns9:text="$$\\mathbf{B}_\\epsilon$$"
       ns9:preamble="C:\Users\user\AppData\Roaming\inkscape\extensions\textext\default_packages.tex"
       ns9:scale="0.9687561364777042"
       ns9:alignment="middle center"
       ns9:inkscapeversion="1.4.4"
       ns9:jacobian_sqrt="1.29167">
      <defs
         id="defs7676">
        <g
           id="g2447">
          <g
             id="g9588">
            <path
               d="M 2.765625,-3.734375 V -6.375 h 1.8125 c 1.015625,0 1.1875,0.796875 1.1875,1.25 0,0.765625 -0.46875,1.390625 -1.4375,1.390625 z M 5.46875,-3.5625 C 6.546875,-3.765625 7.1875,-4.359375 7.1875,-5.125 c 0,-0.921875 -0.875,-1.71875 -2.46875,-1.71875 H 0.390625 V -6.375 H 1.46875 v 5.90625 H 0.390625 V 0 h 4.625 C 6.671875,0 7.5,-0.875 7.5,-1.859375 7.5,-2.8125 6.65625,-3.484375 5.46875,-3.5625 Z M 4.609375,-0.46875 H 2.765625 V -3.375 h 1.9375 c 0.203125,0 0.671875,0 1.015625,0.421875 0.328125,0.421875 0.328125,0.984375 0.328125,1.09375 0,0.109375 0,1.390625 -1.4375,1.390625 z m 0,0"
               id="path6842" />
          </g>
          <g
             id="g9966">
            <path
               d="m 2.4375,-1.5625 c 0.09375,0 0.234375,0 0.234375,-0.125 0,-0.125 -0.109375,-0.125 -0.234375,-0.125 h -1.25 C 1.390625,-2.453125 1.84375,-2.75 2.453125,-2.75 H 2.71875 c 0.125,0 0.25,0 0.25,-0.140625 C 2.96875,-3 2.875,-3 2.734375,-3 H 2.4375 c -0.921875,0 -1.96875,0.640625 -1.96875,1.703125 0,0.8125 0.625,1.359375 1.4375,1.359375 0.203125,0 0.5,-0.03125 0.875,-0.234375 0.125,-0.078125 0.140625,-0.09375 0.140625,-0.140625 0,-0.015625 0,-0.140625 -0.09375,-0.140625 -0.03125,0 -0.046875,0 -0.09375,0.03125 C 2.5,-0.265625 2.203125,-0.125 1.921875,-0.125 1.640625,-0.125 1.0625,-0.265625 1.0625,-1.0625 c 0,-0.09375 0,-0.234375 0.0625,-0.5 z m 0,0"
               id="path5728" />
          </g>
        </g>
      </defs>
      <g
         fill="#000000"
         fill-opacity="1"
         id="g5722"
         transform="translate(-300.031,-139.876)">
        <g
           transform="translate(299.64,146.72)"
           id="g6787">
          <path
             d="M 2.765625,-3.734375 V -6.375 h 1.8125 c 1.015625,0 1.1875,0.796875 1.1875,1.25 0,0.765625 -0.46875,1.390625 -1.4375,1.390625 z M 5.46875,-3.5625 C 6.546875,-3.765625 7.1875,-4.359375 7.1875,-5.125 c 0,-0.921875 -0.875,-1.71875 -2.46875,-1.71875 H 0.390625 V -6.375 H 1.46875 v 5.90625 H 0.390625 V 0 h 4.625 C 6.671875,0 7.5,-0.875 7.5,-1.859375 7.5,-2.8125 6.65625,-3.484375 5.46875,-3.5625 Z M 4.609375,-0.46875 H 2.765625 V -3.375 h 1.9375 c 0.203125,0 0.671875,0 1.015625,0.421875 0.328125,0.421875 0.328125,0.984375 0.328125,1.09375 0,0.109375 0,1.390625 -1.4375,1.390625 z m 0,0"
             id="path1034" />
        </g>
      </g>
      <g
         fill="#000000"
         fill-opacity="1"
         id="g7579"
         transform="translate(-300.031,-139.876)">
        <g
           transform="translate(307.79,148.214)"
           id="g2897">
          <path
             d="m 2.4375,-1.5625 c 0.09375,0 0.234375,0 0.234375,-0.125 0,-0.125 -0.109375,-0.125 -0.234375,-0.125 h -1.25 C 1.390625,-2.453125 1.84375,-2.75 2.453125,-2.75 H 2.71875 c 0.125,0 0.25,0 0.25,-0.140625 C 2.96875,-3 2.875,-3 2.734375,-3 H 2.4375 c -0.921875,0 -1.96875,0.640625 -1.96875,1.703125 0,0.8125 0.625,1.359375 1.4375,1.359375 0.203125,0 0.5,-0.03125 0.875,-0.234375 0.125,-0.078125 0.140625,-0.09375 0.140625,-0.140625 0,-0.015625 0,-0.140625 -0.09375,-0.140625 -0.03125,0 -0.046875,0 -0.09375,0.03125 C 2.5,-0.265625 2.203125,-0.125 1.921875,-0.125 1.640625,-0.125 1.0625,-0.265625 1.0625,-1.0625 c 0,-0.09375 0,-0.234375 0.0625,-0.5 z m 0,0"
             id="path1546" />
        </g>
      </g>
    </g>
    <g
       id="g16"
       transform="matrix(1.16742 0 0 1.16742 77.9414 36.3042)"
       ns9:version="1.12.0"
       ns9:texconverter="pdflatex"
       ns9:pdfconverter="inkscape"
       ns9:text="$$\\mathbf{B}_\\delta$$"
       ns9:preamble="C:\Users\user\AppData\Roaming\inkscape\extensions\textext\default_packages.tex"
       ns9:scale="0.8755725804685517"
       ns9:alignment="middle center"
       ns9:inkscapeversion="1.4.4"
       ns9:jacobian_sqrt="1.16742"
       style="stroke:#ffffff;stroke-opacity:1">
      <defs
         id="defs11">
        <g
           id="g11">
          <g
             id="g9">
            <path
               d="M 2.765625,-3.734375 V -6.375 h 1.8125 c 1.015625,0 1.1875,0.796875 1.1875,1.25 0,0.765625 -0.46875,1.390625 -1.4375,1.390625 z M 5.46875,-3.5625 C 6.546875,-3.765625 7.1875,-4.359375 7.1875,-5.125 c 0,-0.921875 -0.875,-1.71875 -2.46875,-1.71875 H 0.390625 V -6.375 H 1.46875 v 5.90625 H 0.390625 V 0 h 4.625 C 6.671875,0 7.5,-0.875 7.5,-1.859375 7.5,-2.8125 6.65625,-3.484375 5.46875,-3.5625 Z M 4.609375,-0.46875 H 2.765625 V -3.375 h 1.9375 c 0.203125,0 0.671875,0 1.015625,0.421875 0.328125,0.421875 0.328125,0.984375 0.328125,1.09375 0,0.109375 0,1.390625 -1.4375,1.390625 z m 0,0"
               id="path8" />
          </g>
          <g
             id="g10">
            <path
               d="m 2.0625,-3.03125 c -1.046875,0.265625 -1.640625,1.15625 -1.640625,1.890625 0,0.75 0.5625,1.21875 1.25,1.21875 0.84375,0 1.5,-0.984375 1.5,-2 C 3.171875,-2.59375 2.8125,-3 2.59375,-3.234375 2.34375,-3.53125 1.8125,-4.09375 1.8125,-4.421875 c 0,-0.09375 0.109375,-0.28125 0.390625,-0.28125 0.234375,0 0.4375,0.109375 0.578125,0.1875 0.0625,0.03125 0.3125,0.1875 0.421875,0.1875 C 3.375,-4.328125 3.5,-4.484375 3.5,-4.625 3.5,-4.796875 3.40625,-4.8125 3.03125,-4.890625 2.953125,-4.90625 2.625,-4.96875 2.40625,-4.96875 c -0.53125,0 -0.8125,0.296875 -0.8125,0.71875 0,0.375 0.21875,0.796875 0.46875,1.21875 z m 0.109375,0.1875 C 2.375,-2.53125 2.625,-2.125 2.625,-1.625 c 0,0.578125 -0.34375,1.515625 -0.9375,1.515625 -0.375,0 -0.75,-0.25 -0.75,-0.828125 0,-0.46875 0.265625,-1.671875 1.234375,-1.90625 z m 0,0"
               id="path9" />
          </g>
        </g>
      </defs>
      <g
         fill="#000000"
         fill-opacity="1"
         id="g13"
         transform="translate(-299.754, -139.876)"
         style="stroke:#ffffff;stroke-opacity:1">
        <g
           transform="translate(299.363, 146.72)"
           id="g12"
           style="stroke:#ffffff;stroke-opacity:1">
          <path
             d="M 2.765625,-3.734375 V -6.375 h 1.8125 c 1.015625,0 1.1875,0.796875 1.1875,1.25 0,0.765625 -0.46875,1.390625 -1.4375,1.390625 z M 5.46875,-3.5625 C 6.546875,-3.765625 7.1875,-4.359375 7.1875,-5.125 c 0,-0.921875 -0.875,-1.71875 -2.46875,-1.71875 H 0.390625 V -6.375 H 1.46875 v 5.90625 H 0.390625 V 0 h 4.625 C 6.671875,0 7.5,-0.875 7.5,-1.859375 7.5,-2.8125 6.65625,-3.484375 5.46875,-3.5625 Z M 4.609375,-0.46875 H 2.765625 V -3.375 h 1.9375 c 0.203125,0 0.671875,0 1.015625,0.421875 0.328125,0.421875 0.328125,0.984375 0.328125,1.09375 0,0.109375 0,1.390625 -1.4375,1.390625 z m 0,0"
             id="path11"
             style="stroke:#ffffff;stroke-opacity:1" />
        </g>
      </g>
      <g
         fill="#000000"
         fill-opacity="1"
         id="g15"
         transform="translate(-299.754, -139.876)"
         style="stroke:#ffffff;stroke-opacity:1">
        <g
           transform="translate(307.513, 148.214)"
           id="g14"
           style="stroke:#ffffff;stroke-opacity:1">
          <path
             d="m 2.0625,-3.03125 c -1.046875,0.265625 -1.640625,1.15625 -1.640625,1.890625 0,0.75 0.5625,1.21875 1.25,1.21875 0.84375,0 1.5,-0.984375 1.5,-2 C 3.171875,-2.59375 2.8125,-3 2.59375,-3.234375 2.34375,-3.53125 1.8125,-4.09375 1.8125,-4.421875 c 0,-0.09375 0.109375,-0.28125 0.390625,-0.28125 0.234375,0 0.4375,0.109375 0.578125,0.1875 0.0625,0.03125 0.3125,0.1875 0.421875,0.1875 C 3.375,-4.328125 3.5,-4.484375 3.5,-4.625 3.5,-4.796875 3.40625,-4.8125 3.03125,-4.890625 2.953125,-4.90625 2.625,-4.96875 2.40625,-4.96875 c -0.53125,0 -0.8125,0.296875 -0.8125,0.71875 0,0.375 0.21875,0.796875 0.46875,1.21875 z m 0.109375,0.1875 C 2.375,-2.53125 2.625,-2.125 2.625,-1.625 c 0,0.578125 -0.34375,1.515625 -0.9375,1.515625 -0.375,0 -0.75,-0.25 -0.75,-0.828125 0,-0.46875 0.265625,-1.671875 1.234375,-1.90625 z m 0,0"
             id="path13"
             style="stroke:#ffffff;stroke-opacity:1" />
        </g>
      </g>
    </g>
    <g
       id="g68"
       transform="matrix(1.16742 0 0 1.16742 77.9414 36.3042)"
       ns9:version="1.12.0"
       ns9:texconverter="pdflatex"
       ns9:pdfconverter="inkscape"
       ns9:text="$$\\mathbf{B}_\\delta$$"
       ns9:preamble="C:\Users\user\AppData\Roaming\inkscape\extensions\textext\default_packages.tex"
       ns9:scale="0.8755725804685517"
       ns9:alignment="middle center"
       ns9:inkscapeversion="1.4.4"
       ns9:jacobian_sqrt="1.16742">
      <defs
         id="defs9220">
        <g
           id="g9299">
          <g
             id="g8214">
            <path
               d="M 2.765625,-3.734375 V -6.375 h 1.8125 c 1.015625,0 1.1875,0.796875 1.1875,1.25 0,0.765625 -0.46875,1.390625 -1.4375,1.390625 z M 5.46875,-3.5625 C 6.546875,-3.765625 7.1875,-4.359375 7.1875,-5.125 c 0,-0.921875 -0.875,-1.71875 -2.46875,-1.71875 H 0.390625 V -6.375 H 1.46875 v 5.90625 H 0.390625 V 0 h 4.625 C 6.671875,0 7.5,-0.875 7.5,-1.859375 7.5,-2.8125 6.65625,-3.484375 5.46875,-3.5625 Z M 4.609375,-0.46875 H 2.765625 V -3.375 h 1.9375 c 0.203125,0 0.671875,0 1.015625,0.421875 0.328125,0.421875 0.328125,0.984375 0.328125,1.09375 0,0.109375 0,1.390625 -1.4375,1.390625 z m 0,0"
               id="path1808" />
          </g>
          <g
             id="g1451">
            <path
               d="m 2.0625,-3.03125 c -1.046875,0.265625 -1.640625,1.15625 -1.640625,1.890625 0,0.75 0.5625,1.21875 1.25,1.21875 0.84375,0 1.5,-0.984375 1.5,-2 C 3.171875,-2.59375 2.8125,-3 2.59375,-3.234375 2.34375,-3.53125 1.8125,-4.09375 1.8125,-4.421875 c 0,-0.09375 0.109375,-0.28125 0.390625,-0.28125 0.234375,0 0.4375,0.109375 0.578125,0.1875 0.0625,0.03125 0.3125,0.1875 0.421875,0.1875 C 3.375,-4.328125 3.5,-4.484375 3.5,-4.625 3.5,-4.796875 3.40625,-4.8125 3.03125,-4.890625 2.953125,-4.90625 2.625,-4.96875 2.40625,-4.96875 c -0.53125,0 -0.8125,0.296875 -0.8125,0.71875 0,0.375 0.21875,0.796875 0.46875,1.21875 z m 0.109375,0.1875 C 2.375,-2.53125 2.625,-2.125 2.625,-1.625 c 0,0.578125 -0.34375,1.515625 -0.9375,1.515625 -0.375,0 -0.75,-0.25 -0.75,-0.828125 0,-0.46875 0.265625,-1.671875 1.234375,-1.90625 z m 0,0"
               id="path8426" />
          </g>
        </g>
      </defs>
      <g
         fill="#000000"
         fill-opacity="1"
         id="g7472"
         transform="translate(-299.754, -139.876)">
        <g
           transform="translate(299.363, 146.72)"
           id="g3629">
          <path
             d="M 2.765625,-3.734375 V -6.375 h 1.8125 c 1.015625,0 1.1875,0.796875 1.1875,1.25 0,0.765625 -0.46875,1.390625 -1.4375,1.390625 z M 5.46875,-3.5625 C 6.546875,-3.765625 7.1875,-4.359375 7.1875,-5.125 c 0,-0.921875 -0.875,-1.71875 -2.46875,-1.71875 H 0.390625 V -6.375 H 1.46875 v 5.90625 H 0.390625 V 0 h 4.625 C 6.671875,0 7.5,-0.875 7.5,-1.859375 7.5,-2.8125 6.65625,-3.484375 5.46875,-3.5625 Z M 4.609375,-0.46875 H 2.765625 V -3.375 h 1.9375 c 0.203125,0 0.671875,0 1.015625,0.421875 0.328125,0.421875 0.328125,0.984375 0.328125,1.09375 0,0.109375 0,1.390625 -1.4375,1.390625 z m 0,0"
             id="path4947" />
        </g>
      </g>
      <g
         fill="#000000"
         fill-opacity="1"
         id="g3528"
         transform="translate(-299.754, -139.876)">
        <g
           transform="translate(307.513, 148.214)"
           id="g3568">
          <path
             d="m 2.0625,-3.03125 c -1.046875,0.265625 -1.640625,1.15625 -1.640625,1.890625 0,0.75 0.5625,1.21875 1.25,1.21875 0.84375,0 1.5,-0.984375 1.5,-2 C 3.171875,-2.59375 2.8125,-3 2.59375,-3.234375 2.34375,-3.53125 1.8125,-4.09375 1.8125,-4.421875 c 0,-0.09375 0.109375,-0.28125 0.390625,-0.28125 0.234375,0 0.4375,0.109375 0.578125,0.1875 0.0625,0.03125 0.3125,0.1875 0.421875,0.1875 C 3.375,-4.328125 3.5,-4.484375 3.5,-4.625 3.5,-4.796875 3.40625,-4.8125 3.03125,-4.890625 2.953125,-4.90625 2.625,-4.96875 2.40625,-4.96875 c -0.53125,0 -0.8125,0.296875 -0.8125,0.71875 0,0.375 0.21875,0.796875 0.46875,1.21875 z m 0.109375,0.1875 C 2.375,-2.53125 2.625,-2.125 2.625,-1.625 c 0,0.578125 -0.34375,1.515625 -0.9375,1.515625 -0.375,0 -0.75,-0.25 -0.75,-0.828125 0,-0.46875 0.265625,-1.671875 1.234375,-1.90625 z m 0,0"
             id="path1251" />
        </g>
      </g>
    </g>
    <path
       style="fill:none;stroke:#302888;stroke-width:1.02853;stroke-linecap:butt;stroke-linejoin:miter;stroke-miterlimit:4;stroke-dasharray:4.11412, 1.02853;stroke-dashoffset:0;stroke-opacity:1;marker-start:url(#DotS)"
       d="M 116.09369,67.357639 C 113.28968,37.279 154.7126,44.104887 108.1431,22.134849 81.824488,9.718551 50.525548,40.860597 56.772598,58.378287 c 7.25735,20.350716 1.667161,30.344257 10.578691,33.02608 11.86846,3.571677 34.306641,-9.32327 38.655151,-12.237418 6.01365,-4.030032 4.77267,-17.278346 0.6402,-24.682506 -2.2876,-4.098709 -9.522197,-5.000608 -13.782685,-2.734296 -1.381469,0.734854 -1.991777,5.102516 -0.116747,6.288504"
       id="path10584"
       sodipodi:nodetypes="cssssssc" />
    <circle
       style="fill:#000000;fill-opacity:1;stroke:none;stroke-width:0.514266;stroke-dasharray:1.02853, 0.514266;stroke-opacity:1"
       id="path84"
       cx="94.188576"
       cy="58.055237"
       r="1.7845427" />
    <g
       id="g98"
       transform="matrix(0.84563717,0,0,0.84563717,18.747648,8.6693491)">
      <g
         id="g97"
         transform="matrix(0.96777239,0,0,0.96777239,73.761706,62.557974)"
         ns9:version="1.12.0"
         ns9:texconverter="pdflatex"
         ns9:pdfconverter="inkscape"
         ns9:text="$$\\Delta = 0$$"
         ns9:preamble="C:\Users\user\AppData\Roaming\inkscape\extensions\textext\default_packages.tex"
         ns9:scale="1.2427271398990043"
         ns9:alignment="middle center"
         ns9:inkscapeversion="1.4.4"
         ns9:jacobian_sqrt="1.65697"
         style="stroke:#ffffff;stroke-opacity:1">
        <defs
           id="defs90">
          <g
             id="g90">
            <g
               id="g87">
              <path
                 d="m 4.40625,-6.953125 c -0.0625,-0.140625 -0.09375,-0.1875 -0.265625,-0.1875 -0.15625,0 -0.1875,0.046875 -0.25,0.1875 l -3.375,6.75 C 0.46875,-0.109375 0.46875,-0.09375 0.46875,-0.078125 0.46875,0 0.53125,0 0.6875,0 h 6.921875 c 0.15625,0 0.21875,0 0.21875,-0.078125 0,-0.015625 0,-0.03125 -0.046875,-0.125 z m -0.578125,0.8125 2.6875,5.390625 h -5.375 z m 0,0"
                 id="path86" />
            </g>
            <g
               id="g88">
              <path
                 d="m 6.84375,-3.265625 c 0.15625,0 0.34375,0 0.34375,-0.1875 C 7.1875,-3.65625 7,-3.65625 6.859375,-3.65625 h -5.96875 c -0.140625,0 -0.328125,0 -0.328125,0.203125 0,0.1875 0.1875,0.1875 0.328125,0.1875 z m 0.015625,1.9375 c 0.140625,0 0.328125,0 0.328125,-0.203125 0,-0.1875 -0.1875,-0.1875 -0.34375,-0.1875 H 0.890625 c -0.140625,0 -0.328125,0 -0.328125,0.1875 0,0.203125 0.1875,0.203125 0.328125,0.203125 z m 0,0"
                 id="path87" />
            </g>
            <g
               id="g89">
              <path
                 d="m 4.578125,-3.1875 c 0,-0.796875 -0.046875,-1.59375 -0.390625,-2.328125 -0.453125,-0.96875 -1.28125,-1.125 -1.6875,-1.125 -0.609375,0 -1.328125,0.265625 -1.75,1.1875 -0.3125,0.6875 -0.359375,1.46875 -0.359375,2.265625 0,0.75 0.03125,1.640625 0.453125,2.40625 0.421875,0.796875 1.15625,1 1.640625,1 0.53125,0 1.296875,-0.203125 1.734375,-1.15625 0.3125,-0.6875 0.359375,-1.46875 0.359375,-2.25 z M 2.484375,0 C 2.09375,0 1.5,-0.25 1.328125,-1.203125 1.21875,-1.796875 1.21875,-2.71875 1.21875,-3.3125 c 0,-0.640625 0,-1.296875 0.078125,-1.828125 0.1875,-1.1875 0.9375,-1.28125 1.1875,-1.28125 0.328125,0 0.984375,0.1875 1.171875,1.171875 0.109375,0.5625 0.109375,1.3125 0.109375,1.9375 0,0.75 0,1.421875 -0.109375,2.0625 C 3.5,-0.296875 2.9375,0 2.484375,0 Z m 0,0"
                 id="path88" />
            </g>
          </g>
        </defs>
        <g
           fill="#000000"
           fill-opacity="1"
           id="g92"
           transform="translate(-292.809,-139.579)"
           style="stroke:#ffffff;stroke-opacity:1">
          <g
             transform="translate(292.34,146.72)"
             id="g91"
             style="stroke:#ffffff;stroke-opacity:1">
            <path
               d="m 4.40625,-6.953125 c -0.0625,-0.140625 -0.09375,-0.1875 -0.265625,-0.1875 -0.15625,0 -0.1875,0.046875 -0.25,0.1875 l -3.375,6.75 C 0.46875,-0.109375 0.46875,-0.09375 0.46875,-0.078125 0.46875,0 0.53125,0 0.6875,0 h 6.921875 c 0.15625,0 0.21875,0 0.21875,-0.078125 0,-0.015625 0,-0.03125 -0.046875,-0.125 z m -0.578125,0.8125 2.6875,5.390625 h -5.375 z m 0,0"
               id="path90"
               style="stroke:#ffffff;stroke-opacity:1" />
          </g>
        </g>
        <g
           fill="#000000"
           fill-opacity="1"
           id="g94"
           transform="translate(-292.809,-139.579)"
           style="stroke:#ffffff;stroke-opacity:1">
          <g
             transform="translate(303.411,146.72)"
             id="g93"
             style="stroke:#ffffff;stroke-opacity:1">
            <path
               d="m 6.84375,-3.265625 c 0.15625,0 0.34375,0 0.34375,-0.1875 C 7.1875,-3.65625 7,-3.65625 6.859375,-3.65625 h -5.96875 c -0.140625,0 -0.328125,0 -0.328125,0.203125 0,0.1875 0.1875,0.1875 0.328125,0.1875 z m 0.015625,1.9375 c 0.140625,0 0.328125,0 0.328125,-0.203125 0,-0.1875 -0.1875,-0.1875 -0.34375,-0.1875 H 0.890625 c -0.140625,0 -0.328125,0 -0.328125,0.1875 0,0.203125 0.1875,0.203125 0.328125,0.203125 z m 0,0"
               id="path92"
               style="stroke:#ffffff;stroke-opacity:1" />
          </g>
        </g>
        <g
           fill="#000000"
           fill-opacity="1"
           id="g96"
           transform="translate(-292.809,-139.579)"
           style="stroke:#ffffff;stroke-opacity:1">
          <g
             transform="translate(313.93,146.72)"
             id="g95"
             style="stroke:#ffffff;stroke-opacity:1">
            <path
               d="m 4.578125,-3.1875 c 0,-0.796875 -0.046875,-1.59375 -0.390625,-2.328125 -0.453125,-0.96875 -1.28125,-1.125 -1.6875,-1.125 -0.609375,0 -1.328125,0.265625 -1.75,1.1875 -0.3125,0.6875 -0.359375,1.46875 -0.359375,2.265625 0,0.75 0.03125,1.640625 0.453125,2.40625 0.421875,0.796875 1.15625,1 1.640625,1 0.53125,0 1.296875,-0.203125 1.734375,-1.15625 0.3125,-0.6875 0.359375,-1.46875 0.359375,-2.25 z M 2.484375,0 C 2.09375,0 1.5,-0.25 1.328125,-1.203125 1.21875,-1.796875 1.21875,-2.71875 1.21875,-3.3125 c 0,-0.640625 0,-1.296875 0.078125,-1.828125 0.1875,-1.1875 0.9375,-1.28125 1.1875,-1.28125 0.328125,0 0.984375,0.1875 1.171875,1.171875 0.109375,0.5625 0.109375,1.3125 0.109375,1.9375 0,0.75 0,1.421875 -0.109375,2.0625 C 3.5,-0.296875 2.9375,0 2.484375,0 Z m 0,0"
               id="path94"
               style="stroke:#ffffff;stroke-opacity:1" />
          </g>
        </g>
      </g>
      <g
         id="g7570"
         transform="matrix(0.96777239,0,0,0.96777239,73.761706,62.557974)"
         ns9:version="1.12.0"
         ns9:texconverter="pdflatex"
         ns9:pdfconverter="inkscape"
         ns9:text="$$\\Delta = 0$$"
         ns9:preamble="C:\Users\user\AppData\Roaming\inkscape\extensions\textext\default_packages.tex"
         ns9:scale="1.2427271398990043"
         ns9:alignment="middle center"
         ns9:inkscapeversion="1.4.4"
         ns9:jacobian_sqrt="1.65697">
        <defs
           id="defs5130">
          <g
             id="g3937">
            <g
               id="g5733">
              <path
                 d="m 4.40625,-6.953125 c -0.0625,-0.140625 -0.09375,-0.1875 -0.265625,-0.1875 -0.15625,0 -0.1875,0.046875 -0.25,0.1875 l -3.375,6.75 C 0.46875,-0.109375 0.46875,-0.09375 0.46875,-0.078125 0.46875,0 0.53125,0 0.6875,0 h 6.921875 c 0.15625,0 0.21875,0 0.21875,-0.078125 0,-0.015625 0,-0.03125 -0.046875,-0.125 z m -0.578125,0.8125 2.6875,5.390625 h -5.375 z m 0,0"
                 id="path3469" />
            </g>
            <g
               id="g8584">
              <path
                 d="m 6.84375,-3.265625 c 0.15625,0 0.34375,0 0.34375,-0.1875 C 7.1875,-3.65625 7,-3.65625 6.859375,-3.65625 h -5.96875 c -0.140625,0 -0.328125,0 -0.328125,0.203125 0,0.1875 0.1875,0.1875 0.328125,0.1875 z m 0.015625,1.9375 c 0.140625,0 0.328125,0 0.328125,-0.203125 0,-0.1875 -0.1875,-0.1875 -0.34375,-0.1875 H 0.890625 c -0.140625,0 -0.328125,0 -0.328125,0.1875 0,0.203125 0.1875,0.203125 0.328125,0.203125 z m 0,0"
                 id="path9706" />
            </g>
            <g
               id="g6708">
              <path
                 d="m 4.578125,-3.1875 c 0,-0.796875 -0.046875,-1.59375 -0.390625,-2.328125 -0.453125,-0.96875 -1.28125,-1.125 -1.6875,-1.125 -0.609375,0 -1.328125,0.265625 -1.75,1.1875 -0.3125,0.6875 -0.359375,1.46875 -0.359375,2.265625 0,0.75 0.03125,1.640625 0.453125,2.40625 0.421875,0.796875 1.15625,1 1.640625,1 0.53125,0 1.296875,-0.203125 1.734375,-1.15625 0.3125,-0.6875 0.359375,-1.46875 0.359375,-2.25 z M 2.484375,0 C 2.09375,0 1.5,-0.25 1.328125,-1.203125 1.21875,-1.796875 1.21875,-2.71875 1.21875,-3.3125 c 0,-0.640625 0,-1.296875 0.078125,-1.828125 0.1875,-1.1875 0.9375,-1.28125 1.1875,-1.28125 0.328125,0 0.984375,0.1875 1.171875,1.171875 0.109375,0.5625 0.109375,1.3125 0.109375,1.9375 0,0.75 0,1.421875 -0.109375,2.0625 C 3.5,-0.296875 2.9375,0 2.484375,0 Z m 0,0"
                 id="path2499" />
            </g>
          </g>
        </defs>
        <g
           fill="#000000"
           fill-opacity="1"
           id="g4294"
           transform="translate(-292.809,-139.579)">
          <g
             transform="translate(292.34,146.72)"
             id="g8706">
            <path
               d="m 4.40625,-6.953125 c -0.0625,-0.140625 -0.09375,-0.1875 -0.265625,-0.1875 -0.15625,0 -0.1875,0.046875 -0.25,0.1875 l -3.375,6.75 C 0.46875,-0.109375 0.46875,-0.09375 0.46875,-0.078125 0.46875,0 0.53125,0 0.6875,0 h 6.921875 c 0.15625,0 0.21875,0 0.21875,-0.078125 0,-0.015625 0,-0.03125 -0.046875,-0.125 z m -0.578125,0.8125 2.6875,5.390625 h -5.375 z m 0,0"
               id="path5892" />
          </g>
        </g>
        <g
           fill="#000000"
           fill-opacity="1"
           id="g8437"
           transform="translate(-292.809,-139.579)">
          <g
             transform="translate(303.411,146.72)"
             id="g5401">
            <path
               d="m 6.84375,-3.265625 c 0.15625,0 0.34375,0 0.34375,-0.1875 C 7.1875,-3.65625 7,-3.65625 6.859375,-3.65625 h -5.96875 c -0.140625,0 -0.328125,0 -0.328125,0.203125 0,0.1875 0.1875,0.1875 0.328125,0.1875 z m 0.015625,1.9375 c 0.140625,0 0.328125,0 0.328125,-0.203125 0,-0.1875 -0.1875,-0.1875 -0.34375,-0.1875 H 0.890625 c -0.140625,0 -0.328125,0 -0.328125,0.1875 0,0.203125 0.1875,0.203125 0.328125,0.203125 z m 0,0"
               id="path8668" />
          </g>
        </g>
        <g
           fill="#000000"
           fill-opacity="1"
           id="g5675"
           transform="translate(-292.809,-139.579)">
          <g
             transform="translate(313.93,146.72)"
             id="g1661">
            <path
               d="m 4.578125,-3.1875 c 0,-0.796875 -0.046875,-1.59375 -0.390625,-2.328125 -0.453125,-0.96875 -1.28125,-1.125 -1.6875,-1.125 -0.609375,0 -1.328125,0.265625 -1.75,1.1875 -0.3125,0.6875 -0.359375,1.46875 -0.359375,2.265625 0,0.75 0.03125,1.640625 0.453125,2.40625 0.421875,0.796875 1.15625,1 1.640625,1 0.53125,0 1.296875,-0.203125 1.734375,-1.15625 0.3125,-0.6875 0.359375,-1.46875 0.359375,-2.25 z M 2.484375,0 C 2.09375,0 1.5,-0.25 1.328125,-1.203125 1.21875,-1.796875 1.21875,-2.71875 1.21875,-3.3125 c 0,-0.640625 0,-1.296875 0.078125,-1.828125 0.1875,-1.1875 0.9375,-1.28125 1.1875,-1.28125 0.328125,0 0.984375,0.1875 1.171875,1.171875 0.109375,0.5625 0.109375,1.3125 0.109375,1.9375 0,0.75 0,1.421875 -0.109375,2.0625 C 3.5,-0.296875 2.9375,0 2.484375,0 Z m 0,0"
               id="path3277" />
          </g>
        </g>
      </g>
    </g>
    <g
       id="g113"
       transform="translate(75.491884,22.548658)">
      <g
         id="g112"
         transform="matrix(0.89093409,0,0,0.89093409,52.158639,22.454287)"
         ns9:version="1.12.0"
         ns9:texconverter="pdflatex"
         ns9:pdfconverter="inkscape"
         ns9:text="$$x(t)$$"
         ns9:preamble="C:\Users\user\AppData\Roaming\inkscape\extensions\textext\default_packages.tex"
         ns9:scale="1.2427271398990043"
         ns9:alignment="middle center"
         ns9:inkscapeversion="1.4.4"
         ns9:jacobian_sqrt="1.65697"
         style="stroke:#ffffff;stroke-opacity:1">
        <defs
           id="defs103">
          <g
             id="g103">
            <g
               id="g99">
              <path
                 d="M 3.328125,-3.015625 C 3.390625,-3.265625 3.625,-4.1875 4.3125,-4.1875 c 0.046875,0 0.296875,0 0.5,0.125 C 4.53125,-4 4.34375,-3.765625 4.34375,-3.515625 c 0,0.15625 0.109375,0.34375 0.375,0.34375 0.21875,0 0.53125,-0.171875 0.53125,-0.578125 0,-0.515625 -0.578125,-0.65625 -0.921875,-0.65625 -0.578125,0 -0.921875,0.53125 -1.046875,0.75 -0.25,-0.65625 -0.78125,-0.75 -1.078125,-0.75 -1.03125,0 -1.609375,1.28125 -1.609375,1.53125 0,0.109375 0.109375,0.109375 0.125,0.109375 0.078125,0 0.109375,-0.03125 0.125,-0.109375 0.34375,-1.0625 1,-1.3125 1.34375,-1.3125 0.1875,0 0.53125,0.09375 0.53125,0.671875 0,0.3125 -0.171875,0.96875 -0.53125,2.375 -0.15625,0.609375 -0.515625,1.03125 -0.953125,1.03125 -0.0625,0 -0.28125,0 -0.5,-0.125 0.25,-0.0625 0.46875,-0.265625 0.46875,-0.546875 0,-0.265625 -0.21875,-0.34375 -0.359375,-0.34375 -0.3125,0 -0.546875,0.25 -0.546875,0.578125 0,0.453125 0.484375,0.65625 0.921875,0.65625 0.671875,0 1.03125,-0.703125 1.046875,-0.75 0.125,0.359375 0.484375,0.75 1.078125,0.75 1.03125,0 1.59375,-1.28125 1.59375,-1.53125 0,-0.109375 -0.078125,-0.109375 -0.109375,-0.109375 -0.09375,0 -0.109375,0.046875 -0.140625,0.109375 -0.328125,1.078125 -1,1.3125 -1.3125,1.3125 -0.390625,0 -0.546875,-0.3125 -0.546875,-0.65625 0,-0.21875 0.046875,-0.4375 0.15625,-0.875 z m 0,0"
                 id="path98" />
            </g>
            <g
               id="g100">
              <path
                 d="m 2.046875,-3.984375 h 0.9375 c 0.203125,0 0.3125,0 0.3125,-0.203125 0,-0.109375 -0.109375,-0.109375 -0.28125,-0.109375 h -0.875 C 2.5,-5.71875 2.546875,-5.90625 2.546875,-5.96875 c 0,-0.171875 -0.125,-0.265625 -0.296875,-0.265625 -0.03125,0 -0.3125,0 -0.390625,0.359375 L 1.46875,-4.296875 h -0.9375 c -0.203125,0 -0.296875,0 -0.296875,0.1875 0,0.125 0.078125,0.125 0.28125,0.125 h 0.875 C 0.671875,-1.15625 0.625,-0.984375 0.625,-0.8125 0.625,-0.265625 1,0.109375 1.546875,0.109375 2.5625,0.109375 3.125,-1.34375 3.125,-1.421875 3.125,-1.53125 3.046875,-1.53125 3.015625,-1.53125 2.921875,-1.53125 2.90625,-1.5 2.859375,-1.390625 2.4375,-0.34375 1.90625,-0.109375 1.5625,-0.109375 c -0.203125,0 -0.3125,-0.125 -0.3125,-0.453125 0,-0.25 0.03125,-0.3125 0.0625,-0.484375 z m 0,0"
                 id="path99" />
            </g>
            <g
               id="g101">
              <path
                 d="m 3.296875,2.390625 c 0,-0.03125 0,-0.046875 -0.171875,-0.21875 C 1.890625,0.921875 1.5625,-0.96875 1.5625,-2.5 c 0,-1.734375 0.375,-3.46875 1.609375,-4.703125 0.125,-0.125 0.125,-0.140625 0.125,-0.171875 0,-0.078125 -0.03125,-0.109375 -0.09375,-0.109375 -0.109375,0 -1,0.6875 -1.59375,1.953125 -0.5,1.09375 -0.625,2.203125 -0.625,3.03125 0,0.78125 0.109375,1.984375 0.65625,3.125 C 2.25,1.84375 3.09375,2.5 3.203125,2.5 c 0.0625,0 0.09375,-0.03125 0.09375,-0.109375 z m 0,0"
                 id="path100" />
            </g>
            <g
               id="g102">
              <path
                 d="m 2.875,-2.5 c 0,-0.765625 -0.109375,-1.96875 -0.65625,-3.109375 -0.59375,-1.21875 -1.453125,-1.875 -1.546875,-1.875 -0.0625,0 -0.109375,0.046875 -0.109375,0.109375 0,0.03125 0,0.046875 0.1875,0.234375 0.984375,0.984375 1.546875,2.5625 1.546875,4.640625 0,1.71875 -0.359375,3.46875 -1.59375,4.71875 C 0.5625,2.34375 0.5625,2.359375 0.5625,2.390625 0.5625,2.453125 0.609375,2.5 0.671875,2.5 0.765625,2.5 1.671875,1.8125 2.25,0.546875 2.765625,-0.546875 2.875,-1.65625 2.875,-2.5 Z m 0,0"
                 id="path101" />
            </g>
          </g>
        </defs>
        <g
           fill="#000000"
           fill-opacity="1"
           id="g105"
           transform="translate(-297.401,-139.236)"
           style="stroke:#ffffff;stroke-opacity:1">
          <g
             transform="translate(297.104,146.72)"
             id="g104"
             style="stroke:#ffffff;stroke-opacity:1">
            <path
               d="M 3.328125,-3.015625 C 3.390625,-3.265625 3.625,-4.1875 4.3125,-4.1875 c 0.7661805,0.051084 0.140795,0.1786024 0.03125,0.671875 0,0.15625 0.109375,0.34375 0.375,0.34375 0.21875,0 0.53125,-0.171875 0.53125,-0.578125 0,-0.515625 -0.578125,-0.65625 -0.921875,-0.65625 -0.578125,0 -0.921875,0.53125 -1.046875,0.75 -0.25,-0.65625 -0.78125,-0.75 -1.078125,-0.75 -1.03125,0 -1.609375,1.28125 -1.609375,1.53125 0,0.109375 0.109375,0.109375 0.125,0.109375 0.078125,0 0.109375,-0.03125 0.125,-0.109375 0.34375,-1.0625 1,-1.3125 1.34375,-1.3125 0.1875,0 0.53125,0.09375 0.53125,0.671875 0,0.3125 -0.171875,0.96875 -0.53125,2.375 -0.15625,0.609375 -0.515625,1.03125 -0.953125,1.03125 -0.7621829,-0.0519347 -0.1463193,-0.18103234 -0.03125,-0.671875 0,-0.265625 -0.21875,-0.34375 -0.359375,-0.34375 -0.3125,0 -0.546875,0.25 -0.546875,0.578125 0,0.453125 0.484375,0.65625 0.921875,0.65625 0.671875,0 1.03125,-0.703125 1.046875,-0.75 0.125,0.359375 0.484375,0.75 1.078125,0.75 1.03125,0 1.59375,-1.28125 1.59375,-1.53125 0,-0.109375 -0.078125,-0.109375 -0.109375,-0.109375 -0.09375,0 -0.109375,0.046875 -0.140625,0.109375 -0.328125,1.078125 -1,1.3125 -1.3125,1.3125 -0.390625,0 -0.546875,-0.3125 -0.546875,-0.65625 0,-0.21875 0.046875,-0.4375 0.15625,-0.875 z"
               id="path103"
               style="stroke:#ffffff;stroke-opacity:1"
               sodipodi:nodetypes="sssssscssscsscssssscssscssss" />
          </g>
        </g>
        <g
           fill="#000000"
           fill-opacity="1"
           id="g107"
           transform="translate(-297.401,-139.236)"
           style="stroke:#ffffff;stroke-opacity:1">
          <g
             transform="translate(302.798,146.72)"
             id="g106"
             style="stroke:#ffffff;stroke-opacity:1">
            <path
               d="m 3.296875,2.390625 c 0,-0.03125 0,-0.046875 -0.171875,-0.21875 C 1.890625,0.921875 1.5625,-0.96875 1.5625,-2.5 c 0,-1.734375 0.375,-3.46875 1.609375,-4.703125 0.125,-0.125 0.125,-0.140625 0.125,-0.171875 0,-0.078125 -0.03125,-0.109375 -0.09375,-0.109375 -0.109375,0 -1,0.6875 -1.59375,1.953125 -0.5,1.09375 -0.625,2.203125 -0.625,3.03125 0,0.78125 0.109375,1.984375 0.65625,3.125 C 2.25,1.84375 3.09375,2.5 3.203125,2.5 c 0.0625,0 0.09375,-0.03125 0.09375,-0.109375 z m 0,0"
               id="path105"
               style="stroke:#ffffff;stroke-opacity:1" />
          </g>
        </g>
        <g
           fill="#000000"
           fill-opacity="1"
           id="g109"
           transform="translate(-297.401,-139.236)"
           style="stroke:#ffffff;stroke-opacity:1">
          <g
             transform="translate(306.672,146.72)"
             id="g108"
             style="stroke:#ffffff;stroke-opacity:1">
            <path
               d="m 2.046875,-3.984375 h 0.9375 c 0.203125,0 0.3125,0 0.3125,-0.203125 0,-0.109375 -0.109375,-0.109375 -0.28125,-0.109375 h -0.875 C 2.5,-5.71875 2.546875,-5.90625 2.546875,-5.96875 c 0,-0.171875 -0.125,-0.265625 -0.296875,-0.265625 -0.03125,0 -0.3125,0 -0.390625,0.359375 L 1.46875,-4.296875 h -0.9375 c -0.203125,0 -0.296875,0 -0.296875,0.1875 0,0.125 0.078125,0.125 0.28125,0.125 h 0.875 C 0.671875,-1.15625 0.625,-0.984375 0.625,-0.8125 0.625,-0.265625 1,0.109375 1.546875,0.109375 2.5625,0.109375 3.125,-1.34375 3.125,-1.421875 3.125,-1.53125 3.046875,-1.53125 3.015625,-1.53125 2.921875,-1.53125 2.90625,-1.5 2.859375,-1.390625 2.4375,-0.34375 1.90625,-0.109375 1.5625,-0.109375 c -0.203125,0 -0.3125,-0.125 -0.3125,-0.453125 0,-0.25 0.03125,-0.3125 0.0625,-0.484375 z m 0,0"
               id="path107"
               style="stroke:#ffffff;stroke-opacity:1" />
          </g>
        </g>
        <g
           fill="#000000"
           fill-opacity="1"
           id="g111"
           transform="translate(-297.401,-139.236)"
           style="stroke:#ffffff;stroke-opacity:1">
          <g
             transform="translate(310.27,146.72)"
             id="g110"
             style="stroke:#ffffff;stroke-opacity:1">
            <path
               d="m 2.875,-2.5 c 0,-0.765625 -0.109375,-1.96875 -0.65625,-3.109375 -0.59375,-1.21875 -1.453125,-1.875 -1.546875,-1.875 -0.0625,0 -0.109375,0.046875 -0.109375,0.109375 0,0.03125 0,0.046875 0.1875,0.234375 0.984375,0.984375 1.546875,2.5625 1.546875,4.640625 0,1.71875 -0.359375,3.46875 -1.59375,4.71875 C 0.5625,2.34375 0.5625,2.359375 0.5625,2.390625 0.5625,2.453125 0.609375,2.5 0.671875,2.5 0.765625,2.5 1.671875,1.8125 2.25,0.546875 2.765625,-0.546875 2.875,-1.65625 2.875,-2.5 Z m 0,0"
               id="path109"
               style="stroke:#ffffff;stroke-opacity:1" />
          </g>
        </g>
      </g>
      <g
         id="g5537"
         transform="matrix(0.89093409,0,0,0.89093409,52.158639,22.454287)"
         ns9:version="1.12.0"
         ns9:texconverter="pdflatex"
         ns9:pdfconverter="inkscape"
         ns9:text="$$x(t)$$"
         ns9:preamble="C:\Users\user\AppData\Roaming\inkscape\extensions\textext\default_packages.tex"
         ns9:scale="1.2427271398990043"
         ns9:alignment="middle center"
         ns9:inkscapeversion="1.4.4"
         ns9:jacobian_sqrt="1.65697">
        <defs
           id="defs8304">
          <g
             id="g543">
            <g
               id="g2274">
              <path
                 d="M 3.328125,-3.015625 C 3.390625,-3.265625 3.625,-4.1875 4.3125,-4.1875 c 0.046875,0 0.296875,0 0.5,0.125 C 4.53125,-4 4.34375,-3.765625 4.34375,-3.515625 c 0,0.15625 0.109375,0.34375 0.375,0.34375 0.21875,0 0.53125,-0.171875 0.53125,-0.578125 0,-0.515625 -0.578125,-0.65625 -0.921875,-0.65625 -0.578125,0 -0.921875,0.53125 -1.046875,0.75 -0.25,-0.65625 -0.78125,-0.75 -1.078125,-0.75 -1.03125,0 -1.609375,1.28125 -1.609375,1.53125 0,0.109375 0.109375,0.109375 0.125,0.109375 0.078125,0 0.109375,-0.03125 0.125,-0.109375 0.34375,-1.0625 1,-1.3125 1.34375,-1.3125 0.1875,0 0.53125,0.09375 0.53125,0.671875 0,0.3125 -0.171875,0.96875 -0.53125,2.375 -0.15625,0.609375 -0.515625,1.03125 -0.953125,1.03125 -0.0625,0 -0.28125,0 -0.5,-0.125 0.25,-0.0625 0.46875,-0.265625 0.46875,-0.546875 0,-0.265625 -0.21875,-0.34375 -0.359375,-0.34375 -0.3125,0 -0.546875,0.25 -0.546875,0.578125 0,0.453125 0.484375,0.65625 0.921875,0.65625 0.671875,0 1.03125,-0.703125 1.046875,-0.75 0.125,0.359375 0.484375,0.75 1.078125,0.75 1.03125,0 1.59375,-1.28125 1.59375,-1.53125 0,-0.109375 -0.078125,-0.109375 -0.109375,-0.109375 -0.09375,0 -0.109375,0.046875 -0.140625,0.109375 -0.328125,1.078125 -1,1.3125 -1.3125,1.3125 -0.390625,0 -0.546875,-0.3125 -0.546875,-0.65625 0,-0.21875 0.046875,-0.4375 0.15625,-0.875 z m 0,0"
                 id="path3990" />
            </g>
            <g
               id="g7944">
              <path
                 d="m 2.046875,-3.984375 h 0.9375 c 0.203125,0 0.3125,0 0.3125,-0.203125 0,-0.109375 -0.109375,-0.109375 -0.28125,-0.109375 h -0.875 C 2.5,-5.71875 2.546875,-5.90625 2.546875,-5.96875 c 0,-0.171875 -0.125,-0.265625 -0.296875,-0.265625 -0.03125,0 -0.3125,0 -0.390625,0.359375 L 1.46875,-4.296875 h -0.9375 c -0.203125,0 -0.296875,0 -0.296875,0.1875 0,0.125 0.078125,0.125 0.28125,0.125 h 0.875 C 0.671875,-1.15625 0.625,-0.984375 0.625,-0.8125 0.625,-0.265625 1,0.109375 1.546875,0.109375 2.5625,0.109375 3.125,-1.34375 3.125,-1.421875 3.125,-1.53125 3.046875,-1.53125 3.015625,-1.53125 2.921875,-1.53125 2.90625,-1.5 2.859375,-1.390625 2.4375,-0.34375 1.90625,-0.109375 1.5625,-0.109375 c -0.203125,0 -0.3125,-0.125 -0.3125,-0.453125 0,-0.25 0.03125,-0.3125 0.0625,-0.484375 z m 0,0"
                 id="path3593" />
            </g>
            <g
               id="g6080">
              <path
                 d="m 3.296875,2.390625 c 0,-0.03125 0,-0.046875 -0.171875,-0.21875 C 1.890625,0.921875 1.5625,-0.96875 1.5625,-2.5 c 0,-1.734375 0.375,-3.46875 1.609375,-4.703125 0.125,-0.125 0.125,-0.140625 0.125,-0.171875 0,-0.078125 -0.03125,-0.109375 -0.09375,-0.109375 -0.109375,0 -1,0.6875 -1.59375,1.953125 -0.5,1.09375 -0.625,2.203125 -0.625,3.03125 0,0.78125 0.109375,1.984375 0.65625,3.125 C 2.25,1.84375 3.09375,2.5 3.203125,2.5 c 0.0625,0 0.09375,-0.03125 0.09375,-0.109375 z m 0,0"
                 id="path4118" />
            </g>
            <g
               id="g9285">
              <path
                 d="m 2.875,-2.5 c 0,-0.765625 -0.109375,-1.96875 -0.65625,-3.109375 -0.59375,-1.21875 -1.453125,-1.875 -1.546875,-1.875 -0.0625,0 -0.109375,0.046875 -0.109375,0.109375 0,0.03125 0,0.046875 0.1875,0.234375 0.984375,0.984375 1.546875,2.5625 1.546875,4.640625 0,1.71875 -0.359375,3.46875 -1.59375,4.71875 C 0.5625,2.34375 0.5625,2.359375 0.5625,2.390625 0.5625,2.453125 0.609375,2.5 0.671875,2.5 0.765625,2.5 1.671875,1.8125 2.25,0.546875 2.765625,-0.546875 2.875,-1.65625 2.875,-2.5 Z m 0,0"
                 id="path8056" />
            </g>
          </g>
        </defs>
        <g
           fill="#000000"
           fill-opacity="1"
           id="g1320"
           transform="translate(-297.401,-139.236)">
          <g
             transform="translate(297.104,146.72)"
             id="g441">
            <path
               d="M 3.328125,-3.015625 C 3.390625,-3.265625 3.625,-4.1875 4.3125,-4.1875 c 0.046875,0 0.296875,0 0.5,0.125 C 4.53125,-4 4.34375,-3.765625 4.34375,-3.515625 c 0,0.15625 0.109375,0.34375 0.375,0.34375 0.21875,0 0.53125,-0.171875 0.53125,-0.578125 0,-0.515625 -0.578125,-0.65625 -0.921875,-0.65625 -0.578125,0 -0.921875,0.53125 -1.046875,0.75 -0.25,-0.65625 -0.78125,-0.75 -1.078125,-0.75 -1.03125,0 -1.609375,1.28125 -1.609375,1.53125 0,0.109375 0.109375,0.109375 0.125,0.109375 0.078125,0 0.109375,-0.03125 0.125,-0.109375 0.34375,-1.0625 1,-1.3125 1.34375,-1.3125 0.1875,0 0.53125,0.09375 0.53125,0.671875 0,0.3125 -0.171875,0.96875 -0.53125,2.375 -0.15625,0.609375 -0.515625,1.03125 -0.953125,1.03125 -0.0625,0 -0.28125,0 -0.5,-0.125 0.25,-0.0625 0.46875,-0.265625 0.46875,-0.546875 0,-0.265625 -0.21875,-0.34375 -0.359375,-0.34375 -0.3125,0 -0.546875,0.25 -0.546875,0.578125 0,0.453125 0.484375,0.65625 0.921875,0.65625 0.671875,0 1.03125,-0.703125 1.046875,-0.75 0.125,0.359375 0.484375,0.75 1.078125,0.75 1.03125,0 1.59375,-1.28125 1.59375,-1.53125 0,-0.109375 -0.078125,-0.109375 -0.109375,-0.109375 -0.09375,0 -0.109375,0.046875 -0.140625,0.109375 -0.328125,1.078125 -1,1.3125 -1.3125,1.3125 -0.390625,0 -0.546875,-0.3125 -0.546875,-0.65625 0,-0.21875 0.046875,-0.4375 0.15625,-0.875 z m 0,0"
               id="path7479" />
          </g>
        </g>
        <g
           fill="#000000"
           fill-opacity="1"
           id="g9430"
           transform="translate(-297.401,-139.236)">
          <g
             transform="translate(302.798,146.72)"
             id="g7502">
            <path
               d="m 3.296875,2.390625 c 0,-0.03125 0,-0.046875 -0.171875,-0.21875 C 1.890625,0.921875 1.5625,-0.96875 1.5625,-2.5 c 0,-1.734375 0.375,-3.46875 1.609375,-4.703125 0.125,-0.125 0.125,-0.140625 0.125,-0.171875 0,-0.078125 -0.03125,-0.109375 -0.09375,-0.109375 -0.109375,0 -1,0.6875 -1.59375,1.953125 -0.5,1.09375 -0.625,2.203125 -0.625,3.03125 0,0.78125 0.109375,1.984375 0.65625,3.125 C 2.25,1.84375 3.09375,2.5 3.203125,2.5 c 0.0625,0 0.09375,-0.03125 0.09375,-0.109375 z m 0,0"
               id="path4713" />
          </g>
        </g>
        <g
           fill="#000000"
           fill-opacity="1"
           id="g8626"
           transform="translate(-297.401,-139.236)">
          <g
             transform="translate(306.672,146.72)"
             id="g5152">
            <path
               d="m 2.046875,-3.984375 h 0.9375 c 0.203125,0 0.3125,0 0.3125,-0.203125 0,-0.109375 -0.109375,-0.109375 -0.28125,-0.109375 h -0.875 C 2.5,-5.71875 2.546875,-5.90625 2.546875,-5.96875 c 0,-0.171875 -0.125,-0.265625 -0.296875,-0.265625 -0.03125,0 -0.3125,0 -0.390625,0.359375 L 1.46875,-4.296875 h -0.9375 c -0.203125,0 -0.296875,0 -0.296875,0.1875 0,0.125 0.078125,0.125 0.28125,0.125 h 0.875 C 0.671875,-1.15625 0.625,-0.984375 0.625,-0.8125 0.625,-0.265625 1,0.109375 1.546875,0.109375 2.5625,0.109375 3.125,-1.34375 3.125,-1.421875 3.125,-1.53125 3.046875,-1.53125 3.015625,-1.53125 2.921875,-1.53125 2.90625,-1.5 2.859375,-1.390625 2.4375,-0.34375 1.90625,-0.109375 1.5625,-0.109375 c -0.203125,0 -0.3125,-0.125 -0.3125,-0.453125 0,-0.25 0.03125,-0.3125 0.0625,-0.484375 z m 0,0"
               id="path4899" />
          </g>
        </g>
        <g
           fill="#000000"
           fill-opacity="1"
           id="g8963"
           transform="translate(-297.401,-139.236)">
          <g
             transform="translate(310.27,146.72)"
             id="g5458">
            <path
               d="m 2.875,-2.5 c 0,-0.765625 -0.109375,-1.96875 -0.65625,-3.109375 -0.59375,-1.21875 -1.453125,-1.875 -1.546875,-1.875 -0.0625,0 -0.109375,0.046875 -0.109375,0.109375 0,0.03125 0,0.046875 0.1875,0.234375 0.984375,0.984375 1.546875,2.5625 1.546875,4.640625 0,1.71875 -0.359375,3.46875 -1.59375,4.71875 C 0.5625,2.34375 0.5625,2.359375 0.5625,2.390625 0.5625,2.453125 0.609375,2.5 0.671875,2.5 0.765625,2.5 1.671875,1.8125 2.25,0.546875 2.765625,-0.546875 2.875,-1.65625 2.875,-2.5 Z m 0,0"
               id="path2097" />
          </g>
        </g>
      </g>
    </g>
  </g>
</svg>
