<?xml version="1.0" encoding="UTF-8" standalone="no"?>
<!-- Created with Inkscape (http://www.inkscape.org/) -->

<svg
   width="185.74498mm"
   height="81.780045mm"
   viewBox="0 0 191.04489 84.113498"
   version="1.1"
   id="svg2761"
   sodipodi:docname="orbital-stability.svg"
   inkscape:version="1.4.4 (dcaf3e7, 2026-05-05)"
   inkscape:export-filename="c:\Users\Sirius\Documents\slides\2.png"
   inkscape:export-xdpi="300"
   inkscape:export-ydpi="300"
   xmlns:inkscape="http://www.inkscape.org/namespaces/inkscape"
   xmlns:sodipodi="http://sodipodi.sourceforge.net/DTD/sodipodi-0.dtd"
   xmlns="http://www.w3.org/2000/svg"
   xmlns:svg="http://www.w3.org/2000/svg"
   xmlns:ns9="http://www.iki.fi/pav/software/textext/">
  <sodipodi:namedview
     id="namedview2763"
     pagecolor="#ffffff"
     bordercolor="#666666"
     borderopacity="1.0"
     inkscape:pageshadow="2"
     inkscape:pageopacity="0.0"
     inkscape:pagecheckerboard="0"
     inkscape:document-units="mm"
     showgrid="false"
     inkscape:zoom="1.024383"
     inkscape:cx="103.96502"
     inkscape:cy="223.06109"
     inkscape:window-width="3440"
     inkscape:window-height="1377"
     inkscape:window-x="-8"
     inkscape:window-y="-8"
     inkscape:window-maximized="1"
     inkscape:current-layer="layer1"
     inkscape:showpageshadow="2"
     inkscape:deskcolor="#d1d1d1" />
  <defs
     id="defs2758">
    <marker
       style="overflow:visible"
       id="DotS"
       refX="0"
       refY="0"
       orient="auto"
       inkscape:stockid="DotS"
       inkscape:isstock="true">
      <path
         transform="matrix(0.2,0,0,0.2,1.48,0.2)"
         style="fill:context-stroke;fill-rule:evenodd;stroke:context-stroke;stroke-width:1pt"
         d="m -2.5,-1 c 0,2.76 -2.24,5 -5,5 -2.76,0 -5,-2.24 -5,-5 0,-2.76 2.24,-5 5,-5 2.76,0 5,2.24 5,5 z"
         id="path1494" />
    </marker>
  </defs>
  <g
     inkscape:label="Слой 1"
     inkscape:groupmode="layer"
     id="layer1"
     transform="translate(-10.022885,-9.2906918)">
    <g
       id="g10368"
       transform="translate(-231.06267,-25.555318)">
      <path
         style="fill:none;stroke:#ffd1ff;stroke-width:60;stroke-linecap:butt;stroke-linejoin:miter;stroke-miterlimit:4;stroke-dasharray:none;stroke-opacity:1"
         d="M 282.13525,94.56172 C 343.51139,50.64603 425.52263,69.16469 425.52263,69.16469"
         id="path42784-3" />
      <path
         style="fill:none;fill-opacity:1;stroke:#b3e3ff;stroke-width:30;stroke-linecap:butt;stroke-linejoin:miter;stroke-miterlimit:4;stroke-dasharray:none;stroke-opacity:1"
         d="M 282.13525,94.56172 C 343.51139,50.646028 425.52263,69.164688 425.52263,69.164688"
         id="path42784-3-7" />
      <path
         style="fill:none;stroke:#ffa71c;stroke-width:2.05707;stroke-linecap:butt;stroke-linejoin:miter;stroke-miterlimit:4;stroke-dasharray:none;stroke-opacity:1"
         d="M 282.13525,94.56172 C 343.51139,50.64603 425.52263,69.16469 425.52263,69.16469"
         id="path42784" />
    </g>
    <g
       id="g7"
       transform="matrix(0.85054917,0,0,0.85054917,17.681964,8.4609328)">
      <g
         id="g5"
         transform="matrix(0.82089823,0,0,0.82089823,-19.571416,-62.732043)"
         style="stroke:#ffffff;stroke-width:1.23098;stroke-dasharray:none;stroke-opacity:1">
        <g
           style="fill:#000000;fill-opacity:1;stroke:#ffffff;stroke-width:0.581564;stroke-dasharray:none;stroke-opacity:1"
           id="g2"
           transform="matrix(2.11667,0,0,2.11667,-487.12458,-207.51907)">
          <g
             transform="translate(300.313,146.72)"
             id="g1"
             style="stroke:#ffffff;stroke-width:0.581564;stroke-dasharray:none;stroke-opacity:1">
            <path
               style="stroke:#ffffff;stroke-width:0.581564;stroke-dasharray:none;stroke-opacity:1"
               d="M 6.328125,-5.765625 C 6.4375,-6.171875 6.609375,-6.46875 7.40625,-6.5 c 0.046875,0 0.171875,-0.015625 0.171875,-0.203125 0,0 0,-0.109375 -0.125,-0.109375 -0.328125,0 -0.6875,0.03125 -1.015625,0.03125 -0.34375,0 -0.71875,-0.03125 -1.046875,-0.03125 -0.0625,0 -0.171875,0 -0.171875,0.203125 C 5.21875,-6.5 5.3125,-6.5 5.390625,-6.5 c 0.578125,0.015625 0.6875,0.21875 0.6875,0.4375 0,0.03125 -0.03125,0.1875 -0.03125,0.203125 l -0.90625,3.5625 C 4.8125,-0.953125 3.65625,-0.09375 2.65625,-0.09375 c -0.671875,0 -1.203125,-0.4375 -1.203125,-1.296875 0,-0.015625 0,-0.328125 0.109375,-0.765625 L 2.515625,-6.046875 C 2.609375,-6.40625 2.625,-6.5 3.359375,-6.5 c 0.265625,0 0.34375,0 0.34375,-0.203125 0,-0.109375 -0.109375,-0.109375 -0.140625,-0.109375 -0.28125,0 -1,0.03125 -1.28125,0.03125 -0.28125,0 -1,-0.03125 -1.28125,-0.03125 -0.078125,0 -0.1875,0 -0.1875,0.203125 C 0.8125,-6.5 0.890625,-6.5 1.09375,-6.5 c 0.015625,0 0.203125,0 0.375,0.015625 0.171875,0.03125 0.265625,0.03125 0.265625,0.171875 0,0.046875 -0.109375,0.46875 -0.171875,0.703125 l -0.21875,0.875 C 1.25,-4.34375 0.78125,-2.46875 0.734375,-2.265625 0.671875,-2 0.671875,-1.84375 0.671875,-1.6875 c 0,1.203125 0.90625,1.90625 1.953125,1.90625 1.25,0 2.484375,-1.125 2.8125,-2.4375 z m 0,0"
               id="path1" />
          </g>
        </g>
        <g
           style="fill:#000000;fill-opacity:1;stroke:#ffffff;stroke-width:0.581564;stroke-dasharray:none;stroke-opacity:1"
           id="g4"
           transform="matrix(2.11667,0,0,2.11667,-488.18292,-207.51907)">
          <g
             transform="translate(307.116,148.214)"
             id="g3"
             style="stroke:#ffffff;stroke-width:0.581564;stroke-dasharray:none;stroke-opacity:1">
            <path
               style="stroke:#ffffff;stroke-width:0.581564;stroke-dasharray:none;stroke-opacity:1"
               d="m 2.4375,-1.5625 c 0.09375,0 0.234375,0 0.234375,-0.125 0,-0.125 -0.109375,-0.125 -0.234375,-0.125 h -1.25 C 1.390625,-2.453125 1.84375,-2.75 2.453125,-2.75 H 2.71875 c 0.125,0 0.25,0 0.25,-0.140625 C 2.96875,-3 2.875,-3 2.734375,-3 H 2.4375 c -0.921875,0 -1.96875,0.640625 -1.96875,1.703125 0,0.8125 0.625,1.359375 1.4375,1.359375 0.203125,0 0.5,-0.03125 0.875,-0.234375 0.125,-0.078125 0.140625,-0.09375 0.140625,-0.140625 0,-0.015625 0,-0.140625 -0.09375,-0.140625 -0.03125,0 -0.046875,0 -0.09375,0.03125 C 2.5,-0.265625 2.203125,-0.125 1.921875,-0.125 1.640625,-0.125 1.0625,-0.265625 1.0625,-1.0625 c 0,-0.09375 0,-0.234375 0.0625,-0.5 z m 0,0"
               id="path2" />
          </g>
        </g>
      </g>
      <g
         id="g2627"
         transform="matrix(0.82089823,0,0,0.82089823,-19.571416,-62.732043)">
        <g
           style="fill:#000000;fill-opacity:1"
           id="id-4b57cd2b-19a5-461d-b293-b2bfc19e289a"
           transform="matrix(2.11667,0,0,2.11667,-487.12458,-207.51907)">
          <g
             transform="translate(300.313,146.72)"
             id="g980">
            <path
               style="stroke:none;stroke-width:0"
               d="M 6.328125,-5.765625 C 6.4375,-6.171875 6.609375,-6.46875 7.40625,-6.5 c 0.046875,0 0.171875,-0.015625 0.171875,-0.203125 0,0 0,-0.109375 -0.125,-0.109375 -0.328125,0 -0.6875,0.03125 -1.015625,0.03125 -0.34375,0 -0.71875,-0.03125 -1.046875,-0.03125 -0.0625,0 -0.171875,0 -0.171875,0.203125 C 5.21875,-6.5 5.3125,-6.5 5.390625,-6.5 c 0.578125,0.015625 0.6875,0.21875 0.6875,0.4375 0,0.03125 -0.03125,0.1875 -0.03125,0.203125 l -0.90625,3.5625 C 4.8125,-0.953125 3.65625,-0.09375 2.65625,-0.09375 c -0.671875,0 -1.203125,-0.4375 -1.203125,-1.296875 0,-0.015625 0,-0.328125 0.109375,-0.765625 L 2.515625,-6.046875 C 2.609375,-6.40625 2.625,-6.5 3.359375,-6.5 c 0.265625,0 0.34375,0 0.34375,-0.203125 0,-0.109375 -0.109375,-0.109375 -0.140625,-0.109375 -0.28125,0 -1,0.03125 -1.28125,0.03125 -0.28125,0 -1,-0.03125 -1.28125,-0.03125 -0.078125,0 -0.1875,0 -0.1875,0.203125 C 0.8125,-6.5 0.890625,-6.5 1.09375,-6.5 c 0.015625,0 0.203125,0 0.375,0.015625 0.171875,0.03125 0.265625,0.03125 0.265625,0.171875 0,0.046875 -0.109375,0.46875 -0.171875,0.703125 l -0.21875,0.875 C 1.25,-4.34375 0.78125,-2.46875 0.734375,-2.265625 0.671875,-2 0.671875,-1.84375 0.671875,-1.6875 c 0,1.203125 0.90625,1.90625 1.953125,1.90625 1.25,0 2.484375,-1.125 2.8125,-2.4375 z m 0,0"
               id="id-bebaa2f0-4eb4-427b-a0f7-cc16f4ae15be" />
          </g>
        </g>
        <g
           style="fill:#000000;fill-opacity:1"
           id="id-b52b8a57-c06d-4473-b9c4-48f0a79266ca"
           transform="matrix(2.11667,0,0,2.11667,-488.18292,-207.51907)">
          <g
             transform="translate(307.116,148.214)"
             id="g984">
            <path
               style="stroke:none;stroke-width:0"
               d="m 2.4375,-1.5625 c 0.09375,0 0.234375,0 0.234375,-0.125 0,-0.125 -0.109375,-0.125 -0.234375,-0.125 h -1.25 C 1.390625,-2.453125 1.84375,-2.75 2.453125,-2.75 H 2.71875 c 0.125,0 0.25,0 0.25,-0.140625 C 2.96875,-3 2.875,-3 2.734375,-3 H 2.4375 c -0.921875,0 -1.96875,0.640625 -1.96875,1.703125 0,0.8125 0.625,1.359375 1.4375,1.359375 0.203125,0 0.5,-0.03125 0.875,-0.234375 0.125,-0.078125 0.140625,-0.09375 0.140625,-0.140625 0,-0.015625 0,-0.140625 -0.09375,-0.140625 -0.03125,0 -0.046875,0 -0.09375,0.03125 C 2.5,-0.265625 2.203125,-0.125 1.921875,-0.125 1.640625,-0.125 1.0625,-0.265625 1.0625,-1.0625 c 0,-0.09375 0,-0.234375 0.0625,-0.5 z m 0,0"
               id="id-46cf9f11-c2a3-4d63-8f73-97bb4ef975d6" />
          </g>
        </g>
      </g>
    </g>
    <g
       id="g6"
       transform="matrix(0.69827665,0,0,0.69827665,43.843388,10.482603)">
      <g
         transform="matrix(1.7375706,0,0,1.7375706,135.02245,23.096734)"
         ns9:version="1.8.1"
         ns9:texconverter="pdflatex"
         ns9:pdfconverter="inkscape"
         ns9:text="$$U_\\delta$$"
         ns9:preamble="C:\Users\Sirius\AppData\Roaming\inkscape\extensions\textext\default_packages.tex"
         ns9:scale="6.0"
         ns9:alignment="middle center"
         ns9:stroke-to-path="0"
         ns9:jacobian_sqrt="2.11667"
         id="g14"
         style="stroke:#ffffff;stroke-width:0.581564;stroke-dasharray:none;stroke-opacity:1">
        <defs
           id="defs8">
          <g
             id="g8">
            <symbol
               overflow="visible"
               id="symbol5">
              <path
                 style="stroke:none;stroke-width:0"
                 d=""
                 id="path5" />
            </symbol>
            <symbol
               overflow="visible"
               id="symbol6">
              <path
                 style="stroke:none;stroke-width:0"
                 d="M 6.328125,-5.765625 C 6.4375,-6.171875 6.609375,-6.46875 7.40625,-6.5 c 0.046875,0 0.171875,-0.015625 0.171875,-0.203125 0,0 0,-0.109375 -0.125,-0.109375 -0.328125,0 -0.6875,0.03125 -1.015625,0.03125 -0.34375,0 -0.71875,-0.03125 -1.046875,-0.03125 -0.0625,0 -0.171875,0 -0.171875,0.203125 C 5.21875,-6.5 5.3125,-6.5 5.390625,-6.5 c 0.578125,0.015625 0.6875,0.21875 0.6875,0.4375 0,0.03125 -0.03125,0.1875 -0.03125,0.203125 l -0.90625,3.5625 C 4.8125,-0.953125 3.65625,-0.09375 2.65625,-0.09375 c -0.671875,0 -1.203125,-0.4375 -1.203125,-1.296875 0,-0.015625 0,-0.328125 0.109375,-0.765625 L 2.515625,-6.046875 C 2.609375,-6.40625 2.625,-6.5 3.359375,-6.5 c 0.265625,0 0.34375,0 0.34375,-0.203125 0,-0.109375 -0.109375,-0.109375 -0.140625,-0.109375 -0.28125,0 -1,0.03125 -1.28125,0.03125 -0.28125,0 -1,-0.03125 -1.28125,-0.03125 -0.078125,0 -0.1875,0 -0.1875,0.203125 C 0.8125,-6.5 0.890625,-6.5 1.09375,-6.5 c 0.015625,0 0.203125,0 0.375,0.015625 0.171875,0.03125 0.265625,0.03125 0.265625,0.171875 0,0.046875 -0.109375,0.46875 -0.171875,0.703125 l -0.21875,0.875 C 1.25,-4.34375 0.78125,-2.46875 0.734375,-2.265625 0.671875,-2 0.671875,-1.84375 0.671875,-1.6875 c 0,1.203125 0.90625,1.90625 1.953125,1.90625 1.25,0 2.484375,-1.125 2.8125,-2.4375 z m 0,0"
                 id="path6" />
            </symbol>
            <symbol
               overflow="visible"
               id="symbol7">
              <path
                 style="stroke:none;stroke-width:0"
                 d=""
                 id="path7" />
            </symbol>
            <symbol
               overflow="visible"
               id="symbol8">
              <path
                 style="stroke:none;stroke-width:0"
                 d="m 2.0625,-3.03125 c -1.046875,0.265625 -1.640625,1.15625 -1.640625,1.890625 0,0.75 0.5625,1.21875 1.25,1.21875 0.84375,0 1.5,-0.984375 1.5,-2 C 3.171875,-2.59375 2.8125,-3 2.59375,-3.234375 2.34375,-3.53125 1.8125,-4.09375 1.8125,-4.421875 c 0,-0.09375 0.109375,-0.28125 0.390625,-0.28125 0.234375,0 0.4375,0.109375 0.578125,0.1875 0.0625,0.03125 0.3125,0.1875 0.421875,0.1875 C 3.375,-4.328125 3.5,-4.484375 3.5,-4.625 3.5,-4.796875 3.40625,-4.8125 3.03125,-4.890625 2.953125,-4.90625 2.625,-4.96875 2.40625,-4.96875 c -0.53125,0 -0.8125,0.296875 -0.8125,0.71875 0,0.375 0.21875,0.796875 0.46875,1.21875 z m 0.109375,0.1875 C 2.375,-2.53125 2.625,-2.125 2.625,-1.625 c 0,0.578125 -0.34375,1.515625 -0.9375,1.515625 -0.375,0 -0.75,-0.25 -0.75,-0.828125 0,-0.46875 0.265625,-1.671875 1.234375,-1.90625 z m 0,0"
                 id="path8" />
            </symbol>
          </g>
        </defs>
        <g
           id="g13"
           transform="translate(-300.709,-139.907)"
           style="stroke:#ffffff;stroke-width:0.581564;stroke-dasharray:none;stroke-opacity:1">
          <g
             style="fill:#000000;fill-opacity:1;stroke:#ffffff;stroke-width:0.581564;stroke-dasharray:none;stroke-opacity:1"
             id="g10">
            <g
               transform="translate(300.037,146.72)"
               id="g9"
               style="stroke:#ffffff;stroke-width:0.581564;stroke-dasharray:none;stroke-opacity:1">
              <path
                 style="stroke:#ffffff;stroke-width:0.581564;stroke-dasharray:none;stroke-opacity:1"
                 d="M 6.328125,-5.765625 C 6.4375,-6.171875 6.609375,-6.46875 7.40625,-6.5 c 0.046875,0 0.171875,-0.015625 0.171875,-0.203125 0,0 0,-0.109375 -0.125,-0.109375 -0.328125,0 -0.6875,0.03125 -1.015625,0.03125 -0.34375,0 -0.71875,-0.03125 -1.046875,-0.03125 -0.0625,0 -0.171875,0 -0.171875,0.203125 C 5.21875,-6.5 5.3125,-6.5 5.390625,-6.5 c 0.578125,0.015625 0.6875,0.21875 0.6875,0.4375 0,0.03125 -0.03125,0.1875 -0.03125,0.203125 l -0.90625,3.5625 C 4.8125,-0.953125 3.65625,-0.09375 2.65625,-0.09375 c -0.671875,0 -1.203125,-0.4375 -1.203125,-1.296875 0,-0.015625 0,-0.328125 0.109375,-0.765625 L 2.515625,-6.046875 C 2.609375,-6.40625 2.625,-6.5 3.359375,-6.5 c 0.265625,0 0.34375,0 0.34375,-0.203125 0,-0.109375 -0.109375,-0.109375 -0.140625,-0.109375 -0.28125,0 -1,0.03125 -1.28125,0.03125 -0.28125,0 -1,-0.03125 -1.28125,-0.03125 -0.078125,0 -0.1875,0 -0.1875,0.203125 C 0.8125,-6.5 0.890625,-6.5 1.09375,-6.5 c 0.015625,0 0.203125,0 0.375,0.015625 0.171875,0.03125 0.265625,0.03125 0.265625,0.171875 0,0.046875 -0.109375,0.46875 -0.171875,0.703125 l -0.21875,0.875 C 1.25,-4.34375 0.78125,-2.46875 0.734375,-2.265625 0.671875,-2 0.671875,-1.84375 0.671875,-1.6875 c 0,1.203125 0.90625,1.90625 1.953125,1.90625 1.25,0 2.484375,-1.125 2.8125,-2.4375 z m 0,0"
                 id="path9" />
            </g>
          </g>
          <g
             style="fill:#000000;fill-opacity:1;stroke:#ffffff;stroke-width:0.581564;stroke-dasharray:none;stroke-opacity:1"
             id="g12">
            <g
               transform="translate(306.839,148.214)"
               id="g11"
               style="stroke:#ffffff;stroke-width:0.581564;stroke-dasharray:none;stroke-opacity:1">
              <path
                 style="stroke:#ffffff;stroke-width:0.581564;stroke-dasharray:none;stroke-opacity:1"
                 d="m 2.0625,-3.03125 c -1.046875,0.265625 -1.640625,1.15625 -1.640625,1.890625 0,0.75 0.5625,1.21875 1.25,1.21875 0.84375,0 1.5,-0.984375 1.5,-2 C 3.171875,-2.59375 2.8125,-3 2.59375,-3.234375 2.34375,-3.53125 1.8125,-4.09375 1.8125,-4.421875 c 0,-0.09375 0.109375,-0.28125 0.390625,-0.28125 0.234375,0 0.4375,0.109375 0.578125,0.1875 0.0625,0.03125 0.3125,0.1875 0.421875,0.1875 C 3.375,-4.328125 3.5,-4.484375 3.5,-4.625 3.5,-4.796875 3.40625,-4.8125 3.03125,-4.890625 2.953125,-4.90625 2.625,-4.96875 2.40625,-4.96875 c -0.53125,0 -0.8125,0.296875 -0.8125,0.71875 0,0.375 0.21875,0.796875 0.46875,1.21875 z m 0.109375,0.1875 C 2.375,-2.53125 2.625,-2.125 2.625,-1.625 c 0,0.578125 -0.34375,1.515625 -0.9375,1.515625 -0.375,0 -0.75,-0.25 -0.75,-0.828125 0,-0.46875 0.265625,-1.671875 1.234375,-1.90625 z m 0,0"
                 id="path10" />
            </g>
          </g>
        </g>
      </g>
      <g
         transform="matrix(1.7375706,0,0,1.7375706,135.02245,23.096734)"
         ns9:version="1.8.1"
         ns9:texconverter="pdflatex"
         ns9:pdfconverter="inkscape"
         ns9:text="$$U_\\delta$$"
         ns9:preamble="C:\Users\Sirius\AppData\Roaming\inkscape\extensions\textext\default_packages.tex"
         ns9:scale="6.0"
         ns9:alignment="middle center"
         ns9:stroke-to-path="0"
         ns9:jacobian_sqrt="2.11667"
         id="g10431">
        <defs
           id="id-d545fd5a-f773-40e9-921d-dae3ee7ec8bc">
          <g
             id="id-2883e84a-62ed-4532-a9e5-644a0aa85f0e">
            <symbol
               overflow="visible"
               id="id-2cd8c3c4-e720-467c-b85f-51e3103eee0b">
              <path
                 style="stroke:none;stroke-width:0"
                 d=""
                 id="id-245f6e22-73cd-45ba-be06-fbef047e9dda" />
            </symbol>
            <symbol
               overflow="visible"
               id="id-6094ebdc-80ff-4768-bf2e-e0a172fbcff4">
              <path
                 style="stroke:none;stroke-width:0"
                 d="M 6.328125,-5.765625 C 6.4375,-6.171875 6.609375,-6.46875 7.40625,-6.5 c 0.046875,0 0.171875,-0.015625 0.171875,-0.203125 0,0 0,-0.109375 -0.125,-0.109375 -0.328125,0 -0.6875,0.03125 -1.015625,0.03125 -0.34375,0 -0.71875,-0.03125 -1.046875,-0.03125 -0.0625,0 -0.171875,0 -0.171875,0.203125 C 5.21875,-6.5 5.3125,-6.5 5.390625,-6.5 c 0.578125,0.015625 0.6875,0.21875 0.6875,0.4375 0,0.03125 -0.03125,0.1875 -0.03125,0.203125 l -0.90625,3.5625 C 4.8125,-0.953125 3.65625,-0.09375 2.65625,-0.09375 c -0.671875,0 -1.203125,-0.4375 -1.203125,-1.296875 0,-0.015625 0,-0.328125 0.109375,-0.765625 L 2.515625,-6.046875 C 2.609375,-6.40625 2.625,-6.5 3.359375,-6.5 c 0.265625,0 0.34375,0 0.34375,-0.203125 0,-0.109375 -0.109375,-0.109375 -0.140625,-0.109375 -0.28125,0 -1,0.03125 -1.28125,0.03125 -0.28125,0 -1,-0.03125 -1.28125,-0.03125 -0.078125,0 -0.1875,0 -0.1875,0.203125 C 0.8125,-6.5 0.890625,-6.5 1.09375,-6.5 c 0.015625,0 0.203125,0 0.375,0.015625 0.171875,0.03125 0.265625,0.03125 0.265625,0.171875 0,0.046875 -0.109375,0.46875 -0.171875,0.703125 l -0.21875,0.875 C 1.25,-4.34375 0.78125,-2.46875 0.734375,-2.265625 0.671875,-2 0.671875,-1.84375 0.671875,-1.6875 c 0,1.203125 0.90625,1.90625 1.953125,1.90625 1.25,0 2.484375,-1.125 2.8125,-2.4375 z m 0,0"
                 id="id-31259e22-bea2-4504-b143-9042c300b8c8" />
            </symbol>
            <symbol
               overflow="visible"
               id="id-5a57274d-d572-4f22-8c73-3c8407846ed0">
              <path
                 style="stroke:none;stroke-width:0"
                 d=""
                 id="id-d789301b-d272-466a-8fe2-2eab881524c2" />
            </symbol>
            <symbol
               overflow="visible"
               id="id-77763e48-d0ef-42ac-8c47-83a03cb4f484">
              <path
                 style="stroke:none;stroke-width:0"
                 d="m 2.0625,-3.03125 c -1.046875,0.265625 -1.640625,1.15625 -1.640625,1.890625 0,0.75 0.5625,1.21875 1.25,1.21875 0.84375,0 1.5,-0.984375 1.5,-2 C 3.171875,-2.59375 2.8125,-3 2.59375,-3.234375 2.34375,-3.53125 1.8125,-4.09375 1.8125,-4.421875 c 0,-0.09375 0.109375,-0.28125 0.390625,-0.28125 0.234375,0 0.4375,0.109375 0.578125,0.1875 0.0625,0.03125 0.3125,0.1875 0.421875,0.1875 C 3.375,-4.328125 3.5,-4.484375 3.5,-4.625 3.5,-4.796875 3.40625,-4.8125 3.03125,-4.890625 2.953125,-4.90625 2.625,-4.96875 2.40625,-4.96875 c -0.53125,0 -0.8125,0.296875 -0.8125,0.71875 0,0.375 0.21875,0.796875 0.46875,1.21875 z m 0.109375,0.1875 C 2.375,-2.53125 2.625,-2.125 2.625,-1.625 c 0,0.578125 -0.34375,1.515625 -0.9375,1.515625 -0.375,0 -0.75,-0.25 -0.75,-0.828125 0,-0.46875 0.265625,-1.671875 1.234375,-1.90625 z m 0,0"
                 id="id-e831e9f3-3d35-48be-97f5-2af3c09012ec" />
            </symbol>
          </g>
        </defs>
        <g
           id="id-11f8919a-23bc-4549-8a5f-3b7efc01c67a"
           transform="translate(-300.709,-139.907)">
          <g
             style="fill:#000000;fill-opacity:1"
             id="id-f4df8627-8cd4-4ce7-ae47-31ff64836adc">
            <g
               transform="translate(300.037,146.72)"
               id="g10423">
              <path
                 style="stroke:none;stroke-width:0"
                 d="M 6.328125,-5.765625 C 6.4375,-6.171875 6.609375,-6.46875 7.40625,-6.5 c 0.046875,0 0.171875,-0.015625 0.171875,-0.203125 0,0 0,-0.109375 -0.125,-0.109375 -0.328125,0 -0.6875,0.03125 -1.015625,0.03125 -0.34375,0 -0.71875,-0.03125 -1.046875,-0.03125 -0.0625,0 -0.171875,0 -0.171875,0.203125 C 5.21875,-6.5 5.3125,-6.5 5.390625,-6.5 c 0.578125,0.015625 0.6875,0.21875 0.6875,0.4375 0,0.03125 -0.03125,0.1875 -0.03125,0.203125 l -0.90625,3.5625 C 4.8125,-0.953125 3.65625,-0.09375 2.65625,-0.09375 c -0.671875,0 -1.203125,-0.4375 -1.203125,-1.296875 0,-0.015625 0,-0.328125 0.109375,-0.765625 L 2.515625,-6.046875 C 2.609375,-6.40625 2.625,-6.5 3.359375,-6.5 c 0.265625,0 0.34375,0 0.34375,-0.203125 0,-0.109375 -0.109375,-0.109375 -0.140625,-0.109375 -0.28125,0 -1,0.03125 -1.28125,0.03125 -0.28125,0 -1,-0.03125 -1.28125,-0.03125 -0.078125,0 -0.1875,0 -0.1875,0.203125 C 0.8125,-6.5 0.890625,-6.5 1.09375,-6.5 c 0.015625,0 0.203125,0 0.375,0.015625 0.171875,0.03125 0.265625,0.03125 0.265625,0.171875 0,0.046875 -0.109375,0.46875 -0.171875,0.703125 l -0.21875,0.875 C 1.25,-4.34375 0.78125,-2.46875 0.734375,-2.265625 0.671875,-2 0.671875,-1.84375 0.671875,-1.6875 c 0,1.203125 0.90625,1.90625 1.953125,1.90625 1.25,0 2.484375,-1.125 2.8125,-2.4375 z m 0,0"
                 id="id-9caa4ded-971c-4bc1-9c49-f311897b9f7b" />
            </g>
          </g>
          <g
             style="fill:#000000;fill-opacity:1"
             id="id-a506ed01-b5eb-44b1-ba5f-42883d6fc0f8">
            <g
               transform="translate(306.839,148.214)"
               id="g10427">
              <path
                 style="stroke:none;stroke-width:0"
                 d="m 2.0625,-3.03125 c -1.046875,0.265625 -1.640625,1.15625 -1.640625,1.890625 0,0.75 0.5625,1.21875 1.25,1.21875 0.84375,0 1.5,-0.984375 1.5,-2 C 3.171875,-2.59375 2.8125,-3 2.59375,-3.234375 2.34375,-3.53125 1.8125,-4.09375 1.8125,-4.421875 c 0,-0.09375 0.109375,-0.28125 0.390625,-0.28125 0.234375,0 0.4375,0.109375 0.578125,0.1875 0.0625,0.03125 0.3125,0.1875 0.421875,0.1875 C 3.375,-4.328125 3.5,-4.484375 3.5,-4.625 3.5,-4.796875 3.40625,-4.8125 3.03125,-4.890625 2.953125,-4.90625 2.625,-4.96875 2.40625,-4.96875 c -0.53125,0 -0.8125,0.296875 -0.8125,0.71875 0,0.375 0.21875,0.796875 0.46875,1.21875 z m 0.109375,0.1875 C 2.375,-2.53125 2.625,-2.125 2.625,-1.625 c 0,0.578125 -0.34375,1.515625 -0.9375,1.515625 -0.375,0 -0.75,-0.25 -0.75,-0.828125 0,-0.46875 0.265625,-1.671875 1.234375,-1.90625 z m 0,0"
                 id="id-3d25d177-a97b-42a2-9d7a-57a31c897e9e" />
            </g>
          </g>
        </g>
      </g>
    </g>
    <path
       style="fill:none;stroke:#302888;stroke-width:1.02853;stroke-linecap:butt;stroke-linejoin:miter;stroke-miterlimit:4;stroke-dasharray:4.11413, 2.05707;stroke-dashoffset:0;stroke-opacity:1;marker-start:url(#DotS)"
       d="m 63.602688,66.845544 c 36.645802,16.676691 17.925196,-2.909652 41.341102,-12.729228 11.38026,-4.772369 26.70162,7.621154 38.33881,6.777877 15.36814,-1.113631 32.67893,-12.93198 50.28441,-12.93198"
       id="path10584"
       sodipodi:nodetypes="cssc" />
    <g
       id="g48"
       transform="translate(1.8784665,-4.6022429)">
      <g
         id="g30">
        <g
           id="g47"
           transform="matrix(1.73757,0,0,1.73757,91.3521,70.9908)"
           ns9:version="1.12.0"
           ns9:texconverter="pdflatex"
           ns9:pdfconverter="inkscape"
           ns9:text="$$x_s(t)$$"
           ns9:preamble="C:\Users\user\AppData\Roaming\inkscape\extensions\textext\default_packages.tex"
           ns9:scale="4.925389219859496"
           ns9:alignment="middle center"
           ns9:inkscapeversion="1.4.4"
           ns9:jacobian_sqrt="1.73757"
           style="stroke:#ffffff;stroke-width:0.591939;stroke-dasharray:none;stroke-opacity:1">
          <defs
             id="defs36">
            <g
               id="g36">
              <g
                 id="g31">
                <path
                   d="M 3.328125,-3.015625 C 3.390625,-3.265625 3.625,-4.1875 4.3125,-4.1875 c 0.046875,0 0.296875,0 0.5,0.125 C 4.53125,-4 4.34375,-3.765625 4.34375,-3.515625 c 0,0.15625 0.109375,0.34375 0.375,0.34375 0.21875,0 0.53125,-0.171875 0.53125,-0.578125 0,-0.515625 -0.578125,-0.65625 -0.921875,-0.65625 -0.578125,0 -0.921875,0.53125 -1.046875,0.75 -0.25,-0.65625 -0.78125,-0.75 -1.078125,-0.75 -1.03125,0 -1.609375,1.28125 -1.609375,1.53125 0,0.109375 0.109375,0.109375 0.125,0.109375 0.078125,0 0.109375,-0.03125 0.125,-0.109375 0.34375,-1.0625 1,-1.3125 1.34375,-1.3125 0.1875,0 0.53125,0.09375 0.53125,0.671875 0,0.3125 -0.171875,0.96875 -0.53125,2.375 -0.15625,0.609375 -0.515625,1.03125 -0.953125,1.03125 -0.0625,0 -0.28125,0 -0.5,-0.125 0.25,-0.0625 0.46875,-0.265625 0.46875,-0.546875 0,-0.265625 -0.21875,-0.34375 -0.359375,-0.34375 -0.3125,0 -0.546875,0.25 -0.546875,0.578125 0,0.453125 0.484375,0.65625 0.921875,0.65625 0.671875,0 1.03125,-0.703125 1.046875,-0.75 0.125,0.359375 0.484375,0.75 1.078125,0.75 1.03125,0 1.59375,-1.28125 1.59375,-1.53125 0,-0.109375 -0.078125,-0.109375 -0.109375,-0.109375 -0.09375,0 -0.109375,0.046875 -0.140625,0.109375 -0.328125,1.078125 -1,1.3125 -1.3125,1.3125 -0.390625,0 -0.546875,-0.3125 -0.546875,-0.65625 0,-0.21875 0.046875,-0.4375 0.15625,-0.875 z m 0,0"
                   id="path31" />
              </g>
              <g
                 id="g32">
                <path
                   d="m 2.046875,-3.984375 h 0.9375 c 0.203125,0 0.3125,0 0.3125,-0.203125 0,-0.109375 -0.109375,-0.109375 -0.28125,-0.109375 h -0.875 C 2.5,-5.71875 2.546875,-5.90625 2.546875,-5.96875 c 0,-0.171875 -0.125,-0.265625 -0.296875,-0.265625 -0.03125,0 -0.3125,0 -0.390625,0.359375 L 1.46875,-4.296875 h -0.9375 c -0.203125,0 -0.296875,0 -0.296875,0.1875 0,0.125 0.078125,0.125 0.28125,0.125 h 0.875 C 0.671875,-1.15625 0.625,-0.984375 0.625,-0.8125 0.625,-0.265625 1,0.109375 1.546875,0.109375 2.5625,0.109375 3.125,-1.34375 3.125,-1.421875 3.125,-1.53125 3.046875,-1.53125 3.015625,-1.53125 2.921875,-1.53125 2.90625,-1.5 2.859375,-1.390625 2.4375,-0.34375 1.90625,-0.109375 1.5625,-0.109375 c -0.203125,0 -0.3125,-0.125 -0.3125,-0.453125 0,-0.25 0.03125,-0.3125 0.0625,-0.484375 z m 0,0"
                   id="path32" />
              </g>
              <g
                 id="g33">
                <path
                   d="m 3,-2.625 c -0.171875,0.046875 -0.296875,0.1875 -0.296875,0.328125 0,0.171875 0.140625,0.234375 0.234375,0.234375 0.078125,0 0.34375,-0.046875 0.34375,-0.40625 0,-0.453125 -0.5,-0.609375 -0.9375,-0.609375 -1.078125,0 -1.28125,0.8125 -1.28125,1.015625 0,0.265625 0.15625,0.4375 0.25,0.515625 0.171875,0.140625 0.296875,0.171875 0.78125,0.25 0.15625,0.03125 0.59375,0.109375 0.59375,0.453125 0,0.125 -0.078125,0.390625 -0.359375,0.5625 C 2.046875,-0.125 1.703125,-0.125 1.625,-0.125 1.34375,-0.125 0.953125,-0.1875 0.78125,-0.421875 1.015625,-0.453125 1.171875,-0.625 1.171875,-0.8125 c 0,-0.171875 -0.125,-0.265625 -0.265625,-0.265625 -0.203125,0 -0.40625,0.171875 -0.40625,0.46875 0,0.421875 0.4375,0.671875 1.109375,0.671875 1.296875,0 1.53125,-0.875 1.53125,-1.140625 0,-0.640625 -0.703125,-0.765625 -0.96875,-0.8125 -0.0625,-0.015625 -0.234375,-0.046875 -0.28125,-0.0625 -0.25,-0.046875 -0.375,-0.1875 -0.375,-0.34375 0,-0.15625 0.125,-0.34375 0.28125,-0.453125 0.1875,-0.109375 0.421875,-0.125 0.546875,-0.125 0.140625,0 0.5,0.015625 0.65625,0.25 z m 0,0"
                   id="path33" />
              </g>
              <g
                 id="g34">
                <path
                   d="m 3.296875,2.390625 c 0,-0.03125 0,-0.046875 -0.171875,-0.21875 C 1.890625,0.921875 1.5625,-0.96875 1.5625,-2.5 c 0,-1.734375 0.375,-3.46875 1.609375,-4.703125 0.125,-0.125 0.125,-0.140625 0.125,-0.171875 0,-0.078125 -0.03125,-0.109375 -0.09375,-0.109375 -0.109375,0 -1,0.6875 -1.59375,1.953125 -0.5,1.09375 -0.625,2.203125 -0.625,3.03125 0,0.78125 0.109375,1.984375 0.65625,3.125 C 2.25,1.84375 3.09375,2.5 3.203125,2.5 c 0.0625,0 0.09375,-0.03125 0.09375,-0.109375 z m 0,0"
                   id="path34" />
              </g>
              <g
                 id="g35">
                <path
                   d="m 2.875,-2.5 c 0,-0.765625 -0.109375,-1.96875 -0.65625,-3.109375 -0.59375,-1.21875 -1.453125,-1.875 -1.546875,-1.875 -0.0625,0 -0.109375,0.046875 -0.109375,0.109375 0,0.03125 0,0.046875 0.1875,0.234375 0.984375,0.984375 1.546875,2.5625 1.546875,4.640625 0,1.71875 -0.359375,3.46875 -1.59375,4.71875 C 0.5625,2.34375 0.5625,2.359375 0.5625,2.390625 0.5625,2.453125 0.609375,2.5 0.671875,2.5 0.765625,2.5 1.671875,1.8125 2.25,0.546875 2.765625,-0.546875 2.875,-1.65625 2.875,-2.5 Z m 0,0"
                   id="path35" />
              </g>
            </g>
          </defs>
          <g
             fill="#000000"
             fill-opacity="1"
             id="g38"
             transform="translate(-295.272,-139.236)"
             style="stroke:#ffffff;stroke-width:0.591939;stroke-dasharray:none;stroke-opacity:1">
            <g
               transform="translate(294.975,146.72)"
               id="g37"
               style="stroke:#ffffff;stroke-width:0.591939;stroke-dasharray:none;stroke-opacity:1">
              <path
                 d="M 3.328125,-3.015625 C 3.390625,-3.265625 3.625,-4.1875 4.3125,-4.1875 c 0.046875,0 0.296875,0 0.5,0.125 C 4.53125,-4 4.34375,-3.765625 4.34375,-3.515625 c 0,0.15625 0.109375,0.34375 0.375,0.34375 0.21875,0 0.53125,-0.171875 0.53125,-0.578125 0,-0.515625 -0.578125,-0.65625 -0.921875,-0.65625 -0.578125,0 -0.921875,0.53125 -1.046875,0.75 -0.25,-0.65625 -0.78125,-0.75 -1.078125,-0.75 -1.03125,0 -1.609375,1.28125 -1.609375,1.53125 0,0.109375 0.109375,0.109375 0.125,0.109375 0.078125,0 0.109375,-0.03125 0.125,-0.109375 0.34375,-1.0625 1,-1.3125 1.34375,-1.3125 0.1875,0 0.53125,0.09375 0.53125,0.671875 0,0.3125 -0.171875,0.96875 -0.53125,2.375 -0.15625,0.609375 -0.515625,1.03125 -0.953125,1.03125 -0.0625,0 -0.28125,0 -0.5,-0.125 0.25,-0.0625 0.46875,-0.265625 0.46875,-0.546875 0,-0.265625 -0.21875,-0.34375 -0.359375,-0.34375 -0.3125,0 -0.546875,0.25 -0.546875,0.578125 0,0.453125 0.484375,0.65625 0.921875,0.65625 0.671875,0 1.03125,-0.703125 1.046875,-0.75 0.125,0.359375 0.484375,0.75 1.078125,0.75 1.03125,0 1.59375,-1.28125 1.59375,-1.53125 0,-0.109375 -0.078125,-0.109375 -0.109375,-0.109375 -0.09375,0 -0.109375,0.046875 -0.140625,0.109375 -0.328125,1.078125 -1,1.3125 -1.3125,1.3125 -0.390625,0 -0.546875,-0.3125 -0.546875,-0.65625 0,-0.21875 0.046875,-0.4375 0.15625,-0.875 z m 0,0"
                 id="path36"
                 style="stroke:#ffffff;stroke-width:0.591939;stroke-dasharray:none;stroke-opacity:1" />
            </g>
          </g>
          <g
             fill="#000000"
             fill-opacity="1"
             id="g40"
             transform="translate(-295.272,-139.236)"
             style="stroke:#ffffff;stroke-width:0.591939;stroke-dasharray:none;stroke-opacity:1">
            <g
               transform="translate(300.669,148.214)"
               id="g39"
               style="stroke:#ffffff;stroke-width:0.591939;stroke-dasharray:none;stroke-opacity:1">
              <path
                 d="m 3,-2.625 c -0.171875,0.046875 -0.296875,0.1875 -0.296875,0.328125 0,0.171875 0.140625,0.234375 0.234375,0.234375 0.078125,0 0.34375,-0.046875 0.34375,-0.40625 0,-0.453125 -0.5,-0.609375 -0.9375,-0.609375 -1.078125,0 -1.28125,0.8125 -1.28125,1.015625 0,0.265625 0.15625,0.4375 0.25,0.515625 0.171875,0.140625 0.296875,0.171875 0.78125,0.25 0.15625,0.03125 0.59375,0.109375 0.59375,0.453125 0,0.125 -0.078125,0.390625 -0.359375,0.5625 C 2.046875,-0.125 1.703125,-0.125 1.625,-0.125 1.34375,-0.125 0.953125,-0.1875 0.78125,-0.421875 1.015625,-0.453125 1.171875,-0.625 1.171875,-0.8125 c 0,-0.171875 -0.125,-0.265625 -0.265625,-0.265625 -0.203125,0 -0.40625,0.171875 -0.40625,0.46875 0,0.421875 0.4375,0.671875 1.109375,0.671875 1.296875,0 1.53125,-0.875 1.53125,-1.140625 0,-0.640625 -0.703125,-0.765625 -0.96875,-0.8125 -0.0625,-0.015625 -0.234375,-0.046875 -0.28125,-0.0625 -0.25,-0.046875 -0.375,-0.1875 -0.375,-0.34375 0,-0.15625 0.125,-0.34375 0.28125,-0.453125 0.1875,-0.109375 0.421875,-0.125 0.546875,-0.125 0.140625,0 0.5,0.015625 0.65625,0.25 z m 0,0"
                 id="path38"
                 style="stroke:#ffffff;stroke-width:0.591939;stroke-dasharray:none;stroke-opacity:1" />
            </g>
          </g>
          <g
             fill="#000000"
             fill-opacity="1"
             id="g42"
             transform="translate(-295.272,-139.236)"
             style="stroke:#ffffff;stroke-width:0.591939;stroke-dasharray:none;stroke-opacity:1">
            <g
               transform="translate(304.927,146.72)"
               id="g41"
               style="stroke:#ffffff;stroke-width:0.591939;stroke-dasharray:none;stroke-opacity:1">
              <path
                 d="m 3.296875,2.390625 c 0,-0.03125 0,-0.046875 -0.171875,-0.21875 C 1.890625,0.921875 1.5625,-0.96875 1.5625,-2.5 c 0,-1.734375 0.375,-3.46875 1.609375,-4.703125 0.125,-0.125 0.125,-0.140625 0.125,-0.171875 0,-0.078125 -0.03125,-0.109375 -0.09375,-0.109375 -0.109375,0 -1,0.6875 -1.59375,1.953125 -0.5,1.09375 -0.625,2.203125 -0.625,3.03125 0,0.78125 0.109375,1.984375 0.65625,3.125 C 2.25,1.84375 3.09375,2.5 3.203125,2.5 c 0.0625,0 0.09375,-0.03125 0.09375,-0.109375 z m 0,0"
                 id="path40"
                 style="stroke:#ffffff;stroke-width:0.591939;stroke-dasharray:none;stroke-opacity:1" />
            </g>
          </g>
          <g
             fill="#000000"
             fill-opacity="1"
             id="g44"
             transform="translate(-295.272,-139.236)"
             style="stroke:#ffffff;stroke-width:0.591939;stroke-dasharray:none;stroke-opacity:1">
            <g
               transform="translate(308.801,146.72)"
               id="g43"
               style="stroke:#ffffff;stroke-width:0.591939;stroke-dasharray:none;stroke-opacity:1">
              <path
                 d="m 2.046875,-3.984375 h 0.9375 c 0.203125,0 0.3125,0 0.3125,-0.203125 0,-0.109375 -0.109375,-0.109375 -0.28125,-0.109375 h -0.875 C 2.5,-5.71875 2.546875,-5.90625 2.546875,-5.96875 c 0,-0.171875 -0.125,-0.265625 -0.296875,-0.265625 -0.03125,0 -0.3125,0 -0.390625,0.359375 L 1.46875,-4.296875 h -0.9375 c -0.203125,0 -0.296875,0 -0.296875,0.1875 0,0.125 0.078125,0.125 0.28125,0.125 h 0.875 C 0.671875,-1.15625 0.625,-0.984375 0.625,-0.8125 0.625,-0.265625 1,0.109375 1.546875,0.109375 2.5625,0.109375 3.125,-1.34375 3.125,-1.421875 3.125,-1.53125 3.046875,-1.53125 3.015625,-1.53125 2.921875,-1.53125 2.90625,-1.5 2.859375,-1.390625 2.4375,-0.34375 1.90625,-0.109375 1.5625,-0.109375 c -0.203125,0 -0.3125,-0.125 -0.3125,-0.453125 0,-0.25 0.03125,-0.3125 0.0625,-0.484375 z m 0,0"
                 id="path42"
                 style="stroke:#ffffff;stroke-width:0.591939;stroke-dasharray:none;stroke-opacity:1" />
            </g>
          </g>
          <g
             fill="#000000"
             fill-opacity="1"
             id="g46"
             transform="translate(-295.272,-139.236)"
             style="stroke:#ffffff;stroke-width:0.591939;stroke-dasharray:none;stroke-opacity:1">
            <g
               transform="translate(312.399,146.72)"
               id="g45"
               style="stroke:#ffffff;stroke-width:0.591939;stroke-dasharray:none;stroke-opacity:1">
              <path
                 d="m 2.875,-2.5 c 0,-0.765625 -0.109375,-1.96875 -0.65625,-3.109375 -0.59375,-1.21875 -1.453125,-1.875 -1.546875,-1.875 -0.0625,0 -0.109375,0.046875 -0.109375,0.109375 0,0.03125 0,0.046875 0.1875,0.234375 0.984375,0.984375 1.546875,2.5625 1.546875,4.640625 0,1.71875 -0.359375,3.46875 -1.59375,4.71875 C 0.5625,2.34375 0.5625,2.359375 0.5625,2.390625 0.5625,2.453125 0.609375,2.5 0.671875,2.5 0.765625,2.5 1.671875,1.8125 2.25,0.546875 2.765625,-0.546875 2.875,-1.65625 2.875,-2.5 Z m 0,0"
                 id="path44"
                 style="stroke:#ffffff;stroke-width:0.591939;stroke-dasharray:none;stroke-opacity:1" />
            </g>
          </g>
        </g>
      </g>
      <g
         id="g11174"
         transform="matrix(1.73757,0,0,1.73757,91.3521,70.9908)"
         ns9:version="1.12.0"
         ns9:texconverter="pdflatex"
         ns9:pdfconverter="inkscape"
         ns9:text="$$x_s(t)$$"
         ns9:preamble="C:\Users\user\AppData\Roaming\inkscape\extensions\textext\default_packages.tex"
         ns9:scale="4.925389219859496"
         ns9:alignment="middle center"
         ns9:inkscapeversion="1.4.4"
         ns9:jacobian_sqrt="1.73757">
        <defs
           id="defs6068">
          <g
             id="g2087">
            <g
               id="g8314">
              <path
                 d="M 3.328125,-3.015625 C 3.390625,-3.265625 3.625,-4.1875 4.3125,-4.1875 c 0.046875,0 0.296875,0 0.5,0.125 C 4.53125,-4 4.34375,-3.765625 4.34375,-3.515625 c 0,0.15625 0.109375,0.34375 0.375,0.34375 0.21875,0 0.53125,-0.171875 0.53125,-0.578125 0,-0.515625 -0.578125,-0.65625 -0.921875,-0.65625 -0.578125,0 -0.921875,0.53125 -1.046875,0.75 -0.25,-0.65625 -0.78125,-0.75 -1.078125,-0.75 -1.03125,0 -1.609375,1.28125 -1.609375,1.53125 0,0.109375 0.109375,0.109375 0.125,0.109375 0.078125,0 0.109375,-0.03125 0.125,-0.109375 0.34375,-1.0625 1,-1.3125 1.34375,-1.3125 0.1875,0 0.53125,0.09375 0.53125,0.671875 0,0.3125 -0.171875,0.96875 -0.53125,2.375 -0.15625,0.609375 -0.515625,1.03125 -0.953125,1.03125 -0.0625,0 -0.28125,0 -0.5,-0.125 0.25,-0.0625 0.46875,-0.265625 0.46875,-0.546875 0,-0.265625 -0.21875,-0.34375 -0.359375,-0.34375 -0.3125,0 -0.546875,0.25 -0.546875,0.578125 0,0.453125 0.484375,0.65625 0.921875,0.65625 0.671875,0 1.03125,-0.703125 1.046875,-0.75 0.125,0.359375 0.484375,0.75 1.078125,0.75 1.03125,0 1.59375,-1.28125 1.59375,-1.53125 0,-0.109375 -0.078125,-0.109375 -0.109375,-0.109375 -0.09375,0 -0.109375,0.046875 -0.140625,0.109375 -0.328125,1.078125 -1,1.3125 -1.3125,1.3125 -0.390625,0 -0.546875,-0.3125 -0.546875,-0.65625 0,-0.21875 0.046875,-0.4375 0.15625,-0.875 z m 0,0"
                 id="path5377" />
            </g>
            <g
               id="g4891">
              <path
                 d="m 2.046875,-3.984375 h 0.9375 c 0.203125,0 0.3125,0 0.3125,-0.203125 0,-0.109375 -0.109375,-0.109375 -0.28125,-0.109375 h -0.875 C 2.5,-5.71875 2.546875,-5.90625 2.546875,-5.96875 c 0,-0.171875 -0.125,-0.265625 -0.296875,-0.265625 -0.03125,0 -0.3125,0 -0.390625,0.359375 L 1.46875,-4.296875 h -0.9375 c -0.203125,0 -0.296875,0 -0.296875,0.1875 0,0.125 0.078125,0.125 0.28125,0.125 h 0.875 C 0.671875,-1.15625 0.625,-0.984375 0.625,-0.8125 0.625,-0.265625 1,0.109375 1.546875,0.109375 2.5625,0.109375 3.125,-1.34375 3.125,-1.421875 3.125,-1.53125 3.046875,-1.53125 3.015625,-1.53125 2.921875,-1.53125 2.90625,-1.5 2.859375,-1.390625 2.4375,-0.34375 1.90625,-0.109375 1.5625,-0.109375 c -0.203125,0 -0.3125,-0.125 -0.3125,-0.453125 0,-0.25 0.03125,-0.3125 0.0625,-0.484375 z m 0,0"
                 id="path8444" />
            </g>
            <g
               id="g200">
              <path
                 d="m 3,-2.625 c -0.171875,0.046875 -0.296875,0.1875 -0.296875,0.328125 0,0.171875 0.140625,0.234375 0.234375,0.234375 0.078125,0 0.34375,-0.046875 0.34375,-0.40625 0,-0.453125 -0.5,-0.609375 -0.9375,-0.609375 -1.078125,0 -1.28125,0.8125 -1.28125,1.015625 0,0.265625 0.15625,0.4375 0.25,0.515625 0.171875,0.140625 0.296875,0.171875 0.78125,0.25 0.15625,0.03125 0.59375,0.109375 0.59375,0.453125 0,0.125 -0.078125,0.390625 -0.359375,0.5625 C 2.046875,-0.125 1.703125,-0.125 1.625,-0.125 1.34375,-0.125 0.953125,-0.1875 0.78125,-0.421875 1.015625,-0.453125 1.171875,-0.625 1.171875,-0.8125 c 0,-0.171875 -0.125,-0.265625 -0.265625,-0.265625 -0.203125,0 -0.40625,0.171875 -0.40625,0.46875 0,0.421875 0.4375,0.671875 1.109375,0.671875 1.296875,0 1.53125,-0.875 1.53125,-1.140625 0,-0.640625 -0.703125,-0.765625 -0.96875,-0.8125 -0.0625,-0.015625 -0.234375,-0.046875 -0.28125,-0.0625 -0.25,-0.046875 -0.375,-0.1875 -0.375,-0.34375 0,-0.15625 0.125,-0.34375 0.28125,-0.453125 0.1875,-0.109375 0.421875,-0.125 0.546875,-0.125 0.140625,0 0.5,0.015625 0.65625,0.25 z m 0,0"
                 id="path8349" />
            </g>
            <g
               id="g2438">
              <path
                 d="m 3.296875,2.390625 c 0,-0.03125 0,-0.046875 -0.171875,-0.21875 C 1.890625,0.921875 1.5625,-0.96875 1.5625,-2.5 c 0,-1.734375 0.375,-3.46875 1.609375,-4.703125 0.125,-0.125 0.125,-0.140625 0.125,-0.171875 0,-0.078125 -0.03125,-0.109375 -0.09375,-0.109375 -0.109375,0 -1,0.6875 -1.59375,1.953125 -0.5,1.09375 -0.625,2.203125 -0.625,3.03125 0,0.78125 0.109375,1.984375 0.65625,3.125 C 2.25,1.84375 3.09375,2.5 3.203125,2.5 c 0.0625,0 0.09375,-0.03125 0.09375,-0.109375 z m 0,0"
                 id="path9208" />
            </g>
            <g
               id="g8916">
              <path
                 d="m 2.875,-2.5 c 0,-0.765625 -0.109375,-1.96875 -0.65625,-3.109375 -0.59375,-1.21875 -1.453125,-1.875 -1.546875,-1.875 -0.0625,0 -0.109375,0.046875 -0.109375,0.109375 0,0.03125 0,0.046875 0.1875,0.234375 0.984375,0.984375 1.546875,2.5625 1.546875,4.640625 0,1.71875 -0.359375,3.46875 -1.59375,4.71875 C 0.5625,2.34375 0.5625,2.359375 0.5625,2.390625 0.5625,2.453125 0.609375,2.5 0.671875,2.5 0.765625,2.5 1.671875,1.8125 2.25,0.546875 2.765625,-0.546875 2.875,-1.65625 2.875,-2.5 Z m 0,0"
                 id="path9875" />
            </g>
          </g>
        </defs>
        <g
           fill="#000000"
           fill-opacity="1"
           id="g648"
           transform="translate(-295.272,-139.236)">
          <g
             transform="translate(294.975,146.72)"
             id="g5381">
            <path
               d="M 3.328125,-3.015625 C 3.390625,-3.265625 3.625,-4.1875 4.3125,-4.1875 c 0.046875,0 0.296875,0 0.5,0.125 C 4.53125,-4 4.34375,-3.765625 4.34375,-3.515625 c 0,0.15625 0.109375,0.34375 0.375,0.34375 0.21875,0 0.53125,-0.171875 0.53125,-0.578125 0,-0.515625 -0.578125,-0.65625 -0.921875,-0.65625 -0.578125,0 -0.921875,0.53125 -1.046875,0.75 -0.25,-0.65625 -0.78125,-0.75 -1.078125,-0.75 -1.03125,0 -1.609375,1.28125 -1.609375,1.53125 0,0.109375 0.109375,0.109375 0.125,0.109375 0.078125,0 0.109375,-0.03125 0.125,-0.109375 0.34375,-1.0625 1,-1.3125 1.34375,-1.3125 0.1875,0 0.53125,0.09375 0.53125,0.671875 0,0.3125 -0.171875,0.96875 -0.53125,2.375 -0.15625,0.609375 -0.515625,1.03125 -0.953125,1.03125 -0.0625,0 -0.28125,0 -0.5,-0.125 0.25,-0.0625 0.46875,-0.265625 0.46875,-0.546875 0,-0.265625 -0.21875,-0.34375 -0.359375,-0.34375 -0.3125,0 -0.546875,0.25 -0.546875,0.578125 0,0.453125 0.484375,0.65625 0.921875,0.65625 0.671875,0 1.03125,-0.703125 1.046875,-0.75 0.125,0.359375 0.484375,0.75 1.078125,0.75 1.03125,0 1.59375,-1.28125 1.59375,-1.53125 0,-0.109375 -0.078125,-0.109375 -0.109375,-0.109375 -0.09375,0 -0.109375,0.046875 -0.140625,0.109375 -0.328125,1.078125 -1,1.3125 -1.3125,1.3125 -0.390625,0 -0.546875,-0.3125 -0.546875,-0.65625 0,-0.21875 0.046875,-0.4375 0.15625,-0.875 z m 0,0"
               id="path7227" />
          </g>
        </g>
        <g
           fill="#000000"
           fill-opacity="1"
           id="g9876"
           transform="translate(-295.272,-139.236)">
          <g
             transform="translate(300.669,148.214)"
             id="g2446">
            <path
               d="m 3,-2.625 c -0.171875,0.046875 -0.296875,0.1875 -0.296875,0.328125 0,0.171875 0.140625,0.234375 0.234375,0.234375 0.078125,0 0.34375,-0.046875 0.34375,-0.40625 0,-0.453125 -0.5,-0.609375 -0.9375,-0.609375 -1.078125,0 -1.28125,0.8125 -1.28125,1.015625 0,0.265625 0.15625,0.4375 0.25,0.515625 0.171875,0.140625 0.296875,0.171875 0.78125,0.25 0.15625,0.03125 0.59375,0.109375 0.59375,0.453125 0,0.125 -0.078125,0.390625 -0.359375,0.5625 C 2.046875,-0.125 1.703125,-0.125 1.625,-0.125 1.34375,-0.125 0.953125,-0.1875 0.78125,-0.421875 1.015625,-0.453125 1.171875,-0.625 1.171875,-0.8125 c 0,-0.171875 -0.125,-0.265625 -0.265625,-0.265625 -0.203125,0 -0.40625,0.171875 -0.40625,0.46875 0,0.421875 0.4375,0.671875 1.109375,0.671875 1.296875,0 1.53125,-0.875 1.53125,-1.140625 0,-0.640625 -0.703125,-0.765625 -0.96875,-0.8125 -0.0625,-0.015625 -0.234375,-0.046875 -0.28125,-0.0625 -0.25,-0.046875 -0.375,-0.1875 -0.375,-0.34375 0,-0.15625 0.125,-0.34375 0.28125,-0.453125 0.1875,-0.109375 0.421875,-0.125 0.546875,-0.125 0.140625,0 0.5,0.015625 0.65625,0.25 z m 0,0"
               id="path1910" />
          </g>
        </g>
        <g
           fill="#000000"
           fill-opacity="1"
           id="g4553"
           transform="translate(-295.272,-139.236)">
          <g
             transform="translate(304.927,146.72)"
             id="g446">
            <path
               d="m 3.296875,2.390625 c 0,-0.03125 0,-0.046875 -0.171875,-0.21875 C 1.890625,0.921875 1.5625,-0.96875 1.5625,-2.5 c 0,-1.734375 0.375,-3.46875 1.609375,-4.703125 0.125,-0.125 0.125,-0.140625 0.125,-0.171875 0,-0.078125 -0.03125,-0.109375 -0.09375,-0.109375 -0.109375,0 -1,0.6875 -1.59375,1.953125 -0.5,1.09375 -0.625,2.203125 -0.625,3.03125 0,0.78125 0.109375,1.984375 0.65625,3.125 C 2.25,1.84375 3.09375,2.5 3.203125,2.5 c 0.0625,0 0.09375,-0.03125 0.09375,-0.109375 z m 0,0"
               id="path6992" />
          </g>
        </g>
        <g
           fill="#000000"
           fill-opacity="1"
           id="g9475"
           transform="translate(-295.272,-139.236)">
          <g
             transform="translate(308.801,146.72)"
             id="g8860">
            <path
               d="m 2.046875,-3.984375 h 0.9375 c 0.203125,0 0.3125,0 0.3125,-0.203125 0,-0.109375 -0.109375,-0.109375 -0.28125,-0.109375 h -0.875 C 2.5,-5.71875 2.546875,-5.90625 2.546875,-5.96875 c 0,-0.171875 -0.125,-0.265625 -0.296875,-0.265625 -0.03125,0 -0.3125,0 -0.390625,0.359375 L 1.46875,-4.296875 h -0.9375 c -0.203125,0 -0.296875,0 -0.296875,0.1875 0,0.125 0.078125,0.125 0.28125,0.125 h 0.875 C 0.671875,-1.15625 0.625,-0.984375 0.625,-0.8125 0.625,-0.265625 1,0.109375 1.546875,0.109375 2.5625,0.109375 3.125,-1.34375 3.125,-1.421875 3.125,-1.53125 3.046875,-1.53125 3.015625,-1.53125 2.921875,-1.53125 2.90625,-1.5 2.859375,-1.390625 2.4375,-0.34375 1.90625,-0.109375 1.5625,-0.109375 c -0.203125,0 -0.3125,-0.125 -0.3125,-0.453125 0,-0.25 0.03125,-0.3125 0.0625,-0.484375 z m 0,0"
               id="path1807" />
          </g>
        </g>
        <g
           fill="#000000"
           fill-opacity="1"
           id="g7300"
           transform="translate(-295.272,-139.236)">
          <g
             transform="translate(312.399,146.72)"
             id="g2005">
            <path
               d="m 2.875,-2.5 c 0,-0.765625 -0.109375,-1.96875 -0.65625,-3.109375 -0.59375,-1.21875 -1.453125,-1.875 -1.546875,-1.875 -0.0625,0 -0.109375,0.046875 -0.109375,0.109375 0,0.03125 0,0.046875 0.1875,0.234375 0.984375,0.984375 1.546875,2.5625 1.546875,4.640625 0,1.71875 -0.359375,3.46875 -1.59375,4.71875 C 0.5625,2.34375 0.5625,2.359375 0.5625,2.390625 0.5625,2.453125 0.609375,2.5 0.671875,2.5 0.765625,2.5 1.671875,1.8125 2.25,0.546875 2.765625,-0.546875 2.875,-1.65625 2.875,-2.5 Z m 0,0"
               id="path9312" />
          </g>
        </g>
      </g>
    </g>
    <g
       id="g49"
       transform="translate(-2.7707381,-2.5828914)">
      <g
         id="g29"
         transform="matrix(1.6912985,0,0,1.6912985,13.63885,68.668563)"
         ns9:version="1.12.0"
         ns9:texconverter="pdflatex"
         ns9:pdfconverter="inkscape"
         ns9:text="$$\\mathrm{orb}\\,x_\\star$$"
         ns9:preamble="C:\Users\user\AppData\Roaming\inkscape\extensions\textext\default_packages.tex"
         ns9:scale="1.5187949393684759"
         ns9:alignment="middle center"
         ns9:inkscapeversion="1.4.4"
         ns9:jacobian_sqrt="2.02505"
         style="stroke:#ffffff;stroke-opacity:1">
        <defs
           id="defs20">
          <g
             id="g20">
            <g
               id="g15">
              <path
                 d="M 4.6875,-2.140625 C 4.6875,-3.40625 3.703125,-4.46875 2.5,-4.46875 c -1.25,0 -2.21875,1.09375 -2.21875,2.328125 0,1.296875 1.03125,2.25 2.203125,2.25 1.203125,0 2.203125,-0.984375 2.203125,-2.25 z m -2.1875,2 c -0.4375,0 -0.875,-0.203125 -1.140625,-0.671875 -0.25,-0.4375 -0.25,-1.046875 -0.25,-1.40625 0,-0.390625 0,-0.921875 0.234375,-1.359375 C 1.609375,-4.03125 2.078125,-4.25 2.484375,-4.25 c 0.4375,0 0.859375,0.21875 1.125,0.65625 0.265625,0.421875 0.265625,1 0.265625,1.375 0,0.359375 0,0.90625 -0.21875,1.34375 C 3.421875,-0.421875 2.984375,-0.140625 2.5,-0.140625 Z m 0,0"
                 id="path3" />
            </g>
            <g
               id="g16">
              <path
                 d="M 1.671875,-3.3125 V -4.40625 L 0.28125,-4.296875 v 0.3125 c 0.703125,0 0.78125,0.0625 0.78125,0.5625 V -0.75 c 0,0.4375 -0.109375,0.4375 -0.78125,0.4375 V 0 c 0.390625,-0.015625 0.859375,-0.03125 1.140625,-0.03125 0.390625,0 0.859375,0 1.265625,0.03125 V -0.3125 H 2.46875 c -0.734375,0 -0.75,-0.109375 -0.75,-0.46875 V -2.3125 c 0,-0.984375 0.421875,-1.875 1.171875,-1.875 0.0625,0 0.09375,0 0.109375,0.015625 -0.03125,0 -0.234375,0.125 -0.234375,0.390625 0,0.265625 0.21875,0.421875 0.4375,0.421875 0.171875,0 0.421875,-0.125 0.421875,-0.4375 0,-0.3125 -0.3125,-0.609375 -0.734375,-0.609375 -0.734375,0 -1.09375,0.671875 -1.21875,1.09375 z m 0,0"
                 id="path15" />
            </g>
            <g
               id="g17">
              <path
                 d="m 1.71875,-3.765625 v -3.15625 L 0.28125,-6.8125 V -6.5 c 0.703125,0 0.78125,0.0625 0.78125,0.5625 V 0 h 0.25 c 0,-0.015625 0.078125,-0.15625 0.359375,-0.625 0.140625,0.234375 0.5625,0.734375 1.296875,0.734375 1.1875,0 2.21875,-0.984375 2.21875,-2.265625 0,-1.265625 -0.96875,-2.25 -2.109375,-2.25 -0.78125,0 -1.203125,0.46875 -1.359375,0.640625 z m 0.03125,2.625 V -3.1875 c 0,-0.1875 0,-0.203125 0.109375,-0.359375 C 2.25,-4.109375 2.796875,-4.1875 3.03125,-4.1875 c 0.453125,0 0.8125,0.265625 1.046875,0.640625 0.265625,0.40625 0.28125,0.96875 0.28125,1.390625 0,0.359375 -0.015625,0.953125 -0.296875,1.40625 -0.21875,0.3125 -0.59375,0.640625 -1.125,0.640625 -0.453125,0 -0.8125,-0.234375 -1.046875,-0.609375 C 1.75,-0.921875 1.75,-0.953125 1.75,-1.140625 Z m 0,0"
                 id="path16" />
            </g>
            <g
               id="g18">
              <path
                 d="M 3.328125,-3.015625 C 3.390625,-3.265625 3.625,-4.1875 4.3125,-4.1875 c 0.046875,0 0.296875,0 0.5,0.125 C 4.53125,-4 4.34375,-3.765625 4.34375,-3.515625 c 0,0.15625 0.109375,0.34375 0.375,0.34375 0.21875,0 0.53125,-0.171875 0.53125,-0.578125 0,-0.515625 -0.578125,-0.65625 -0.921875,-0.65625 -0.578125,0 -0.921875,0.53125 -1.046875,0.75 -0.25,-0.65625 -0.78125,-0.75 -1.078125,-0.75 -1.03125,0 -1.609375,1.28125 -1.609375,1.53125 0,0.109375 0.109375,0.109375 0.125,0.109375 0.078125,0 0.109375,-0.03125 0.125,-0.109375 0.34375,-1.0625 1,-1.3125 1.34375,-1.3125 0.1875,0 0.53125,0.09375 0.53125,0.671875 0,0.3125 -0.171875,0.96875 -0.53125,2.375 -0.15625,0.609375 -0.515625,1.03125 -0.953125,1.03125 -0.0625,0 -0.28125,0 -0.5,-0.125 0.25,-0.0625 0.46875,-0.265625 0.46875,-0.546875 0,-0.265625 -0.21875,-0.34375 -0.359375,-0.34375 -0.3125,0 -0.546875,0.25 -0.546875,0.578125 0,0.453125 0.484375,0.65625 0.921875,0.65625 0.671875,0 1.03125,-0.703125 1.046875,-0.75 0.125,0.359375 0.484375,0.75 1.078125,0.75 1.03125,0 1.59375,-1.28125 1.59375,-1.53125 0,-0.109375 -0.078125,-0.109375 -0.109375,-0.109375 -0.09375,0 -0.109375,0.046875 -0.140625,0.109375 -0.328125,1.078125 -1,1.3125 -1.3125,1.3125 -0.390625,0 -0.546875,-0.3125 -0.546875,-0.65625 0,-0.21875 0.046875,-0.4375 0.15625,-0.875 z m 0,0"
                 id="path17" />
            </g>
            <g
               id="g19">
              <path
                 d="m 3.65625,-2 c 0.125,-0.0625 0.125,-0.09375 0.125,-0.125 0,-0.0625 -0.0625,-0.09375 -0.09375,-0.09375 C 3.65625,-2.21875 2.5,-2 2.3125,-1.953125 L 2.140625,-3.234375 C 2.125,-3.34375 2.125,-3.421875 2.03125,-3.421875 c -0.0625,0 -0.09375,0.0625 -0.109375,0.171875 l -0.15625,1.296875 -1.28125,-0.25 C 0.40625,-2.21875 0.390625,-2.21875 0.390625,-2.21875 c -0.046875,0 -0.109375,0.03125 -0.109375,0.09375 0,0.03125 0.015625,0.046875 0.046875,0.078125 0.015625,0.015625 1.125,0.53125 1.28125,0.59375 L 0.96875,-0.296875 C 0.921875,-0.203125 0.921875,-0.1875 0.921875,-0.1875 c 0,0.0625 0.046875,0.109375 0.09375,0.109375 0.0625,0 0.203125,-0.171875 0.46875,-0.484375 0.1875,-0.1875 0.375,-0.375 0.546875,-0.5625 0.34375,0.34375 0.84375,0.890625 0.921875,0.96875 0.0625,0.0625 0.0625,0.078125 0.109375,0.078125 0.046875,0 0.09375,-0.046875 0.09375,-0.109375 0,-0.015625 -0.09375,-0.171875 -0.140625,-0.265625 L 2.46875,-1.4375 Z m 0,0"
                 id="path18" />
            </g>
          </g>
        </defs>
        <g
           fill="#000000"
           fill-opacity="1"
           id="g24"
           transform="translate(-292.729,-139.798)"
           style="stroke:#ffffff;stroke-opacity:1">
          <g
             transform="translate(292.448,146.72)"
             id="g21"
             style="stroke:#ffffff;stroke-opacity:1">
            <path
               d="M 4.6875,-2.140625 C 4.6875,-3.40625 3.703125,-4.46875 2.5,-4.46875 c -1.25,0 -2.21875,1.09375 -2.21875,2.328125 0,1.296875 1.03125,2.25 2.203125,2.25 1.203125,0 2.203125,-0.984375 2.203125,-2.25 z m -2.1875,2 c -0.4375,0 -0.875,-0.203125 -1.140625,-0.671875 -0.25,-0.4375 -0.25,-1.046875 -0.25,-1.40625 0,-0.390625 0,-0.921875 0.234375,-1.359375 C 1.609375,-4.03125 2.078125,-4.25 2.484375,-4.25 c 0.4375,0 0.859375,0.21875 1.125,0.65625 0.265625,0.421875 0.265625,1 0.265625,1.375 0,0.359375 0,0.90625 -0.21875,1.34375 C 3.421875,-0.421875 2.984375,-0.140625 2.5,-0.140625 Z m 0,0"
               id="path20"
               style="stroke:#ffffff;stroke-opacity:1" />
          </g>
          <g
             transform="translate(297.429,146.72)"
             id="g22"
             style="stroke:#ffffff;stroke-opacity:1">
            <path
               d="M 1.671875,-3.3125 V -4.40625 L 0.28125,-4.296875 v 0.3125 c 0.703125,0 0.78125,0.0625 0.78125,0.5625 V -0.75 c 0,0.4375 -0.109375,0.4375 -0.78125,0.4375 V 0 c 0.390625,-0.015625 0.859375,-0.03125 1.140625,-0.03125 0.390625,0 0.859375,0 1.265625,0.03125 V -0.3125 H 2.46875 c -0.734375,0 -0.75,-0.109375 -0.75,-0.46875 V -2.3125 c 0,-0.984375 0.421875,-1.875 1.171875,-1.875 0.0625,0 0.09375,0 0.109375,0.015625 -0.03125,0 -0.234375,0.125 -0.234375,0.390625 0,0.265625 0.21875,0.421875 0.4375,0.421875 0.171875,0 0.421875,-0.125 0.421875,-0.4375 0,-0.3125 -0.3125,-0.609375 -0.734375,-0.609375 -0.734375,0 -1.09375,0.671875 -1.21875,1.09375 z m 0,0"
               id="path21"
               style="stroke:#ffffff;stroke-opacity:1" />
          </g>
          <g
             transform="translate(301.332,146.72)"
             id="g23"
             style="stroke:#ffffff;stroke-opacity:1">
            <path
               d="m 1.71875,-3.765625 v -3.15625 L 0.28125,-6.8125 V -6.5 c 0.703125,0 0.78125,0.0625 0.78125,0.5625 V 0 h 0.25 c 0,-0.015625 0.078125,-0.15625 0.359375,-0.625 0.140625,0.234375 0.5625,0.734375 1.296875,0.734375 1.1875,0 2.21875,-0.984375 2.21875,-2.265625 0,-1.265625 -0.96875,-2.25 -2.109375,-2.25 -0.78125,0 -1.203125,0.46875 -1.359375,0.640625 z m 0.03125,2.625 V -3.1875 c 0,-0.1875 0,-0.203125 0.109375,-0.359375 C 2.25,-4.109375 2.796875,-4.1875 3.03125,-4.1875 c 0.453125,0 0.8125,0.265625 1.046875,0.640625 0.265625,0.40625 0.28125,0.96875 0.28125,1.390625 0,0.359375 -0.015625,0.953125 -0.296875,1.40625 -0.21875,0.3125 -0.59375,0.640625 -1.125,0.640625 -0.453125,0 -0.8125,-0.234375 -1.046875,-0.609375 C 1.75,-0.921875 1.75,-0.953125 1.75,-1.140625 Z m 0,0"
               id="path22"
               style="stroke:#ffffff;stroke-opacity:1" />
          </g>
        </g>
        <g
           fill="#000000"
           fill-opacity="1"
           id="g26"
           transform="translate(-292.729,-139.798)"
           style="stroke:#ffffff;stroke-opacity:1">
          <g
             transform="translate(308.531,146.72)"
             id="g25"
             style="stroke:#ffffff;stroke-opacity:1">
            <path
               d="M 3.328125,-3.015625 C 3.390625,-3.265625 3.625,-4.1875 4.3125,-4.1875 c 0.046875,0 0.296875,0 0.5,0.125 C 4.53125,-4 4.34375,-3.765625 4.34375,-3.515625 c 0,0.15625 0.109375,0.34375 0.375,0.34375 0.21875,0 0.53125,-0.171875 0.53125,-0.578125 0,-0.515625 -0.578125,-0.65625 -0.921875,-0.65625 -0.578125,0 -0.921875,0.53125 -1.046875,0.75 -0.25,-0.65625 -0.78125,-0.75 -1.078125,-0.75 -1.03125,0 -1.609375,1.28125 -1.609375,1.53125 0,0.109375 0.109375,0.109375 0.125,0.109375 0.078125,0 0.109375,-0.03125 0.125,-0.109375 0.34375,-1.0625 1,-1.3125 1.34375,-1.3125 0.1875,0 0.53125,0.09375 0.53125,0.671875 0,0.3125 -0.171875,0.96875 -0.53125,2.375 -0.15625,0.609375 -0.515625,1.03125 -0.953125,1.03125 -0.0625,0 -0.28125,0 -0.5,-0.125 0.25,-0.0625 0.46875,-0.265625 0.46875,-0.546875 0,-0.265625 -0.21875,-0.34375 -0.359375,-0.34375 -0.3125,0 -0.546875,0.25 -0.546875,0.578125 0,0.453125 0.484375,0.65625 0.921875,0.65625 0.671875,0 1.03125,-0.703125 1.046875,-0.75 0.125,0.359375 0.484375,0.75 1.078125,0.75 1.03125,0 1.59375,-1.28125 1.59375,-1.53125 0,-0.109375 -0.078125,-0.109375 -0.109375,-0.109375 -0.09375,0 -0.109375,0.046875 -0.140625,0.109375 -0.328125,1.078125 -1,1.3125 -1.3125,1.3125 -0.390625,0 -0.546875,-0.3125 -0.546875,-0.65625 0,-0.21875 0.046875,-0.4375 0.15625,-0.875 z m 0,0"
               id="path24"
               style="stroke:#ffffff;stroke-opacity:1" />
          </g>
        </g>
        <g
           fill="#000000"
           fill-opacity="1"
           id="g28"
           transform="translate(-292.729,-139.798)"
           style="stroke:#ffffff;stroke-opacity:1">
          <g
             transform="translate(314.22,148.214)"
             id="g27"
             style="stroke:#ffffff;stroke-opacity:1">
            <path
               d="m 3.65625,-2 c 0.125,-0.0625 0.125,-0.09375 0.125,-0.125 0,-0.0625 -0.0625,-0.09375 -0.09375,-0.09375 C 3.65625,-2.21875 2.5,-2 2.3125,-1.953125 L 2.140625,-3.234375 C 2.125,-3.34375 2.125,-3.421875 2.03125,-3.421875 c -0.0625,0 -0.09375,0.0625 -0.109375,0.171875 l -0.15625,1.296875 -1.28125,-0.25 C 0.40625,-2.21875 0.390625,-2.21875 0.390625,-2.21875 c -0.046875,0 -0.109375,0.03125 -0.109375,0.09375 0,0.03125 0.015625,0.046875 0.046875,0.078125 0.015625,0.015625 1.125,0.53125 1.28125,0.59375 L 0.96875,-0.296875 C 0.921875,-0.203125 0.921875,-0.1875 0.921875,-0.1875 c 0,0.0625 0.046875,0.109375 0.09375,0.109375 0.0625,0 0.203125,-0.171875 0.46875,-0.484375 0.1875,-0.1875 0.375,-0.375 0.546875,-0.5625 0.34375,0.34375 0.84375,0.890625 0.921875,0.96875 0.0625,0.0625 0.0625,0.078125 0.109375,0.078125 0.046875,0 0.09375,-0.046875 0.09375,-0.109375 0,-0.015625 -0.09375,-0.171875 -0.140625,-0.265625 L 2.46875,-1.4375 Z m 0,0"
               id="path26"
               style="stroke:#ffffff;stroke-opacity:1" />
          </g>
        </g>
      </g>
      <g
         id="g9024"
         transform="matrix(1.6912985,0,0,1.6912985,13.63885,68.668563)"
         ns9:version="1.12.0"
         ns9:texconverter="pdflatex"
         ns9:pdfconverter="inkscape"
         ns9:text="$$\\mathrm{orb}\\,x_\\star$$"
         ns9:preamble="C:\Users\user\AppData\Roaming\inkscape\extensions\textext\default_packages.tex"
         ns9:scale="1.5187949393684759"
         ns9:alignment="middle center"
         ns9:inkscapeversion="1.4.4"
         ns9:jacobian_sqrt="2.02505">
        <defs
           id="defs7883">
          <g
             id="g2898">
            <g
               id="g1196">
              <path
                 d="M 4.6875,-2.140625 C 4.6875,-3.40625 3.703125,-4.46875 2.5,-4.46875 c -1.25,0 -2.21875,1.09375 -2.21875,2.328125 0,1.296875 1.03125,2.25 2.203125,2.25 1.203125,0 2.203125,-0.984375 2.203125,-2.25 z m -2.1875,2 c -0.4375,0 -0.875,-0.203125 -1.140625,-0.671875 -0.25,-0.4375 -0.25,-1.046875 -0.25,-1.40625 0,-0.390625 0,-0.921875 0.234375,-1.359375 C 1.609375,-4.03125 2.078125,-4.25 2.484375,-4.25 c 0.4375,0 0.859375,0.21875 1.125,0.65625 0.265625,0.421875 0.265625,1 0.265625,1.375 0,0.359375 0,0.90625 -0.21875,1.34375 C 3.421875,-0.421875 2.984375,-0.140625 2.5,-0.140625 Z m 0,0"
                 id="path9245" />
            </g>
            <g
               id="g9301">
              <path
                 d="M 1.671875,-3.3125 V -4.40625 L 0.28125,-4.296875 v 0.3125 c 0.703125,0 0.78125,0.0625 0.78125,0.5625 V -0.75 c 0,0.4375 -0.109375,0.4375 -0.78125,0.4375 V 0 c 0.390625,-0.015625 0.859375,-0.03125 1.140625,-0.03125 0.390625,0 0.859375,0 1.265625,0.03125 V -0.3125 H 2.46875 c -0.734375,0 -0.75,-0.109375 -0.75,-0.46875 V -2.3125 c 0,-0.984375 0.421875,-1.875 1.171875,-1.875 0.0625,0 0.09375,0 0.109375,0.015625 -0.03125,0 -0.234375,0.125 -0.234375,0.390625 0,0.265625 0.21875,0.421875 0.4375,0.421875 0.171875,0 0.421875,-0.125 0.421875,-0.4375 0,-0.3125 -0.3125,-0.609375 -0.734375,-0.609375 -0.734375,0 -1.09375,0.671875 -1.21875,1.09375 z m 0,0"
                 id="path6737" />
            </g>
            <g
               id="g7058">
              <path
                 d="m 1.71875,-3.765625 v -3.15625 L 0.28125,-6.8125 V -6.5 c 0.703125,0 0.78125,0.0625 0.78125,0.5625 V 0 h 0.25 c 0,-0.015625 0.078125,-0.15625 0.359375,-0.625 0.140625,0.234375 0.5625,0.734375 1.296875,0.734375 1.1875,0 2.21875,-0.984375 2.21875,-2.265625 0,-1.265625 -0.96875,-2.25 -2.109375,-2.25 -0.78125,0 -1.203125,0.46875 -1.359375,0.640625 z m 0.03125,2.625 V -3.1875 c 0,-0.1875 0,-0.203125 0.109375,-0.359375 C 2.25,-4.109375 2.796875,-4.1875 3.03125,-4.1875 c 0.453125,0 0.8125,0.265625 1.046875,0.640625 0.265625,0.40625 0.28125,0.96875 0.28125,1.390625 0,0.359375 -0.015625,0.953125 -0.296875,1.40625 -0.21875,0.3125 -0.59375,0.640625 -1.125,0.640625 -0.453125,0 -0.8125,-0.234375 -1.046875,-0.609375 C 1.75,-0.921875 1.75,-0.953125 1.75,-1.140625 Z m 0,0"
                 id="path4232" />
            </g>
            <g
               id="g9121">
              <path
                 d="M 3.328125,-3.015625 C 3.390625,-3.265625 3.625,-4.1875 4.3125,-4.1875 c 0.046875,0 0.296875,0 0.5,0.125 C 4.53125,-4 4.34375,-3.765625 4.34375,-3.515625 c 0,0.15625 0.109375,0.34375 0.375,0.34375 0.21875,0 0.53125,-0.171875 0.53125,-0.578125 0,-0.515625 -0.578125,-0.65625 -0.921875,-0.65625 -0.578125,0 -0.921875,0.53125 -1.046875,0.75 -0.25,-0.65625 -0.78125,-0.75 -1.078125,-0.75 -1.03125,0 -1.609375,1.28125 -1.609375,1.53125 0,0.109375 0.109375,0.109375 0.125,0.109375 0.078125,0 0.109375,-0.03125 0.125,-0.109375 0.34375,-1.0625 1,-1.3125 1.34375,-1.3125 0.1875,0 0.53125,0.09375 0.53125,0.671875 0,0.3125 -0.171875,0.96875 -0.53125,2.375 -0.15625,0.609375 -0.515625,1.03125 -0.953125,1.03125 -0.0625,0 -0.28125,0 -0.5,-0.125 0.25,-0.0625 0.46875,-0.265625 0.46875,-0.546875 0,-0.265625 -0.21875,-0.34375 -0.359375,-0.34375 -0.3125,0 -0.546875,0.25 -0.546875,0.578125 0,0.453125 0.484375,0.65625 0.921875,0.65625 0.671875,0 1.03125,-0.703125 1.046875,-0.75 0.125,0.359375 0.484375,0.75 1.078125,0.75 1.03125,0 1.59375,-1.28125 1.59375,-1.53125 0,-0.109375 -0.078125,-0.109375 -0.109375,-0.109375 -0.09375,0 -0.109375,0.046875 -0.140625,0.109375 -0.328125,1.078125 -1,1.3125 -1.3125,1.3125 -0.390625,0 -0.546875,-0.3125 -0.546875,-0.65625 0,-0.21875 0.046875,-0.4375 0.15625,-0.875 z m 0,0"
                 id="path8579" />
            </g>
            <g
               id="g4752">
              <path
                 d="m 3.65625,-2 c 0.125,-0.0625 0.125,-0.09375 0.125,-0.125 0,-0.0625 -0.0625,-0.09375 -0.09375,-0.09375 C 3.65625,-2.21875 2.5,-2 2.3125,-1.953125 L 2.140625,-3.234375 C 2.125,-3.34375 2.125,-3.421875 2.03125,-3.421875 c -0.0625,0 -0.09375,0.0625 -0.109375,0.171875 l -0.15625,1.296875 -1.28125,-0.25 C 0.40625,-2.21875 0.390625,-2.21875 0.390625,-2.21875 c -0.046875,0 -0.109375,0.03125 -0.109375,0.09375 0,0.03125 0.015625,0.046875 0.046875,0.078125 0.015625,0.015625 1.125,0.53125 1.28125,0.59375 L 0.96875,-0.296875 C 0.921875,-0.203125 0.921875,-0.1875 0.921875,-0.1875 c 0,0.0625 0.046875,0.109375 0.09375,0.109375 0.0625,0 0.203125,-0.171875 0.46875,-0.484375 0.1875,-0.1875 0.375,-0.375 0.546875,-0.5625 0.34375,0.34375 0.84375,0.890625 0.921875,0.96875 0.0625,0.0625 0.0625,0.078125 0.109375,0.078125 0.046875,0 0.09375,-0.046875 0.09375,-0.109375 0,-0.015625 -0.09375,-0.171875 -0.140625,-0.265625 L 2.46875,-1.4375 Z m 0,0"
                 id="path4881" />
            </g>
          </g>
        </defs>
        <g
           fill="#000000"
           fill-opacity="1"
           id="g137"
           transform="translate(-292.729,-139.798)">
          <g
             transform="translate(292.448,146.72)"
             id="g6328">
            <path
               d="M 4.6875,-2.140625 C 4.6875,-3.40625 3.703125,-4.46875 2.5,-4.46875 c -1.25,0 -2.21875,1.09375 -2.21875,2.328125 0,1.296875 1.03125,2.25 2.203125,2.25 1.203125,0 2.203125,-0.984375 2.203125,-2.25 z m -2.1875,2 c -0.4375,0 -0.875,-0.203125 -1.140625,-0.671875 -0.25,-0.4375 -0.25,-1.046875 -0.25,-1.40625 0,-0.390625 0,-0.921875 0.234375,-1.359375 C 1.609375,-4.03125 2.078125,-4.25 2.484375,-4.25 c 0.4375,0 0.859375,0.21875 1.125,0.65625 0.265625,0.421875 0.265625,1 0.265625,1.375 0,0.359375 0,0.90625 -0.21875,1.34375 C 3.421875,-0.421875 2.984375,-0.140625 2.5,-0.140625 Z m 0,0"
               id="path4052" />
          </g>
          <g
             transform="translate(297.429,146.72)"
             id="g7067">
            <path
               d="M 1.671875,-3.3125 V -4.40625 L 0.28125,-4.296875 v 0.3125 c 0.703125,0 0.78125,0.0625 0.78125,0.5625 V -0.75 c 0,0.4375 -0.109375,0.4375 -0.78125,0.4375 V 0 c 0.390625,-0.015625 0.859375,-0.03125 1.140625,-0.03125 0.390625,0 0.859375,0 1.265625,0.03125 V -0.3125 H 2.46875 c -0.734375,0 -0.75,-0.109375 -0.75,-0.46875 V -2.3125 c 0,-0.984375 0.421875,-1.875 1.171875,-1.875 0.0625,0 0.09375,0 0.109375,0.015625 -0.03125,0 -0.234375,0.125 -0.234375,0.390625 0,0.265625 0.21875,0.421875 0.4375,0.421875 0.171875,0 0.421875,-0.125 0.421875,-0.4375 0,-0.3125 -0.3125,-0.609375 -0.734375,-0.609375 -0.734375,0 -1.09375,0.671875 -1.21875,1.09375 z m 0,0"
               id="path3309" />
          </g>
          <g
             transform="translate(301.332,146.72)"
             id="g8320">
            <path
               d="m 1.71875,-3.765625 v -3.15625 L 0.28125,-6.8125 V -6.5 c 0.703125,0 0.78125,0.0625 0.78125,0.5625 V 0 h 0.25 c 0,-0.015625 0.078125,-0.15625 0.359375,-0.625 0.140625,0.234375 0.5625,0.734375 1.296875,0.734375 1.1875,0 2.21875,-0.984375 2.21875,-2.265625 0,-1.265625 -0.96875,-2.25 -2.109375,-2.25 -0.78125,0 -1.203125,0.46875 -1.359375,0.640625 z m 0.03125,2.625 V -3.1875 c 0,-0.1875 0,-0.203125 0.109375,-0.359375 C 2.25,-4.109375 2.796875,-4.1875 3.03125,-4.1875 c 0.453125,0 0.8125,0.265625 1.046875,0.640625 0.265625,0.40625 0.28125,0.96875 0.28125,1.390625 0,0.359375 -0.015625,0.953125 -0.296875,1.40625 -0.21875,0.3125 -0.59375,0.640625 -1.125,0.640625 -0.453125,0 -0.8125,-0.234375 -1.046875,-0.609375 C 1.75,-0.921875 1.75,-0.953125 1.75,-1.140625 Z m 0,0"
               id="path7182" />
          </g>
        </g>
        <g
           fill="#000000"
           fill-opacity="1"
           id="g3377"
           transform="translate(-292.729,-139.798)">
          <g
             transform="translate(308.531,146.72)"
             id="g364">
            <path
               d="M 3.328125,-3.015625 C 3.390625,-3.265625 3.625,-4.1875 4.3125,-4.1875 c 0.046875,0 0.296875,0 0.5,0.125 C 4.53125,-4 4.34375,-3.765625 4.34375,-3.515625 c 0,0.15625 0.109375,0.34375 0.375,0.34375 0.21875,0 0.53125,-0.171875 0.53125,-0.578125 0,-0.515625 -0.578125,-0.65625 -0.921875,-0.65625 -0.578125,0 -0.921875,0.53125 -1.046875,0.75 -0.25,-0.65625 -0.78125,-0.75 -1.078125,-0.75 -1.03125,0 -1.609375,1.28125 -1.609375,1.53125 0,0.109375 0.109375,0.109375 0.125,0.109375 0.078125,0 0.109375,-0.03125 0.125,-0.109375 0.34375,-1.0625 1,-1.3125 1.34375,-1.3125 0.1875,0 0.53125,0.09375 0.53125,0.671875 0,0.3125 -0.171875,0.96875 -0.53125,2.375 -0.15625,0.609375 -0.515625,1.03125 -0.953125,1.03125 -0.0625,0 -0.28125,0 -0.5,-0.125 0.25,-0.0625 0.46875,-0.265625 0.46875,-0.546875 0,-0.265625 -0.21875,-0.34375 -0.359375,-0.34375 -0.3125,0 -0.546875,0.25 -0.546875,0.578125 0,0.453125 0.484375,0.65625 0.921875,0.65625 0.671875,0 1.03125,-0.703125 1.046875,-0.75 0.125,0.359375 0.484375,0.75 1.078125,0.75 1.03125,0 1.59375,-1.28125 1.59375,-1.53125 0,-0.109375 -0.078125,-0.109375 -0.109375,-0.109375 -0.09375,0 -0.109375,0.046875 -0.140625,0.109375 -0.328125,1.078125 -1,1.3125 -1.3125,1.3125 -0.390625,0 -0.546875,-0.3125 -0.546875,-0.65625 0,-0.21875 0.046875,-0.4375 0.15625,-0.875 z m 0,0"
               id="path3875" />
          </g>
        </g>
        <g
           fill="#000000"
           fill-opacity="1"
           id="g7879"
           transform="translate(-292.729,-139.798)">
          <g
             transform="translate(314.22,148.214)"
             id="g5657">
            <path
               d="m 3.65625,-2 c 0.125,-0.0625 0.125,-0.09375 0.125,-0.125 0,-0.0625 -0.0625,-0.09375 -0.09375,-0.09375 C 3.65625,-2.21875 2.5,-2 2.3125,-1.953125 L 2.140625,-3.234375 C 2.125,-3.34375 2.125,-3.421875 2.03125,-3.421875 c -0.0625,0 -0.09375,0.0625 -0.109375,0.171875 l -0.15625,1.296875 -1.28125,-0.25 C 0.40625,-2.21875 0.390625,-2.21875 0.390625,-2.21875 c -0.046875,0 -0.109375,0.03125 -0.109375,0.09375 0,0.03125 0.015625,0.046875 0.046875,0.078125 0.015625,0.015625 1.125,0.53125 1.28125,0.59375 L 0.96875,-0.296875 C 0.921875,-0.203125 0.921875,-0.1875 0.921875,-0.1875 c 0,0.0625 0.046875,0.109375 0.09375,0.109375 0.0625,0 0.203125,-0.171875 0.46875,-0.484375 0.1875,-0.1875 0.375,-0.375 0.546875,-0.5625 0.34375,0.34375 0.84375,0.890625 0.921875,0.96875 0.0625,0.0625 0.0625,0.078125 0.109375,0.078125 0.046875,0 0.09375,-0.046875 0.09375,-0.109375 0,-0.015625 -0.09375,-0.171875 -0.140625,-0.265625 L 2.46875,-1.4375 Z m 0,0"
               id="path4345" />
          </g>
        </g>
      </g>
    </g>
  </g>
</svg>
