<?xml version="1.0" encoding="utf-8" standalone="no"?>
<!DOCTYPE svg PUBLIC "-//W3C//DTD SVG 1.1//EN"
  "http://www.w3.org/Graphics/SVG/1.1/DTD/svg11.dtd">
<svg xmlns:xlink="http://www.w3.org/1999/xlink" width="360pt" height="237.6pt" viewBox="0 0 360 237.6" xmlns="http://www.w3.org/2000/svg" version="1.1">
 <metadata>
  <rdf:RDF xmlns:dc="http://purl.org/dc/elements/1.1/" xmlns:cc="http://creativecommons.org/ns#" xmlns:rdf="http://www.w3.org/1999/02/22-rdf-syntax-ns#">
   <cc:Work>
    <dc:type rdf:resource="http://purl.org/dc/dcmitype/StillImage"/>
    <dc:date>2026-06-04T00:50:26.460909</dc:date>
    <dc:format>image/svg+xml</dc:format>
    <dc:creator>
     <cc:Agent>
      <dc:title>Matplotlib v3.10.8, https://matplotlib.org/</dc:title>
     </cc:Agent>
    </dc:creator>
   </cc:Work>
  </rdf:RDF>
 </metadata>
 <defs>
  <style type="text/css">*{stroke-linejoin: round; stroke-linecap: butt}</style>
 </defs>
 <g id="figure_1">
  <g id="patch_1">
   <path d="M 0 237.6 
L 360 237.6 
L 360 0 
L 0 0 
z
" style="fill: #ffffff"/>
  </g>
  <g id="axes_1">
   <g id="patch_2">
    <path d="M 33.414032 210.486039 
L 354.485968 210.486039 
L 354.485968 5 
L 33.414032 5 
z
" style="fill: #ffffff"/>
   </g>
   <g id="matplotlib.axis_1">
    <g id="xtick_1">
     <g id="line2d_1">
      <defs>
       <path id="mc8e00d5acc" d="M 0 0 
L 0 3.5 
" style="stroke: #000000; stroke-width: 0.8"/>
      </defs>
      <g>
       <use xlink:href="#mc8e00d5acc" x="65.521226" y="210.486039" style="stroke: #000000; stroke-width: 0.8"/>
      </g>
     </g>
     <g id="text_1">
      <!-- $\mathdefault{−2}$ -->
      <g transform="translate(59.156186 224.584359) scale(0.1 -0.1)">
       <defs>
        <path id="CMSY10-0" d="M 4218 1472 
C 4326 1472 4442 1472 4442 1600 
C 4442 1728 4326 1728 4218 1728 
L 755 1728 
C 646 1728 531 1728 531 1600 
C 531 1472 646 1472 755 1472 
L 4218 1472 
z
" transform="scale(0.015625)"/>
        <path id="CMR17-32" d="M 2669 990 
L 2554 990 
C 2490 537 2438 460 2413 422 
C 2381 371 1920 371 1830 371 
L 602 371 
C 832 620 1280 1073 1824 1596 
C 2214 1966 2669 2400 2669 3033 
C 2669 3788 2067 4224 1395 4224 
C 691 4224 262 3603 262 3027 
C 262 2777 448 2745 525 2745 
C 589 2745 781 2783 781 3007 
C 781 3206 614 3264 525 3264 
C 486 3264 448 3257 422 3244 
C 544 3788 915 4057 1306 4057 
C 1862 4057 2227 3616 2227 3033 
C 2227 2477 1901 1998 1536 1583 
L 262 147 
L 262 0 
L 2515 0 
L 2669 990 
z
" transform="scale(0.015625)"/>
       </defs>
       <use xlink:href="#CMSY10-0" transform="scale(0.996264)"/>
       <use xlink:href="#CMR17-32" transform="translate(77.487468 0) scale(0.996264)"/>
      </g>
     </g>
    </g>
    <g id="xtick_2">
     <g id="line2d_2">
      <g>
       <use xlink:href="#mc8e00d5acc" x="129.735613" y="210.486039" style="stroke: #000000; stroke-width: 0.8"/>
      </g>
     </g>
     <g id="text_2">
      <!-- $\mathdefault{−1}$ -->
      <g transform="translate(123.370573 224.584359) scale(0.1 -0.1)">
       <defs>
        <path id="CMR17-31" d="M 1702 4083 
C 1702 4217 1696 4224 1606 4224 
C 1357 3927 979 3833 621 3820 
C 602 3820 570 3820 563 3808 
C 557 3795 557 3782 557 3648 
C 755 3648 1088 3686 1344 3839 
L 1344 467 
C 1344 243 1331 166 781 166 
L 589 166 
L 589 0 
C 896 6 1216 12 1523 12 
C 1830 12 2150 6 2458 0 
L 2458 166 
L 2266 166 
C 1715 166 1702 236 1702 467 
L 1702 4083 
z
" transform="scale(0.015625)"/>
       </defs>
       <use xlink:href="#CMSY10-0" transform="scale(0.996264)"/>
       <use xlink:href="#CMR17-31" transform="translate(77.487468 0) scale(0.996264)"/>
      </g>
     </g>
    </g>
    <g id="xtick_3">
     <g id="line2d_3">
      <g>
       <use xlink:href="#mc8e00d5acc" x="193.95" y="210.486039" style="stroke: #000000; stroke-width: 0.8"/>
      </g>
     </g>
     <g id="text_3">
      <!-- $\mathdefault{0}$ -->
      <g transform="translate(191.459332 224.584359) scale(0.1 -0.1)">
       <defs>
        <path id="CMR17-30" d="M 2688 2038 
C 2688 2430 2682 3099 2413 3613 
C 2176 4063 1798 4224 1466 4224 
C 1158 4224 768 4082 525 3620 
C 269 3137 243 2539 243 2038 
C 243 1671 250 1112 448 623 
C 723 -39 1216 -128 1466 -128 
C 1760 -128 2208 -7 2470 604 
C 2662 1048 2688 1568 2688 2038 
z
M 1466 -26 
C 1056 -26 813 328 723 816 
C 653 1196 653 1749 653 2109 
C 653 2604 653 3015 736 3407 
C 858 3954 1216 4121 1466 4121 
C 1728 4121 2067 3947 2189 3420 
C 2272 3054 2278 2623 2278 2109 
C 2278 1691 2278 1176 2202 797 
C 2067 96 1690 -26 1466 -26 
z
" transform="scale(0.015625)"/>
       </defs>
       <use xlink:href="#CMR17-30" transform="scale(0.996264)"/>
      </g>
     </g>
    </g>
    <g id="xtick_4">
     <g id="line2d_4">
      <g>
       <use xlink:href="#mc8e00d5acc" x="258.164387" y="210.486039" style="stroke: #000000; stroke-width: 0.8"/>
      </g>
     </g>
     <g id="text_4">
      <!-- $\mathdefault{1}$ -->
      <g transform="translate(255.67372 224.584359) scale(0.1 -0.1)">
       <use xlink:href="#CMR17-31" transform="scale(0.996264)"/>
      </g>
     </g>
    </g>
    <g id="xtick_5">
     <g id="line2d_5">
      <g>
       <use xlink:href="#mc8e00d5acc" x="322.378774" y="210.486039" style="stroke: #000000; stroke-width: 0.8"/>
      </g>
     </g>
     <g id="text_5">
      <!-- $\mathdefault{2}$ -->
      <g transform="translate(319.888107 224.584359) scale(0.1 -0.1)">
       <use xlink:href="#CMR17-32" transform="scale(0.996264)"/>
      </g>
     </g>
    </g>
   </g>
   <g id="matplotlib.axis_2">
    <g id="ytick_1">
     <g id="line2d_6">
      <defs>
       <path id="m3012fe7518" d="M 0 0 
L -3.5 0 
" style="stroke: #000000; stroke-width: 0.8"/>
      </defs>
      <g>
       <use xlink:href="#m3012fe7518" x="33.414032" y="210.486039" style="stroke: #000000; stroke-width: 0.8"/>
      </g>
     </g>
     <g id="text_6">
      <!-- $\mathdefault{0.5}$ -->
      <g transform="translate(13.683953 214.035199) scale(0.1 -0.1)">
       <defs>
        <path id="CMMI12-3a" d="M 1178 307 
C 1178 492 1024 620 870 620 
C 685 620 557 467 557 313 
C 557 128 710 0 864 0 
C 1050 0 1178 153 1178 307 
z
" transform="scale(0.015625)"/>
        <path id="CMR17-35" d="M 730 3750 
C 794 3724 1056 3641 1325 3641 
C 1920 3641 2246 3961 2432 4140 
C 2432 4191 2432 4224 2394 4224 
C 2387 4224 2374 4224 2323 4198 
C 2099 4102 1837 4032 1517 4032 
C 1325 4032 1037 4055 723 4191 
C 653 4224 640 4224 634 4224 
C 602 4224 595 4217 595 4090 
L 595 2231 
C 595 2113 595 2080 659 2080 
C 691 2080 704 2093 736 2139 
C 941 2435 1222 2560 1542 2560 
C 1766 2560 2246 2415 2246 1293 
C 2246 1087 2246 716 2054 422 
C 1894 159 1645 25 1370 25 
C 947 25 518 319 403 812 
C 429 806 480 793 506 793 
C 589 793 749 838 749 1036 
C 749 1209 627 1280 506 1280 
C 358 1280 262 1190 262 1011 
C 262 454 704 -128 1382 -128 
C 2042 -128 2669 441 2669 1267 
C 2669 2054 2170 2662 1549 2662 
C 1222 2662 947 2540 730 2304 
L 730 3750 
z
" transform="scale(0.015625)"/>
       </defs>
       <use xlink:href="#CMR17-30" transform="scale(0.996264)"/>
       <use xlink:href="#CMMI12-3a" transform="translate(45.690477 0) scale(0.996264)"/>
       <use xlink:href="#CMR17-35" transform="translate(72.787654 0) scale(0.996264)"/>
      </g>
     </g>
    </g>
    <g id="ytick_2">
     <g id="line2d_7">
      <g>
       <use xlink:href="#m3012fe7518" x="33.414032" y="178.378845" style="stroke: #000000; stroke-width: 0.8"/>
      </g>
     </g>
     <g id="text_7">
      <!-- $\mathdefault{1.0}$ -->
      <g transform="translate(13.683953 181.928006) scale(0.1 -0.1)">
       <use xlink:href="#CMR17-31" transform="scale(0.996264)"/>
       <use xlink:href="#CMMI12-3a" transform="translate(45.690477 0) scale(0.996264)"/>
       <use xlink:href="#CMR17-30" transform="translate(72.787654 0) scale(0.996264)"/>
      </g>
     </g>
    </g>
    <g id="ytick_3">
     <g id="line2d_8">
      <g>
       <use xlink:href="#m3012fe7518" x="33.414032" y="146.271652" style="stroke: #000000; stroke-width: 0.8"/>
      </g>
     </g>
     <g id="text_8">
      <!-- $\mathdefault{1.5}$ -->
      <g transform="translate(13.683953 149.820812) scale(0.1 -0.1)">
       <use xlink:href="#CMR17-31" transform="scale(0.996264)"/>
       <use xlink:href="#CMMI12-3a" transform="translate(45.690477 0) scale(0.996264)"/>
       <use xlink:href="#CMR17-35" transform="translate(72.787654 0) scale(0.996264)"/>
      </g>
     </g>
    </g>
    <g id="ytick_4">
     <g id="line2d_9">
      <g>
       <use xlink:href="#m3012fe7518" x="33.414032" y="114.164458" style="stroke: #000000; stroke-width: 0.8"/>
      </g>
     </g>
     <g id="text_9">
      <!-- $\mathdefault{2.0}$ -->
      <g transform="translate(13.683953 117.713618) scale(0.1 -0.1)">
       <use xlink:href="#CMR17-32" transform="scale(0.996264)"/>
       <use xlink:href="#CMMI12-3a" transform="translate(45.690477 0) scale(0.996264)"/>
       <use xlink:href="#CMR17-30" transform="translate(72.787654 0) scale(0.996264)"/>
      </g>
     </g>
    </g>
    <g id="ytick_5">
     <g id="line2d_10">
      <g>
       <use xlink:href="#m3012fe7518" x="33.414032" y="82.057265" style="stroke: #000000; stroke-width: 0.8"/>
      </g>
     </g>
     <g id="text_10">
      <!-- $\mathdefault{2.5}$ -->
      <g transform="translate(13.683953 85.606425) scale(0.1 -0.1)">
       <use xlink:href="#CMR17-32" transform="scale(0.996264)"/>
       <use xlink:href="#CMMI12-3a" transform="translate(45.690477 0) scale(0.996264)"/>
       <use xlink:href="#CMR17-35" transform="translate(72.787654 0) scale(0.996264)"/>
      </g>
     </g>
    </g>
    <g id="ytick_6">
     <g id="line2d_11">
      <g>
       <use xlink:href="#m3012fe7518" x="33.414032" y="49.950071" style="stroke: #000000; stroke-width: 0.8"/>
      </g>
     </g>
     <g id="text_11">
      <!-- $\mathdefault{3.0}$ -->
      <g transform="translate(13.683953 53.499231) scale(0.1 -0.1)">
       <defs>
        <path id="CMR17-33" d="M 1414 2176 
C 1984 2176 2234 1673 2234 1094 
C 2234 322 1824 25 1453 25 
C 1114 25 563 193 390 691 
C 422 678 454 678 486 678 
C 640 678 755 780 755 947 
C 755 1132 614 1216 486 1216 
C 378 1216 211 1164 211 927 
C 211 335 787 -128 1466 -128 
C 2176 -128 2720 432 2720 1087 
C 2720 1718 2208 2176 1600 2246 
C 2086 2347 2554 2776 2554 3353 
C 2554 3856 2048 4224 1472 4224 
C 890 4224 378 3862 378 3347 
C 378 3123 544 3084 627 3084 
C 762 3084 877 3167 877 3334 
C 877 3500 762 3584 627 3584 
C 602 3584 570 3584 544 3571 
C 730 3999 1235 4076 1459 4076 
C 1683 4076 2106 3966 2106 3347 
C 2106 3167 2080 2851 1862 2574 
C 1670 2329 1453 2316 1242 2297 
C 1210 2297 1062 2284 1037 2284 
C 992 2278 966 2272 966 2227 
C 966 2182 973 2176 1101 2176 
L 1414 2176 
z
" transform="scale(0.015625)"/>
       </defs>
       <use xlink:href="#CMR17-33" transform="scale(0.996264)"/>
       <use xlink:href="#CMMI12-3a" transform="translate(45.690477 0) scale(0.996264)"/>
       <use xlink:href="#CMR17-30" transform="translate(72.787654 0) scale(0.996264)"/>
      </g>
     </g>
    </g>
    <g id="ytick_7">
     <g id="line2d_12">
      <g>
       <use xlink:href="#m3012fe7518" x="33.414032" y="17.842877" style="stroke: #000000; stroke-width: 0.8"/>
      </g>
     </g>
     <g id="text_12">
      <!-- $\mathdefault{3.5}$ -->
      <g transform="translate(13.683953 21.392038) scale(0.1 -0.1)">
       <use xlink:href="#CMR17-33" transform="scale(0.996264)"/>
       <use xlink:href="#CMMI12-3a" transform="translate(45.690477 0) scale(0.996264)"/>
       <use xlink:href="#CMR17-35" transform="translate(72.787654 0) scale(0.996264)"/>
      </g>
     </g>
    </g>
   </g>
   <g id="line2d_13">
    <path d="M 52.678348 82.057265 
L 55.85703 85.195008 
L 58.976783 87.956691 
L 62.044758 90.37835 
L 65.067436 92.491257 
L 68.198941 94.40726 
L 71.293227 96.040297 
L 74.355977 97.41426 
L 77.536429 98.59847 
L 80.69351 99.542153 
L 83.974622 100.291362 
L 87.382887 100.833823 
L 90.780886 101.149625 
L 94.315206 101.254469 
L 97.991054 101.137297 
L 101.81458 100.787531 
L 105.792907 100.195006 
L 109.934157 99.349934 
L 114.247487 98.242937 
L 118.888858 96.816919 
L 123.727176 95.097379 
L 128.925221 93.015065 
L 134.656582 90.47411 
L 140.954805 87.432506 
L 148.177052 83.688616 
L 157.048866 78.823217 
L 173.033653 69.738756 
L 184.656049 63.265683 
L 192.639365 59.072404 
L 199.3053 55.818187 
L 205.136306 53.20924 
L 210.469708 51.055923 
L 215.47339 49.269334 
L 220.130817 47.835318 
L 224.623937 46.683732 
L 228.943973 45.811568 
L 233.083114 45.210487 
L 237.034589 44.867259 
L 240.792716 44.764336 
L 244.352912 44.880517 
L 247.909056 45.216277 
L 251.4571 45.782267 
L 254.796781 46.536957 
L 258.12176 47.512892 
L 261.428223 48.716283 
L 264.712258 50.152197 
L 267.969879 51.82445 
L 271.197043 53.735509 
L 274.389682 55.886404 
L 277.543719 58.276671 
L 280.6551 60.904294 
L 283.898558 63.941182 
L 287.085038 67.23395 
L 290.210005 70.774462 
L 293.437019 74.76933 
L 296.585724 79.015076 
L 299.810478 83.737661 
L 303.092118 88.953496 
L 306.261686 94.406569 
L 309.456884 100.342687 
L 312.655261 106.756109 
L 315.83318 113.631057 
L 318.966123 120.94097 
L 322.029058 128.64819 
L 324.99687 136.704162 
L 327.942219 145.34736 
L 330.726422 154.205566 
L 333.405803 163.484247 
L 335.861967 172.794287 
L 338.076817 182.043903 
L 340.086782 191.398319 
L 341.811043 200.494139 
L 343.208979 209.033968 
L 344.326944 217.211782 
L 345.145567 224.790168 
L 345.698118 231.959444 
L 345.982688 238.537796 
L 345.984222 238.6 
L 345.984222 238.6 
" clip-path="url(#p735c5529d4)" style="fill: none; stroke: #0000ff; stroke-width: 2; stroke-linecap: square"/>
   </g>
   <g id="line2d_14">
    <path d="M 65.345719 238.6 
L 65.615714 233.659684 
L 66.090146 228.985675 
L 66.754613 224.606991 
L 67.59715 220.502546 
L 68.632686 216.561537 
L 69.832429 212.861071 
L 71.219799 209.298877 
L 72.796055 205.864915 
L 74.562563 202.547103 
L 76.56423 199.264912 
L 78.812611 196.012166 
L 81.319494 192.778623 
L 84.150248 189.491377 
L 87.384376 186.080521 
L 91.117001 182.474183 
L 95.461428 178.592711 
L 100.689687 174.230987 
L 107.140973 169.152594 
L 115.48537 162.882161 
L 127.146446 154.417645 
L 142.384525 143.635608 
L 155.737433 134.442357 
L 165.999417 127.635763 
L 174.469539 122.274652 
L 181.821166 117.875923 
L 188.402978 114.189833 
L 194.381544 111.089249 
L 199.96099 108.443205 
L 205.101096 106.246234 
L 209.905714 104.426248 
L 214.490655 102.921936 
L 218.839601 101.724461 
L 222.938472 100.81758 
L 226.917933 100.158898 
L 230.769764 99.744352 
L 234.486636 99.566299 
L 238.062177 99.613759 
L 241.633718 99.888233 
L 245.053234 100.375946 
L 248.458317 101.092496 
L 251.702806 102.001151 
L 254.923843 103.132754 
L 258.116246 104.491552 
L 261.274757 106.080295 
L 264.394069 107.900127 
L 267.468872 109.950491 
L 270.493885 112.229079 
L 273.591709 114.845603 
L 276.623872 117.699416 
L 279.706528 120.914942 
L 282.705823 124.366112 
L 285.73052 128.189753 
L 288.763169 132.393802 
L 291.679354 136.812833 
L 294.574685 141.595913 
L 297.42952 146.733809 
L 300.223521 152.210127 
L 303.020429 158.189684 
L 305.702541 164.457674 
L 308.248494 170.972104 
L 310.637704 177.684889 
L 312.908692 184.732577 
L 314.97149 191.862994 
L 316.809879 199.015124 
L 318.409904 206.129307 
L 319.760017 213.14929 
L 320.828481 219.864246 
L 321.644497 226.406367 
L 322.193102 232.597031 
L 322.489132 238.434015 
L 322.494145 238.6 
L 322.494145 238.6 
" clip-path="url(#p735c5529d4)" style="fill: none; stroke: #ffa500; stroke-width: 3; stroke-linecap: square"/>
   </g>
   <g id="line2d_15">
    <defs>
     <path id="m112fa43286" d="M 0 2.5 
C 0.663008 2.5 1.29895 2.236584 1.767767 1.767767 
C 2.236584 1.29895 2.5 0.663008 2.5 0 
C 2.5 -0.663008 2.236584 -1.29895 1.767767 -1.767767 
C 1.29895 -2.236584 0.663008 -2.5 0 -2.5 
C -0.663008 -2.5 -1.29895 -2.236584 -1.767767 -1.767767 
C -2.236584 -1.29895 -2.5 -0.663008 -2.5 0 
C -2.5 0.663008 -2.236584 1.29895 -1.767767 1.767767 
C -1.29895 2.236584 -0.663008 2.5 0 2.5 
z
" style="stroke: #202080"/>
    </defs>
    <g clip-path="url(#p735c5529d4)">
     <use xlink:href="#m112fa43286" x="125.501204" y="94.412527" style="fill: #202080; stroke: #202080"/>
    </g>
   </g>
   <g id="line2d_16">
    <g clip-path="url(#p735c5529d4)">
     <use xlink:href="#m112fa43286" x="153.695739" y="135.827521" style="fill: #202080; stroke: #202080"/>
    </g>
   </g>
   <g id="line2d_17">
    <path d="M 153.695739 135.827521 
L 125.501204 94.412527 
" clip-path="url(#p735c5529d4)" style="fill: none; stroke: #202020; stroke-linecap: square"/>
   </g>
   <g id="line2d_18">
    <path d="M 128.155269 92.605691 
L 122.84714 96.219364 
" clip-path="url(#p735c5529d4)" style="fill: none; stroke: #202020; stroke-linecap: square"/>
   </g>
   <g id="line2d_19">
    <path d="M 135.203903 102.959439 
L 129.895773 106.573112 
" clip-path="url(#p735c5529d4)" style="fill: none; stroke: #202020; stroke-linecap: square"/>
   </g>
   <g id="line2d_20">
    <path d="M 142.252537 113.313188 
L 136.944407 116.926861 
" clip-path="url(#p735c5529d4)" style="fill: none; stroke: #202020; stroke-linecap: square"/>
   </g>
   <g id="line2d_21">
    <path d="M 149.301171 123.666936 
L 143.993041 127.280609 
" clip-path="url(#p735c5529d4)" style="fill: none; stroke: #202020; stroke-linecap: square"/>
   </g>
   <g id="line2d_22">
    <path d="M 156.349804 134.020684 
L 151.041675 137.634358 
" clip-path="url(#p735c5529d4)" style="fill: none; stroke: #202020; stroke-linecap: square"/>
   </g>
   <g id="patch_3">
    <path d="M 33.414032 210.486039 
L 33.414032 5 
" style="fill: none; stroke: #000000; stroke-width: 0.8; stroke-linejoin: miter; stroke-linecap: square"/>
   </g>
   <g id="patch_4">
    <path d="M 354.485968 210.486039 
L 354.485968 5 
" style="fill: none; stroke: #000000; stroke-width: 0.8; stroke-linejoin: miter; stroke-linecap: square"/>
   </g>
   <g id="patch_5">
    <path d="M 33.414032 210.486039 
L 354.485968 210.486039 
" style="fill: none; stroke: #000000; stroke-width: 0.8; stroke-linejoin: miter; stroke-linecap: square"/>
   </g>
   <g id="patch_6">
    <path d="M 33.414032 5 
L 354.485968 5 
" style="fill: none; stroke: #000000; stroke-width: 0.8; stroke-linejoin: miter; stroke-linecap: square"/>
   </g>
   <g id="patch_7">
    <path d="M 155.349201 134.70226 
Q 201.474042 103.312056 245.750291 73.179909 
" style="fill: none; stroke: #202060; stroke-width: 2; stroke-linecap: round"/>
    <path d="M 236.886086 74.374009 
L 245.750291 73.179909 
L 241.387048 80.987733 
z
" style="fill: #202060; stroke: #202060; stroke-width: 2; stroke-linecap: round"/>
   </g>
   <g id="patch_8">
    <path d="M 152.570478 134.17406 
Q 121.180274 88.049219 91.048128 43.772969 
" style="fill: none; stroke: #202060; stroke-width: 2; stroke-linecap: round"/>
    <path d="M 92.242227 52.637174 
L 91.048128 43.772969 
L 98.855951 48.136212 
z
" style="fill: #202060; stroke: #202060; stroke-width: 2; stroke-linecap: round"/>
   </g>
   <g id="text_13">
    <g id="patch_9">
     <path d="M 244.11524 104.236239 
L 279.072787 104.236239 
Q 285.072787 104.236239 285.072787 98.236239 
L 285.072787 78.345573 
Q 285.072787 72.345573 279.072787 72.345573 
L 244.11524 72.345573 
Q 238.11524 72.345573 238.11524 78.345573 
L 238.11524 98.236239 
Q 238.11524 104.236239 244.11524 104.236239 
L 244.11524 104.236239 
z
" style="fill: none; opacity: 0"/>
    </g>
    <!-- $v(\tau)$ -->
    <g transform="translate(244.11524 93.271595) scale(0.2 -0.2)">
     <defs>
      <path id="CMMI12-76" d="M 2925 2388 
C 2925 2790 2720 2816 2669 2816 
C 2515 2816 2374 2662 2374 2534 
C 2374 2458 2419 2413 2445 2388 
C 2509 2330 2675 2158 2675 1826 
C 2675 1558 2291 64 1523 64 
C 1133 64 1056 389 1056 625 
C 1056 945 1203 1392 1376 1851 
C 1478 2113 1504 2177 1504 2305 
C 1504 2573 1312 2816 998 2816 
C 410 2816 173 1890 173 1838 
C 173 1813 198 1781 243 1781 
C 301 1781 307 1807 333 1896 
C 486 2445 736 2687 979 2687 
C 1037 2687 1146 2687 1146 2477 
C 1146 2311 1075 2126 979 1883 
C 672 1066 672 868 672 715 
C 672 574 691 313 890 134 
C 1120 -64 1440 -64 1498 -64 
C 2560 -64 2925 2024 2925 2388 
z
" transform="scale(0.015625)"/>
      <path id="CMR17-28" d="M 1958 -1562 
C 1958 -1556 1958 -1543 1939 -1524 
C 1645 -1223 858 -403 858 1596 
C 858 3595 1632 4408 1946 4729 
C 1946 4735 1958 4748 1958 4767 
C 1958 4787 1939 4800 1914 4800 
C 1843 4800 1299 4325 986 3620 
C 666 2909 576 2218 576 1603 
C 576 1141 621 360 1005 -467 
C 1312 -1133 1837 -1600 1914 -1600 
C 1946 -1600 1958 -1588 1958 -1562 
z
" transform="scale(0.015625)"/>
      <path id="CMMI12-1c" d="M 1837 2406 
L 2899 2406 
C 2982 2406 3194 2406 3194 2611 
C 3194 2752 3072 2752 2957 2752 
L 1197 2752 
C 1050 2752 832 2752 538 2438 
C 371 2253 166 1916 166 1878 
C 166 1839 198 1827 237 1827 
C 282 1827 288 1846 320 1884 
C 653 2406 986 2406 1146 2406 
L 1677 2406 
L 1011 223 
C 979 127 979 114 979 95 
C 979 25 1024 -64 1152 -64 
C 1350 -64 1382 108 1402 204 
L 1837 2406 
z
" transform="scale(0.015625)"/>
      <path id="CMR17-29" d="M 1683 1596 
C 1683 2057 1638 2839 1254 3665 
C 947 4332 422 4800 346 4800 
C 326 4800 301 4793 301 4761 
C 301 4748 307 4742 314 4729 
C 621 4408 1402 3595 1402 1603 
C 1402 -396 627 -1210 314 -1530 
C 307 -1543 301 -1549 301 -1562 
C 301 -1594 326 -1600 346 -1600 
C 416 -1600 960 -1127 1274 -422 
C 1594 289 1683 981 1683 1596 
z
" transform="scale(0.015625)"/>
     </defs>
     <use xlink:href="#CMMI12-76" transform="scale(0.996264)"/>
     <use xlink:href="#CMR17-28" transform="translate(50.735173 0) scale(0.996264)"/>
     <use xlink:href="#CMMI12-1c" transform="translate(86.015941 0) scale(0.996264)"/>
     <use xlink:href="#CMR17-29" transform="translate(139.507107 0) scale(0.996264)"/>
    </g>
   </g>
   <g id="text_14">
    <g id="patch_10">
     <path d="M 107.929094 57.656952 
L 141.782019 57.656952 
Q 147.782019 57.656952 147.782019 51.656952 
L 147.782019 31.766286 
Q 147.782019 25.766286 141.782019 25.766286 
L 107.929094 25.766286 
Q 101.929094 25.766286 101.929094 31.766286 
L 101.929094 51.656952 
Q 101.929094 57.656952 107.929094 57.656952 
L 107.929094 57.656952 
z
" style="fill: none; opacity: 0"/>
    </g>
    <!-- $e(\tau)$ -->
    <g transform="translate(107.929094 46.692308) scale(0.2 -0.2)">
     <defs>
      <path id="CMMI12-65" d="M 1146 1472 
C 1318 1472 1754 1484 2061 1600 
C 2547 1786 2592 2160 2592 2275 
C 2592 2559 2349 2816 1926 2816 
C 1254 2816 288 2205 288 1066 
C 288 400 672 -64 1254 -64 
C 2125 -64 2675 609 2675 691 
C 2675 729 2637 761 2611 761 
C 2592 761 2586 755 2528 698 
C 2118 159 1510 64 1267 64 
C 902 64 710 349 710 818 
C 710 907 710 1066 806 1472 
L 1146 1472 
z
M 838 1600 
C 1114 2591 1722 2687 1926 2687 
C 2208 2687 2400 2520 2400 2275 
C 2400 1600 1376 1600 1107 1600 
L 838 1600 
z
" transform="scale(0.015625)"/>
     </defs>
     <use xlink:href="#CMMI12-65" transform="scale(0.996264)"/>
     <use xlink:href="#CMR17-28" transform="translate(45.212001 0) scale(0.996264)"/>
     <use xlink:href="#CMMI12-1c" transform="translate(80.492769 0) scale(0.996264)"/>
     <use xlink:href="#CMR17-29" transform="translate(133.983934 0) scale(0.996264)"/>
    </g>
   </g>
   <g id="text_15">
    <g id="patch_11">
     <path d="M 128.711924 92.838011 
L 140.907417 92.838011 
Q 147.507417 92.838011 147.507417 86.238011 
L 147.507417 65.953345 
Q 147.507417 59.353345 140.907417 59.353345 
L 128.711924 59.353345 
Q 122.111924 59.353345 122.111924 65.953345 
L 122.111924 86.238011 
Q 122.111924 92.838011 128.711924 92.838011 
L 128.711924 92.838011 
z
" style="fill: none; opacity: 0"/>
    </g>
    <!-- $x$ -->
    <g transform="translate(128.711924 81.56965) scale(0.22 -0.22)">
     <defs>
      <path id="CMMI12-78" d="M 3034 2624 
C 2829 2585 2752 2431 2752 2310 
C 2752 2156 2874 2105 2963 2105 
C 3155 2105 3290 2271 3290 2444 
C 3290 2694 2982 2816 2714 2816 
C 2323 2816 2106 2451 2048 2329 
C 1901 2790 1504 2816 1389 2816 
C 736 2816 390 1993 390 1849 
C 390 1823 416 1790 461 1790 
C 512 1790 525 1829 538 1855 
C 755 2572 1184 2687 1370 2687 
C 1658 2687 1715 2438 1715 2284 
C 1715 2143 1677 1993 1600 1678 
L 1382 778 
C 1286 390 1101 64 762 64 
C 730 64 570 64 435 126 
C 666 166 717 358 717 435 
C 717 563 621 640 499 640 
C 346 640 179 505 179 300 
C 179 57 480 -64 755 -64 
C 1062 -64 1280 153 1414 415 
C 1517 64 1837 -64 2074 -64 
C 2726 -64 3072 751 3072 896 
C 3072 929 3046 955 3008 955 
C 2950 955 2944 922 2925 870 
C 2752 300 2381 64 2093 64 
C 1869 64 1747 204 1747 467 
C 1747 607 1773 712 1875 1146 
L 2099 2039 
C 2195 2425 2413 2687 2707 2687 
C 2720 2687 2899 2687 3034 2624 
z
" transform="scale(0.015625)"/>
     </defs>
     <use xlink:href="#CMMI12-78" transform="scale(0.996264)"/>
    </g>
   </g>
   <g id="text_16">
    <g id="patch_12">
     <path d="M 147.274301 170.363675 
L 223.682062 170.363675 
Q 230.282062 170.363675 230.282062 163.763675 
L 230.282062 141.883932 
Q 230.282062 135.283932 223.682062 135.283932 
L 147.274301 135.283932 
Q 140.674301 135.283932 140.674301 141.883932 
L 140.674301 163.763675 
Q 140.674301 170.363675 147.274301 170.363675 
L 147.274301 170.363675 
z
" style="fill: none; opacity: 0"/>
    </g>
    <!-- $x_\star(\pi(x))$ -->
    <g transform="translate(147.274301 158.302557) scale(0.22 -0.22)">
     <defs>
      <path id="CMMI12-3f" d="M 1562 1099 
L 2432 153 
C 2451 134 2470 121 2496 121 
C 2554 121 2554 172 2554 179 
C 2554 198 2534 236 2522 256 
L 1894 1340 
L 3040 1853 
C 3117 1885 3130 1891 3130 1929 
C 3130 1961 3104 1986 3066 1986 
L 1773 1726 
L 1632 2950 
C 1619 3040 1619 3072 1568 3072 
C 1510 3072 1510 3040 1498 2944 
L 1357 1726 
L 64 1986 
C 26 1986 0 1961 0 1929 
C 0 1891 32 1879 83 1853 
L 1235 1340 
L 621 268 
C 576 191 576 185 576 179 
C 576 172 576 121 634 121 
C 646 121 672 121 730 185 
L 1562 1099 
z
" transform="scale(0.015625)"/>
      <path id="CMMI12-19" d="M 1658 2406 
L 2381 2406 
C 2208 1691 2099 1225 2099 715 
C 2099 625 2099 -64 2362 -64 
C 2496 -64 2611 57 2611 166 
C 2611 198 2611 210 2566 306 
C 2394 746 2394 1295 2394 1340 
C 2394 1378 2394 1832 2528 2406 
L 3245 2406 
C 3328 2406 3539 2406 3539 2611 
C 3539 2752 3418 2752 3302 2752 
L 1197 2752 
C 1050 2752 832 2752 538 2438 
C 371 2253 166 1915 166 1876 
C 166 1838 198 1825 237 1825 
C 282 1825 288 1844 320 1883 
C 653 2406 986 2406 1146 2406 
L 1510 2406 
C 1370 1927 1210 1372 685 255 
C 634 153 634 140 634 102 
C 634 -32 749 -64 806 -64 
C 992 -64 1043 102 1120 370 
C 1222 695 1222 708 1286 964 
L 1658 2406 
z
" transform="scale(0.015625)"/>
     </defs>
     <use xlink:href="#CMMI12-78" transform="scale(0.996264)"/>
     <use xlink:href="#CMMI12-3f" transform="translate(55.43406 -14.943915) scale(0.697382)"/>
     <use xlink:href="#CMR17-28" transform="translate(90.074483 0) scale(0.996264)"/>
     <use xlink:href="#CMMI12-19" transform="translate(125.35525 0) scale(0.996264)"/>
     <use xlink:href="#CMR17-28" transform="translate(184.265851 0) scale(0.996264)"/>
     <use xlink:href="#CMMI12-78" transform="translate(219.546619 0) scale(0.996264)"/>
     <use xlink:href="#CMR17-29" transform="translate(274.980679 0) scale(0.996264)"/>
     <use xlink:href="#CMR17-29" transform="translate(310.261446 0) scale(0.996264)"/>
    </g>
   </g>
   <g id="text_17">
    <g id="patch_13">
     <path d="M 120.334156 139.231263 
L 129.707484 139.231263 
Q 136.307484 139.231263 136.307484 132.631263 
L 136.307484 112.346597 
Q 136.307484 105.746597 129.707484 105.746597 
L 120.334156 105.746597 
Q 113.734156 105.746597 113.734156 112.346597 
L 113.734156 132.631263 
Q 113.734156 139.231263 120.334156 139.231263 
L 120.334156 139.231263 
z
" style="fill: none; opacity: 0"/>
    </g>
    <!-- $\xi$ -->
    <g transform="translate(120.334156 127.962902) scale(0.22 -0.22)">
     <defs>
      <path id="CMMI12-18" d="M 1670 0 
L 998 271 
C 832 335 448 490 448 876 
C 448 1430 1120 1990 1254 1990 
C 1267 1990 1325 1977 1344 1971 
C 1517 1919 1683 1919 1798 1919 
C 1997 1919 2374 1919 2374 2089 
C 2374 2220 2144 2240 1869 2240 
C 1741 2240 1568 2240 1338 2163 
C 1184 2291 1120 2497 1120 2690 
C 1120 3043 1350 3545 1856 3780 
C 1971 3648 2125 3648 2259 3648 
C 2419 3648 2810 3648 2810 3817 
C 2810 3968 2502 3968 2298 3968 
C 2170 3968 2074 3968 1894 3936 
C 1862 4016 1856 4029 1856 4180 
C 1856 4303 1882 4396 1882 4415 
C 1882 4454 1850 4480 1818 4480 
C 1715 4480 1715 4235 1715 4180 
C 1715 4084 1722 3988 1760 3904 
C 992 3705 653 3159 653 2741 
C 653 2355 909 2144 1082 2066 
C 422 1713 141 1057 141 709 
C 141 148 646 -51 877 -148 
L 1453 -380 
C 1613 -438 1875 -547 1920 -573 
C 1984 -618 2035 -695 2035 -798 
C 2035 -934 1933 -1152 1709 -1152 
C 1613 -1152 1402 -1127 1171 -953 
C 1126 -914 1120 -908 1094 -908 
C 1062 -908 1030 -934 1030 -972 
C 1030 -1043 1363 -1280 1709 -1280 
C 2118 -1280 2368 -882 2368 -605 
C 2368 -405 2259 -244 2054 -154 
L 1670 0 
z
M 1997 3817 
C 2106 3840 2221 3840 2304 3840 
C 2515 3840 2534 3835 2662 3812 
C 2586 3789 2534 3776 2266 3776 
C 2144 3776 2067 3776 1997 3817 
z
M 1491 2084 
C 1645 2112 1786 2112 1862 2112 
C 2074 2112 2086 2107 2227 2084 
C 2157 2061 2099 2048 1824 2048 
C 1670 2048 1606 2048 1491 2084 
z
" transform="scale(0.015625)"/>
     </defs>
     <use xlink:href="#CMMI12-18" transform="scale(0.996264)"/>
    </g>
   </g>
   <g id="text_18">
    <g id="patch_14">
     <path d="M 210.003597 244.357864 
L 229.710382 244.357864 
Q 236.310382 244.357864 236.310382 237.757864 
L 236.310382 217.473199 
Q 236.310382 210.873199 229.710382 210.873199 
L 210.003597 210.873199 
Q 203.403597 210.873199 203.403597 217.473199 
L 203.403597 237.757864 
Q 203.403597 244.357864 210.003597 244.357864 
z
" style="fill: #ffffff"/>
    </g>
    <!-- $x_1$ -->
    <g transform="translate(210.003597 233.089503) scale(0.22 -0.22)">
     <use xlink:href="#CMMI12-78" transform="scale(0.996264)"/>
     <use xlink:href="#CMR17-31" transform="translate(55.43406 -14.943915) scale(0.697382)"/>
    </g>
   </g>
   <g id="text_19">
    <g id="patch_15">
     <path d="M 1.306838 102.572497 
L 21.013623 102.572497 
Q 27.613623 102.572497 27.613623 95.972497 
L 27.613623 75.687832 
Q 27.613623 69.087832 21.013623 69.087832 
L 1.306838 69.087832 
Q -5.293162 69.087832 -5.293162 75.687832 
L -5.293162 95.972497 
Q -5.293162 102.572497 1.306838 102.572497 
z
" style="fill: #ffffff"/>
    </g>
    <!-- $x_2$ -->
    <g transform="translate(1.306838 91.304136) scale(0.22 -0.22)">
     <use xlink:href="#CMMI12-78" transform="scale(0.996264)"/>
     <use xlink:href="#CMR17-32" transform="translate(55.43406 -14.943915) scale(0.697382)"/>
    </g>
   </g>
  </g>
 </g>
 <defs>
  <clipPath id="p735c5529d4">
   <rect x="33.414032" y="5" width="321.071936" height="205.486039"/>
  </clipPath>
 </defs>
</svg>
