<?xml version="1.0" encoding="UTF-8" standalone="no"?>
<!-- Created with Inkscape (http://www.inkscape.org/) -->

<svg
   width="61.383255mm"
   height="61.383255mm"
   viewBox="-1 -1 63.383 63.383"
   version="1.1"
   id="svg1"
   inkscape:version="1.4.3 (0d15f75042, 2025-12-25)"
   sodipodi:docname="researchgate.svg"
   xmlns:inkscape="http://www.inkscape.org/namespaces/inkscape"
   xmlns:sodipodi="http://sodipodi.sourceforge.net/DTD/sodipodi-0.dtd"
   xmlns="http://www.w3.org/2000/svg"
   xmlns:svg="http://www.w3.org/2000/svg">
  <sodipodi:namedview
     id="namedview1"
     pagecolor="#ffffff"
     bordercolor="#000000"
     borderopacity="0.25"
     inkscape:showpageshadow="2"
     inkscape:pageopacity="0.0"
     inkscape:pagecheckerboard="0"
     inkscape:deskcolor="#d1d1d1"
     inkscape:document-units="mm"
     inkscape:zoom="1.4764236"
     inkscape:cx="39.622775"
     inkscape:cy="21.33534"
     inkscape:window-width="1920"
     inkscape:window-height="1052"
     inkscape:window-x="0"
     inkscape:window-y="0"
     inkscape:window-maximized="1"
     inkscape:current-layer="layer1" />
  <defs
     id="defs1" />
  <g
     inkscape:label="Layer 1"
     inkscape:groupmode="layer"
     id="layer1"
     transform="translate(-113.63166,-156.96666)">
    <g
       style="fill:#000000;stroke:none"
       id="g1"
       transform="matrix(0.264583,0,0,0.264583,105.165,148.5)">
      <path
         d="m 238,264 h -12 c -1.105,0 -2,-0.895 -2,-2 v -4 c 0,-1.105 -0.895,-2 -2,-2 h -20 c -1.105,0 -2,0.895 -2,2 v 4 c 0,1.105 -0.895,2 -2,2 h -12 c -1.105,0 -2,-0.895 -2,-2 v -4 c 0,-1.105 0.895,-2 2,-2 h 12 c 1.105,0 2,-0.895 2,-2 v -12 c 0,-1.105 -0.895,-2 -2,-2 h -4 c -1.105,0 -2,0.895 -2,2 v 4 c 0,1.105 -0.895,2 -2,2 h -4 c -1.105,0 -2,-0.895 -2,-2 v -4 c 0,-1.105 -0.895,-2 -2,-2 h -4 c -1.105,0 -2,0.895 -2,2 v 4 c 0,1.105 -0.895,2 -2,2 h -4 c -1.105,0 -2,0.895 -2,2 v 12 c 0,1.105 -0.895,2 -2,2 h -36 c -1.105,0 -2,-0.895 -2,-2 v -4 c 0,-1.105 0.895,-2 2,-2 h 28 c 1.105,0 2,-0.895 2,-2 v -4 c 0,-1.105 -0.895,-2 -2,-2 h -20 c -1.105,0 -2,-0.895 -2,-2 v -4 c 0,-1.105 0.895,-2 2,-2 h 4 c 1.105,0 2,-0.895 2,-2 v -4 c 0,-1.105 0.895,-2 2,-2 h 4 c 1.105,0 2,-0.895 2,-2 v -4 c 0,-1.105 -0.895,-2 -2,-2 h -4 c -1.105,0 -2,-0.895 -2,-2 v -12 c 0,-1.105 -0.895,-2 -2,-2 h -4 c -1.105,0 -2,-0.895 -2,-2 v -4 c 0,-1.105 0.895,-2 2,-2 h 4 c 1.105,0 2,-0.895 2,-2 v -4 c 0,-1.105 -0.895,-2 -2,-2 h -4 c -1.105,0 -2,-0.895 -2,-2 v -4 c 0,-1.105 0.895,-2 2,-2 h 4 c 1.105,0 2,-0.895 2,-2 v -12 c 0,-1.105 -0.895,-2 -2,-2 h -4 c -1.105,0 -2,-0.895 -2,-2 v -4 c 0,-1.105 -0.895,-2 -2,-2 h -4 c -1.105,0 -2,0.895 -2,2 v 4 c 0,1.105 -0.895,2 -2,2 h -12 c -1.105,0 -2,0.895 -2,2 v 4 c 0,1.105 -0.895,2 -2,2 h -4 c -1.105,0 -2,0.895 -2,2 v 4 c 0,1.105 0.895,2 2,2 h 12 c 1.105,0 2,-0.895 2,-2 v -4 c 0,-1.105 0.895,-2 2,-2 h 4 c 1.105,0 2,0.895 2,2 v 4 c 0,1.105 -0.895,2 -2,2 h -4 c -1.105,0 -2,0.895 -2,2 v 4 c 0,1.105 -0.895,2 -2,2 h -4 c -1.105,0 -2,0.895 -2,2 v 4 c 0,1.105 -0.895,2 -2,2 h -4 c -1.105,0 -2,0.895 -2,2 v 4 c 0,1.105 -0.895,2 -2,2 h -4 c -1.1046,0 -2,-0.895 -2,-2 v -20 c 0,-1.105 -0.8954,-2 -2,-2 H 82 c -1.1046,0 -2,-0.895 -2,-2 v -4 c 0,-1.105 -0.8954,-2 -2,-2 h -4 c -1.1046,0 -2,-0.895 -2,-2 v -4 c 0,-1.105 -0.8954,-2 -2,-2 h -4 c -1.1046,0 -2,0.895 -2,2 v 4 c 0,1.105 -0.8954,2 -2,2 h -4 c -1.1046,0 -2,0.895 -2,2 v 4 c 0,1.105 -0.8954,2 -2,2 h -4 c -1.1046,0 -2,0.895 -2,2 v 12 c 0,1.105 -0.8954,2 -2,2 H 34 c -1.1046,0 -2,-0.895 -2,-2 v -28 c 0,-1.105 0.8954,-2 2,-2 h 4 c 1.1046,0 2,-0.895 2,-2 v -4 c 0,-1.105 -0.8954,-2 -2,-2 h -4 c -1.1046,0 -2,-0.895 -2,-2 v -4 c 0,-1.105 0.8954,-2 2,-2 h 4 c 1.1046,0 2,-0.895 2,-2 v -4 c 0,-1.105 0.8954,-2 2,-2 h 4 c 1.1046,0 2,-0.895 2,-2 v -4 c 0,-1.105 -0.8954,-2 -2,-2 h -4 c -1.1046,0 -2,-0.895 -2,-2 v -4 c 0,-1.105 -0.8954,-2 -2,-2 h -4 c -1.1046,0 -2,-0.895 -2,-2 v -4 c 0,-1.105 0.8954,-2 2,-2 h 4 c 1.1046,0 2,-0.895 2,-2 v -4 c 0,-1.105 -0.8954,-2 -2,-2 h -4 c -1.1046,0 -2,-0.895 -2,-2 V 98 c 0,-1.1046 0.8954,-2 2,-2 h 12 c 1.1046,0 2,0.8954 2,2 v 4 c 0,1.105 0.8954,2 2,2 h 4 c 1.1046,0 2,-0.895 2,-2 v -4 c 0,-1.1046 0.8954,-2 2,-2 h 12 c 1.1046,0 2,0.8954 2,2 v 4 c 0,1.105 0.8954,2 2,2 h 4 c 1.1046,0 2,-0.895 2,-2 v -4 c 0,-1.1046 0.8954,-2 2,-2 h 4 c 1.1046,0 2,0.8954 2,2 v 4 c 0,1.105 -0.8954,2 -2,2 h -4 c -1.1046,0 -2,0.895 -2,2 v 4 c 0,1.105 0.8954,2 2,2 h 12 c 1.1046,0 2,-0.895 2,-2 v -4 c 0,-1.105 0.8954,-2 2,-2 h 4 c 1.105,0 2,-0.895 2,-2 v -4 c 0,-1.1046 -0.895,-2 -2,-2 h -4 c -1.1046,0 -2,-0.8954 -2,-2 V 82 c 0,-1.1046 0.8954,-2 2,-2 h 4 c 1.105,0 2,-0.8954 2,-2 v -4 c 0,-1.1046 0.895,-2 2,-2 h 4 c 1.105,0 2,-0.8954 2,-2 V 58 c 0,-1.1046 -0.895,-2 -2,-2 h -4 c -1.105,0 -2,-0.8954 -2,-2 v -4 c 0,-1.1046 0.895,-2 2,-2 h 4 c 1.105,0 2,0.8954 2,2 v 4 c 0,1.1046 0.895,2 2,2 h 4 c 1.105,0 2,-0.8954 2,-2 V 42 c 0,-1.1046 -0.895,-2 -2,-2 H 98 c -1.1046,0 -2,-0.8954 -2,-2 v -4 c 0,-1.1046 0.8954,-2 2,-2 h 28 c 1.105,0 2,0.8954 2,2 v 4 c 0,1.1046 0.895,2 2,2 h 4 c 1.105,0 2,0.8954 2,2 v 4 c 0,1.1046 0.895,2 2,2 h 20 c 1.105,0 2,-0.8954 2,-2 V 34 c 0,-1.1046 0.895,-2 2,-2 h 12 c 1.105,0 2,0.8954 2,2 v 4 c 0,1.1046 -0.895,2 -2,2 h -4 c -1.105,0 -2,0.8954 -2,2 v 4 c 0,1.1046 -0.895,2 -2,2 h -4 c -1.105,0 -2,0.8954 -2,2 v 4 c 0,1.1046 0.895,2 2,2 h 12 c 1.105,0 2,-0.8954 2,-2 v -4 c 0,-1.1046 0.895,-2 2,-2 h 4 c 1.105,0 2,-0.8954 2,-2 v -4 c 0,-1.1046 0.895,-2 2,-2 h 4 c 1.105,0 2,0.8954 2,2 v 12 c 0,1.1046 0.895,2 2,2 h 4 c 1.105,0 2,0.8954 2,2 v 4 c 0,1.1046 -0.895,2 -2,2 h -4 c -1.105,0 -2,0.8954 -2,2 v 4 c 0,1.1046 0.895,2 2,2 h 4 c 1.105,0 2,0.8954 2,2 v 12 c 0,1.1046 -0.895,2 -2,2 h -4 c -1.105,0 -2,-0.8954 -2,-2 V 74 c 0,-1.1046 -0.895,-2 -2,-2 h -12 c -1.105,0 -2,0.8954 -2,2 v 4 c 0,1.1046 0.895,2 2,2 h 4 c 1.105,0 2,0.8954 2,2 v 4 c 0,1.1046 -0.895,2 -2,2 h -4 c -1.105,0 -2,-0.8954 -2,-2 v -4 c 0,-1.1046 -0.895,-2 -2,-2 h -4 c -1.105,0 -2,0.8954 -2,2 v 12 c 0,1.1046 0.895,2 2,2 h 20 c 1.105,0 2,0.8954 2,2 v 12 c 0,1.105 0.895,2 2,2 h 4 c 1.105,0 2,-0.895 2,-2 v -4 c 0,-1.105 0.895,-2 2,-2 h 4 c 1.105,0 2,-0.895 2,-2 v -4 c 0,-1.1046 0.895,-2 2,-2 h 4 c 1.105,0 2,0.8954 2,2 v 4 c 0,1.105 0.895,2 2,2 h 12 c 1.105,0 2,0.895 2,2 v 4 c 0,1.105 -0.895,2 -2,2 h -4 c -1.105,0 -2,0.895 -2,2 v 4 c 0,1.105 -0.895,2 -2,2 h -4 c -1.105,0 -2,-0.895 -2,-2 v -12 c 0,-1.105 -0.895,-2 -2,-2 h -4 c -1.105,0 -2,0.895 -2,2 v 12 c 0,1.105 -0.895,2 -2,2 h -12 c -1.105,0 -2,-0.895 -2,-2 v -4 c 0,-1.105 -0.895,-2 -2,-2 h -20 c -1.105,0 -2,0.895 -2,2 v 4 c 0,1.105 0.895,2 2,2 h 12 c 1.105,0 2,0.895 2,2 v 4 c 0,1.105 -0.895,2 -2,2 h -12 c -1.105,0 -2,0.895 -2,2 v 4 c 0,1.105 0.895,2 2,2 h 12 c 1.105,0 2,0.895 2,2 v 4 c 0,1.105 0.895,2 2,2 h 12 c 1.105,0 2,0.895 2,2 v 4 c 0,1.105 0.895,2 2,2 h 4 c 1.105,0 2,-0.895 2,-2 v -20 c 0,-1.105 0.895,-2 2,-2 h 12 c 1.105,0 2,0.895 2,2 v 4 c 0,1.105 0.895,2 2,2 h 28 c 1.105,0 2,-0.895 2,-2 v -12 c 0,-1.105 0.895,-2 2,-2 h 4 c 1.105,0 2,0.895 2,2 v 36 c 0,1.105 -0.895,2 -2,2 h -4 c -1.105,0 -2,-0.895 -2,-2 v -12 c 0,-1.105 -0.895,-2 -2,-2 h -4 c -1.105,0 -2,0.895 -2,2 v 12 c 0,1.105 -0.895,2 -2,2 h -4 c -1.105,0 -2,0.895 -2,2 v 4 c 0,1.105 0.895,2 2,2 h 12 c 1.105,0 2,0.895 2,2 v 4 c 0,1.105 0.895,2 2,2 h 4 c 1.105,0 2,0.895 2,2 v 4 c 0,1.105 -0.895,2 -2,2 h -4 c -1.105,0 -2,-0.895 -2,-2 v -4 c 0,-1.105 -0.895,-2 -2,-2 h -12 c -1.105,0 -2,0.895 -2,2 v 4 c 0,1.105 0.895,2 2,2 h 4 c 1.105,0 2,0.895 2,2 v 4 c 0,1.105 0.895,2 2,2 h 4 c 1.105,0 2,0.895 2,2 v 4 c 0,1.105 -0.895,2 -2,2 h -12 c -1.105,0 -2,0.895 -2,2 v 12 c 0,1.105 -0.895,2 -2,2 h -4 c -1.105,0 -2,0.895 -2,2 v 4 c 0,1.105 0.895,2 2,2 h 4 c 1.105,0 2,0.895 2,2 v 4 c 0,1.105 -0.895,2 -2,2 h -12 c -1.105,0 -2,0.895 -2,2 v 4 c 0,1.105 0.895,2 2,2 h 4 c 1.105,0 2,0.895 2,2 v 4 c 0,1.105 0.895,2 2,2 h 4 c 1.105,0 2,-0.895 2,-2 v -4 c 0,-1.105 0.895,-2 2,-2 h 4 c 1.105,0 2,-0.895 2,-2 v -20 c 0,-1.105 0.895,-2 2,-2 h 12 c 1.105,0 2,0.895 2,2 v 36 c 0,1.105 -0.895,2 -2,2 h -4 c -1.105,0 -2,-0.895 -2,-2 v -4 c 0,-1.105 -0.895,-2 -2,-2 h -4 c -1.105,0 -2,0.895 -2,2 v 4 c 0,1.105 -0.895,2 -2,2 h -4 c -1.105,0 -2,0.895 -2,2 v 4 c 0,1.105 -0.895,2 -2,2 z m -128,0 H 98 c -1.1046,0 -2,-0.895 -2,-2 v -12 c 0,-1.105 0.8954,-2 2,-2 h 4 c 1.105,0 2,0.895 2,2 v 4 c 0,1.105 0.895,2 2,2 h 4 c 1.105,0 2,-0.895 2,-2 v -20 c 0,-1.105 -0.895,-2 -2,-2 h -4 c -1.105,0 -2,0.895 -2,2 v 4 c 0,1.105 -0.895,2 -2,2 h -4 c -1.1046,0 -2,-0.895 -2,-2 v -12 c 0,-1.105 0.8954,-2 2,-2 h 4 c 1.105,0 2,-0.895 2,-2 v -4 c 0,-1.105 0.895,-2 2,-2 h 4 c 1.105,0 2,-0.895 2,-2 v -4 c 0,-1.105 0.895,-2 2,-2 h 4 c 1.105,0 2,-0.895 2,-2 v -4 c 0,-1.105 0.895,-2 2,-2 h 4 c 1.105,0 2,0.895 2,2 v 12 c 0,1.105 0.895,2 2,2 h 4 c 1.105,0 2,0.895 2,2 v 4 c 0,1.105 -0.895,2 -2,2 h -4 c -1.105,0 -2,0.895 -2,2 v 4 c 0,1.105 -0.895,2 -2,2 h -4 c -1.105,0 -2,0.895 -2,2 v 20 c 0,1.105 -0.895,2 -2,2 h -4 c -1.105,0 -2,0.895 -2,2 v 4 c 0,1.105 -0.895,2 -2,2 z m -24,0 H 34 c -1.1046,0 -2,-0.895 -2,-2 v -52 c 0,-1.105 0.8954,-2 2,-2 h 52 c 1.1046,0 2,0.895 2,2 v 52 c 0,1.105 -0.8954,2 -2,2 z m 146,-10 v -4 c 0,-1.105 -0.895,-2 -2,-2 h -4 c -1.105,0 -2,0.895 -2,2 v 4 c 0,1.105 0.895,2 2,2 h 4 c 1.105,0 2,-0.895 2,-2 z m -152,0 v -36 c 0,-1.105 -0.8954,-2 -2,-2 H 42 c -1.1046,0 -2,0.895 -2,2 v 36 c 0,1.105 0.8954,2 2,2 h 36 c 1.1046,0 2,-0.895 2,-2 z m 136,-8 v -12 c 0,-1.105 -0.895,-2 -2,-2 h -4 c -1.105,0 -2,0.895 -2,2 v 12 c 0,1.105 0.895,2 2,2 h 4 c 1.105,0 2,-0.895 2,-2 z M 70,248 H 50 c -1.1046,0 -2,-0.895 -2,-2 v -20 c 0,-1.105 0.8954,-2 2,-2 h 20 c 1.1046,0 2,0.895 2,2 v 20 c 0,1.105 -0.8954,2 -2,2 z m 122,-10 v -4 c 0,-1.105 -0.895,-2 -2,-2 h -4 c -1.105,0 -2,0.895 -2,2 v 4 c 0,1.105 0.895,2 2,2 h 4 c 1.105,0 2,-0.895 2,-2 z m -16,-8 v -4 c 0,-1.105 -0.895,-2 -2,-2 h -12 c -1.105,0 -2,0.895 -2,2 v 4 c 0,1.105 0.895,2 2,2 h 12 c 1.105,0 2,-0.895 2,-2 z m 48,-8 v -20 c 0,-1.105 -0.895,-2 -2,-2 h -20 c -1.105,0 -2,0.895 -2,2 v 20 c 0,1.105 0.895,2 2,2 h 20 c 1.105,0 2,-0.895 2,-2 z m -96,0 v -4 c 0,-1.105 -0.895,-2 -2,-2 h -12 c -1.105,0 -2,0.895 -2,2 v 4 c 0,1.105 0.895,2 2,2 h 12 c 1.105,0 2,-0.895 2,-2 z m 86,-6 h -4 c -1.105,0 -2,-0.895 -2,-2 v -4 c 0,-1.105 0.895,-2 2,-2 h 4 c 1.105,0 2,0.895 2,2 v 4 c 0,1.105 -0.895,2 -2,2 z m -30,-2 v -20 c 0,-1.105 0.895,-2 2,-2 h 4 c 1.105,0 2,-0.895 2,-2 v -4 c 0,-1.105 -0.895,-2 -2,-2 h -4 c -1.105,0 -2,-0.895 -2,-2 v -4 c 0,-1.105 -0.895,-2 -2,-2 h -4 c -1.105,0 -2,0.895 -2,2 v 4 c 0,1.105 -0.895,2 -2,2 h -4 c -1.105,0 -2,0.895 -2,2 v 4 c 0,1.105 0.895,2 2,2 h 4 c 1.105,0 2,0.895 2,2 v 4 c 0,1.105 -0.895,2 -2,2 h -12 c -1.105,0 -2,0.895 -2,2 v 12 c 0,1.105 0.895,2 2,2 h 4 c 1.105,0 2,-0.895 2,-2 v -4 c 0,-1.105 0.895,-2 2,-2 h 4 c 1.105,0 2,0.895 2,2 v 4 c 0,1.105 0.895,2 2,2 h 4 c 1.105,0 2,-0.895 2,-2 z m -24,-16 v -4 c 0,-1.105 -0.895,-2 -2,-2 h -4 c -1.105,0 -2,0.895 -2,2 v 4 c 0,1.105 0.895,2 2,2 h 4 c 1.105,0 2,-0.895 2,-2 z m -74,2 H 74 c -1.1046,0 -2,-0.895 -2,-2 v -4 c 0,-1.105 0.8954,-2 2,-2 h 12 c 1.1046,0 2,0.895 2,2 v 4 c 0,1.105 -0.8954,2 -2,2 z m -24,0 h -4 c -1.1046,0 -2,-0.895 -2,-2 v -4 c 0,-1.105 0.8954,-2 2,-2 h 4 c 1.1046,0 2,0.895 2,2 v 4 c 0,1.105 -0.8954,2 -2,2 z m 90,-10 v -4 c 0,-1.105 -0.895,-2 -2,-2 h -4 c -1.105,0 -2,0.895 -2,2 v 4 c 0,1.105 0.895,2 2,2 h 4 c 1.105,0 2,-0.895 2,-2 z m 80,-8 v -4 c 0,-1.105 -0.895,-2 -2,-2 h -4 c -1.105,0 -2,-0.895 -2,-2 v -4 c 0,-1.105 0.895,-2 2,-2 h 4 c 1.105,0 2,-0.895 2,-2 v -4 c 0,-1.105 -0.895,-2 -2,-2 h -28 c -1.105,0 -2,0.895 -2,2 v 4 c 0,1.105 0.895,2 2,2 h 4 c 1.105,0 2,0.895 2,2 v 4 c 0,1.105 0.895,2 2,2 h 4 c 1.105,0 2,0.895 2,2 v 4 c 0,1.105 0.895,2 2,2 h 12 c 1.105,0 2,-0.895 2,-2 z m -64,0 v -12 c 0,-1.105 0.895,-2 2,-2 h 20 c 1.105,0 2,-0.895 2,-2 v -4 c 0,-1.105 -0.895,-2 -2,-2 h -12 c -1.105,0 -2,-0.895 -2,-2 v -4 c 0,-1.105 -0.895,-2 -2,-2 h -12 c -1.105,0 -2,0.895 -2,2 v 28 c 0,1.105 0.895,2 2,2 h 4 c 1.105,0 2,-0.895 2,-2 z m 72,-8 v -4 c 0,-1.105 -0.895,-2 -2,-2 h -4 c -1.105,0 -2,0.895 -2,2 v 4 c 0,1.105 0.895,2 2,2 h 4 c 1.105,0 2,-0.895 2,-2 z m -136,0 v -4 c 0,-1.105 -0.895,-2 -2,-2 h -4 c -1.1046,0 -2,0.895 -2,2 v 4 c 0,1.105 0.8954,2 2,2 h 4 c 1.105,0 2,-0.895 2,-2 z m -16,0 v -4 c 0,-1.105 -0.8954,-2 -2,-2 h -4 c -1.1046,0 -2,0.895 -2,2 v 4 c 0,1.105 0.8954,2 2,2 h 4 c 1.1046,0 2,-0.895 2,-2 z m 64,-8 v -20 c 0,-1.105 -0.895,-2 -2,-2 h -4 c -1.105,0 -2,-0.895 -2,-2 v -4 c 0,-1.105 0.895,-2 2,-2 h 12 c 1.105,0 2,-0.895 2,-2 v -12 c 0,-1.105 -0.895,-2 -2,-2 h -4 c -1.105,0 -2,0.895 -2,2 v 4 c 0,1.105 -0.895,2 -2,2 h -4 c -1.105,0 -2,-0.895 -2,-2 V 98 c 0,-1.1046 -0.895,-2 -2,-2 h -4 c -1.105,0 -2,-0.8954 -2,-2 v -4 c 0,-1.1046 -0.895,-2 -2,-2 h -4 c -1.105,0 -2,0.8954 -2,2 v 4 c 0,1.1046 -0.895,2 -2,2 h -4 c -1.105,0 -2,-0.8954 -2,-2 v -4 c 0,-1.1046 -0.895,-2 -2,-2 h -4 c -1.105,0 -2,0.8954 -2,2 v 12 c 0,1.105 0.895,2 2,2 h 12 c 1.105,0 2,0.895 2,2 v 12 c 0,1.105 -0.895,2 -2,2 h -4 c -1.105,0 -2,-0.895 -2,-2 v -4 c 0,-1.105 -0.895,-2 -2,-2 h -4 c -1.105,0 -2,0.895 -2,2 v 4 c 0,1.105 -0.895,2 -2,2 h -4 c -1.105,0 -2,0.895 -2,2 v 4 c 0,1.105 0.895,2 2,2 h 12 c 1.105,0 2,0.895 2,2 v 4 c 0,1.105 0.895,2 2,2 h 4 c 1.105,0 2,-0.895 2,-2 v -4 c 0,-1.105 0.895,-2 2,-2 h 4 c 1.105,0 2,0.895 2,2 v 4 c 0,1.105 -0.895,2 -2,2 h -4 c -1.105,0 -2,0.895 -2,2 v 4 c 0,1.105 0.895,2 2,2 h 4 c 1.105,0 2,0.895 2,2 v 12 c 0,1.105 0.895,2 2,2 h 4 c 1.105,0 2,0.895 2,2 v 4 c 0,1.105 0.895,2 2,2 h 4 c 1.105,0 2,-0.895 2,-2 z m -40,0 v -12 c 0,-1.105 0.895,-2 2,-2 h 12 c 1.105,0 2,-0.895 2,-2 v -4 c 0,-1.105 -0.895,-2 -2,-2 h -12 c -1.105,0 -2,-0.895 -2,-2 v -4 c 0,-1.105 -0.895,-2 -2,-2 h -4 c -1.105,0 -2,0.895 -2,2 v 12 c 0,1.105 -0.895,2 -2,2 h -4 c -1.1046,0 -2,0.895 -2,2 v 4 c 0,1.105 0.8954,2 2,2 h 4 c 1.105,0 2,0.895 2,2 v 4 c 0,1.105 0.895,2 2,2 h 4 c 1.105,0 2,-0.895 2,-2 z m -16,0 v -4 c 0,-1.105 -0.8954,-2 -2,-2 h -4 c -1.1046,0 -2,0.895 -2,2 v 4 c 0,1.105 0.8954,2 2,2 h 4 c 1.1046,0 2,-0.895 2,-2 z m -16,0 v -4 c 0,-1.105 0.8954,-2 2,-2 h 4 c 1.1046,0 2,-0.895 2,-2 v -4 c 0,-1.105 -0.8954,-2 -2,-2 h -4 c -1.1046,0 -2,-0.895 -2,-2 v -4 c 0,-1.105 -0.8954,-2 -2,-2 H 66 c -1.1046,0 -2,0.895 -2,2 v 4 c 0,1.105 -0.8954,2 -2,2 H 42 c -1.1046,0 -2,0.895 -2,2 v 4 c 0,1.105 0.8954,2 2,2 h 4 c 1.1046,0 2,0.895 2,2 v 4 c 0,1.105 0.8954,2 2,2 h 4 c 1.1046,0 2,-0.895 2,-2 v -4 c 0,-1.105 0.8954,-2 2,-2 h 12 c 1.1046,0 2,0.895 2,2 v 4 c 0,1.105 0.8954,2 2,2 h 4 c 1.1046,0 2,-0.895 2,-2 z m 160,-8 v -12 c 0,-1.105 -0.895,-2 -2,-2 h -12 c -1.105,0 -2,0.895 -2,2 v 4 c 0,1.105 0.895,2 2,2 h 4 c 1.105,0 2,0.895 2,2 v 4 c 0,1.105 0.895,2 2,2 h 4 c 1.105,0 2,-0.895 2,-2 z m -56,-8 v -4 c 0,-1.105 -0.895,-2 -2,-2 h -4 c -1.105,0 -2,0.895 -2,2 v 4 c 0,1.105 0.895,2 2,2 h 4 c 1.105,0 2,-0.895 2,-2 z m -88,0 v -4 c 0,-1.105 -0.8954,-2 -2,-2 h -4 c -1.1046,0 -2,0.895 -2,2 v 4 c 0,1.105 0.8954,2 2,2 h 4 c 1.1046,0 2,-0.895 2,-2 z m 128,-8 v -4 c 0,-1.105 -0.895,-2 -2,-2 h -4 c -1.105,0 -2,0.895 -2,2 v 4 c 0,1.105 0.895,2 2,2 h 4 c 1.105,0 2,-0.895 2,-2 z m -136,0 v -4 c 0,-1.105 -0.8954,-2 -2,-2 h -4 c -1.1046,0 -2,0.895 -2,2 v 4 c 0,1.105 0.8954,2 2,2 h 4 c 1.1046,0 2,-0.895 2,-2 z m -24,0 v -4 c 0,-1.105 -0.8954,-2 -2,-2 h -4 c -1.1046,0 -2,0.895 -2,2 v 4 c 0,1.105 0.8954,2 2,2 h 4 c 1.1046,0 2,-0.895 2,-2 z m 134,-6 h -4 c -1.105,0 -2,-0.895 -2,-2 v -4 c 0,-1.105 0.895,-2 2,-2 h 4 c 1.105,0 2,0.895 2,2 v 4 c 0,1.105 -0.895,2 -2,2 z M 96,134 v -4 c 0,-1.105 -0.8954,-2 -2,-2 h -4 c -1.1046,0 -2,0.895 -2,2 v 4 c 0,1.105 0.8954,2 2,2 h 4 c 1.1046,0 2,-0.895 2,-2 z m -24,0 v -12 c 0,-1.105 -0.8954,-2 -2,-2 h -4 c -1.1046,0 -2,0.895 -2,2 v 12 c 0,1.105 0.8954,2 2,2 h 4 c 1.1046,0 2,-0.895 2,-2 z m -16,0 v -12 c 0,-1.105 0.8954,-2 2,-2 h 4 c 1.1046,0 2,-0.895 2,-2 v -4 c 0,-1.105 -0.8954,-2 -2,-2 H 50 c -1.1046,0 -2,0.895 -2,2 v 4 c 0,1.105 -0.8954,2 -2,2 h -4 c -1.1046,0 -2,0.895 -2,2 v 4 c 0,1.105 0.8954,2 2,2 h 4 c 1.1046,0 2,0.895 2,2 v 4 c 0,1.105 0.8954,2 2,2 h 4 c 1.1046,0 2,-0.895 2,-2 z m 182,-6 h -4 c -1.105,0 -2,-0.895 -2,-2 v -4 c 0,-1.105 0.895,-2 2,-2 h 4 c 1.105,0 2,-0.895 2,-2 v -12 c 0,-1.105 0.895,-2 2,-2 h 12 c 1.105,0 2,-0.895 2,-2 v -4 c 0,-1.1046 0.895,-2 2,-2 h 4 c 1.105,0 2,0.8954 2,2 v 4 c 0,1.105 -0.895,2 -2,2 h -4 c -1.105,0 -2,0.895 -2,2 v 4 c 0,1.105 -0.895,2 -2,2 h -4 c -1.105,0 -2,0.895 -2,2 v 4 c 0,1.105 -0.895,2 -2,2 h -4 c -1.105,0 -2,0.895 -2,2 v 4 c 0,1.105 -0.895,2 -2,2 z M 88,126 v -4 c 0,-1.105 -0.8954,-2 -2,-2 h -4 c -1.1046,0 -2,0.895 -2,2 v 4 c 0,1.105 0.8954,2 2,2 h 4 c 1.1046,0 2,-0.895 2,-2 z m 80,-16 v -4 c 0,-1.105 -0.895,-2 -2,-2 h -4 c -1.105,0 -2,0.895 -2,2 v 4 c 0,1.105 0.895,2 2,2 h 4 c 1.105,0 2,-0.895 2,-2 z m -56,0 v -4 c 0,-1.105 -0.895,-2 -2,-2 h -4 c -1.105,0 -2,0.895 -2,2 v 4 c 0,1.105 0.895,2 2,2 h 4 c 1.105,0 2,-0.895 2,-2 z m -40,0 v -4 c 0,-1.105 -0.8954,-2 -2,-2 h -4 c -1.1046,0 -2,0.895 -2,2 v 4 c 0,1.105 0.8954,2 2,2 h 4 c 1.1046,0 2,-0.895 2,-2 z m 88,-8 V 58 c 0,-1.1046 -0.895,-2 -2,-2 h -20 c -1.105,0 -2,0.8954 -2,2 v 4 c 0,1.1046 0.895,2 2,2 h 12 c 1.105,0 2,0.8954 2,2 v 20 c 0,1.1046 -0.895,2 -2,2 h -4 c -1.105,0 -2,0.8954 -2,2 v 4 c 0,1.1046 0.895,2 2,2 h 4 c 1.105,0 2,0.8954 2,2 v 4 c 0,1.105 0.895,2 2,2 h 4 c 1.105,0 2,-0.895 2,-2 z M 262,88 h -52 c -1.105,0 -2,-0.8954 -2,-2 V 34 c 0,-1.1046 0.895,-2 2,-2 h 52 c 1.105,0 2,0.8954 2,2 v 52 c 0,1.1046 -0.895,2 -2,2 z M 144,86 V 74 c 0,-1.1046 -0.895,-2 -2,-2 h -4 c -1.105,0 -2,0.8954 -2,2 v 12 c 0,1.1046 0.895,2 2,2 h 4 c 1.105,0 2,-0.8954 2,-2 z m -16,0 v -4 c 0,-1.1046 -0.895,-2 -2,-2 h -4 c -1.105,0 -2,0.8954 -2,2 v 4 c 0,1.1046 0.895,2 2,2 h 4 c 1.105,0 2,-0.8954 2,-2 z m -16,0 v -4 c 0,-1.1046 -0.895,-2 -2,-2 h -4 c -1.105,0 -2,0.8954 -2,2 v 4 c 0,1.1046 0.895,2 2,2 h 4 c 1.105,0 2,-0.8954 2,-2 z M 86,88 H 34 c -1.1046,0 -2,-0.8954 -2,-2 V 34 c 0,-1.1046 0.8954,-2 2,-2 h 52 c 1.1046,0 2,0.8954 2,2 v 52 c 0,1.1046 -0.8954,2 -2,2 z M 256,78 V 42 c 0,-1.1046 -0.895,-2 -2,-2 h -36 c -1.105,0 -2,0.8954 -2,2 v 36 c 0,1.1046 0.895,2 2,2 h 36 c 1.105,0 2,-0.8954 2,-2 z m -136,0 v -4 c 0,-1.1046 -0.895,-2 -2,-2 h -4 c -1.105,0 -2,0.8954 -2,2 v 4 c 0,1.1046 0.895,2 2,2 h 4 c 1.105,0 2,-0.8954 2,-2 z M 80,78 V 42 c 0,-1.1046 -0.8954,-2 -2,-2 H 42 c -1.1046,0 -2,0.8954 -2,2 v 36 c 0,1.1046 0.8954,2 2,2 h 36 c 1.1046,0 2,-0.8954 2,-2 z m 166,-6 h -20 c -1.105,0 -2,-0.8954 -2,-2 V 50 c 0,-1.1046 0.895,-2 2,-2 h 20 c 1.105,0 2,0.8954 2,2 v 20 c 0,1.1046 -0.895,2 -2,2 z M 70,72 H 50 c -1.1046,0 -2,-0.8954 -2,-2 V 50 c 0,-1.1046 0.8954,-2 2,-2 h 20 c 1.1046,0 2,0.8954 2,2 v 20 c 0,1.1046 -0.8954,2 -2,2 z M 192,62 v -4 c 0,-1.1046 -0.895,-2 -2,-2 h -12 c -1.105,0 -2,0.8954 -2,2 v 4 c 0,1.1046 0.895,2 2,2 h 12 c 1.105,0 2,-0.8954 2,-2 z m -56,-8 v -4 c 0,-1.1046 -0.895,-2 -2,-2 h -4 c -1.105,0 -2,0.8954 -2,2 v 4 c 0,1.1046 0.895,2 2,2 h 4 c 1.105,0 2,-0.8954 2,-2 z m 14,-14 h -4 c -1.105,0 -2,-0.8954 -2,-2 v -4 c 0,-1.1046 0.895,-2 2,-2 h 4 c 1.105,0 2,0.8954 2,2 v 4 c 0,1.1046 -0.895,2 -2,2 z"
         id="path1" />
    </g>
  </g>
</svg>
