<?xml version="1.0" encoding="utf-8" standalone="no"?>
<!DOCTYPE svg PUBLIC "-//W3C//DTD SVG 1.1//EN"
  "http://www.w3.org/Graphics/SVG/1.1/DTD/svg11.dtd">
<svg xmlns:xlink="http://www.w3.org/1999/xlink" width="432pt" height="288pt" viewBox="0 0 432 288" xmlns="http://www.w3.org/2000/svg" version="1.1">
 <metadata>
  <rdf:RDF xmlns:dc="http://purl.org/dc/elements/1.1/" xmlns:cc="http://creativecommons.org/ns#" xmlns:rdf="http://www.w3.org/1999/02/22-rdf-syntax-ns#">
   <cc:Work>
    <dc:type rdf:resource="http://purl.org/dc/dcmitype/StillImage"/>
    <dc:date>2026-06-02T17:37:23.683669</dc:date>
    <dc:format>image/svg+xml</dc:format>
    <dc:creator>
     <cc:Agent>
      <dc:title>Matplotlib v3.10.9, https://matplotlib.org/</dc:title>
     </cc:Agent>
    </dc:creator>
   </cc:Work>
  </rdf:RDF>
 </metadata>
 <defs>
  <style type="text/css">*{stroke-linejoin: round; stroke-linecap: butt}</style>
 </defs>
 <g id="figure_1">
  <g id="patch_1">
   <path d="M 0 288 
L 432 288 
L 432 0 
L 0 0 
z
" style="fill: #ffffff"/>
  </g>
  <g id="axes_1">
   <g id="patch_2">
    <path d="M 12.981335 253.871267 
L 431 253.871267 
L 431 1 
L 12.981335 1 
z
" style="fill: #ffffff"/>
   </g>
   <g id="matplotlib.axis_1">
    <g id="xtick_1">
     <g id="line2d_1">
      <path d="M 31.982184 253.871267 
L 31.982184 1 
" clip-path="url(#pbd4c2bf524)" style="fill: none; stroke: #b0b0b0; stroke-width: 0.8; stroke-linecap: square"/>
     </g>
     <g id="line2d_2">
      <defs>
       <path id="m19db955192" d="M 0 0 
L 0 3.5 
" style="stroke: #000000; stroke-width: 0.8"/>
      </defs>
      <g>
       <use xlink:href="#m19db955192" x="31.982184" y="253.871267" style="stroke: #000000; stroke-width: 0.8"/>
      </g>
     </g>
     <g id="text_1">
      <!-- $\mathdefault{0}$ -->
      <g transform="translate(29.491516 267.969587) scale(0.1 -0.1)">
       <defs>
        <path id="CMR17-30" d="M 2688 2025 
C 2688 2416 2682 3080 2413 3591 
C 2176 4039 1798 4198 1466 4198 
C 1158 4198 768 4058 525 3597 
C 269 3118 243 2524 243 2025 
C 243 1661 250 1106 448 619 
C 723 -39 1216 -128 1466 -128 
C 1760 -128 2208 -7 2470 600 
C 2662 1042 2688 1559 2688 2025 
z
M 1466 -26 
C 1056 -26 813 325 723 812 
C 653 1188 653 1738 653 2096 
C 653 2588 653 2997 736 3387 
C 858 3929 1216 4096 1466 4096 
C 1728 4096 2067 3923 2189 3400 
C 2272 3036 2278 2607 2278 2096 
C 2278 1680 2278 1169 2202 792 
C 2067 95 1690 -26 1466 -26 
z
" transform="scale(0.015625)"/>
       </defs>
       <use xlink:href="#CMR17-30" transform="scale(0.996264)"/>
      </g>
     </g>
    </g>
    <g id="xtick_2">
     <g id="line2d_3">
      <path d="M 107.993178 253.871267 
L 107.993178 1 
" clip-path="url(#pbd4c2bf524)" style="fill: none; stroke: #b0b0b0; stroke-width: 0.8; stroke-linecap: square"/>
     </g>
     <g id="line2d_4">
      <g>
       <use xlink:href="#m19db955192" x="107.993178" y="253.871267" style="stroke: #000000; stroke-width: 0.8"/>
      </g>
     </g>
     <g id="text_2">
      <!-- $\mathdefault{2}$ -->
      <g transform="translate(105.502511 267.969587) scale(0.1 -0.1)">
       <defs>
        <path id="CMR17-32" d="M 2669 989 
L 2554 989 
C 2490 536 2438 459 2413 420 
C 2381 369 1920 369 1830 369 
L 602 369 
C 832 619 1280 1072 1824 1597 
C 2214 1967 2669 2402 2669 3035 
C 2669 3790 2067 4224 1395 4224 
C 691 4224 262 3604 262 3030 
C 262 2780 448 2748 525 2748 
C 589 2748 781 2787 781 3010 
C 781 3207 614 3264 525 3264 
C 486 3264 448 3258 422 3245 
C 544 3790 915 4058 1306 4058 
C 1862 4058 2227 3617 2227 3035 
C 2227 2479 1901 2000 1536 1584 
L 262 146 
L 262 0 
L 2515 0 
L 2669 989 
z
" transform="scale(0.015625)"/>
       </defs>
       <use xlink:href="#CMR17-32" transform="scale(0.996264)"/>
      </g>
     </g>
    </g>
    <g id="xtick_3">
     <g id="line2d_5">
      <path d="M 184.004173 253.871267 
L 184.004173 1 
" clip-path="url(#pbd4c2bf524)" style="fill: none; stroke: #b0b0b0; stroke-width: 0.8; stroke-linecap: square"/>
     </g>
     <g id="line2d_6">
      <g>
       <use xlink:href="#m19db955192" x="184.004173" y="253.871267" style="stroke: #000000; stroke-width: 0.8"/>
      </g>
     </g>
     <g id="text_3">
      <!-- $\mathdefault{4}$ -->
      <g transform="translate(181.513505 267.969587) scale(0.1 -0.1)">
       <defs>
        <path id="CMR17-34" d="M 2150 4122 
C 2150 4256 2144 4256 2029 4256 
L 128 1254 
L 128 1088 
L 1779 1088 
L 1779 457 
C 1779 224 1766 160 1318 160 
L 1197 160 
L 1197 0 
C 1402 0 1747 0 1965 0 
C 2182 0 2528 0 2733 0 
L 2733 160 
L 2611 160 
C 2163 160 2150 224 2150 457 
L 2150 1088 
L 2803 1088 
L 2803 1254 
L 2150 1254 
L 2150 4122 
z
M 1798 3703 
L 1798 1254 
L 256 1254 
L 1798 3703 
z
" transform="scale(0.015625)"/>
       </defs>
       <use xlink:href="#CMR17-34" transform="scale(0.996264)"/>
      </g>
     </g>
    </g>
    <g id="xtick_4">
     <g id="line2d_7">
      <path d="M 260.015168 253.871267 
L 260.015168 1 
" clip-path="url(#pbd4c2bf524)" style="fill: none; stroke: #b0b0b0; stroke-width: 0.8; stroke-linecap: square"/>
     </g>
     <g id="line2d_8">
      <g>
       <use xlink:href="#m19db955192" x="260.015168" y="253.871267" style="stroke: #000000; stroke-width: 0.8"/>
      </g>
     </g>
     <g id="text_4">
      <!-- $\mathdefault{6}$ -->
      <g transform="translate(257.5245 267.969587) scale(0.1 -0.1)">
       <defs>
        <path id="CMR17-36" d="M 678 2176 
C 678 3690 1395 4032 1811 4032 
C 1946 4032 2272 4009 2400 3776 
C 2298 3776 2106 3776 2106 3553 
C 2106 3381 2246 3323 2336 3323 
C 2394 3323 2566 3348 2566 3560 
C 2566 3954 2246 4179 1805 4179 
C 1043 4179 243 3390 243 1984 
C 243 253 966 -128 1478 -128 
C 2099 -128 2688 427 2688 1283 
C 2688 2081 2170 2662 1517 2662 
C 1126 2662 838 2407 678 1960 
L 678 2176 
z
M 1478 25 
C 691 25 691 1200 691 1436 
C 691 1896 909 2560 1504 2560 
C 1613 2560 1926 2560 2138 2120 
C 2253 1870 2253 1609 2253 1289 
C 2253 944 2253 690 2118 434 
C 1978 171 1773 25 1478 25 
z
" transform="scale(0.015625)"/>
       </defs>
       <use xlink:href="#CMR17-36" transform="scale(0.996264)"/>
      </g>
     </g>
    </g>
    <g id="xtick_5">
     <g id="line2d_9">
      <path d="M 336.026162 253.871267 
L 336.026162 1 
" clip-path="url(#pbd4c2bf524)" style="fill: none; stroke: #b0b0b0; stroke-width: 0.8; stroke-linecap: square"/>
     </g>
     <g id="line2d_10">
      <g>
       <use xlink:href="#m19db955192" x="336.026162" y="253.871267" style="stroke: #000000; stroke-width: 0.8"/>
      </g>
     </g>
     <g id="text_5">
      <!-- $\mathdefault{8}$ -->
      <g transform="translate(333.535495 267.969587) scale(0.1 -0.1)">
       <defs>
        <path id="CMR17-38" d="M 1741 2264 
C 2144 2467 2554 2773 2554 3263 
C 2554 3841 1990 4179 1472 4179 
C 890 4179 378 3759 378 3180 
C 378 3021 416 2747 666 2505 
C 730 2442 998 2251 1171 2130 
C 883 1983 211 1634 211 934 
C 211 279 838 -128 1459 -128 
C 2144 -128 2720 362 2720 1010 
C 2720 1590 2330 1857 2074 2029 
L 1741 2264 
z
M 902 2822 
C 851 2854 595 3051 595 3351 
C 595 3739 998 4032 1459 4032 
C 1965 4032 2336 3676 2336 3262 
C 2336 2669 1670 2331 1638 2331 
C 1632 2331 1626 2331 1574 2370 
L 902 2822 
z
M 2080 1519 
C 2176 1449 2483 1240 2483 851 
C 2483 381 2010 25 1472 25 
C 890 25 448 438 448 940 
C 448 1443 838 1862 1280 2060 
L 2080 1519 
z
" transform="scale(0.015625)"/>
       </defs>
       <use xlink:href="#CMR17-38" transform="scale(0.996264)"/>
      </g>
     </g>
    </g>
    <g id="xtick_6">
     <g id="line2d_11">
      <path d="M 412.037157 253.871267 
L 412.037157 1 
" clip-path="url(#pbd4c2bf524)" style="fill: none; stroke: #b0b0b0; stroke-width: 0.8; stroke-linecap: square"/>
     </g>
     <g id="line2d_12">
      <g>
       <use xlink:href="#m19db955192" x="412.037157" y="253.871267" style="stroke: #000000; stroke-width: 0.8"/>
      </g>
     </g>
     <g id="text_6">
      <!-- $\mathdefault{10}$ -->
      <g transform="translate(407.055822 267.969587) scale(0.1 -0.1)">
       <defs>
        <path id="CMR17-31" d="M 1702 4058 
C 1702 4192 1696 4192 1606 4192 
C 1357 3916 979 3827 621 3827 
C 602 3827 570 3827 563 3808 
C 557 3795 557 3782 557 3648 
C 755 3648 1088 3686 1344 3839 
L 1344 461 
C 1344 236 1331 160 781 160 
L 589 160 
L 589 0 
C 896 0 1216 0 1523 0 
C 1830 0 2150 0 2458 0 
L 2458 160 
L 2266 160 
C 1715 160 1702 230 1702 458 
L 1702 4058 
z
" transform="scale(0.015625)"/>
       </defs>
       <use xlink:href="#CMR17-31" transform="scale(0.996264)"/>
       <use xlink:href="#CMR17-30" transform="translate(45.690477 0) scale(0.996264)"/>
      </g>
     </g>
    </g>
    <g id="text_7">
     <!-- time, sec -->
     <g transform="translate(194.193198 284.029222) scale(0.14 -0.14)">
      <defs>
       <path id="NimbusSanL-Regu-74" d="M 1626 3380 
L 1075 3380 
L 1075 4288 
L 544 4288 
L 544 3380 
L 90 3380 
L 90 2944 
L 544 2944 
L 544 404 
C 544 64 774 -128 1190 -128 
C 1318 -128 1446 -116 1626 -83 
L 1626 366 
C 1555 346 1472 340 1370 340 
C 1139 340 1075 404 1075 641 
L 1075 2944 
L 1626 2944 
L 1626 3380 
z
" transform="scale(0.015625)"/>
       <path id="NimbusSanL-Regu-69" d="M 960 3359 
L 429 3359 
L 429 0 
L 960 0 
L 960 3359 
z
M 960 4672 
L 422 4672 
L 422 3999 
L 960 3999 
L 960 4672 
z
" transform="scale(0.015625)"/>
       <path id="NimbusSanL-Regu-6d" d="M 448 3359 
L 448 0 
L 986 0 
L 986 2109 
C 986 2597 1338 2988 1773 2988 
C 2170 2988 2394 2744 2394 2314 
L 2394 0 
L 2931 0 
L 2931 2109 
C 2931 2597 3283 2988 3718 2988 
C 4109 2988 4339 2738 4339 2314 
L 4339 0 
L 4877 0 
L 4877 2520 
C 4877 3122 4531 3456 3904 3456 
C 3456 3456 3187 3321 2874 2943 
C 2675 3302 2406 3456 1971 3456 
C 1523 3456 1229 3289 941 2885 
L 941 3359 
L 448 3359 
z
" transform="scale(0.015625)"/>
       <path id="NimbusSanL-Regu-65" d="M 3283 1529 
C 3283 2034 3245 2338 3149 2584 
C 2931 3127 2419 3456 1792 3456 
C 858 3456 256 2742 256 1645 
C 256 547 838 -128 1779 -128 
C 2547 -128 3078 310 3213 1044 
L 2675 1044 
C 2528 598 2227 365 1798 365 
C 1459 365 1171 520 992 805 
C 864 998 819 1193 813 1529 
L 3283 1529 
z
M 826 1984 
C 870 2577 1248 2962 1786 2962 
C 2310 2962 2714 2530 2714 1984 
C 2714 1984 2714 1984 2707 1984 
L 826 1984 
z
" transform="scale(0.015625)"/>
       <path id="NimbusSanL-Regu-2c" d="M 557 640 
L 557 -27 
L 941 -27 
L 941 -142 
C 941 -583 858 -710 557 -710 
L 557 -960 
C 1005 -960 1229 -674 1229 -126 
L 1229 640 
L 557 640 
z
" transform="scale(0.015625)"/>
       <path id="NimbusSanL-Regu-73" d="M 2803 2427 
C 2797 3085 2362 3456 1587 3456 
C 806 3456 301 3054 301 2436 
C 301 1913 570 1665 1363 1474 
L 1862 1353 
C 2234 1263 2381 1130 2381 888 
C 2381 576 2067 365 1600 365 
C 1312 365 1069 448 934 588 
C 851 684 813 779 781 1014 
L 218 1014 
C 243 241 678 -128 1555 -128 
C 2400 -128 2938 285 2938 929 
C 2938 1426 2656 1701 1990 1860 
L 1478 1981 
C 1043 2082 858 2223 858 2458 
C 858 2764 1133 2962 1568 2962 
C 1997 2962 2227 2777 2240 2427 
L 2803 2427 
z
" transform="scale(0.015625)"/>
       <path id="NimbusSanL-Regu-63" d="M 3014 2236 
C 2989 2562 2918 2773 2790 2958 
C 2560 3271 2157 3456 1690 3456 
C 787 3456 198 2742 198 1632 
C 198 554 774 -128 1683 -128 
C 2483 -128 2989 350 3053 1167 
L 2515 1167 
C 2426 632 2150 365 1696 365 
C 1107 365 755 843 755 1632 
C 755 2466 1101 2962 1683 2962 
C 2131 2962 2413 2701 2477 2236 
L 3014 2236 
z
" transform="scale(0.015625)"/>
      </defs>
      <use xlink:href="#NimbusSanL-Regu-74" transform="scale(0.996264)"/>
      <use xlink:href="#NimbusSanL-Regu-69" transform="translate(27.69517 0) scale(0.996264)"/>
      <use xlink:href="#NimbusSanL-Regu-6d" transform="translate(49.811954 0) scale(0.996264)"/>
      <use xlink:href="#NimbusSanL-Regu-65" transform="translate(132.800384 0) scale(0.996264)"/>
      <use xlink:href="#NimbusSanL-Regu-2c" transform="translate(186.698668 0) scale(0.996264)"/>
      <use xlink:href="#NimbusSanL-Regu-73" transform="translate(242.089008 0) scale(0.996264)"/>
      <use xlink:href="#NimbusSanL-Regu-65" transform="translate(291.902208 0) scale(0.996264)"/>
      <use xlink:href="#NimbusSanL-Regu-63" transform="translate(347.293885 0) scale(0.996264)"/>
     </g>
    </g>
   </g>
   <g id="matplotlib.axis_2">
    <g id="ytick_1">
     <g id="line2d_13">
      <path d="M 12.981335 234.861745 
L 431 234.861745 
" clip-path="url(#pbd4c2bf524)" style="fill: none; stroke: #b0b0b0; stroke-width: 0.8; stroke-linecap: square"/>
     </g>
     <g id="line2d_14">
      <defs>
       <path id="m320ecbce19" d="M 0 0 
L -3.5 0 
" style="stroke: #000000; stroke-width: 0.8"/>
      </defs>
      <g>
       <use xlink:href="#m320ecbce19" x="12.981335" y="234.861745" style="stroke: #000000; stroke-width: 0.8"/>
      </g>
     </g>
     <g id="text_8">
      <!-- $\mathdefault{1}$ -->
      <g transform="translate(1 238.410906) scale(0.1 -0.1)">
       <use xlink:href="#CMR17-31" transform="scale(0.996264)"/>
      </g>
     </g>
    </g>
    <g id="ytick_2">
     <g id="line2d_15">
      <path d="M 12.981335 180.606506 
L 431 180.606506 
" clip-path="url(#pbd4c2bf524)" style="fill: none; stroke: #b0b0b0; stroke-width: 0.8; stroke-linecap: square"/>
     </g>
     <g id="line2d_16">
      <g>
       <use xlink:href="#m320ecbce19" x="12.981335" y="180.606506" style="stroke: #000000; stroke-width: 0.8"/>
      </g>
     </g>
     <g id="text_9">
      <!-- $\mathdefault{2}$ -->
      <g transform="translate(1 184.155666) scale(0.1 -0.1)">
       <use xlink:href="#CMR17-32" transform="scale(0.996264)"/>
      </g>
     </g>
    </g>
    <g id="ytick_3">
     <g id="line2d_17">
      <path d="M 12.981335 126.351267 
L 431 126.351267 
" clip-path="url(#pbd4c2bf524)" style="fill: none; stroke: #b0b0b0; stroke-width: 0.8; stroke-linecap: square"/>
     </g>
     <g id="line2d_18">
      <g>
       <use xlink:href="#m320ecbce19" x="12.981335" y="126.351267" style="stroke: #000000; stroke-width: 0.8"/>
      </g>
     </g>
     <g id="text_10">
      <!-- $\mathdefault{3}$ -->
      <g transform="translate(1 129.900427) scale(0.1 -0.1)">
       <defs>
        <path id="CMR17-33" d="M 1414 2157 
C 1984 2157 2234 1662 2234 1090 
C 2234 320 1824 25 1453 25 
C 1114 25 563 194 390 693 
C 422 680 454 680 486 680 
C 640 680 755 782 755 948 
C 755 1133 614 1216 486 1216 
C 378 1216 211 1165 211 926 
C 211 335 787 -128 1466 -128 
C 2176 -128 2720 430 2720 1085 
C 2720 1707 2208 2157 1600 2227 
C 2086 2328 2554 2756 2554 3329 
C 2554 3820 2048 4179 1472 4179 
C 890 4179 378 3829 378 3329 
C 378 3110 544 3072 627 3072 
C 762 3072 877 3155 877 3321 
C 877 3486 762 3569 627 3569 
C 602 3569 570 3569 544 3557 
C 730 3959 1235 4032 1459 4032 
C 1683 4032 2106 3925 2106 3320 
C 2106 3143 2080 2828 1862 2550 
C 1670 2304 1453 2304 1242 2284 
C 1210 2284 1062 2269 1037 2269 
C 992 2263 966 2257 966 2208 
C 966 2163 973 2157 1101 2157 
L 1414 2157 
z
" transform="scale(0.015625)"/>
       </defs>
       <use xlink:href="#CMR17-33" transform="scale(0.996264)"/>
      </g>
     </g>
    </g>
    <g id="ytick_4">
     <g id="line2d_19">
      <path d="M 12.981335 72.096028 
L 431 72.096028 
" clip-path="url(#pbd4c2bf524)" style="fill: none; stroke: #b0b0b0; stroke-width: 0.8; stroke-linecap: square"/>
     </g>
     <g id="line2d_20">
      <g>
       <use xlink:href="#m320ecbce19" x="12.981335" y="72.096028" style="stroke: #000000; stroke-width: 0.8"/>
      </g>
     </g>
     <g id="text_11">
      <!-- $\mathdefault{4}$ -->
      <g transform="translate(1 75.645188) scale(0.1 -0.1)">
       <use xlink:href="#CMR17-34" transform="scale(0.996264)"/>
      </g>
     </g>
    </g>
    <g id="ytick_5">
     <g id="line2d_21">
      <path d="M 12.981335 17.840788 
L 431 17.840788 
" clip-path="url(#pbd4c2bf524)" style="fill: none; stroke: #b0b0b0; stroke-width: 0.8; stroke-linecap: square"/>
     </g>
     <g id="line2d_22">
      <g>
       <use xlink:href="#m320ecbce19" x="12.981335" y="17.840788" style="stroke: #000000; stroke-width: 0.8"/>
      </g>
     </g>
     <g id="text_12">
      <!-- $\mathdefault{5}$ -->
      <g transform="translate(1 21.389948) scale(0.1 -0.1)">
       <defs>
        <path id="CMR17-35" d="M 730 3692 
C 794 3666 1056 3584 1325 3584 
C 1920 3584 2246 3911 2432 4100 
C 2432 4157 2432 4192 2394 4192 
C 2387 4192 2374 4192 2323 4163 
C 2099 4058 1837 3973 1517 3973 
C 1325 3973 1037 3999 723 4139 
C 653 4171 640 4171 634 4171 
C 602 4171 595 4164 595 4037 
L 595 2203 
C 595 2089 595 2057 659 2057 
C 691 2057 704 2070 736 2114 
C 941 2401 1222 2522 1542 2522 
C 1766 2522 2246 2382 2246 1289 
C 2246 1085 2246 715 2054 421 
C 1894 159 1645 25 1370 25 
C 947 25 518 320 403 814 
C 429 807 480 795 506 795 
C 589 795 749 840 749 1038 
C 749 1210 627 1280 506 1280 
C 358 1280 262 1190 262 1011 
C 262 454 704 -128 1382 -128 
C 2042 -128 2669 440 2669 1264 
C 2669 2030 2170 2624 1549 2624 
C 1222 2624 947 2503 730 2274 
L 730 3692 
z
" transform="scale(0.015625)"/>
       </defs>
       <use xlink:href="#CMR17-35" transform="scale(0.996264)"/>
      </g>
     </g>
    </g>
   </g>
   <g id="line2d_23">
    <path d="M 31.982184 72.093315 
L 32.894316 99.528409 
L 33.844453 121.549091 
L 34.79459 138.644728 
L 35.782733 152.494524 
L 36.770876 163.263227 
L 37.721014 171.335121 
L 38.671151 177.61081 
L 39.583283 182.250291 
L 40.45741 185.633537 
L 41.29353 188.041513 
L 42.091646 189.686075 
L 42.81375 190.688762 
L 43.459844 191.234882 
L 44.067932 191.472099 
L 44.638014 191.468579 
L 45.246102 191.239563 
L 45.930201 190.720814 
L 46.690311 189.838889 
L 47.526432 188.516884 
L 48.476569 186.587006 
L 49.540723 183.902688 
L 50.718894 180.295569 
L 51.973075 175.716535 
L 53.303268 170.000787 
L 54.709471 162.945808 
L 56.15368 154.543035 
L 57.6739 144.337611 
L 59.232125 132.334578 
L 60.904367 117.653788 
L 62.728631 99.584609 
L 65.046966 74.210103 
L 68.39145 37.631374 
L 69.645632 26.337995 
L 70.595769 19.608793 
L 71.355879 15.684705 
L 71.963967 13.622098 
L 72.420033 12.754954 
L 72.762082 12.502989 
L 73.028121 12.547589 
L 73.332165 12.858172 
L 73.71222 13.635101 
L 74.168286 15.128936 
L 74.738368 17.824025 
L 75.460473 22.448493 
L 76.372605 29.902057 
L 77.702797 42.849517 
L 80.173154 67.006082 
L 81.275314 75.537502 
L 82.225451 81.253219 
L 83.061572 85.031119 
L 83.859688 87.651505 
L 84.581792 89.31803 
L 85.303896 90.443238 
L 85.987995 91.120512 
L 86.7101 91.53178 
L 87.546221 91.741726 
L 88.64838 91.771241 
L 92.296908 91.709593 
L 93.741117 91.994697 
L 95.223331 92.521358 
L 96.819562 93.329678 
L 98.643826 94.50993 
L 100.810139 96.188196 
L 103.470524 98.54477 
L 106.929024 101.923423 
L 112.173783 107.394205 
L 119.736877 115.257263 
L 122.815322 118.13032 
L 125.133658 120.002823 
L 126.995927 121.231873 
L 128.554152 122.003146 
L 129.884345 122.42422 
L 131.062515 122.57328 
L 132.126669 122.492957 
L 133.152818 122.190396 
L 134.140961 121.659251 
L 135.091098 120.896745 
L 136.079241 119.809148 
L 137.067384 118.386483 
L 138.093532 116.516498 
L 139.195692 114.019563 
L 140.335857 110.861042 
L 141.552032 106.809539 
L 142.882225 101.555166 
L 144.364439 94.733114 
L 146.188703 85.19974 
L 150.17928 63.954854 
L 151.243434 59.663118 
L 152.04155 57.281423 
L 152.649638 56.07065 
L 153.143709 55.529565 
L 153.523764 55.409386 
L 153.865814 55.535921 
L 154.245869 55.95055 
L 154.701935 56.846055 
L 155.234012 58.461829 
L 155.842099 61.085205 
L 156.564204 65.292534 
L 157.400325 71.625499 
L 158.350462 80.614511 
L 159.528633 94.056911 
L 161.086858 114.66963 
L 165.989567 181.521977 
L 167.433776 197.309845 
L 168.725963 209.10255 
L 169.904134 217.913973 
L 171.006293 224.568909 
L 172.070447 229.670886 
L 173.05859 233.38237 
L 174.008727 236.149222 
L 174.958865 238.252379 
L 175.870997 239.752573 
L 176.783129 240.836094 
L 177.69526 241.580918 
L 178.645398 242.066803 
L 179.633541 242.321359 
L 180.7357 242.366865 
L 181.951876 242.188315 
L 183.35808 241.748683 
L 184.95431 241.011089 
L 186.778574 239.91561 
L 188.75486 238.465417 
L 190.845163 236.650843 
L 192.935465 234.541805 
L 195.025767 232.11359 
L 197.040059 229.433852 
L 199.016344 226.431938 
L 200.916619 223.14099 
L 202.778889 219.466487 
L 204.603153 215.362454 
L 206.389411 210.778134 
L 208.137664 205.659142 
L 209.847911 199.949259 
L 211.558159 193.439008 
L 213.2304 186.190554 
L 214.940648 177.760594 
L 216.650895 168.196189 
L 218.437154 156.911014 
L 220.337428 143.434948 
L 222.541747 126.105971 
L 228.432599 78.686735 
L 229.61077 71.514101 
L 230.560907 67.006446 
L 231.321017 64.380781 
L 231.929105 62.97394 
L 232.423177 62.309667 
L 232.841237 62.091151 
L 233.183287 62.14818 
L 233.563342 62.459133 
L 234.019408 63.170192 
L 234.551484 64.448517 
L 235.197578 66.605793 
L 236.033699 70.257898 
L 237.135858 76.196432 
L 241.43048 100.555707 
L 242.456628 104.551266 
L 243.36876 107.238183 
L 244.204881 109.031282 
L 244.964991 110.173771 
L 245.725101 110.928704 
L 246.485211 111.374863 
L 247.321332 111.599535 
L 248.309475 111.624994 
L 249.8677 111.41055 
L 252.376063 111.085736 
L 253.896283 111.128983 
L 255.378497 111.398008 
L 256.936722 111.915455 
L 258.64697 112.725687 
L 260.661261 113.937346 
L 263.28364 115.793184 
L 270.504685 121.048025 
L 272.40496 122.075479 
L 273.92518 122.657023 
L 275.255372 122.932442 
L 276.433543 122.949299 
L 277.497696 122.744201 
L 278.523845 122.31436 
L 279.511988 121.652485 
L 280.500131 120.713772 
L 281.488274 119.463312 
L 282.514422 117.796415 
L 283.578576 115.629575 
L 284.680735 112.871786 
L 285.858906 109.303883 
L 287.113087 104.770998 
L 288.481285 98.964401 
L 290.077516 91.157331 
L 292.31984 78.930305 
L 294.752192 65.948525 
L 295.930363 60.809548 
L 296.804489 57.910408 
L 297.488588 56.352962 
L 298.020665 55.650439 
L 298.438726 55.445686 
L 298.780775 55.522109 
L 299.122824 55.829701 
L 299.540885 56.53352 
L 300.034956 57.849146 
L 300.605039 60.040878 
L 301.289138 63.644062 
L 302.087253 69.186633 
L 302.999385 77.21473 
L 304.101545 89.075588 
L 305.469743 106.386159 
L 307.864089 140.125739 
L 310.258435 172.719549 
L 311.816661 191.021785 
L 313.146853 204.205725 
L 314.363029 214.183014 
L 315.503194 221.786566 
L 316.567348 227.469732 
L 317.593496 231.795629 
L 318.581639 235.030473 
L 319.531777 237.408961 
L 320.443908 239.127877 
L 321.35604 240.390505 
L 322.268172 241.280538 
L 323.180304 241.868991 
L 324.130442 242.224204 
L 325.15659 242.372213 
L 326.296755 242.310063 
L 327.588942 242.013833 
L 329.071156 241.442717 
L 330.781404 240.538902 
L 332.681679 239.277644 
L 334.733975 237.641982 
L 336.824278 235.689921 
L 338.91458 233.433812 
L 340.966877 230.891599 
L 342.981168 228.037489 
L 344.919449 224.902622 
L 346.819724 221.397791 
L 348.643988 217.563294 
L 350.430246 213.28724 
L 352.178499 208.519506 
L 353.888746 203.207426 
L 355.598994 197.154576 
L 357.309241 190.251534 
L 359.019488 182.382662 
L 360.729736 173.434297 
L 362.477989 163.070707 
L 364.302252 150.884272 
L 366.316544 135.852491 
L 368.862912 115.014498 
L 372.549445 84.876497 
L 373.955649 75.245853 
L 375.019803 69.367069 
L 375.893929 65.705314 
L 376.578028 63.684148 
L 377.148111 62.612321 
L 377.604177 62.171794 
L 377.984231 62.092314 
L 378.326281 62.244589 
L 378.706336 62.660035 
L 379.200407 63.578451 
L 379.77049 65.144856 
L 380.492594 67.839863 
L 381.404726 72.196651 
L 382.696913 79.601033 
L 385.699347 97.153702 
L 386.839512 102.316552 
L 387.78965 105.659276 
L 388.663776 107.965532 
L 389.461892 109.483832 
L 390.222002 110.480818 
L 390.982112 111.11795 
L 391.742222 111.473701 
L 392.616348 111.630426 
L 393.718507 111.586922 
L 398.659222 111.108608 
L 400.141436 111.343152 
L 401.661656 111.812561 
L 403.333898 112.566845 
L 405.272179 113.693017 
L 407.742536 115.401233 
L 411.999152 118.626832 
L 411.999152 118.626832 
" clip-path="url(#pbd4c2bf524)" style="fill: none; stroke: #1f77b4; stroke-width: 1.5; stroke-linecap: square"/>
   </g>
   <g id="patch_3">
    <path d="M 12.981335 253.871267 
L 12.981335 1 
" style="fill: none; stroke: #000000; stroke-width: 0.8; stroke-linejoin: miter; stroke-linecap: square"/>
   </g>
   <g id="patch_4">
    <path d="M 431 253.871267 
L 431 1 
" style="fill: none; stroke: #000000; stroke-width: 0.8; stroke-linejoin: miter; stroke-linecap: square"/>
   </g>
   <g id="patch_5">
    <path d="M 12.981335 253.871267 
L 431 253.871267 
" style="fill: none; stroke: #000000; stroke-width: 0.8; stroke-linejoin: miter; stroke-linecap: square"/>
   </g>
   <g id="patch_6">
    <path d="M 12.981335 1 
L 431 1 
" style="fill: none; stroke: #000000; stroke-width: 0.8; stroke-linejoin: miter; stroke-linecap: square"/>
   </g>
   <g id="legend_1">
    <g id="patch_7">
     <path d="M 273.809605 37.740224 
L 419.8 37.740224 
Q 423 37.740224 423 34.540224 
L 423 12.2 
Q 423 9 419.8 9 
L 273.809605 9 
Q 270.609605 9 270.609605 12.2 
L 270.609605 34.540224 
Q 270.609605 37.740224 273.809605 37.740224 
z
" style="fill: #ffffff; opacity: 0.8; stroke: #cccccc; stroke-linejoin: miter"/>
    </g>
    <g id="line2d_24">
     <path d="M 277.009605 21.755168 
L 293.009605 21.755168 
L 309.009605 21.755168 
" style="fill: none; stroke: #1f77b4; stroke-width: 1.5; stroke-linecap: square"/>
    </g>
    <g id="text_13">
     <!-- $\Vert x(t) - x_\star(t) \Vert$ -->
     <g transform="translate(321.809605 27.355168) scale(0.16 -0.16)">
      <defs>
       <path id="CMSY10-6b" d="M 1103 4582 
C 1103 4685 1103 4800 975 4800 
C 847 4800 847 4659 847 4563 
L 847 -1363 
C 847 -1466 847 -1600 975 -1600 
C 1103 -1600 1103 -1485 1103 -1382 
L 1103 4582 
z
M 2351 4563 
C 2351 4666 2351 4800 2223 4800 
C 2095 4800 2095 4685 2095 4582 
L 2095 -1382 
C 2095 -1485 2095 -1600 2223 -1600 
C 2351 -1600 2351 -1459 2351 -1363 
L 2351 4563 
z
" transform="scale(0.015625)"/>
       <path id="CMMI12-78" d="M 3034 2606 
C 2829 2567 2752 2414 2752 2293 
C 2752 2139 2874 2088 2963 2088 
C 3155 2088 3290 2254 3290 2427 
C 3290 2695 2982 2816 2714 2816 
C 2323 2816 2106 2433 2048 2312 
C 1901 2816 1504 2816 1389 2816 
C 736 2816 390 1980 390 1839 
C 390 1814 416 1782 461 1782 
C 512 1782 525 1820 538 1846 
C 755 2555 1184 2689 1370 2689 
C 1658 2689 1715 2420 1715 2267 
C 1715 2127 1677 1980 1600 1673 
L 1382 798 
C 1286 415 1101 64 762 64 
C 730 64 570 64 435 147 
C 666 192 717 383 717 460 
C 717 588 621 664 499 664 
C 346 664 179 530 179 326 
C 179 57 480 -64 755 -64 
C 1062 -64 1280 179 1414 441 
C 1517 64 1837 -64 2074 -64 
C 2726 -64 3072 773 3072 913 
C 3072 945 3046 971 3008 971 
C 2950 971 2944 939 2925 888 
C 2752 326 2381 64 2093 64 
C 1869 64 1747 230 1747 492 
C 1747 632 1773 734 1875 1156 
L 2099 2024 
C 2195 2408 2413 2689 2707 2689 
C 2720 2689 2899 2689 3034 2606 
z
" transform="scale(0.015625)"/>
       <path id="CMR17-28" d="M 1958 -1561 
C 1958 -1555 1958 -1542 1939 -1523 
C 1645 -1224 858 -407 858 1581 
C 858 3569 1632 4379 1946 4697 
C 1946 4704 1958 4717 1958 4736 
C 1958 4755 1939 4768 1914 4768 
C 1843 4768 1299 4296 986 3594 
C 666 2887 576 2199 576 1588 
C 576 1128 621 351 1005 -471 
C 1312 -1135 1837 -1600 1914 -1600 
C 1946 -1600 1958 -1587 1958 -1561 
z
" transform="scale(0.015625)"/>
       <path id="CMMI12-74" d="M 1286 2566 
L 1875 2566 
C 1997 2566 2061 2566 2061 2681 
C 2061 2752 2022 2752 1894 2752 
L 1331 2752 
L 1568 3692 
C 1594 3781 1594 3794 1594 3840 
C 1594 3943 1510 4000 1427 4000 
C 1376 4000 1229 3981 1178 3775 
L 928 2752 
L 326 2752 
C 198 2752 141 2752 141 2630 
C 141 2566 186 2566 307 2566 
L 877 2566 
L 454 881 
C 403 658 384 594 384 511 
C 384 211 595 -64 954 -64 
C 1600 -64 1946 868 1946 912 
C 1946 951 1920 970 1882 970 
C 1869 970 1843 970 1830 944 
C 1824 938 1818 931 1773 829 
C 1638 511 1344 64 973 64 
C 781 64 768 224 768 364 
C 768 370 768 492 787 568 
L 1286 2566 
z
" transform="scale(0.015625)"/>
       <path id="CMR17-29" d="M 1683 1581 
C 1683 2040 1638 2817 1254 3639 
C 947 4303 422 4768 346 4768 
C 326 4768 301 4761 301 4729 
C 301 4717 307 4710 314 4697 
C 621 4378 1402 3568 1402 1584 
C 1402 -407 627 -1217 314 -1537 
C 307 -1549 301 -1556 301 -1568 
C 301 -1600 326 -1600 346 -1600 
C 416 -1600 960 -1128 1274 -426 
C 1594 281 1683 969 1683 1581 
z
" transform="scale(0.015625)"/>
       <path id="CMSY10-0" d="M 4218 1472 
C 4326 1472 4442 1472 4442 1600 
C 4442 1728 4326 1728 4218 1728 
L 755 1728 
C 646 1728 531 1728 531 1600 
C 531 1472 646 1472 755 1472 
L 4218 1472 
z
" transform="scale(0.015625)"/>
       <path id="CMMI12-3f" d="M 1562 1101 
L 2432 147 
C 2451 128 2470 115 2496 115 
C 2554 115 2554 166 2554 173 
C 2554 192 2534 230 2522 250 
L 1894 1344 
L 3040 1862 
C 3117 1894 3130 1901 3130 1939 
C 3130 1971 3104 1997 3066 1997 
L 1773 1734 
L 1632 2970 
C 1619 3059 1619 3091 1568 3091 
C 1510 3091 1510 3059 1498 2963 
L 1357 1734 
L 64 1997 
C 26 1997 0 1971 0 1939 
C 0 1901 32 1888 83 1862 
L 1235 1344 
L 621 262 
C 576 186 576 179 576 173 
C 576 166 576 115 634 115 
C 646 115 672 115 730 179 
L 1562 1101 
z
" transform="scale(0.015625)"/>
      </defs>
      <use xlink:href="#CMSY10-6b" transform="scale(0.996264)"/>
      <use xlink:href="#CMMI12-78" transform="translate(49.813383 0) scale(0.996264)"/>
      <use xlink:href="#CMR17-28" transform="translate(105.247442 0) scale(0.996264)"/>
      <use xlink:href="#CMMI12-74" transform="translate(140.52821 0) scale(0.996264)"/>
      <use xlink:href="#CMR17-29" transform="translate(175.75454 0) scale(0.996264)"/>
      <use xlink:href="#CMSY10-0" transform="translate(233.174515 0) scale(0.996264)"/>
      <use xlink:href="#CMMI12-78" transform="translate(332.80119 0) scale(0.996264)"/>
      <use xlink:href="#CMMI12-3f" transform="translate(388.235249 -14.943915) scale(0.697382)"/>
      <use xlink:href="#CMR17-28" transform="translate(422.875673 0) scale(0.996264)"/>
      <use xlink:href="#CMMI12-74" transform="translate(458.15644 0) scale(0.996264)"/>
      <use xlink:href="#CMR17-29" transform="translate(493.382771 0) scale(0.996264)"/>
      <use xlink:href="#CMSY10-6b" transform="translate(528.663538 0) scale(0.996264)"/>
     </g>
    </g>
   </g>
  </g>
 </g>
 <defs>
  <clipPath id="pbd4c2bf524">
   <rect x="12.981335" y="1" width="418.018665" height="252.871267"/>
  </clipPath>
 </defs>
</svg>
