<?xml version="1.0" encoding="utf-8" standalone="no"?>
<!DOCTYPE svg PUBLIC "-//W3C//DTD SVG 1.1//EN"
  "http://www.w3.org/Graphics/SVG/1.1/DTD/svg11.dtd">
<svg xmlns:xlink="http://www.w3.org/1999/xlink" width="410.4pt" height="360pt" viewBox="0 0 410.4 360" xmlns="http://www.w3.org/2000/svg" version="1.1">
 <metadata>
  <rdf:RDF xmlns:dc="http://purl.org/dc/elements/1.1/" xmlns:cc="http://creativecommons.org/ns#" xmlns:rdf="http://www.w3.org/1999/02/22-rdf-syntax-ns#">
   <cc:Work>
    <dc:type rdf:resource="http://purl.org/dc/dcmitype/StillImage"/>
    <dc:date>2026-06-04T00:40:27.346550</dc:date>
    <dc:format>image/svg+xml</dc:format>
    <dc:creator>
     <cc:Agent>
      <dc:title>Matplotlib v3.10.8, https://matplotlib.org/</dc:title>
     </cc:Agent>
    </dc:creator>
   </cc:Work>
  </rdf:RDF>
 </metadata>
 <defs>
  <style type="text/css">*{stroke-linejoin: round; stroke-linecap: butt}</style>
 </defs>
 <g id="figure_1">
  <g id="patch_1">
   <path d="M 0 360 
L 410.4 360 
L 410.4 0 
L 0 0 
z
" style="fill: #ffffff"/>
  </g>
  <g id="axes_1">
   <g id="patch_2">
    <path d="M 36.629068 328.155639 
L 403.623798 328.155639 
L 403.623798 5 
L 36.629068 5 
z
" style="fill: #ffffff"/>
   </g>
   <g id="matplotlib.axis_1">
    <g id="xtick_1">
     <g id="line2d_1">
      <path d="M 83.321672 328.155639 
L 83.321672 5 
" clip-path="url(#p6439c2ce00)" style="fill: none; stroke: #b0b0b0; stroke-width: 0.8; stroke-linecap: square"/>
     </g>
     <g id="line2d_2">
      <defs>
       <path id="mbff8027574" d="M 0 0 
L 0 3.5 
" style="stroke: #000000; stroke-width: 0.8"/>
      </defs>
      <g>
       <use xlink:href="#mbff8027574" x="83.321672" y="328.155639" style="stroke: #000000; stroke-width: 0.8"/>
      </g>
     </g>
     <g id="text_1">
      <!-- $\mathdefault{−2}$ -->
      <g transform="translate(76.956633 342.253959) scale(0.1 -0.1)">
       <defs>
        <path id="CMSY10-0" d="M 4218 1472 
C 4326 1472 4442 1472 4442 1600 
C 4442 1728 4326 1728 4218 1728 
L 755 1728 
C 646 1728 531 1728 531 1600 
C 531 1472 646 1472 755 1472 
L 4218 1472 
z
" transform="scale(0.015625)"/>
        <path id="CMR17-32" d="M 2669 990 
L 2554 990 
C 2490 537 2438 460 2413 422 
C 2381 371 1920 371 1830 371 
L 602 371 
C 832 620 1280 1073 1824 1596 
C 2214 1966 2669 2400 2669 3033 
C 2669 3788 2067 4224 1395 4224 
C 691 4224 262 3603 262 3027 
C 262 2777 448 2745 525 2745 
C 589 2745 781 2783 781 3007 
C 781 3206 614 3264 525 3264 
C 486 3264 448 3257 422 3244 
C 544 3788 915 4057 1306 4057 
C 1862 4057 2227 3616 2227 3033 
C 2227 2477 1901 1998 1536 1583 
L 262 147 
L 262 0 
L 2515 0 
L 2669 990 
z
" transform="scale(0.015625)"/>
       </defs>
       <use xlink:href="#CMSY10-0" transform="scale(0.996264)"/>
       <use xlink:href="#CMR17-32" transform="translate(77.487468 0) scale(0.996264)"/>
      </g>
     </g>
    </g>
    <g id="xtick_2">
     <g id="line2d_3">
      <path d="M 142.981648 328.155639 
L 142.981648 5 
" clip-path="url(#p6439c2ce00)" style="fill: none; stroke: #b0b0b0; stroke-width: 0.8; stroke-linecap: square"/>
     </g>
     <g id="line2d_4">
      <g>
       <use xlink:href="#mbff8027574" x="142.981648" y="328.155639" style="stroke: #000000; stroke-width: 0.8"/>
      </g>
     </g>
     <g id="text_2">
      <!-- $\mathdefault{−1}$ -->
      <g transform="translate(136.616608 342.253959) scale(0.1 -0.1)">
       <defs>
        <path id="CMR17-31" d="M 1702 4083 
C 1702 4217 1696 4224 1606 4224 
C 1357 3927 979 3833 621 3820 
C 602 3820 570 3820 563 3808 
C 557 3795 557 3782 557 3648 
C 755 3648 1088 3686 1344 3839 
L 1344 467 
C 1344 243 1331 166 781 166 
L 589 166 
L 589 0 
C 896 6 1216 12 1523 12 
C 1830 12 2150 6 2458 0 
L 2458 166 
L 2266 166 
C 1715 166 1702 236 1702 467 
L 1702 4083 
z
" transform="scale(0.015625)"/>
       </defs>
       <use xlink:href="#CMSY10-0" transform="scale(0.996264)"/>
       <use xlink:href="#CMR17-31" transform="translate(77.487468 0) scale(0.996264)"/>
      </g>
     </g>
    </g>
    <g id="xtick_3">
     <g id="line2d_5">
      <path d="M 202.641624 328.155639 
L 202.641624 5 
" clip-path="url(#p6439c2ce00)" style="fill: none; stroke: #b0b0b0; stroke-width: 0.8; stroke-linecap: square"/>
     </g>
     <g id="line2d_6">
      <g>
       <use xlink:href="#mbff8027574" x="202.641624" y="328.155639" style="stroke: #000000; stroke-width: 0.8"/>
      </g>
     </g>
     <g id="text_3">
      <!-- $\mathdefault{0}$ -->
      <g transform="translate(200.150956 342.253959) scale(0.1 -0.1)">
       <defs>
        <path id="CMR17-30" d="M 2688 2038 
C 2688 2430 2682 3099 2413 3613 
C 2176 4063 1798 4224 1466 4224 
C 1158 4224 768 4082 525 3620 
C 269 3137 243 2539 243 2038 
C 243 1671 250 1112 448 623 
C 723 -39 1216 -128 1466 -128 
C 1760 -128 2208 -7 2470 604 
C 2662 1048 2688 1568 2688 2038 
z
M 1466 -26 
C 1056 -26 813 328 723 816 
C 653 1196 653 1749 653 2109 
C 653 2604 653 3015 736 3407 
C 858 3954 1216 4121 1466 4121 
C 1728 4121 2067 3947 2189 3420 
C 2272 3054 2278 2623 2278 2109 
C 2278 1691 2278 1176 2202 797 
C 2067 96 1690 -26 1466 -26 
z
" transform="scale(0.015625)"/>
       </defs>
       <use xlink:href="#CMR17-30" transform="scale(0.996264)"/>
      </g>
     </g>
    </g>
    <g id="xtick_4">
     <g id="line2d_7">
      <path d="M 262.301599 328.155639 
L 262.301599 5 
" clip-path="url(#p6439c2ce00)" style="fill: none; stroke: #b0b0b0; stroke-width: 0.8; stroke-linecap: square"/>
     </g>
     <g id="line2d_8">
      <g>
       <use xlink:href="#mbff8027574" x="262.301599" y="328.155639" style="stroke: #000000; stroke-width: 0.8"/>
      </g>
     </g>
     <g id="text_4">
      <!-- $\mathdefault{1}$ -->
      <g transform="translate(259.810931 342.253959) scale(0.1 -0.1)">
       <use xlink:href="#CMR17-31" transform="scale(0.996264)"/>
      </g>
     </g>
    </g>
    <g id="xtick_5">
     <g id="line2d_9">
      <path d="M 321.961575 328.155639 
L 321.961575 5 
" clip-path="url(#p6439c2ce00)" style="fill: none; stroke: #b0b0b0; stroke-width: 0.8; stroke-linecap: square"/>
     </g>
     <g id="line2d_10">
      <g>
       <use xlink:href="#mbff8027574" x="321.961575" y="328.155639" style="stroke: #000000; stroke-width: 0.8"/>
      </g>
     </g>
     <g id="text_5">
      <!-- $\mathdefault{2}$ -->
      <g transform="translate(319.470907 342.253959) scale(0.1 -0.1)">
       <use xlink:href="#CMR17-32" transform="scale(0.996264)"/>
      </g>
     </g>
    </g>
    <g id="xtick_6">
     <g id="line2d_11">
      <path d="M 381.62155 328.155639 
L 381.62155 5 
" clip-path="url(#p6439c2ce00)" style="fill: none; stroke: #b0b0b0; stroke-width: 0.8; stroke-linecap: square"/>
     </g>
     <g id="line2d_12">
      <g>
       <use xlink:href="#mbff8027574" x="381.62155" y="328.155639" style="stroke: #000000; stroke-width: 0.8"/>
      </g>
     </g>
     <g id="text_6">
      <!-- $\mathdefault{3}$ -->
      <g transform="translate(379.130882 342.253959) scale(0.1 -0.1)">
       <defs>
        <path id="CMR17-33" d="M 1414 2176 
C 1984 2176 2234 1673 2234 1094 
C 2234 322 1824 25 1453 25 
C 1114 25 563 193 390 691 
C 422 678 454 678 486 678 
C 640 678 755 780 755 947 
C 755 1132 614 1216 486 1216 
C 378 1216 211 1164 211 927 
C 211 335 787 -128 1466 -128 
C 2176 -128 2720 432 2720 1087 
C 2720 1718 2208 2176 1600 2246 
C 2086 2347 2554 2776 2554 3353 
C 2554 3856 2048 4224 1472 4224 
C 890 4224 378 3862 378 3347 
C 378 3123 544 3084 627 3084 
C 762 3084 877 3167 877 3334 
C 877 3500 762 3584 627 3584 
C 602 3584 570 3584 544 3571 
C 730 3999 1235 4076 1459 4076 
C 1683 4076 2106 3966 2106 3347 
C 2106 3167 2080 2851 1862 2574 
C 1670 2329 1453 2316 1242 2297 
C 1210 2297 1062 2284 1037 2284 
C 992 2278 966 2272 966 2227 
C 966 2182 973 2176 1101 2176 
L 1414 2176 
z
" transform="scale(0.015625)"/>
       </defs>
       <use xlink:href="#CMR17-33" transform="scale(0.996264)"/>
      </g>
     </g>
    </g>
   </g>
   <g id="matplotlib.axis_2">
    <g id="ytick_1">
     <g id="line2d_13">
      <path d="M 36.629068 273.514503 
L 403.623798 273.514503 
" clip-path="url(#p6439c2ce00)" style="fill: none; stroke: #b0b0b0; stroke-width: 0.8; stroke-linecap: square"/>
     </g>
     <g id="line2d_14">
      <defs>
       <path id="mdbc7fca3b7" d="M 0 0 
L -3.5 0 
" style="stroke: #000000; stroke-width: 0.8"/>
      </defs>
      <g>
       <use xlink:href="#mdbc7fca3b7" x="36.629068" y="273.514503" style="stroke: #000000; stroke-width: 0.8"/>
      </g>
     </g>
     <g id="text_7">
      <!-- $\mathdefault{−2}$ -->
      <g transform="translate(16.89899 277.063663) scale(0.1 -0.1)">
       <use xlink:href="#CMSY10-0" transform="scale(0.996264)"/>
       <use xlink:href="#CMR17-32" transform="translate(77.487468 0) scale(0.996264)"/>
      </g>
     </g>
    </g>
    <g id="ytick_2">
     <g id="line2d_15">
      <path d="M 36.629068 213.854527 
L 403.623798 213.854527 
" clip-path="url(#p6439c2ce00)" style="fill: none; stroke: #b0b0b0; stroke-width: 0.8; stroke-linecap: square"/>
     </g>
     <g id="line2d_16">
      <g>
       <use xlink:href="#mdbc7fca3b7" x="36.629068" y="213.854527" style="stroke: #000000; stroke-width: 0.8"/>
      </g>
     </g>
     <g id="text_8">
      <!-- $\mathdefault{−1}$ -->
      <g transform="translate(16.89899 217.403687) scale(0.1 -0.1)">
       <use xlink:href="#CMSY10-0" transform="scale(0.996264)"/>
       <use xlink:href="#CMR17-31" transform="translate(77.487468 0) scale(0.996264)"/>
      </g>
     </g>
    </g>
    <g id="ytick_3">
     <g id="line2d_17">
      <path d="M 36.629068 154.194552 
L 403.623798 154.194552 
" clip-path="url(#p6439c2ce00)" style="fill: none; stroke: #b0b0b0; stroke-width: 0.8; stroke-linecap: square"/>
     </g>
     <g id="line2d_18">
      <g>
       <use xlink:href="#mdbc7fca3b7" x="36.629068" y="154.194552" style="stroke: #000000; stroke-width: 0.8"/>
      </g>
     </g>
     <g id="text_9">
      <!-- $\mathdefault{0}$ -->
      <g transform="translate(24.647733 157.743712) scale(0.1 -0.1)">
       <use xlink:href="#CMR17-30" transform="scale(0.996264)"/>
      </g>
     </g>
    </g>
    <g id="ytick_4">
     <g id="line2d_19">
      <path d="M 36.629068 94.534576 
L 403.623798 94.534576 
" clip-path="url(#p6439c2ce00)" style="fill: none; stroke: #b0b0b0; stroke-width: 0.8; stroke-linecap: square"/>
     </g>
     <g id="line2d_20">
      <g>
       <use xlink:href="#mdbc7fca3b7" x="36.629068" y="94.534576" style="stroke: #000000; stroke-width: 0.8"/>
      </g>
     </g>
     <g id="text_10">
      <!-- $\mathdefault{1}$ -->
      <g transform="translate(24.647733 98.083736) scale(0.1 -0.1)">
       <use xlink:href="#CMR17-31" transform="scale(0.996264)"/>
      </g>
     </g>
    </g>
    <g id="ytick_5">
     <g id="line2d_21">
      <path d="M 36.629068 34.874601 
L 403.623798 34.874601 
" clip-path="url(#p6439c2ce00)" style="fill: none; stroke: #b0b0b0; stroke-width: 0.8; stroke-linecap: square"/>
     </g>
     <g id="line2d_22">
      <g>
       <use xlink:href="#mdbc7fca3b7" x="36.629068" y="34.874601" style="stroke: #000000; stroke-width: 0.8"/>
      </g>
     </g>
     <g id="text_11">
      <!-- $\mathdefault{2}$ -->
      <g transform="translate(24.647733 38.423761) scale(0.1 -0.1)">
       <use xlink:href="#CMR17-32" transform="scale(0.996264)"/>
      </g>
     </g>
    </g>
   </g>
   <g id="line2d_23">
    <path d="M 381.62155 94.534576 
L 383.417882 107.91845 
L 384.786111 119.734026 
L 385.825315 130.662444 
L 386.498112 140.116932 
L 386.854627 148.26102 
L 386.939116 155.255664 
L 386.790192 161.252803 
L 386.441216 166.391659 
L 385.920796 170.797033 
L 385.253313 174.578967 
L 384.459444 177.83327 
L 383.55666 180.642559 
L 382.501783 183.203111 
L 381.356396 185.417006 
L 380.066121 187.437849 
L 378.630321 189.279648 
L 376.97517 191.031159 
L 375.091023 192.68562 
L 372.969428 194.247189 
L 370.43624 195.824997 
L 367.379153 197.453201 
L 363.582145 199.212628 
L 358.419688 201.344283 
L 349.530838 204.73556 
L 334.937148 210.331508 
L 325.89616 214.04842 
L 317.510685 217.733878 
L 309.400712 221.538588 
L 301.36056 225.553086 
L 293.128975 229.913456 
L 284.701405 234.630622 
L 275.73459 239.908412 
L 265.798467 246.023495 
L 253.752616 253.711314 
L 224.392177 272.57253 
L 216.173948 277.517377 
L 209.156077 281.485567 
L 202.967471 284.731717 
L 197.428343 287.3924 
L 192.324123 289.604897 
L 187.414797 291.48608 
L 182.997514 292.947265 
L 178.81699 294.107314 
L 174.886685 294.982479 
L 170.934948 295.634518 
L 167.252009 296.020888 
L 163.561961 296.178561 
L 160.154775 296.106797 
L 156.751943 295.81384 
L 153.358909 295.288476 
L 150.2621 294.594191 
L 147.182867 293.689637 
L 144.125898 292.569421 
L 141.095985 291.229481 
L 138.097992 289.667213 
L 135.136826 287.881573 
L 132.217397 285.873163 
L 129.344584 283.64429 
L 126.26942 280.966141 
L 123.261548 278.038043 
L 120.326853 274.869974 
L 117.47095 271.4742 
L 114.472105 267.555226 
L 111.578185 263.406768 
L 108.585487 258.70909 
L 105.727314 253.803291 
L 102.820345 248.353654 
L 100.079358 242.744964 
L 97.343222 236.634798 
L 94.651949 230.054009 
L 92.185164 223.439067 
L 89.818174 216.458424 
L 87.590832 209.179655 
L 85.637386 202.052129 
L 83.869592 194.768219 
L 82.387884 187.754578 
L 81.127341 180.719051 
L 80.154735 174.046742 
L 79.45446 167.752462 
L 79.010513 161.840588 
L 78.806895 156.306885 
L 78.827935 151.140305 
L 79.058537 146.324638 
L 79.484372 141.839985 
L 80.125252 137.472454 
L 80.951348 133.416385 
L 81.949572 129.643822 
L 83.108063 126.126939 
L 84.479027 122.694155 
L 86.002725 119.481499 
L 87.745278 116.333516 
L 89.716296 113.244641 
L 91.925412 110.205162 
L 94.382564 107.201466 
L 97.198362 104.111697 
L 100.402812 100.924644 
L 104.141326 97.520181 
L 108.591222 93.771606 
L 114.09912 89.431803 
L 121.24511 84.098891 
L 131.570914 76.69395 
L 149.286657 64.297786 
L 165.499759 53.185242 
L 176.160769 46.133583 
L 184.575298 40.824371 
L 191.737035 36.559437 
L 198.186832 32.975541 
L 203.830131 30.082475 
L 209.095195 27.622573 
L 213.944194 25.59022 
L 218.605524 23.873057 
L 223.06093 22.471894 
L 227.294162 21.379236 
L 231.291188 20.579755 
L 235.040316 20.051155 
L 238.801077 19.751971 
L 242.297795 19.695578 
L 245.793052 19.86667 
L 249.012888 20.237674 
L 252.22127 20.822665 
L 255.412962 21.629669 
L 258.582554 22.665384 
L 261.724491 23.935003 
L 264.833112 25.442054 
L 267.902697 27.188254 
L 270.927503 29.173398 
L 273.901818 31.395279 
L 276.820007 33.849643 
L 279.676563 36.530186 
L 282.695435 39.67965 
L 285.629236 43.071638 
L 288.471859 46.690547 
L 291.424681 50.821103 
L 294.25874 55.169343 
L 297.156953 60.039167 
L 299.906222 65.09299 
L 302.669018 70.645677 
L 305.252032 76.321935 
L 307.795889 82.43917 
L 310.261794 88.957695 
L 312.610201 95.823379 
L 314.69895 102.614496 
L 316.621389 109.624533 
L 318.267128 116.441703 
L 319.706763 123.346939 
L 320.862452 129.957954 
L 321.747104 136.250293 
L 322.398127 142.485224 
L 322.782968 148.349321 
L 322.917902 153.845832 
L 322.818897 158.985112 
L 322.501343 163.782909 
L 321.979843 168.258852 
L 321.26808 172.435143 
L 320.378719 176.335493 
L 319.323367 179.984262 
L 318.053984 183.556322 
L 316.625474 186.907273 
L 315.473002 189.257395 
L 315.473002 189.257395 
" clip-path="url(#p6439c2ce00)" style="fill: none; stroke: #0000ff; stroke-width: 1.5; stroke-linecap: square"/>
   </g>
   <g id="line2d_24">
    <path d="M 322.152486 154.194552 
L 322.03933 159.281117 
L 321.709754 164.034728 
L 321.178002 168.474322 
L 320.457426 172.621369 
L 319.560396 176.498841 
L 318.498255 180.130385 
L 317.222462 183.689749 
L 315.788014 187.032741 
L 314.132159 190.31807 
L 312.323036 193.42335 
L 310.284177 196.494631 
L 307.913968 199.655566 
L 305.27965 202.795701 
L 302.265696 206.04098 
L 298.728865 209.510986 
L 294.612018 213.227099 
L 289.725272 217.331313 
L 283.698181 222.09606 
L 275.760846 228.072972 
L 264.543115 236.218804 
L 249.907131 246.568866 
L 237.342419 255.203369 
L 227.544285 261.675107 
L 219.626306 266.650488 
L 212.756319 270.718706 
L 206.608097 274.11416 
L 201.02572 276.956793 
L 195.818349 279.368933 
L 191.023286 281.357751 
L 186.414569 283.034432 
L 182.010166 284.399031 
L 177.826036 285.459675 
L 173.875929 286.232075 
L 170.171281 286.738661 
L 166.455565 287.019644 
L 163.001078 287.063119 
L 159.548333 286.883466 
L 156.103296 286.468285 
L 152.935521 285.866335 
L 149.784793 285.046584 
L 146.656417 284.002724 
L 143.555833 282.729907 
L 140.488578 281.224907 
L 137.460246 279.486247 
L 134.476443 277.514307 
L 131.542746 275.311393 
L 128.664649 272.881783 
L 125.615679 270.001174 
L 122.644856 266.872365 
L 119.758471 263.508385 
L 116.962443 259.924616 
L 114.058673 255.839485 
L 111.27229 251.543978 
L 108.423411 246.73797 
L 105.72146 241.754559 
L 103.00671 236.283008 
L 100.316421 230.340364 
L 97.829736 224.314644 
L 95.420876 217.898327 
L 93.128615 211.144089 
L 91.091747 204.465691 
L 89.219305 197.573269 
L 87.545894 190.541073 
L 86.162628 183.763464 
L 85.058063 177.274267 
L 84.186052 170.810146 
L 83.590661 164.702212 
L 83.256084 158.954956 
L 83.16651 153.564459 
L 83.306453 148.520133 
L 83.661009 143.806336 
L 84.216049 139.403803 
L 84.958347 135.290872 
L 85.875664 131.444483 
L 86.956791 127.840988 
L 88.251186 124.307767 
L 89.703106 120.987785 
L 91.37614 117.723289 
L 93.280759 114.5106 
L 95.427408 111.341804 
L 97.826786 108.204933 
L 100.588469 104.974799 
L 103.743955 101.641845 
L 107.326861 98.186728 
L 111.612725 94.37477 
L 116.690454 90.164397 
L 123.076186 85.169757 
L 131.593318 78.810095 
L 143.539131 70.186129 
L 158.335657 59.775663 
L 170.145651 51.718619 
L 179.430397 45.642474 
L 187.198323 40.816733 
L 193.888145 36.910079 
L 200.074998 33.552188 
L 205.689574 30.757595 
L 210.92412 28.403195 
L 215.741435 26.479228 
L 220.368744 24.875875 
L 224.526954 23.660454 
L 228.720519 22.670692 
L 232.677297 21.972254 
L 236.386076 21.541196 
L 240.103722 21.341844 
L 243.557884 21.379376 
L 247.008136 21.644709 
L 250.18426 22.102188 
L 253.346868 22.772362 
L 256.490766 23.662443 
L 259.610602 24.778293 
L 262.700905 26.124259 
L 265.756114 27.703026 
L 268.770628 29.51549 
L 271.738846 31.56067 
L 274.655215 33.835636 
L 277.514275 36.335488 
L 280.540752 39.289435 
L 283.48722 42.487982 
L 286.347492 45.917393 
L 289.324747 49.850367 
L 292.188652 54.009837 
L 295.124538 58.689391 
L 297.916977 63.567375 
L 300.731359 68.95033 
L 303.371076 74.476792 
L 305.980052 80.457845 
L 308.519486 86.858562 
L 310.828075 93.273436 
L 313.015003 100.002299 
L 315.0427 106.979059 
L 316.79442 113.792807 
L 318.344889 120.722473 
L 319.609861 127.38207 
L 320.60133 133.742499 
L 321.360825 140.06484 
L 321.850015 146.028164 
L 322.08475 151.63155 
L 322.108846 155.012769 
L 322.108846 155.012769 
" clip-path="url(#p6439c2ce00)" style="fill: none; stroke: #ffa500; stroke-width: 3; stroke-linecap: square"/>
   </g>
   <g id="line2d_25">
    <path d="M 275.526754 190.290225 
L 314.872796 235.136647 
" clip-path="url(#p6439c2ce00)" style="fill: none; stroke: #202020; stroke-width: 2; stroke-linecap: square"/>
   </g>
   <g id="line2d_26">
    <defs>
     <path id="m4eaa939479" d="M 0 3 
C 0.795609 3 1.55874 2.683901 2.12132 2.12132 
C 2.683901 1.55874 3 0.795609 3 0 
C 3 -0.795609 2.683901 -1.55874 2.12132 -2.12132 
C 1.55874 -2.683901 0.795609 -3 0 -3 
C -0.795609 -3 -1.55874 -2.683901 -2.12132 -2.12132 
C -2.683901 -1.55874 -3 -0.795609 -3 0 
C -3 0.795609 -2.683901 1.55874 -2.12132 2.12132 
C -1.55874 2.683901 -0.795609 3 0 3 
z
" style="stroke: #202020"/>
    </defs>
    <g clip-path="url(#p6439c2ce00)">
     <use xlink:href="#m4eaa939479" x="295.199775" y="212.713436" style="fill: #202020; stroke: #202020"/>
    </g>
   </g>
   <g id="line2d_27">
    <path d="M 317.115118 233.169345 
L 312.630475 237.103949 
" clip-path="url(#p6439c2ce00)" style="fill: none; stroke: #202020; stroke-linecap: square"/>
   </g>
   <g id="line2d_28">
    <path d="M 310.557444 225.694941 
L 306.072802 229.629546 
" clip-path="url(#p6439c2ce00)" style="fill: none; stroke: #202020; stroke-linecap: square"/>
   </g>
   <g id="line2d_29">
    <path d="M 303.99977 218.220538 
L 299.515128 222.155142 
" clip-path="url(#p6439c2ce00)" style="fill: none; stroke: #202020; stroke-linecap: square"/>
   </g>
   <g id="line2d_30">
    <path d="M 297.442096 210.746134 
L 292.957454 214.680738 
" clip-path="url(#p6439c2ce00)" style="fill: none; stroke: #202020; stroke-linecap: square"/>
   </g>
   <g id="line2d_31">
    <path d="M 290.884422 203.27173 
L 286.39978 207.206334 
" clip-path="url(#p6439c2ce00)" style="fill: none; stroke: #202020; stroke-linecap: square"/>
   </g>
   <g id="line2d_32">
    <path d="M 284.326749 195.797326 
L 279.842106 199.731931 
" clip-path="url(#p6439c2ce00)" style="fill: none; stroke: #202020; stroke-linecap: square"/>
   </g>
   <g id="line2d_33">
    <path d="M 277.769075 188.322923 
L 273.284433 192.257527 
" clip-path="url(#p6439c2ce00)" style="fill: none; stroke: #202020; stroke-linecap: square"/>
   </g>
   <g id="line2d_34">
    <path d="M 174.819073 255.425783 
L 191.80161 312.61762 
" clip-path="url(#p6439c2ce00)" style="fill: none; stroke: #202020; stroke-width: 2; stroke-linecap: square"/>
   </g>
   <g id="line2d_35">
    <g clip-path="url(#p6439c2ce00)">
     <use xlink:href="#m4eaa939479" x="183.310341" y="284.021701" style="fill: #202020; stroke: #202020"/>
    </g>
   </g>
   <g id="line2d_36">
    <path d="M 194.661201 311.768493 
L 188.942018 313.466746 
" clip-path="url(#p6439c2ce00)" style="fill: none; stroke: #202020; stroke-linecap: square"/>
   </g>
   <g id="line2d_37">
    <path d="M 191.830779 302.23652 
L 186.111595 303.934774 
" clip-path="url(#p6439c2ce00)" style="fill: none; stroke: #202020; stroke-linecap: square"/>
   </g>
   <g id="line2d_38">
    <path d="M 189.000356 292.704547 
L 183.281172 294.402801 
" clip-path="url(#p6439c2ce00)" style="fill: none; stroke: #202020; stroke-linecap: square"/>
   </g>
   <g id="line2d_39">
    <path d="M 186.169933 283.172575 
L 180.450749 284.870828 
" clip-path="url(#p6439c2ce00)" style="fill: none; stroke: #202020; stroke-linecap: square"/>
   </g>
   <g id="line2d_40">
    <path d="M 183.33951 273.640602 
L 177.620326 275.338856 
" clip-path="url(#p6439c2ce00)" style="fill: none; stroke: #202020; stroke-linecap: square"/>
   </g>
   <g id="line2d_41">
    <path d="M 180.509087 264.108629 
L 174.789904 265.806883 
" clip-path="url(#p6439c2ce00)" style="fill: none; stroke: #202020; stroke-linecap: square"/>
   </g>
   <g id="line2d_42">
    <path d="M 177.678664 254.576657 
L 171.959481 256.27491 
" clip-path="url(#p6439c2ce00)" style="fill: none; stroke: #202020; stroke-linecap: square"/>
   </g>
   <g id="line2d_43">
    <path d="M 112.998359 153.401255 
L 53.341594 152.78231 
" clip-path="url(#p6439c2ce00)" style="fill: none; stroke: #202020; stroke-width: 2; stroke-linecap: square"/>
   </g>
   <g id="line2d_44">
    <g clip-path="url(#p6439c2ce00)">
     <use xlink:href="#m4eaa939479" x="83.169977" y="153.091783" style="fill: #202020; stroke: #202020"/>
    </g>
   </g>
   <g id="line2d_45">
    <path d="M 53.310647 155.765148 
L 53.372542 149.799472 
" clip-path="url(#p6439c2ce00)" style="fill: none; stroke: #202020; stroke-linecap: square"/>
   </g>
   <g id="line2d_46">
    <path d="M 63.253441 155.868306 
L 63.315336 149.902629 
" clip-path="url(#p6439c2ce00)" style="fill: none; stroke: #202020; stroke-linecap: square"/>
   </g>
   <g id="line2d_47">
    <path d="M 73.196235 155.971463 
L 73.25813 150.005787 
" clip-path="url(#p6439c2ce00)" style="fill: none; stroke: #202020; stroke-linecap: square"/>
   </g>
   <g id="line2d_48">
    <path d="M 83.139029 156.074621 
L 83.200924 150.108944 
" clip-path="url(#p6439c2ce00)" style="fill: none; stroke: #202020; stroke-linecap: square"/>
   </g>
   <g id="line2d_49">
    <path d="M 93.081824 156.177778 
L 93.143718 150.212102 
" clip-path="url(#p6439c2ce00)" style="fill: none; stroke: #202020; stroke-linecap: square"/>
   </g>
   <g id="line2d_50">
    <path d="M 103.024618 156.280936 
L 103.086512 150.31526 
" clip-path="url(#p6439c2ce00)" style="fill: none; stroke: #202020; stroke-linecap: square"/>
   </g>
   <g id="line2d_51">
    <path d="M 112.967412 156.384094 
L 113.029306 150.418417 
" clip-path="url(#p6439c2ce00)" style="fill: none; stroke: #202020; stroke-linecap: square"/>
   </g>
   <g id="patch_3">
    <path d="M 36.629068 328.155639 
L 36.629068 5 
" style="fill: none; stroke: #000000; stroke-width: 0.8; stroke-linejoin: miter; stroke-linecap: square"/>
   </g>
   <g id="patch_4">
    <path d="M 403.623798 328.155639 
L 403.623798 5 
" style="fill: none; stroke: #000000; stroke-width: 0.8; stroke-linejoin: miter; stroke-linecap: square"/>
   </g>
   <g id="patch_5">
    <path d="M 36.629068 328.155639 
L 403.623798 328.155639 
" style="fill: none; stroke: #000000; stroke-width: 0.8; stroke-linejoin: miter; stroke-linecap: square"/>
   </g>
   <g id="patch_6">
    <path d="M 36.629068 5 
L 403.623798 5 
" style="fill: none; stroke: #000000; stroke-width: 0.8; stroke-linejoin: miter; stroke-linecap: square"/>
   </g>
   <g id="text_12">
    <g id="patch_7">
     <path d="M 301.165773 198.069015 
L 354.991529 198.069015 
Q 360.391529 198.069015 360.391529 192.669015 
L 360.391529 176.072469 
Q 360.391529 170.672469 354.991529 170.672469 
L 301.165773 170.672469 
Q 295.765773 170.672469 295.765773 176.072469 
L 295.765773 192.669015 
Q 295.765773 198.069015 301.165773 198.069015 
L 301.165773 198.069015 
z
" style="fill: none; opacity: 0"/>
    </g>
    <!-- $\tau = 1.2$ -->
    <g transform="translate(301.165773 188.849446) scale(0.18 -0.18)">
     <defs>
      <path id="CMMI12-1c" d="M 1837 2406 
L 2899 2406 
C 2982 2406 3194 2406 3194 2611 
C 3194 2752 3072 2752 2957 2752 
L 1197 2752 
C 1050 2752 832 2752 538 2438 
C 371 2253 166 1916 166 1878 
C 166 1839 198 1827 237 1827 
C 282 1827 288 1846 320 1884 
C 653 2406 986 2406 1146 2406 
L 1677 2406 
L 1011 223 
C 979 127 979 114 979 95 
C 979 25 1024 -64 1152 -64 
C 1350 -64 1382 108 1402 204 
L 1837 2406 
z
" transform="scale(0.015625)"/>
      <path id="CMR17-3d" d="M 4115 2048 
C 4211 2048 4307 2048 4307 2156 
C 4307 2272 4198 2272 4090 2272 
L 512 2272 
C 403 2272 294 2272 294 2156 
C 294 2048 390 2048 486 2048 
L 4115 2048 
z
M 4090 927 
C 4198 927 4307 927 4307 1043 
C 4307 1152 4211 1152 4115 1152 
L 486 1152 
C 390 1152 294 1152 294 1043 
C 294 927 403 927 512 927 
L 4090 927 
z
" transform="scale(0.015625)"/>
      <path id="CMMI12-3a" d="M 1178 307 
C 1178 492 1024 620 870 620 
C 685 620 557 467 557 313 
C 557 128 710 0 864 0 
C 1050 0 1178 153 1178 307 
z
" transform="scale(0.015625)"/>
     </defs>
     <use xlink:href="#CMMI12-1c" transform="scale(0.996264)"/>
     <use xlink:href="#CMR17-3d" transform="translate(81.165174 0) scale(0.996264)"/>
     <use xlink:href="#CMR17-31" transform="translate(180.553971 0) scale(0.996264)"/>
     <use xlink:href="#CMMI12-3a" transform="translate(226.244448 0) scale(0.996264)"/>
     <use xlink:href="#CMR17-32" transform="translate(253.341625 0) scale(0.996264)"/>
    </g>
   </g>
   <g id="text_13">
    <g id="patch_8">
     <path d="M 189.276339 269.377281 
L 243.102095 269.377281 
Q 248.502095 269.377281 248.502095 263.977281 
L 248.502095 247.380735 
Q 248.502095 241.980735 243.102095 241.980735 
L 189.276339 241.980735 
Q 183.876339 241.980735 183.876339 247.380735 
L 183.876339 263.977281 
Q 183.876339 269.377281 189.276339 269.377281 
L 189.276339 269.377281 
z
" style="fill: none; opacity: 0"/>
    </g>
    <!-- $\tau = 2.7$ -->
    <g transform="translate(189.276339 260.157711) scale(0.18 -0.18)">
     <defs>
      <path id="CMR17-37" d="M 2886 3955 
L 2886 4096 
L 1382 4096 
C 634 4096 621 4166 595 4288 
L 480 4288 
L 294 3104 
L 410 3104 
C 429 3226 474 3552 550 3673 
C 589 3724 1062 3724 1171 3724 
L 2579 3724 
L 1869 2670 
C 1395 1961 1069 1003 1069 166 
C 1069 89 1069 -128 1299 -128 
C 1530 -128 1530 89 1530 172 
L 1530 466 
C 1530 1514 1709 2204 2003 2644 
L 2886 3955 
z
" transform="scale(0.015625)"/>
     </defs>
     <use xlink:href="#CMMI12-1c" transform="scale(0.996264)"/>
     <use xlink:href="#CMR17-3d" transform="translate(81.165174 0) scale(0.996264)"/>
     <use xlink:href="#CMR17-32" transform="translate(180.553971 0) scale(0.996264)"/>
     <use xlink:href="#CMMI12-3a" transform="translate(226.244448 0) scale(0.996264)"/>
     <use xlink:href="#CMR17-37" transform="translate(253.341625 0) scale(0.996264)"/>
    </g>
   </g>
   <g id="text_14">
    <g id="patch_9">
     <path d="M 89.135974 138.447362 
L 142.961731 138.447362 
Q 148.361731 138.447362 148.361731 133.047362 
L 148.361731 116.450816 
Q 148.361731 111.050816 142.961731 111.050816 
L 89.135974 111.050816 
Q 83.735974 111.050816 83.735974 116.450816 
L 83.735974 133.047362 
Q 83.735974 138.447362 89.135974 138.447362 
L 89.135974 138.447362 
z
" style="fill: none; opacity: 0"/>
    </g>
    <!-- $\tau = 3.1$ -->
    <g transform="translate(89.135974 129.227792) scale(0.18 -0.18)">
     <use xlink:href="#CMMI12-1c" transform="scale(0.996264)"/>
     <use xlink:href="#CMR17-3d" transform="translate(81.165174 0) scale(0.996264)"/>
     <use xlink:href="#CMR17-33" transform="translate(180.553971 0) scale(0.996264)"/>
     <use xlink:href="#CMMI12-3a" transform="translate(226.244448 0) scale(0.996264)"/>
     <use xlink:href="#CMR17-31" transform="translate(253.341625 0) scale(0.996264)"/>
    </g>
   </g>
   <g id="text_15">
    <g id="patch_10">
     <path d="M 201.776697 365.276451 
L 221.483482 365.276451 
Q 228.083482 365.276451 228.083482 358.676451 
L 228.083482 338.391786 
Q 228.083482 331.791786 221.483482 331.791786 
L 201.776697 331.791786 
Q 195.176697 331.791786 195.176697 338.391786 
L 195.176697 358.676451 
Q 195.176697 365.276451 201.776697 365.276451 
z
" style="fill: #ffffff"/>
    </g>
    <!-- $x_1$ -->
    <g transform="translate(201.776697 354.00809) scale(0.22 -0.22)">
     <defs>
      <path id="CMMI12-78" d="M 3034 2624 
C 2829 2585 2752 2431 2752 2310 
C 2752 2156 2874 2105 2963 2105 
C 3155 2105 3290 2271 3290 2444 
C 3290 2694 2982 2816 2714 2816 
C 2323 2816 2106 2451 2048 2329 
C 1901 2790 1504 2816 1389 2816 
C 736 2816 390 1993 390 1849 
C 390 1823 416 1790 461 1790 
C 512 1790 525 1829 538 1855 
C 755 2572 1184 2687 1370 2687 
C 1658 2687 1715 2438 1715 2284 
C 1715 2143 1677 1993 1600 1678 
L 1382 778 
C 1286 390 1101 64 762 64 
C 730 64 570 64 435 126 
C 666 166 717 358 717 435 
C 717 563 621 640 499 640 
C 346 640 179 505 179 300 
C 179 57 480 -64 755 -64 
C 1062 -64 1280 153 1414 415 
C 1517 64 1837 -64 2074 -64 
C 2726 -64 3072 751 3072 896 
C 3072 929 3046 955 3008 955 
C 2950 955 2944 922 2925 870 
C 2752 300 2381 64 2093 64 
C 1869 64 1747 204 1747 467 
C 1747 607 1773 712 1875 1146 
L 2099 2039 
C 2195 2425 2413 2687 2707 2687 
C 2720 2687 2899 2687 3034 2624 
z
" transform="scale(0.015625)"/>
     </defs>
     <use xlink:href="#CMMI12-78" transform="scale(0.996264)"/>
     <use xlink:href="#CMR17-31" transform="translate(55.43406 -14.943915) scale(0.697382)"/>
    </g>
   </g>
   <g id="text_16">
    <g id="patch_11">
     <path d="M -0.070404 151.993729 
L 19.636381 151.993729 
Q 26.236381 151.993729 26.236381 145.393729 
L 26.236381 125.109064 
Q 26.236381 118.509064 19.636381 118.509064 
L -0.070404 118.509064 
Q -6.670404 118.509064 -6.670404 125.109064 
L -6.670404 145.393729 
Q -6.670404 151.993729 -0.070404 151.993729 
z
" style="fill: #ffffff"/>
    </g>
    <!-- $x_2$ -->
    <g transform="translate(-0.070404 140.725368) scale(0.22 -0.22)">
     <use xlink:href="#CMMI12-78" transform="scale(0.996264)"/>
     <use xlink:href="#CMR17-32" transform="translate(55.43406 -14.943915) scale(0.697382)"/>
    </g>
   </g>
   <g id="legend_1">
    <g id="patch_12">
     <path d="M 297.760128 319.155639 
L 391.023798 319.155639 
Q 394.623798 319.155639 394.623798 315.555639 
L 394.623798 263.552432 
Q 394.623798 259.952432 391.023798 259.952432 
L 297.760128 259.952432 
Q 294.160128 259.952432 294.160128 263.552432 
L 294.160128 315.555639 
Q 294.160128 319.155639 297.760128 319.155639 
z
" style="fill: #ffffff; opacity: 0.8; stroke: #cccccc; stroke-linejoin: miter"/>
    </g>
    <g id="line2d_52">
     <path d="M 301.360128 274.285851 
L 319.360128 274.285851 
L 337.360128 274.285851 
" style="fill: none; stroke: #0000ff; stroke-width: 1.5; stroke-linecap: square"/>
    </g>
    <g id="text_17">
     <!-- $x_s(t)$ -->
     <g transform="translate(351.760128 280.585851) scale(0.18 -0.18)">
      <defs>
       <path id="CMMI12-73" d="M 1459 1290 
C 1568 1271 1741 1233 1779 1227 
C 1862 1201 2150 1099 2150 793 
C 2150 595 1971 64 1229 64 
C 1094 64 614 83 486 447 
C 742 414 870 614 870 755 
C 870 889 781 960 653 960 
C 512 960 326 851 326 563 
C 326 176 710 -64 1222 -64 
C 2195 -64 2483 665 2483 998 
C 2483 1093 2483 1271 2278 1475 
C 2118 1627 1965 1659 1619 1729 
C 1446 1767 1171 1824 1171 2111 
C 1171 2239 1286 2687 1894 2687 
C 2163 2687 2426 2589 2490 2368 
C 2208 2368 2195 2124 2195 2118 
C 2195 1983 2317 1945 2374 1945 
C 2464 1945 2643 2015 2643 2284 
C 2643 2546 2400 2816 1901 2816 
C 1062 2816 838 2169 838 1907 
C 838 1424 1312 1322 1459 1290 
z
" transform="scale(0.015625)"/>
       <path id="CMR17-28" d="M 1958 -1562 
C 1958 -1556 1958 -1543 1939 -1524 
C 1645 -1223 858 -403 858 1596 
C 858 3595 1632 4408 1946 4729 
C 1946 4735 1958 4748 1958 4767 
C 1958 4787 1939 4800 1914 4800 
C 1843 4800 1299 4325 986 3620 
C 666 2909 576 2218 576 1603 
C 576 1141 621 360 1005 -467 
C 1312 -1133 1837 -1600 1914 -1600 
C 1946 -1600 1958 -1588 1958 -1562 
z
" transform="scale(0.015625)"/>
       <path id="CMMI12-74" d="M 1286 2566 
L 1875 2566 
C 1997 2566 2061 2566 2061 2681 
C 2061 2752 2022 2752 1894 2752 
L 1331 2752 
L 1568 3664 
C 1594 3752 1594 3764 1594 3808 
C 1594 3910 1510 3968 1427 3968 
C 1376 3968 1229 3948 1178 3746 
L 928 2752 
L 326 2752 
C 198 2752 141 2752 141 2630 
C 141 2566 186 2566 307 2566 
L 877 2566 
L 454 881 
C 403 657 384 593 384 510 
C 384 210 595 -64 954 -64 
C 1600 -64 1946 868 1946 913 
C 1946 951 1920 970 1882 970 
C 1869 970 1843 970 1830 944 
C 1824 938 1818 932 1773 830 
C 1638 510 1344 64 973 64 
C 781 64 768 223 768 364 
C 768 370 768 491 787 568 
L 1286 2566 
z
" transform="scale(0.015625)"/>
       <path id="CMR17-29" d="M 1683 1596 
C 1683 2057 1638 2839 1254 3665 
C 947 4332 422 4800 346 4800 
C 326 4800 301 4793 301 4761 
C 301 4748 307 4742 314 4729 
C 621 4408 1402 3595 1402 1603 
C 1402 -396 627 -1210 314 -1530 
C 307 -1543 301 -1549 301 -1562 
C 301 -1594 326 -1600 346 -1600 
C 416 -1600 960 -1127 1274 -422 
C 1594 289 1683 981 1683 1596 
z
" transform="scale(0.015625)"/>
      </defs>
      <use xlink:href="#CMMI12-78" transform="scale(0.996264)"/>
      <use xlink:href="#CMMI12-73" transform="translate(55.43406 -14.943915) scale(0.697382)"/>
      <use xlink:href="#CMR17-28" transform="translate(88.09708 0) scale(0.996264)"/>
      <use xlink:href="#CMMI12-74" transform="translate(123.377848 0) scale(0.996264)"/>
      <use xlink:href="#CMR17-29" transform="translate(158.604178 0) scale(0.996264)"/>
     </g>
    </g>
    <g id="line2d_53">
     <path d="M 301.360128 301.187455 
L 319.360128 301.187455 
L 337.360128 301.187455 
" style="fill: none; stroke: #ffa500; stroke-width: 3; stroke-linecap: square"/>
    </g>
    <g id="text_18">
     <!-- $x_\star(t)$ -->
     <g transform="translate(351.760128 307.487455) scale(0.18 -0.18)">
      <defs>
       <path id="CMMI12-3f" d="M 1562 1099 
L 2432 153 
C 2451 134 2470 121 2496 121 
C 2554 121 2554 172 2554 179 
C 2554 198 2534 236 2522 256 
L 1894 1340 
L 3040 1853 
C 3117 1885 3130 1891 3130 1929 
C 3130 1961 3104 1986 3066 1986 
L 1773 1726 
L 1632 2950 
C 1619 3040 1619 3072 1568 3072 
C 1510 3072 1510 3040 1498 2944 
L 1357 1726 
L 64 1986 
C 26 1986 0 1961 0 1929 
C 0 1891 32 1879 83 1853 
L 1235 1340 
L 621 268 
C 576 191 576 185 576 179 
C 576 172 576 121 634 121 
C 646 121 672 121 730 185 
L 1562 1099 
z
" transform="scale(0.015625)"/>
      </defs>
      <use xlink:href="#CMMI12-78" transform="scale(0.996264)"/>
      <use xlink:href="#CMMI12-3f" transform="translate(55.43406 -14.943915) scale(0.697382)"/>
      <use xlink:href="#CMR17-28" transform="translate(90.074483 0) scale(0.996264)"/>
      <use xlink:href="#CMMI12-74" transform="translate(125.35525 0) scale(0.996264)"/>
      <use xlink:href="#CMR17-29" transform="translate(160.581581 0) scale(0.996264)"/>
     </g>
    </g>
   </g>
  </g>
 </g>
 <defs>
  <clipPath id="p6439c2ce00">
   <rect x="36.629068" y="5" width="366.994729" height="323.155639"/>
  </clipPath>
 </defs>
</svg>
