<?xml version="1.0" encoding="utf-8" standalone="no"?>
<!DOCTYPE svg PUBLIC "-//W3C//DTD SVG 1.1//EN"
  "http://www.w3.org/Graphics/SVG/1.1/DTD/svg11.dtd">
<svg xmlns:xlink="http://www.w3.org/1999/xlink" width="360pt" height="288pt" viewBox="0 0 360 288" xmlns="http://www.w3.org/2000/svg" version="1.1">
 <metadata>
  <rdf:RDF xmlns:dc="http://purl.org/dc/elements/1.1/" xmlns:cc="http://creativecommons.org/ns#" xmlns:rdf="http://www.w3.org/1999/02/22-rdf-syntax-ns#">
   <cc:Work>
    <dc:type rdf:resource="http://purl.org/dc/dcmitype/StillImage"/>
    <dc:date>2026-06-04T00:40:27.143613</dc:date>
    <dc:format>image/svg+xml</dc:format>
    <dc:creator>
     <cc:Agent>
      <dc:title>Matplotlib v3.10.8, https://matplotlib.org/</dc:title>
     </cc:Agent>
    </dc:creator>
   </cc:Work>
  </rdf:RDF>
 </metadata>
 <defs>
  <style type="text/css">*{stroke-linejoin: round; stroke-linecap: butt}</style>
 </defs>
 <g id="figure_1">
  <g id="patch_1">
   <path d="M 0 288 
L 360 288 
L 360 0 
L 0 0 
z
" style="fill: #ffffff"/>
  </g>
  <g id="axes_1">
   <g id="patch_2">
    <path d="M 24.730079 256.155639 
L 355 256.155639 
L 355 5 
L 24.730079 5 
z
" style="fill: #ffffff"/>
   </g>
   <g id="matplotlib.axis_1">
    <g id="xtick_1">
     <g id="line2d_1">
      <path d="M 52.637883 256.155639 
L 52.637883 5 
" clip-path="url(#p831ab5105e)" style="fill: none; stroke: #b0b0b0; stroke-width: 0.8; stroke-linecap: square"/>
     </g>
     <g id="line2d_2">
      <defs>
       <path id="mba86a88cca" d="M 0 0 
L 0 3.5 
" style="stroke: #000000; stroke-width: 0.8"/>
      </defs>
      <g>
       <use xlink:href="#mba86a88cca" x="52.637883" y="256.155639" style="stroke: #000000; stroke-width: 0.8"/>
      </g>
     </g>
     <g id="text_1">
      <!-- $\mathdefault{0.000}$ -->
      <g transform="translate(41.291508 270.253959) scale(0.1 -0.1)">
       <defs>
        <path id="CMR17-30" d="M 2688 2038 
C 2688 2430 2682 3099 2413 3613 
C 2176 4063 1798 4224 1466 4224 
C 1158 4224 768 4082 525 3620 
C 269 3137 243 2539 243 2038 
C 243 1671 250 1112 448 623 
C 723 -39 1216 -128 1466 -128 
C 1760 -128 2208 -7 2470 604 
C 2662 1048 2688 1568 2688 2038 
z
M 1466 -26 
C 1056 -26 813 328 723 816 
C 653 1196 653 1749 653 2109 
C 653 2604 653 3015 736 3407 
C 858 3954 1216 4121 1466 4121 
C 1728 4121 2067 3947 2189 3420 
C 2272 3054 2278 2623 2278 2109 
C 2278 1691 2278 1176 2202 797 
C 2067 96 1690 -26 1466 -26 
z
" transform="scale(0.015625)"/>
        <path id="CMMI12-3a" d="M 1178 307 
C 1178 492 1024 620 870 620 
C 685 620 557 467 557 313 
C 557 128 710 0 864 0 
C 1050 0 1178 153 1178 307 
z
" transform="scale(0.015625)"/>
       </defs>
       <use xlink:href="#CMR17-30" transform="scale(0.996264)"/>
       <use xlink:href="#CMMI12-3a" transform="translate(45.690477 0) scale(0.996264)"/>
       <use xlink:href="#CMR17-30" transform="translate(72.787654 0) scale(0.996264)"/>
       <use xlink:href="#CMR17-30" transform="translate(118.478131 0) scale(0.996264)"/>
       <use xlink:href="#CMR17-30" transform="translate(164.168608 0) scale(0.996264)"/>
      </g>
     </g>
    </g>
    <g id="xtick_2">
     <g id="line2d_3">
      <path d="M 120.403071 256.155639 
L 120.403071 5 
" clip-path="url(#p831ab5105e)" style="fill: none; stroke: #b0b0b0; stroke-width: 0.8; stroke-linecap: square"/>
     </g>
     <g id="line2d_4">
      <g>
       <use xlink:href="#mba86a88cca" x="120.403071" y="256.155639" style="stroke: #000000; stroke-width: 0.8"/>
      </g>
     </g>
     <g id="text_2">
      <!-- $\mathdefault{1.597}$ -->
      <g transform="translate(109.056696 270.253959) scale(0.1 -0.1)">
       <defs>
        <path id="CMR17-31" d="M 1702 4083 
C 1702 4217 1696 4224 1606 4224 
C 1357 3927 979 3833 621 3820 
C 602 3820 570 3820 563 3808 
C 557 3795 557 3782 557 3648 
C 755 3648 1088 3686 1344 3839 
L 1344 467 
C 1344 243 1331 166 781 166 
L 589 166 
L 589 0 
C 896 6 1216 12 1523 12 
C 1830 12 2150 6 2458 0 
L 2458 166 
L 2266 166 
C 1715 166 1702 236 1702 467 
L 1702 4083 
z
" transform="scale(0.015625)"/>
        <path id="CMR17-35" d="M 730 3750 
C 794 3724 1056 3641 1325 3641 
C 1920 3641 2246 3961 2432 4140 
C 2432 4191 2432 4224 2394 4224 
C 2387 4224 2374 4224 2323 4198 
C 2099 4102 1837 4032 1517 4032 
C 1325 4032 1037 4055 723 4191 
C 653 4224 640 4224 634 4224 
C 602 4224 595 4217 595 4090 
L 595 2231 
C 595 2113 595 2080 659 2080 
C 691 2080 704 2093 736 2139 
C 941 2435 1222 2560 1542 2560 
C 1766 2560 2246 2415 2246 1293 
C 2246 1087 2246 716 2054 422 
C 1894 159 1645 25 1370 25 
C 947 25 518 319 403 812 
C 429 806 480 793 506 793 
C 589 793 749 838 749 1036 
C 749 1209 627 1280 506 1280 
C 358 1280 262 1190 262 1011 
C 262 454 704 -128 1382 -128 
C 2042 -128 2669 441 2669 1267 
C 2669 2054 2170 2662 1549 2662 
C 1222 2662 947 2540 730 2304 
L 730 3750 
z
" transform="scale(0.015625)"/>
        <path id="CMR17-39" d="M 2253 1871 
C 2253 448 1670 25 1190 25 
C 1043 25 685 43 538 281 
C 704 256 826 345 826 505 
C 826 678 685 736 595 736 
C 538 736 365 710 365 492 
C 365 68 742 -128 1203 -128 
C 1939 -128 2688 665 2688 2090 
C 2688 3857 1971 4224 1485 4224 
C 851 4224 243 3664 243 2800 
C 243 2000 762 1408 1414 1408 
C 1952 1408 2189 1910 2253 2122 
L 2253 1871 
z
M 1427 1510 
C 1254 1510 1011 1542 813 1929 
C 678 2181 678 2477 678 2793 
C 678 3174 678 3438 858 3722 
C 947 3857 1114 4076 1485 4076 
C 2240 4076 2240 2909 2240 2651 
C 2240 2193 2035 1510 1427 1510 
z
" transform="scale(0.015625)"/>
        <path id="CMR17-37" d="M 2886 3955 
L 2886 4096 
L 1382 4096 
C 634 4096 621 4166 595 4288 
L 480 4288 
L 294 3104 
L 410 3104 
C 429 3226 474 3552 550 3673 
C 589 3724 1062 3724 1171 3724 
L 2579 3724 
L 1869 2670 
C 1395 1961 1069 1003 1069 166 
C 1069 89 1069 -128 1299 -128 
C 1530 -128 1530 89 1530 172 
L 1530 466 
C 1530 1514 1709 2204 2003 2644 
L 2886 3955 
z
" transform="scale(0.015625)"/>
       </defs>
       <use xlink:href="#CMR17-31" transform="scale(0.996264)"/>
       <use xlink:href="#CMMI12-3a" transform="translate(45.690477 0) scale(0.996264)"/>
       <use xlink:href="#CMR17-35" transform="translate(72.787654 0) scale(0.996264)"/>
       <use xlink:href="#CMR17-39" transform="translate(118.478131 0) scale(0.996264)"/>
       <use xlink:href="#CMR17-37" transform="translate(164.168608 0) scale(0.996264)"/>
      </g>
     </g>
    </g>
    <g id="xtick_3">
     <g id="line2d_5">
      <path d="M 188.168259 256.155639 
L 188.168259 5 
" clip-path="url(#p831ab5105e)" style="fill: none; stroke: #b0b0b0; stroke-width: 0.8; stroke-linecap: square"/>
     </g>
     <g id="line2d_6">
      <g>
       <use xlink:href="#mba86a88cca" x="188.168259" y="256.155639" style="stroke: #000000; stroke-width: 0.8"/>
      </g>
     </g>
     <g id="text_3">
      <!-- $\mathdefault{3.195}$ -->
      <g transform="translate(176.821884 270.253959) scale(0.1 -0.1)">
       <defs>
        <path id="CMR17-33" d="M 1414 2176 
C 1984 2176 2234 1673 2234 1094 
C 2234 322 1824 25 1453 25 
C 1114 25 563 193 390 691 
C 422 678 454 678 486 678 
C 640 678 755 780 755 947 
C 755 1132 614 1216 486 1216 
C 378 1216 211 1164 211 927 
C 211 335 787 -128 1466 -128 
C 2176 -128 2720 432 2720 1087 
C 2720 1718 2208 2176 1600 2246 
C 2086 2347 2554 2776 2554 3353 
C 2554 3856 2048 4224 1472 4224 
C 890 4224 378 3862 378 3347 
C 378 3123 544 3084 627 3084 
C 762 3084 877 3167 877 3334 
C 877 3500 762 3584 627 3584 
C 602 3584 570 3584 544 3571 
C 730 3999 1235 4076 1459 4076 
C 1683 4076 2106 3966 2106 3347 
C 2106 3167 2080 2851 1862 2574 
C 1670 2329 1453 2316 1242 2297 
C 1210 2297 1062 2284 1037 2284 
C 992 2278 966 2272 966 2227 
C 966 2182 973 2176 1101 2176 
L 1414 2176 
z
" transform="scale(0.015625)"/>
       </defs>
       <use xlink:href="#CMR17-33" transform="scale(0.996264)"/>
       <use xlink:href="#CMMI12-3a" transform="translate(45.690477 0) scale(0.996264)"/>
       <use xlink:href="#CMR17-31" transform="translate(72.787654 0) scale(0.996264)"/>
       <use xlink:href="#CMR17-39" transform="translate(118.478131 0) scale(0.996264)"/>
       <use xlink:href="#CMR17-35" transform="translate(164.168608 0) scale(0.996264)"/>
      </g>
     </g>
    </g>
    <g id="xtick_4">
     <g id="line2d_7">
      <path d="M 255.933446 256.155639 
L 255.933446 5 
" clip-path="url(#p831ab5105e)" style="fill: none; stroke: #b0b0b0; stroke-width: 0.8; stroke-linecap: square"/>
     </g>
     <g id="line2d_8">
      <g>
       <use xlink:href="#mba86a88cca" x="255.933446" y="256.155639" style="stroke: #000000; stroke-width: 0.8"/>
      </g>
     </g>
     <g id="text_4">
      <!-- $\mathdefault{4.792}$ -->
      <g transform="translate(244.587072 270.253959) scale(0.1 -0.1)">
       <defs>
        <path id="CMR17-34" d="M 2150 4147 
C 2150 4281 2144 4288 2029 4288 
L 128 1254 
L 128 1088 
L 1779 1088 
L 1779 460 
C 1779 230 1766 166 1318 166 
L 1197 166 
L 1197 0 
C 1402 12 1747 12 1965 12 
C 2182 12 2528 12 2733 0 
L 2733 166 
L 2611 166 
C 2163 166 2150 230 2150 460 
L 2150 1088 
L 2803 1088 
L 2803 1254 
L 2150 1254 
L 2150 4147 
z
M 1798 3723 
L 1798 1254 
L 256 1254 
L 1798 3723 
z
" transform="scale(0.015625)"/>
        <path id="CMR17-32" d="M 2669 990 
L 2554 990 
C 2490 537 2438 460 2413 422 
C 2381 371 1920 371 1830 371 
L 602 371 
C 832 620 1280 1073 1824 1596 
C 2214 1966 2669 2400 2669 3033 
C 2669 3788 2067 4224 1395 4224 
C 691 4224 262 3603 262 3027 
C 262 2777 448 2745 525 2745 
C 589 2745 781 2783 781 3007 
C 781 3206 614 3264 525 3264 
C 486 3264 448 3257 422 3244 
C 544 3788 915 4057 1306 4057 
C 1862 4057 2227 3616 2227 3033 
C 2227 2477 1901 1998 1536 1583 
L 262 147 
L 262 0 
L 2515 0 
L 2669 990 
z
" transform="scale(0.015625)"/>
       </defs>
       <use xlink:href="#CMR17-34" transform="scale(0.996264)"/>
       <use xlink:href="#CMMI12-3a" transform="translate(45.690477 0) scale(0.996264)"/>
       <use xlink:href="#CMR17-37" transform="translate(72.787654 0) scale(0.996264)"/>
       <use xlink:href="#CMR17-39" transform="translate(118.478131 0) scale(0.996264)"/>
       <use xlink:href="#CMR17-32" transform="translate(164.168608 0) scale(0.996264)"/>
      </g>
     </g>
    </g>
    <g id="xtick_5">
     <g id="line2d_9">
      <path d="M 323.698634 256.155639 
L 323.698634 5 
" clip-path="url(#p831ab5105e)" style="fill: none; stroke: #b0b0b0; stroke-width: 0.8; stroke-linecap: square"/>
     </g>
     <g id="line2d_10">
      <g>
       <use xlink:href="#mba86a88cca" x="323.698634" y="256.155639" style="stroke: #000000; stroke-width: 0.8"/>
      </g>
     </g>
     <g id="text_5">
      <!-- $\mathdefault{6.390}$ -->
      <g transform="translate(312.352259 270.253959) scale(0.1 -0.1)">
       <defs>
        <path id="CMR17-36" d="M 678 2198 
C 678 3712 1395 4076 1811 4076 
C 1946 4076 2272 4049 2400 3782 
C 2298 3782 2106 3782 2106 3558 
C 2106 3385 2246 3328 2336 3328 
C 2394 3328 2566 3353 2566 3571 
C 2566 3987 2246 4224 1805 4224 
C 1043 4224 243 3411 243 2011 
C 243 257 966 -128 1478 -128 
C 2099 -128 2688 431 2688 1295 
C 2688 2101 2170 2688 1517 2688 
C 1126 2688 838 2430 678 1979 
L 678 2198 
z
M 1478 25 
C 691 25 691 1212 691 1450 
C 691 1914 909 2585 1504 2585 
C 1613 2585 1926 2585 2138 2140 
C 2253 1889 2253 1624 2253 1302 
C 2253 954 2253 696 2118 438 
C 1978 173 1773 25 1478 25 
z
" transform="scale(0.015625)"/>
       </defs>
       <use xlink:href="#CMR17-36" transform="scale(0.996264)"/>
       <use xlink:href="#CMMI12-3a" transform="translate(45.690477 0) scale(0.996264)"/>
       <use xlink:href="#CMR17-33" transform="translate(72.787654 0) scale(0.996264)"/>
       <use xlink:href="#CMR17-39" transform="translate(118.478131 0) scale(0.996264)"/>
       <use xlink:href="#CMR17-30" transform="translate(164.168608 0) scale(0.996264)"/>
      </g>
     </g>
    </g>
   </g>
   <g id="matplotlib.axis_2">
    <g id="ytick_1">
     <g id="line2d_11">
      <path d="M 24.730079 247.105926 
L 355 247.105926 
" clip-path="url(#p831ab5105e)" style="fill: none; stroke: #b0b0b0; stroke-width: 0.8; stroke-linecap: square"/>
     </g>
     <g id="line2d_12">
      <defs>
       <path id="m6ab4b226be" d="M 0 0 
L -3.5 0 
" style="stroke: #000000; stroke-width: 0.8"/>
      </defs>
      <g>
       <use xlink:href="#m6ab4b226be" x="24.730079" y="247.105926" style="stroke: #000000; stroke-width: 0.8"/>
      </g>
     </g>
     <g id="text_6">
      <!-- $\mathdefault{0.0}$ -->
      <g transform="translate(5 250.655086) scale(0.1 -0.1)">
       <use xlink:href="#CMR17-30" transform="scale(0.996264)"/>
       <use xlink:href="#CMMI12-3a" transform="translate(45.690477 0) scale(0.996264)"/>
       <use xlink:href="#CMR17-30" transform="translate(72.787654 0) scale(0.996264)"/>
      </g>
     </g>
    </g>
    <g id="ytick_2">
     <g id="line2d_13">
      <path d="M 24.730079 206.360103 
L 355 206.360103 
" clip-path="url(#p831ab5105e)" style="fill: none; stroke: #b0b0b0; stroke-width: 0.8; stroke-linecap: square"/>
     </g>
     <g id="line2d_14">
      <g>
       <use xlink:href="#m6ab4b226be" x="24.730079" y="206.360103" style="stroke: #000000; stroke-width: 0.8"/>
      </g>
     </g>
     <g id="text_7">
      <!-- $\mathdefault{0.2}$ -->
      <g transform="translate(5 209.909263) scale(0.1 -0.1)">
       <use xlink:href="#CMR17-30" transform="scale(0.996264)"/>
       <use xlink:href="#CMMI12-3a" transform="translate(45.690477 0) scale(0.996264)"/>
       <use xlink:href="#CMR17-32" transform="translate(72.787654 0) scale(0.996264)"/>
      </g>
     </g>
    </g>
    <g id="ytick_3">
     <g id="line2d_15">
      <path d="M 24.730079 165.61428 
L 355 165.61428 
" clip-path="url(#p831ab5105e)" style="fill: none; stroke: #b0b0b0; stroke-width: 0.8; stroke-linecap: square"/>
     </g>
     <g id="line2d_16">
      <g>
       <use xlink:href="#m6ab4b226be" x="24.730079" y="165.61428" style="stroke: #000000; stroke-width: 0.8"/>
      </g>
     </g>
     <g id="text_8">
      <!-- $\mathdefault{0.4}$ -->
      <g transform="translate(5 169.16344) scale(0.1 -0.1)">
       <use xlink:href="#CMR17-30" transform="scale(0.996264)"/>
       <use xlink:href="#CMMI12-3a" transform="translate(45.690477 0) scale(0.996264)"/>
       <use xlink:href="#CMR17-34" transform="translate(72.787654 0) scale(0.996264)"/>
      </g>
     </g>
    </g>
    <g id="ytick_4">
     <g id="line2d_17">
      <path d="M 24.730079 124.868456 
L 355 124.868456 
" clip-path="url(#p831ab5105e)" style="fill: none; stroke: #b0b0b0; stroke-width: 0.8; stroke-linecap: square"/>
     </g>
     <g id="line2d_18">
      <g>
       <use xlink:href="#m6ab4b226be" x="24.730079" y="124.868456" style="stroke: #000000; stroke-width: 0.8"/>
      </g>
     </g>
     <g id="text_9">
      <!-- $\mathdefault{0.6}$ -->
      <g transform="translate(5 128.417617) scale(0.1 -0.1)">
       <use xlink:href="#CMR17-30" transform="scale(0.996264)"/>
       <use xlink:href="#CMMI12-3a" transform="translate(45.690477 0) scale(0.996264)"/>
       <use xlink:href="#CMR17-36" transform="translate(72.787654 0) scale(0.996264)"/>
      </g>
     </g>
    </g>
    <g id="ytick_5">
     <g id="line2d_19">
      <path d="M 24.730079 84.122633 
L 355 84.122633 
" clip-path="url(#p831ab5105e)" style="fill: none; stroke: #b0b0b0; stroke-width: 0.8; stroke-linecap: square"/>
     </g>
     <g id="line2d_20">
      <g>
       <use xlink:href="#m6ab4b226be" x="24.730079" y="84.122633" style="stroke: #000000; stroke-width: 0.8"/>
      </g>
     </g>
     <g id="text_10">
      <!-- $\mathdefault{0.8}$ -->
      <g transform="translate(5 87.671793) scale(0.1 -0.1)">
       <defs>
        <path id="CMR17-38" d="M 1741 2289 
C 2144 2494 2554 2803 2554 3298 
C 2554 3884 1990 4224 1472 4224 
C 890 4224 378 3800 378 3215 
C 378 3054 416 2777 666 2533 
C 730 2469 998 2276 1171 2154 
C 883 2006 211 1652 211 945 
C 211 282 838 -128 1459 -128 
C 2144 -128 2720 366 2720 1022 
C 2720 1607 2330 1877 2074 2051 
L 1741 2289 
z
M 902 2855 
C 851 2887 595 3086 595 3388 
C 595 3781 998 4076 1459 4076 
C 1965 4076 2336 3716 2336 3298 
C 2336 2700 1670 2359 1638 2359 
C 1632 2359 1626 2359 1574 2398 
L 902 2855 
z
M 2080 1536 
C 2176 1466 2483 1253 2483 861 
C 2483 385 2010 25 1472 25 
C 890 25 448 443 448 951 
C 448 1459 838 1884 1280 2083 
L 2080 1536 
z
" transform="scale(0.015625)"/>
       </defs>
       <use xlink:href="#CMR17-30" transform="scale(0.996264)"/>
       <use xlink:href="#CMMI12-3a" transform="translate(45.690477 0) scale(0.996264)"/>
       <use xlink:href="#CMR17-38" transform="translate(72.787654 0) scale(0.996264)"/>
      </g>
     </g>
    </g>
    <g id="ytick_6">
     <g id="line2d_21">
      <path d="M 24.730079 43.37681 
L 355 43.37681 
" clip-path="url(#p831ab5105e)" style="fill: none; stroke: #b0b0b0; stroke-width: 0.8; stroke-linecap: square"/>
     </g>
     <g id="line2d_22">
      <g>
       <use xlink:href="#m6ab4b226be" x="24.730079" y="43.37681" style="stroke: #000000; stroke-width: 0.8"/>
      </g>
     </g>
     <g id="text_11">
      <!-- $\mathdefault{1.0}$ -->
      <g transform="translate(5 46.92597) scale(0.1 -0.1)">
       <use xlink:href="#CMR17-31" transform="scale(0.996264)"/>
       <use xlink:href="#CMMI12-3a" transform="translate(45.690477 0) scale(0.996264)"/>
       <use xlink:href="#CMR17-30" transform="translate(72.787654 0) scale(0.996264)"/>
      </g>
     </g>
    </g>
   </g>
   <g id="line2d_23">
    <path d="M 39.742348 16.416165 
L 41.608807 19.585974 
L 44.153978 22.762876 
L 46.868828 24.735808 
L 49.583677 25.580578 
L 55.692089 26.21367 
L 56.285962 26.491631 
L 56.794996 26.785845 
L 56.879835 26.913812 
L 57.304031 27.249574 
L 57.38887 27.410376 
L 57.728226 27.760964 
L 57.813065 27.951832 
L 57.982743 28.221469 
L 58.152421 28.435496 
L 58.23726 28.659579 
L 58.406938 28.893681 
L 58.491777 29.137917 
L 58.661455 29.391675 
L 58.746294 29.745926 
L 58.915972 30.023107 
L 59.000811 30.407389 
L 59.17049 30.707284 
L 59.255329 31.121395 
L 59.425007 31.443151 
L 59.509846 31.886643 
L 59.594685 32.114524 
L 59.679524 32.463698 
L 59.764363 32.70154 
L 59.849202 33.188617 
L 60.01888 33.56427 
L 60.103719 34.209718 
L 60.188558 34.474535 
L 60.273397 35.014565 
L 60.358236 35.290422 
L 60.443075 35.851986 
L 60.527914 36.138471 
L 60.612753 36.720951 
L 60.697592 37.017642 
L 60.782431 37.620388 
L 60.86727 37.926859 
L 60.95211 38.706476 
L 61.036949 39.024268 
L 61.121788 39.668382 
L 61.206627 39.995045 
L 61.291466 40.824559 
L 61.376305 41.161525 
L 61.461144 42.016153 
L 61.545983 42.362893 
L 61.630822 43.419053 
L 61.715661 43.776773 
L 61.8005 44.681394 
L 61.885339 45.047804 
L 61.970178 46.161204 
L 62.055017 46.537417 
L 62.139856 47.678951 
L 62.224695 48.064376 
L 62.309534 49.232619 
L 62.394373 49.626692 
L 62.479212 50.820257 
L 62.564051 51.22244 
L 62.64889 52.439987 
L 62.733729 52.849767 
L 62.818569 54.298046 
L 62.903408 54.716239 
L 62.988247 55.980198 
L 63.073086 56.404994 
L 63.157925 57.904299 
L 63.242764 58.336466 
L 63.327603 59.86016 
L 63.412442 60.299198 
L 63.497281 61.845738 
L 63.58212 62.291181 
L 63.666959 63.8591 
L 63.751798 64.310513 
L 63.836637 65.670895 
L 63.921476 66.126865 
L 64.006315 67.731829 
L 64.091154 68.193027 
L 64.175993 69.815512 
L 64.260832 70.281586 
L 64.345671 71.920377 
L 64.43051 72.390999 
L 64.515349 74.044935 
L 64.600189 74.519801 
L 64.685028 76.187769 
L 64.769867 76.666594 
L 64.854706 78.347524 
L 64.939545 78.830043 
L 65.024384 80.280786 
L 65.109223 80.765981 
L 65.194062 82.469071 
L 65.278901 82.95751 
L 65.36374 84.425733 
L 65.448579 84.916477 
L 65.533418 86.638286 
L 65.618257 87.131876 
L 65.703096 88.614741 
L 65.787935 89.110308 
L 65.872774 90.599296 
L 65.957613 91.0967 
L 66.042452 92.591226 
L 66.127291 93.090335 
L 66.21213 94.589818 
L 66.296969 95.090502 
L 66.381808 96.594363 
L 66.466648 97.096497 
L 66.551487 98.604152 
L 66.636326 99.107617 
L 66.721165 100.618477 
L 66.806004 101.123154 
L 66.890843 102.384586 
L 66.975682 102.889832 
L 67.060521 104.15317 
L 67.14536 104.658909 
L 67.230199 106.176584 
L 67.315038 106.683228 
L 67.399877 107.949087 
L 67.484716 108.456053 
L 67.569555 109.722691 
L 67.654394 110.229901 
L 67.739233 111.496944 
L 67.824072 112.004319 
L 67.908911 113.01827 
L 67.99375 113.52532 
L 68.078589 114.792585 
L 68.163428 115.299655 
L 68.248267 116.566212 
L 68.333107 117.073217 
L 68.417946 118.086 
L 68.502785 118.592504 
L 68.587624 119.604638 
L 68.672463 120.110588 
L 68.757302 121.374208 
L 68.842141 121.879856 
L 68.92698 122.889474 
L 69.011819 123.394436 
L 69.096658 124.402673 
L 69.181497 124.906889 
L 69.266336 125.913498 
L 69.351175 126.416902 
L 69.436014 127.170892 
L 69.520853 127.673204 
L 69.605692 128.676623 
L 69.690531 129.178006 
L 69.77537 130.179057 
L 69.860209 130.679432 
L 69.945048 131.428759 
L 70.029887 131.927905 
L 70.114726 132.924389 
L 70.284405 133.670737 
L 70.369244 134.91238 
L 70.538922 135.655802 
L 70.623761 136.892082 
L 70.793439 137.632495 
L 70.878278 138.617427 
L 70.963117 139.109054 
L 71.047956 139.845054 
L 71.132795 140.335105 
L 71.217634 141.068651 
L 71.387312 141.800534 
L 71.472151 142.774698 
L 71.55699 143.260579 
L 71.641829 143.987775 
L 71.811507 144.71324 
L 71.896346 145.678227 
L 72.066025 146.399613 
L 72.150864 147.358745 
L 72.320542 148.075957 
L 72.405381 148.791234 
L 72.49022 149.26688 
L 72.575059 149.978395 
L 72.744737 150.688145 
L 72.829576 151.395745 
L 72.999254 152.100705 
L 73.084093 153.037604 
L 73.253771 153.737983 
L 73.33861 154.435387 
L 73.508288 155.130816 
L 73.593127 155.823437 
L 73.762805 156.513842 
L 73.847644 157.201378 
L 74.017323 157.886667 
L 74.102162 158.568794 
L 74.356679 159.474336 
L 74.441518 160.150853 
L 74.611196 160.82387 
L 74.696035 161.494251 
L 74.865713 162.161811 
L 74.950552 162.605118 
L 75.12023 163.267307 
L 75.205069 163.926701 
L 75.459586 164.800859 
L 75.544425 165.453121 
L 75.798943 166.317278 
L 75.883782 166.961904 
L 76.138299 167.815956 
L 76.223138 168.452393 
L 76.477655 169.296195 
L 76.562494 169.715638 
L 76.732172 170.341757 
L 76.817011 170.757206 
L 77.071528 171.582933 
L 77.156367 172.198098 
L 77.495723 173.215471 
L 77.580562 173.619684 
L 77.83508 174.421959 
L 77.919919 175.019623 
L 78.259275 176.007266 
L 78.344114 176.39921 
L 78.598631 177.177483 
L 78.68347 177.56402 
L 79.022826 178.52194 
L 79.107665 178.902468 
L 79.362182 179.657021 
L 79.447022 180.031678 
L 79.786378 180.959723 
L 79.871217 181.327864 
L 80.210573 182.239364 
L 80.295412 182.600696 
L 80.719607 183.67274 
L 80.804446 184.026562 
L 81.228641 185.075108 
L 81.313481 185.42105 
L 81.822515 186.614785 
L 81.907354 186.952056 
L 82.416388 188.114362 
L 82.501227 188.442479 
L 83.0951 189.732626 
L 83.17994 190.050649 
L 83.858652 191.454244 
L 83.943491 191.761121 
L 84.707042 193.262453 
L 84.791881 193.556981 
L 85.725111 195.279736 
L 85.80995 195.560081 
L 86.997697 197.596828 
L 87.082536 197.860346 
L 91.069971 203.814363 
L 94.548372 208.036133 
L 97.008704 210.461903 
L 99.469036 212.580518 
L 101.420334 214.002147 
L 103.54131 215.434588 
L 104.050345 215.700132 
L 106.340999 217.011369 
L 106.934872 217.277706 
L 109.140688 218.284759 
L 111.346503 219.1411 
L 113.637157 219.87989 
L 116.01265 220.488864 
L 118.472983 220.953005 
L 121.018154 221.253678 
L 123.648164 221.367887 
L 126.363014 221.268041 
L 129.162702 220.922957 
L 131.962391 220.323873 
L 134.592401 219.512448 
L 137.816285 218.269463 
L 143.245984 216.138628 
L 145.027604 215.814864 
L 146.385029 215.818622 
L 146.385029 215.826577 
L 147.742453 216.096706 
L 148.760522 216.474035 
L 148.845361 216.546351 
L 150.033108 217.194762 
L 151.220854 218.01444 
L 152.578279 219.109264 
L 155.547646 221.673988 
L 158.517012 224.235535 
L 158.941207 224.516162 
L 160.46831 225.693617 
L 160.892505 225.945508 
L 162.419608 226.92995 
L 163.861872 227.757821 
L 165.219297 228.493204 
L 165.81317 228.756902 
L 167.59479 229.513904 
L 169.715766 230.24544 
L 170.648996 230.519785 
L 172.854811 231.055535 
L 173.872879 231.260785 
L 176.50289 231.661486 
L 184.732277 232.146227 
L 197.118778 232.461218 
L 197.203617 232.478326 
L 200.427501 232.922728 
L 203.481706 233.555388 
L 206.451073 234.336189 
L 210.099152 235.420146 
L 214.934977 236.889959 
L 215.019817 236.93856 
L 221.297906 238.629922 
L 226.218571 239.687976 
L 231.987626 240.686024 
L 237.502164 241.380014 
L 243.525736 241.93674 
L 249.888664 242.294516 
L 255.997076 242.467646 
L 262.953877 242.421397 
L 268.807772 242.181871 
L 277.461354 241.564558 
L 277.546193 241.555773 
L 282.212341 241.460233 
L 286.114937 241.737126 
L 288.999464 242.13503 
L 298.331759 243.436696 
L 302.064677 243.767114 
L 311.906007 244.209697 
L 317.675062 244.338658 
L 335.5761 244.583187 
L 339.987731 244.739474 
L 339.987731 244.739474 
" clip-path="url(#p831ab5105e)" style="fill: none; stroke: #1f77b4; stroke-width: 1.5; stroke-linecap: square"/>
   </g>
   <g id="line2d_24">
    <path d="M 52.637883 256.155639 
L 52.637883 5 
" clip-path="url(#p831ab5105e)" style="fill: none; stroke-dasharray: 3.7,1.6; stroke-dashoffset: 0; stroke: #202020"/>
   </g>
   <g id="line2d_25">
    <path d="M 323.698634 256.155639 
L 323.698634 5 
" clip-path="url(#p831ab5105e)" style="fill: none; stroke-dasharray: 3.7,1.6; stroke-dashoffset: 0; stroke: #202020"/>
   </g>
   <g id="line2d_26">
    <path d="M 24.730079 247.105926 
L 355 247.105926 
" clip-path="url(#p831ab5105e)" style="fill: none; stroke-dasharray: 3.7,1.6; stroke-dashoffset: 0; stroke: #202020"/>
   </g>
   <g id="patch_3">
    <path d="M 24.730079 256.155639 
L 24.730079 5 
" style="fill: none; stroke: #000000; stroke-width: 0.8; stroke-linejoin: miter; stroke-linecap: square"/>
   </g>
   <g id="patch_4">
    <path d="M 355 256.155639 
L 355 5 
" style="fill: none; stroke: #000000; stroke-width: 0.8; stroke-linejoin: miter; stroke-linecap: square"/>
   </g>
   <g id="patch_5">
    <path d="M 24.730079 256.155639 
L 355 256.155639 
" style="fill: none; stroke: #000000; stroke-width: 0.8; stroke-linejoin: miter; stroke-linecap: square"/>
   </g>
   <g id="patch_6">
    <path d="M 24.730079 5 
L 355 5 
" style="fill: none; stroke: #000000; stroke-width: 0.8; stroke-linejoin: miter; stroke-linecap: square"/>
   </g>
   <g id="text_12">
    <g id="patch_7">
     <path d="M 206.378536 292.539564 
L 215.698581 292.539564 
Q 222.298581 292.539564 222.298581 285.939564 
L 222.298581 265.654898 
Q 222.298581 259.054898 215.698581 259.054898 
L 206.378536 259.054898 
Q 199.778536 259.054898 199.778536 265.654898 
L 199.778536 285.939564 
Q 199.778536 292.539564 206.378536 292.539564 
z
" style="fill: #ffffff"/>
    </g>
    <!-- $\tau$ -->
    <g transform="translate(206.378536 281.271203) scale(0.22 -0.22)">
     <defs>
      <path id="CMMI12-1c" d="M 1837 2406 
L 2899 2406 
C 2982 2406 3194 2406 3194 2611 
C 3194 2752 3072 2752 2957 2752 
L 1197 2752 
C 1050 2752 832 2752 538 2438 
C 371 2253 166 1916 166 1878 
C 166 1839 198 1827 237 1827 
C 282 1827 288 1846 320 1884 
C 653 2406 986 2406 1146 2406 
L 1677 2406 
L 1011 223 
C 979 127 979 114 979 95 
C 979 25 1024 -64 1152 -64 
C 1350 -64 1382 108 1402 204 
L 1837 2406 
z
" transform="scale(0.015625)"/>
     </defs>
     <use xlink:href="#CMMI12-1c" transform="scale(0.996264)"/>
    </g>
   </g>
   <g id="text_13">
    <g id="patch_8">
     <path d="M 4.913884 111.707504 
L 14.287212 111.707504 
Q 20.887212 111.707504 20.887212 105.107504 
L 20.887212 84.822838 
Q 20.887212 78.222838 14.287212 78.222838 
L 4.913884 78.222838 
Q -1.686116 78.222838 -1.686116 84.822838 
L -1.686116 105.107504 
Q -1.686116 111.707504 4.913884 111.707504 
z
" style="fill: #ffffff"/>
    </g>
    <!-- $\xi$ -->
    <g transform="translate(4.913884 100.439143) scale(0.22 -0.22)">
     <defs>
      <path id="CMMI12-18" d="M 1670 0 
L 998 271 
C 832 335 448 490 448 876 
C 448 1430 1120 1990 1254 1990 
C 1267 1990 1325 1977 1344 1971 
C 1517 1919 1683 1919 1798 1919 
C 1997 1919 2374 1919 2374 2089 
C 2374 2220 2144 2240 1869 2240 
C 1741 2240 1568 2240 1338 2163 
C 1184 2291 1120 2497 1120 2690 
C 1120 3043 1350 3545 1856 3780 
C 1971 3648 2125 3648 2259 3648 
C 2419 3648 2810 3648 2810 3817 
C 2810 3968 2502 3968 2298 3968 
C 2170 3968 2074 3968 1894 3936 
C 1862 4016 1856 4029 1856 4180 
C 1856 4303 1882 4396 1882 4415 
C 1882 4454 1850 4480 1818 4480 
C 1715 4480 1715 4235 1715 4180 
C 1715 4084 1722 3988 1760 3904 
C 992 3705 653 3159 653 2741 
C 653 2355 909 2144 1082 2066 
C 422 1713 141 1057 141 709 
C 141 148 646 -51 877 -148 
L 1453 -380 
C 1613 -438 1875 -547 1920 -573 
C 1984 -618 2035 -695 2035 -798 
C 2035 -934 1933 -1152 1709 -1152 
C 1613 -1152 1402 -1127 1171 -953 
C 1126 -914 1120 -908 1094 -908 
C 1062 -908 1030 -934 1030 -972 
C 1030 -1043 1363 -1280 1709 -1280 
C 2118 -1280 2368 -882 2368 -605 
C 2368 -405 2259 -244 2054 -154 
L 1670 0 
z
M 1997 3817 
C 2106 3840 2221 3840 2304 3840 
C 2515 3840 2534 3835 2662 3812 
C 2586 3789 2534 3776 2266 3776 
C 2144 3776 2067 3776 1997 3817 
z
M 1491 2084 
C 1645 2112 1786 2112 1862 2112 
C 2074 2112 2086 2107 2227 2084 
C 2157 2061 2099 2048 1824 2048 
C 1670 2048 1606 2048 1491 2084 
z
" transform="scale(0.015625)"/>
     </defs>
     <use xlink:href="#CMMI12-18" transform="scale(0.996264)"/>
    </g>
   </g>
  </g>
 </g>
 <defs>
  <clipPath id="p831ab5105e">
   <rect x="24.730079" y="5" width="330.269921" height="251.155639"/>
  </clipPath>
 </defs>
</svg>
